G04*
G04 #@! TF.GenerationSoftware,Altium Limited,Altium Designer,23.7.1 (13)*
G04*
G04 Layer_Physical_Order=2*
G04 Layer_Color=16711680*
%FSLAX44Y44*%
%MOMM*%
G71*
G04*
G04 #@! TF.SameCoordinates,3071C145-2305-4F11-89AA-D09C7C2D5F18*
G04*
G04*
G04 #@! TF.FilePolarity,Positive*
G04*
G01*
G75*
%ADD11C,0.1270*%
%ADD17C,0.5080*%
%ADD137C,0.2540*%
%ADD138C,1.0160*%
%ADD139C,0.1500*%
%ADD140R,1.2000X1.2000*%
%ADD141C,1.2000*%
%ADD142C,2.2500*%
%ADD143R,2.4750X2.4750*%
%ADD144C,2.4750*%
%ADD145R,1.5080X1.5080*%
%ADD146C,1.5080*%
%ADD147O,2.0000X0.9000*%
%ADD148O,1.7000X0.9000*%
%ADD149C,2.0000*%
%ADD150C,6.0000*%
%ADD151R,2.4750X2.4750*%
%ADD152R,1.2000X1.2000*%
%ADD153C,0.6000*%
%ADD154C,1.0000*%
%ADD155C,0.5000*%
G36*
X1322864Y1267021D02*
X1324944Y1266159D01*
X1326816Y1264908D01*
X1328408Y1263316D01*
X1329659Y1261444D01*
X1330521Y1259364D01*
X1330960Y1257156D01*
Y1256030D01*
Y267462D01*
Y266386D01*
X1330540Y264276D01*
X1329717Y262288D01*
X1328522Y260500D01*
X1327000Y258978D01*
X1325211Y257783D01*
X1323224Y256960D01*
X1321114Y256540D01*
X272569D01*
X269134Y257223D01*
X265898Y258564D01*
X262986Y260509D01*
X260509Y262986D01*
X258564Y265898D01*
X257223Y269134D01*
X256540Y272569D01*
Y274320D01*
Y1257554D01*
Y1258530D01*
X256921Y1260443D01*
X257667Y1262246D01*
X258752Y1263869D01*
X260131Y1265248D01*
X261754Y1266333D01*
X263556Y1267079D01*
X265470Y1267460D01*
X1320656D01*
X1322864Y1267021D01*
D02*
G37*
%LPC*%
G36*
X1002370Y1263856D02*
X1000166D01*
X998130Y1263013D01*
X996671Y1261553D01*
X748766D01*
X747527Y1261307D01*
X746477Y1260605D01*
X716152Y1230280D01*
X710975D01*
X689945Y1251311D01*
X688264Y1252433D01*
X686282Y1252828D01*
X447294D01*
X445312Y1252433D01*
X443632Y1251311D01*
X359304Y1166982D01*
X358181Y1165302D01*
X357786Y1163320D01*
Y961976D01*
X356516Y961450D01*
X356198Y961769D01*
X354162Y962612D01*
X351958D01*
X349922Y961769D01*
X348363Y960210D01*
X347520Y958174D01*
Y955970D01*
X348363Y953934D01*
X348676Y953622D01*
X342172Y947118D01*
X340274D01*
X338238Y946275D01*
X336679Y944716D01*
X335836Y942680D01*
Y940476D01*
X336679Y938440D01*
X338238Y936881D01*
X340274Y936038D01*
X342478D01*
X344514Y936881D01*
X346073Y938440D01*
X346916Y940476D01*
Y942374D01*
X354571Y950029D01*
X355298Y951117D01*
X355487Y952064D01*
X355598Y952127D01*
X356198Y952375D01*
X356399Y952577D01*
X356569Y952672D01*
X357786Y952168D01*
Y871917D01*
X348260D01*
X346800Y873377D01*
X344764Y874220D01*
X342560D01*
X340524Y873377D01*
X338965Y871818D01*
X338122Y869782D01*
Y867578D01*
X338965Y865542D01*
X340524Y863983D01*
X342560Y863140D01*
X344764D01*
X346800Y863983D01*
X348260Y865443D01*
X357786D01*
Y797235D01*
X305305D01*
X305303Y797241D01*
X303976Y799539D01*
X302099Y801416D01*
X299801Y802743D01*
X297237Y803430D01*
X294583D01*
X292019Y802743D01*
X289721Y801416D01*
X287844Y799539D01*
X286517Y797241D01*
X285830Y794677D01*
Y792023D01*
X286517Y789459D01*
X287844Y787161D01*
X289721Y785284D01*
X292019Y783957D01*
X294583Y783270D01*
X297237D01*
X299801Y783957D01*
X302099Y785284D01*
X303976Y787161D01*
X305303Y789459D01*
X305305Y789465D01*
X357786D01*
Y459861D01*
X318371Y420446D01*
X318243Y420520D01*
X314736Y421460D01*
X311105D01*
X307597Y420520D01*
X304453Y418705D01*
X301885Y416137D01*
X300070Y412993D01*
X299130Y409486D01*
Y405854D01*
X300070Y402347D01*
X301885Y399203D01*
X304453Y396635D01*
X307597Y394820D01*
X311105Y393880D01*
X314736D01*
X318243Y394820D01*
X321387Y396635D01*
X323955Y399203D01*
X325770Y402347D01*
X325809Y402491D01*
X883666D01*
X883666Y402491D01*
X883666Y402491D01*
X992692D01*
X993562Y402130D01*
X995766D01*
X997802Y402973D01*
X999361Y404532D01*
X1000204Y406568D01*
Y408772D01*
X999361Y410808D01*
X997802Y412367D01*
X995766Y413210D01*
X993562D01*
X992692Y412850D01*
X888767D01*
Y416283D01*
X888952Y416728D01*
Y418932D01*
X888109Y420968D01*
X886550Y422527D01*
X884514Y423370D01*
X882310D01*
X880274Y422527D01*
X878715Y420968D01*
X877872Y418932D01*
Y416728D01*
X878409Y415433D01*
Y412850D01*
X769974D01*
Y484959D01*
X771030Y485664D01*
X771566Y485442D01*
X773770D01*
X775806Y486285D01*
X777365Y487844D01*
X778208Y489880D01*
Y492084D01*
X777365Y494120D01*
X775806Y495679D01*
X773770Y496522D01*
X771566D01*
X771030Y496300D01*
X769974Y497005D01*
Y525667D01*
X779254Y534947D01*
X780124Y535307D01*
X781683Y536866D01*
X782526Y538902D01*
Y541106D01*
X781683Y543142D01*
X780124Y544701D01*
X778088Y545544D01*
X775884D01*
X773848Y544701D01*
X772289Y543142D01*
X771929Y542272D01*
X761132Y531474D01*
X760009Y529794D01*
X759614Y527812D01*
Y490982D01*
Y412850D01*
X522323D01*
Y453450D01*
X522684Y454320D01*
Y456524D01*
X522576Y456784D01*
X551691Y485899D01*
X552393Y486949D01*
X552639Y488188D01*
Y517118D01*
X554099Y518578D01*
X554942Y520614D01*
Y522818D01*
X554099Y524854D01*
X552540Y526413D01*
X550504Y527256D01*
X548300D01*
X546264Y526413D01*
X544705Y524854D01*
X543862Y522818D01*
Y520614D01*
X544705Y518578D01*
X546165Y517118D01*
Y489529D01*
X517598Y460962D01*
X516042D01*
X514006Y460119D01*
X512447Y458560D01*
X511604Y456524D01*
Y454320D01*
X511964Y453450D01*
Y412850D01*
X327220D01*
X326694Y414119D01*
X366628Y454053D01*
X367751Y455734D01*
X368145Y457716D01*
Y792988D01*
Y868934D01*
Y1161175D01*
X449439Y1242468D01*
X684137D01*
X703650Y1222955D01*
Y1213801D01*
X685356D01*
X684117Y1213555D01*
X683067Y1212853D01*
X470147Y999933D01*
X451637D01*
X450178Y1001393D01*
X448142Y1002236D01*
X445938D01*
X443902Y1001393D01*
X442343Y999834D01*
X441500Y997798D01*
Y995594D01*
X442343Y993558D01*
X443902Y991999D01*
X445938Y991156D01*
X445874Y989913D01*
X439306D01*
X438494Y990725D01*
X436458Y991568D01*
X434254D01*
X432218Y990725D01*
X430659Y989166D01*
X429816Y987130D01*
Y984926D01*
X430659Y982890D01*
X432218Y981331D01*
X434254Y980488D01*
X436458D01*
X438494Y981331D01*
X439306Y982143D01*
X467106D01*
X467108Y982144D01*
X467734Y980973D01*
X464227Y977467D01*
X439306D01*
X438494Y978279D01*
X436458Y979122D01*
X434254D01*
X432218Y978279D01*
X430659Y976720D01*
X429816Y974684D01*
Y972480D01*
X430659Y970444D01*
X432218Y968885D01*
X434254Y968042D01*
X436458D01*
X438494Y968885D01*
X439306Y969697D01*
X465836D01*
X467323Y969993D01*
X468583Y970835D01*
X495283Y997535D01*
X496454Y996910D01*
X496316Y996220D01*
Y972827D01*
X490420Y966930D01*
X488356D01*
X486320Y966087D01*
X484761Y964528D01*
X483918Y962492D01*
Y960288D01*
X484761Y958252D01*
X486320Y956693D01*
X488356Y955850D01*
X490560D01*
X492596Y956693D01*
X494155Y958252D01*
X494998Y960288D01*
Y962352D01*
X501843Y969197D01*
X502545Y970247D01*
X502791Y971486D01*
Y994880D01*
X686282Y1178371D01*
X872419D01*
X894145Y1156645D01*
Y1119149D01*
X892685Y1117690D01*
X891842Y1115654D01*
Y1113450D01*
X892685Y1111414D01*
X894244Y1109855D01*
X896280Y1109012D01*
X898484D01*
X900520Y1109855D01*
X902079Y1111414D01*
X902922Y1113450D01*
Y1115654D01*
X902079Y1117690D01*
X900619Y1119149D01*
Y1157986D01*
X900373Y1159225D01*
X899671Y1160275D01*
X876049Y1183897D01*
X874999Y1184599D01*
X873760Y1184845D01*
X684941D01*
X684252Y1184708D01*
X683626Y1185879D01*
X691473Y1193725D01*
X817788D01*
X818044Y1193469D01*
X820080Y1192626D01*
X822284D01*
X824320Y1193469D01*
X825879Y1195028D01*
X826722Y1197064D01*
Y1199268D01*
X826404Y1200035D01*
X827110Y1201091D01*
X842094D01*
X843581Y1201387D01*
X844462Y1201976D01*
X846414D01*
X848450Y1202819D01*
X850009Y1204378D01*
X850852Y1206414D01*
Y1208618D01*
X850009Y1210654D01*
X848450Y1212213D01*
X846414Y1213056D01*
X844210D01*
X842174Y1212213D01*
X840615Y1210654D01*
X839873Y1208861D01*
X807444D01*
X806958Y1210034D01*
X817934Y1221010D01*
X819998D01*
X822034Y1221853D01*
X823593Y1223412D01*
X824436Y1225448D01*
Y1227512D01*
X838366Y1241442D01*
X899969D01*
X900818Y1240172D01*
X900478Y1239352D01*
Y1237148D01*
X901321Y1235112D01*
X902880Y1233553D01*
X904916Y1232710D01*
X906064D01*
X915849Y1222925D01*
Y1069425D01*
X876215Y1029791D01*
X872234D01*
X871708Y1031061D01*
X912829Y1072181D01*
X913671Y1073441D01*
X913967Y1074928D01*
Y1208532D01*
X913671Y1210019D01*
X912829Y1211279D01*
X896318Y1227790D01*
Y1228938D01*
X895475Y1230974D01*
X893916Y1232533D01*
X891880Y1233376D01*
X889676D01*
X887640Y1232533D01*
X886081Y1230974D01*
X885238Y1228938D01*
Y1226734D01*
X886081Y1224698D01*
X887640Y1223139D01*
X889676Y1222296D01*
X890824D01*
X906197Y1206923D01*
Y1076537D01*
X866817Y1037157D01*
X854454D01*
X853928Y1038427D01*
X860251Y1044749D01*
X861093Y1046009D01*
X861389Y1047496D01*
Y1097394D01*
X862201Y1098206D01*
X863044Y1100242D01*
Y1102446D01*
X862201Y1104482D01*
X860642Y1106041D01*
X858606Y1106884D01*
X856402D01*
X854366Y1106041D01*
X852807Y1104482D01*
X851964Y1102446D01*
Y1100242D01*
X852807Y1098206D01*
X853619Y1097394D01*
Y1049105D01*
X848783Y1044269D01*
X598424D01*
X596937Y1043973D01*
X595677Y1043131D01*
X415205Y862659D01*
X411874D01*
X411062Y863471D01*
X409026Y864314D01*
X406822D01*
X404786Y863471D01*
X403227Y861912D01*
X402384Y859876D01*
Y857672D01*
X403227Y855636D01*
X404786Y854077D01*
X406822Y853234D01*
X409026D01*
X411062Y854077D01*
X411874Y854889D01*
X416814D01*
X418301Y855185D01*
X419561Y856027D01*
X599361Y1035827D01*
X599715Y1035757D01*
X600133Y1034379D01*
X412157Y846403D01*
X393332D01*
X392520Y847215D01*
X390484Y848058D01*
X388280D01*
X386244Y847215D01*
X384685Y845656D01*
X383842Y843620D01*
Y841416D01*
X384685Y839380D01*
X386244Y837821D01*
X388280Y836978D01*
X390484D01*
X392520Y837821D01*
X393332Y838633D01*
X413766D01*
X415253Y838929D01*
X416513Y839771D01*
X606129Y1029387D01*
X607570D01*
X608096Y1028117D01*
X401743Y821765D01*
X391808D01*
X390996Y822577D01*
X388960Y823420D01*
X386756D01*
X384720Y822577D01*
X383161Y821018D01*
X382318Y818982D01*
Y816778D01*
X383161Y814742D01*
X384720Y813183D01*
X386756Y812340D01*
X388960D01*
X390996Y813183D01*
X391808Y813995D01*
X403352D01*
X404839Y814291D01*
X406099Y815133D01*
X612987Y1022021D01*
X714703D01*
X715229Y1020751D01*
X714631Y1020154D01*
X713788Y1018118D01*
Y1016970D01*
X699563Y1002745D01*
X698721Y1001485D01*
X698425Y999998D01*
Y965086D01*
X697613Y964274D01*
X696770Y962238D01*
Y960034D01*
X697613Y957998D01*
X699172Y956439D01*
X701208Y955596D01*
X703412D01*
X705448Y956439D01*
X707007Y957998D01*
X707850Y960034D01*
Y962238D01*
X707007Y964274D01*
X706195Y965086D01*
Y998389D01*
X719282Y1011476D01*
X720430D01*
X722466Y1012319D01*
X724025Y1013878D01*
X724868Y1015914D01*
Y1018118D01*
X724025Y1020154D01*
X723427Y1020751D01*
X723953Y1022021D01*
X731563D01*
X731816Y1020751D01*
X731684Y1020697D01*
X730125Y1019138D01*
X729282Y1017102D01*
Y1015954D01*
X714041Y1000713D01*
X713199Y999453D01*
X712903Y997966D01*
Y964832D01*
X712091Y964020D01*
X711248Y961984D01*
Y959780D01*
X712091Y957744D01*
X713650Y956185D01*
X715686Y955342D01*
X717890D01*
X719926Y956185D01*
X721485Y957744D01*
X721995Y958977D01*
X723370D01*
X723775Y957998D01*
X725334Y956439D01*
X727370Y955596D01*
X729574D01*
X731610Y956439D01*
X733169Y957998D01*
X734012Y960034D01*
Y962238D01*
X733169Y964274D01*
X732357Y965086D01*
Y991277D01*
X751540Y1010460D01*
X752688D01*
X754724Y1011303D01*
X756283Y1012862D01*
X757126Y1014898D01*
Y1017102D01*
X756283Y1019138D01*
X754724Y1020697D01*
X754592Y1020751D01*
X754845Y1022021D01*
X767588D01*
X767840Y1020751D01*
X766482Y1020189D01*
X764923Y1018630D01*
X764080Y1016594D01*
Y1015446D01*
X739695Y991061D01*
X738853Y989801D01*
X738557Y988314D01*
Y924306D01*
X738853Y922819D01*
X739695Y921559D01*
X767005Y894249D01*
Y782659D01*
X752394Y768048D01*
X751246D01*
X749210Y767205D01*
X747651Y765646D01*
X746808Y763610D01*
Y761406D01*
X747651Y759370D01*
X749210Y757811D01*
X751246Y756968D01*
X753450D01*
X755486Y757811D01*
X757045Y759370D01*
X757888Y761406D01*
Y762554D01*
X773637Y778303D01*
X774479Y779563D01*
X774775Y781050D01*
Y895858D01*
X774479Y897345D01*
X773637Y898605D01*
X746327Y925915D01*
Y986705D01*
X769574Y1009952D01*
X770722D01*
X772758Y1010795D01*
X774317Y1012354D01*
X775160Y1014390D01*
Y1016594D01*
X774317Y1018630D01*
X772758Y1020189D01*
X771400Y1020751D01*
X771652Y1022021D01*
X877824D01*
X879311Y1022317D01*
X880571Y1023159D01*
X922481Y1065069D01*
X923323Y1066329D01*
X923619Y1067816D01*
Y1224534D01*
X923323Y1226021D01*
X922481Y1227281D01*
X911558Y1238204D01*
Y1239352D01*
X911218Y1240172D01*
X912067Y1241442D01*
X977750D01*
X997760Y1221432D01*
Y1219368D01*
X998603Y1217332D01*
X1000162Y1215773D01*
X1002198Y1214930D01*
X1004402D01*
X1006438Y1215773D01*
X1007997Y1217332D01*
X1008840Y1219368D01*
Y1221572D01*
X1007997Y1223608D01*
X1006438Y1225167D01*
X1004402Y1226010D01*
X1002338D01*
X981380Y1246968D01*
X980330Y1247670D01*
X979091Y1247916D01*
X837025D01*
X835786Y1247670D01*
X834736Y1246968D01*
X819858Y1232090D01*
X817794D01*
X815758Y1231247D01*
X814199Y1229688D01*
X813356Y1227652D01*
Y1225588D01*
X801569Y1213801D01*
X720730D01*
Y1225702D01*
X750107Y1255079D01*
X996671D01*
X998130Y1253619D01*
X1000166Y1252776D01*
X1002370D01*
X1004406Y1253619D01*
X1005965Y1255178D01*
X1006808Y1257214D01*
Y1259418D01*
X1005965Y1261454D01*
X1004406Y1263013D01*
X1002370Y1263856D01*
D02*
G37*
G36*
X566760Y1232614D02*
X564556D01*
X562520Y1231771D01*
X560961Y1230212D01*
X560118Y1228176D01*
Y1225972D01*
X560961Y1223936D01*
X562520Y1222377D01*
X564556Y1221534D01*
X566760D01*
X568796Y1222377D01*
X570355Y1223936D01*
X571198Y1225972D01*
Y1228176D01*
X570355Y1230212D01*
X568796Y1231771D01*
X566760Y1232614D01*
D02*
G37*
G36*
X1161374Y1230074D02*
X1159170D01*
X1157134Y1229231D01*
X1155675Y1227771D01*
X1022350D01*
X1021111Y1227525D01*
X1020061Y1226823D01*
X996693Y1203455D01*
X995991Y1202405D01*
X995745Y1201166D01*
Y1118043D01*
X940333D01*
X938874Y1119503D01*
X936838Y1120346D01*
X934634D01*
X932598Y1119503D01*
X931039Y1117944D01*
X930196Y1115908D01*
Y1113704D01*
X931039Y1111668D01*
X932598Y1110109D01*
X934634Y1109266D01*
X936838D01*
X938874Y1110109D01*
X940333Y1111569D01*
X995745D01*
Y1081812D01*
X994285Y1080352D01*
X993442Y1078316D01*
Y1076112D01*
X994285Y1074076D01*
X995844Y1072517D01*
X997880Y1071674D01*
X1000084D01*
X1002120Y1072517D01*
X1003679Y1074076D01*
X1004522Y1076112D01*
Y1078316D01*
X1003679Y1080352D01*
X1002219Y1081812D01*
Y1114806D01*
Y1199825D01*
X1023691Y1221297D01*
X1155675D01*
X1157134Y1219837D01*
X1159170Y1218994D01*
X1161374D01*
X1163410Y1219837D01*
X1164969Y1221396D01*
X1165812Y1223432D01*
Y1225636D01*
X1164969Y1227672D01*
X1163410Y1229231D01*
X1161374Y1230074D01*
D02*
G37*
G36*
X1291611Y1258090D02*
X1286489D01*
X1281430Y1257289D01*
X1276559Y1255706D01*
X1271995Y1253381D01*
X1267852Y1250370D01*
X1264230Y1246748D01*
X1261219Y1242605D01*
X1258894Y1238041D01*
X1257311Y1233170D01*
X1256510Y1228111D01*
Y1222989D01*
X1257311Y1217930D01*
X1258894Y1213059D01*
X1261219Y1208495D01*
X1264230Y1204352D01*
X1267852Y1200730D01*
X1271995Y1197719D01*
X1276559Y1195394D01*
X1281430Y1193811D01*
X1286489Y1193010D01*
X1291611D01*
X1296670Y1193811D01*
X1301541Y1195394D01*
X1306105Y1197719D01*
X1310248Y1200730D01*
X1313870Y1204352D01*
X1316881Y1208495D01*
X1319206Y1213059D01*
X1320789Y1217930D01*
X1321590Y1222989D01*
Y1228111D01*
X1320789Y1233170D01*
X1319206Y1238041D01*
X1316881Y1242605D01*
X1313870Y1246748D01*
X1310248Y1250370D01*
X1306105Y1253381D01*
X1301541Y1255706D01*
X1296670Y1257289D01*
X1291611Y1258090D01*
D02*
G37*
G36*
X301011D02*
X295889D01*
X290830Y1257289D01*
X285959Y1255706D01*
X281395Y1253381D01*
X277252Y1250370D01*
X273630Y1246748D01*
X270619Y1242605D01*
X268294Y1238041D01*
X266711Y1233170D01*
X265910Y1228111D01*
Y1222989D01*
X266711Y1217930D01*
X268294Y1213059D01*
X270619Y1208495D01*
X273630Y1204352D01*
X277252Y1200730D01*
X281395Y1197719D01*
X285959Y1195394D01*
X290830Y1193811D01*
X295889Y1193010D01*
X301011D01*
X306070Y1193811D01*
X310941Y1195394D01*
X315505Y1197719D01*
X319648Y1200730D01*
X323270Y1204352D01*
X326281Y1208495D01*
X328606Y1213059D01*
X330189Y1217930D01*
X330990Y1222989D01*
Y1228111D01*
X330189Y1233170D01*
X328606Y1238041D01*
X326281Y1242605D01*
X323270Y1246748D01*
X319648Y1250370D01*
X315505Y1253381D01*
X310941Y1255706D01*
X306070Y1257289D01*
X301011Y1258090D01*
D02*
G37*
G36*
X507650Y1179010D02*
X490570D01*
Y1161930D01*
X507650D01*
Y1179010D01*
D02*
G37*
G36*
X699856Y1121108D02*
X697652D01*
X695616Y1120265D01*
X694057Y1118706D01*
X693941Y1118424D01*
X664616D01*
X663538Y1119503D01*
X661502Y1120346D01*
X659298D01*
X657262Y1119503D01*
X655703Y1117944D01*
X654860Y1115908D01*
Y1113704D01*
X655703Y1111668D01*
X657262Y1110109D01*
X659298Y1109266D01*
X661502D01*
X663538Y1110109D01*
X665097Y1111668D01*
X665213Y1111950D01*
X694538D01*
X695616Y1110871D01*
X697652Y1110028D01*
X699856D01*
X701892Y1110871D01*
X703451Y1112430D01*
X704294Y1114466D01*
Y1116670D01*
X703451Y1118706D01*
X701892Y1120265D01*
X699856Y1121108D01*
D02*
G37*
G36*
X318445Y1143945D02*
X288615D01*
Y1114115D01*
X318445D01*
Y1143945D01*
D02*
G37*
G36*
X827364Y1129998D02*
X825160D01*
X823124Y1129155D01*
X821565Y1127596D01*
X820722Y1125560D01*
Y1123356D01*
X821565Y1121320D01*
X823124Y1119761D01*
X825160Y1118918D01*
X826308D01*
X828219Y1117007D01*
Y1059320D01*
X827407Y1058508D01*
X826564Y1056472D01*
Y1054268D01*
X827407Y1052232D01*
X828966Y1050673D01*
X831002Y1049830D01*
X833206D01*
X835242Y1050673D01*
X836801Y1052232D01*
X837644Y1054268D01*
Y1056472D01*
X836801Y1058508D01*
X835989Y1059320D01*
Y1118616D01*
X835693Y1120103D01*
X834851Y1121363D01*
X831802Y1124412D01*
Y1125560D01*
X830959Y1127596D01*
X829400Y1129155D01*
X827364Y1129998D01*
D02*
G37*
G36*
X313492Y985670D02*
X311288D01*
X309252Y984827D01*
X307693Y983268D01*
X306850Y981232D01*
Y979028D01*
X307693Y976992D01*
X309252Y975433D01*
X311288Y974590D01*
X313492D01*
X315528Y975433D01*
X317087Y976992D01*
X317930Y979028D01*
Y981232D01*
X317087Y983268D01*
X315528Y984827D01*
X313492Y985670D01*
D02*
G37*
G36*
Y927870D02*
X311288D01*
X309252Y927027D01*
X307693Y925468D01*
X306850Y923432D01*
Y921228D01*
X307693Y919192D01*
X309252Y917633D01*
X311288Y916790D01*
X313492D01*
X315528Y917633D01*
X317087Y919192D01*
X317930Y921228D01*
Y923432D01*
X317087Y925468D01*
X315528Y927027D01*
X313492Y927870D01*
D02*
G37*
G36*
X774532Y961088D02*
X772328D01*
X770292Y960245D01*
X768733Y958686D01*
X767890Y956650D01*
Y954446D01*
X768733Y952410D01*
X770292Y950851D01*
X772328Y950008D01*
X774532D01*
X776568Y950851D01*
X778027Y952311D01*
X801553D01*
X852675Y901189D01*
X853725Y900487D01*
X854964Y900241D01*
X925805D01*
X927264Y898781D01*
X929300Y897938D01*
X931504D01*
X933540Y898781D01*
X935099Y900340D01*
X935942Y902376D01*
Y904580D01*
X935099Y906616D01*
X933540Y908175D01*
X931504Y909018D01*
X929300D01*
X927264Y908175D01*
X925805Y906715D01*
X856305D01*
X805183Y957837D01*
X804133Y958539D01*
X802894Y958785D01*
X778027D01*
X776568Y960245D01*
X774532Y961088D01*
D02*
G37*
G36*
X674964Y1017730D02*
X672760D01*
X670724Y1016887D01*
X669165Y1015328D01*
X668322Y1013292D01*
Y1011088D01*
X669165Y1009052D01*
X669977Y1008240D01*
Y941832D01*
X670273Y940345D01*
X671115Y939085D01*
X727276Y882924D01*
X728536Y882082D01*
X730023Y881787D01*
X748411D01*
X749223Y880975D01*
X751260Y880131D01*
X753464D01*
X755500Y880975D01*
X757058Y882533D01*
X757902Y884569D01*
Y886773D01*
X757058Y888810D01*
X755500Y890368D01*
X753464Y891211D01*
X751260D01*
X749223Y890368D01*
X748411Y889556D01*
X731632D01*
X677747Y943441D01*
Y1008240D01*
X678559Y1009052D01*
X679091Y1010337D01*
X680466D01*
X681103Y1008798D01*
X681915Y1007986D01*
Y945642D01*
X682211Y944155D01*
X683053Y942895D01*
X732329Y893619D01*
X733589Y892777D01*
X735076Y892481D01*
X736714D01*
X737526Y891669D01*
X739562Y890826D01*
X741766D01*
X743802Y891669D01*
X745361Y893228D01*
X746204Y895264D01*
Y897468D01*
X745361Y899504D01*
X743802Y901063D01*
X741766Y901906D01*
X739562D01*
X737526Y901063D01*
X736714Y900251D01*
X736685D01*
X689685Y947251D01*
Y1007986D01*
X690497Y1008798D01*
X691340Y1010834D01*
Y1013038D01*
X690497Y1015074D01*
X688938Y1016633D01*
X686902Y1017476D01*
X684698D01*
X682662Y1016633D01*
X681103Y1015074D01*
X680571Y1013789D01*
X679196D01*
X678559Y1015328D01*
X677000Y1016887D01*
X674964Y1017730D01*
D02*
G37*
G36*
X654136Y1020524D02*
X651932D01*
X649896Y1019681D01*
X648337Y1018122D01*
X647494Y1016086D01*
Y1013882D01*
X647855Y1013012D01*
Y860919D01*
X636919Y849984D01*
X610004D01*
X609150Y850837D01*
X607430Y851830D01*
X605513Y852344D01*
X603527D01*
X601610Y851830D01*
X599890Y850837D01*
X598487Y849434D01*
X597494Y847714D01*
X596980Y845797D01*
Y843811D01*
X597494Y841894D01*
X598487Y840174D01*
X599890Y838771D01*
X601610Y837778D01*
X603527Y837264D01*
X605513D01*
X607430Y837778D01*
X609150Y838771D01*
X610004Y839624D01*
X639064D01*
X641046Y840019D01*
X642727Y841142D01*
X656696Y855111D01*
X656696Y855111D01*
X657819Y856792D01*
X658214Y858774D01*
Y1013012D01*
X658574Y1013882D01*
Y1016086D01*
X657731Y1018122D01*
X656172Y1019681D01*
X654136Y1020524D01*
D02*
G37*
G36*
X602828Y1002744D02*
X600624D01*
X598588Y1001901D01*
X597029Y1000342D01*
X596186Y998306D01*
Y996102D01*
X597029Y994066D01*
X598489Y992607D01*
Y986312D01*
X550415Y938238D01*
X549713Y937188D01*
X549467Y935949D01*
Y853465D01*
X548007Y852006D01*
X547164Y849970D01*
Y847766D01*
X548007Y845730D01*
X549566Y844171D01*
X551602Y843328D01*
X553806D01*
X555842Y844171D01*
X557401Y845730D01*
X558244Y847766D01*
Y849970D01*
X557401Y852006D01*
X555941Y853465D01*
Y934609D01*
X604015Y982682D01*
X604717Y983733D01*
X604963Y984971D01*
Y992607D01*
X606423Y994066D01*
X607266Y996102D01*
Y998306D01*
X606423Y1000342D01*
X604864Y1001901D01*
X602828Y1002744D01*
D02*
G37*
G36*
X1171630Y889690D02*
X1150186D01*
X1149195Y889493D01*
X1148355Y888931D01*
X1147794Y888091D01*
X1147597Y887100D01*
Y837630D01*
X1147794Y836639D01*
X1148355Y835799D01*
X1149195Y835238D01*
X1150186Y835040D01*
X1171630D01*
X1172621Y835238D01*
X1173461Y835799D01*
X1174023Y836639D01*
X1174220Y837630D01*
Y887100D01*
X1174023Y888091D01*
X1173461Y888931D01*
X1172621Y889493D01*
X1171630Y889690D01*
D02*
G37*
G36*
X305990Y853430D02*
X285830D01*
Y833270D01*
X305990D01*
Y853430D01*
D02*
G37*
G36*
X297237Y828430D02*
X294583D01*
X292019Y827743D01*
X289721Y826416D01*
X287844Y824539D01*
X286517Y822241D01*
X285830Y819677D01*
Y817023D01*
X286517Y814459D01*
X287844Y812161D01*
X289721Y810284D01*
X292019Y808957D01*
X294583Y808270D01*
X297237D01*
X299801Y808957D01*
X302099Y810284D01*
X303976Y812161D01*
X305303Y814459D01*
X305990Y817023D01*
Y819677D01*
X305303Y822241D01*
X303976Y824539D01*
X302099Y826416D01*
X299801Y827743D01*
X297237Y828430D01*
D02*
G37*
G36*
X918083Y1014062D02*
X914781D01*
X911592Y1013207D01*
X908732Y1011556D01*
X906397Y1009222D01*
X904747Y1006362D01*
X903892Y1003173D01*
Y999871D01*
X904747Y996682D01*
X906397Y993822D01*
X908732Y991488D01*
X911592Y989837D01*
X914781Y988982D01*
X918083D01*
X918099Y988986D01*
X938149Y968935D01*
X938149Y968935D01*
X939741Y967714D01*
X941595Y966946D01*
X943584Y966684D01*
X1176370D01*
Y965830D01*
X1193450D01*
Y966684D01*
X1274090D01*
X1275121Y966820D01*
X1283620D01*
Y967674D01*
X1287136D01*
X1300414Y954397D01*
Y823174D01*
X1291901Y814660D01*
X1291363D01*
X1288799Y813973D01*
X1286501Y812646D01*
X1284624Y810769D01*
X1283297Y808471D01*
X1282610Y805907D01*
Y803253D01*
X1283297Y800689D01*
X1284624Y798391D01*
X1286501Y796514D01*
X1288799Y795187D01*
X1291363Y794500D01*
X1294017D01*
X1296581Y795187D01*
X1298879Y796514D01*
X1300756Y798391D01*
X1302083Y800689D01*
X1302770Y803253D01*
Y803791D01*
X1313535Y814555D01*
X1313535Y814555D01*
X1314756Y816147D01*
X1315524Y818001D01*
X1315786Y819990D01*
Y957580D01*
X1315524Y959569D01*
X1314756Y961423D01*
X1313535Y963015D01*
X1313535Y963015D01*
X1295755Y980795D01*
X1294163Y982016D01*
X1292309Y982784D01*
X1290320Y983046D01*
X1283620D01*
Y983900D01*
X1266540D01*
Y982056D01*
X1193450D01*
Y982910D01*
X1176370D01*
Y982056D01*
X946768D01*
X928968Y999855D01*
X928972Y999871D01*
Y1003173D01*
X928117Y1006362D01*
X926467Y1009222D01*
X924132Y1011556D01*
X921272Y1013207D01*
X918083Y1014062D01*
D02*
G37*
G36*
X1240710Y806770D02*
X1220550D01*
Y797090D01*
X1219640Y796482D01*
X1216335Y793177D01*
X1214653D01*
X1213194Y794637D01*
X1211158Y795480D01*
X1208954D01*
X1206918Y794637D01*
X1205359Y793078D01*
X1204516Y791042D01*
Y788838D01*
X1205359Y786802D01*
X1206918Y785243D01*
X1208954Y784400D01*
X1211158D01*
X1213194Y785243D01*
X1214653Y786703D01*
X1217676D01*
X1218915Y786949D01*
X1219280Y787193D01*
X1220550Y786610D01*
Y786610D01*
X1240710D01*
Y806770D01*
D02*
G37*
G36*
X1009482Y904446D02*
X1007278D01*
X1005242Y903603D01*
X1003683Y902044D01*
X1002840Y900008D01*
Y897804D01*
X1003683Y895768D01*
X1005242Y894209D01*
X1007278Y893366D01*
X1009482D01*
X1011518Y894209D01*
X1012978Y895669D01*
X1025327D01*
X1201925Y719071D01*
X1202975Y718369D01*
X1204214Y718123D01*
X1251712D01*
X1252951Y718369D01*
X1254001Y719071D01*
X1267971Y733041D01*
X1268673Y734091D01*
X1268919Y735330D01*
Y769549D01*
X1275405Y776035D01*
X1283204D01*
X1283297Y775689D01*
X1284624Y773391D01*
X1286501Y771514D01*
X1288799Y770187D01*
X1291363Y769500D01*
X1294017D01*
X1296581Y770187D01*
X1298879Y771514D01*
X1300756Y773391D01*
X1302083Y775689D01*
X1302770Y778253D01*
Y780907D01*
X1302083Y783471D01*
X1300756Y785769D01*
X1298879Y787646D01*
X1296581Y788973D01*
X1294017Y789660D01*
X1291363D01*
X1288799Y788973D01*
X1286501Y787646D01*
X1284624Y785769D01*
X1283297Y783471D01*
X1283039Y782509D01*
X1274064D01*
X1272825Y782263D01*
X1271775Y781561D01*
X1263393Y773179D01*
X1262691Y772129D01*
X1262445Y770890D01*
Y736671D01*
X1250371Y724597D01*
X1205555D01*
X1028957Y901195D01*
X1027907Y901897D01*
X1026668Y902143D01*
X1012978D01*
X1011518Y903603D01*
X1009482Y904446D01*
D02*
G37*
G36*
X1210396Y782526D02*
X1208192D01*
X1206156Y781683D01*
X1204597Y780124D01*
X1203754Y778088D01*
Y775884D01*
X1204597Y773848D01*
X1206156Y772289D01*
X1208192Y771446D01*
X1210396D01*
X1212432Y772289D01*
X1213892Y773749D01*
X1218113D01*
X1219640Y772222D01*
X1220550Y771614D01*
Y761610D01*
X1240710D01*
Y781770D01*
X1220550D01*
Y781006D01*
X1219568Y780201D01*
X1219454Y780223D01*
X1213892D01*
X1212432Y781683D01*
X1210396Y782526D01*
D02*
G37*
G36*
X576666Y769064D02*
X574462D01*
X572426Y768221D01*
X571614Y767409D01*
X533908D01*
X532421Y767113D01*
X531161Y766271D01*
X517698Y752808D01*
X516550D01*
X514514Y751965D01*
X512955Y750406D01*
X512112Y748370D01*
Y746166D01*
X512955Y744130D01*
X514514Y742571D01*
X516550Y741728D01*
X518754D01*
X520790Y742571D01*
X522349Y744130D01*
X523192Y746166D01*
Y747314D01*
X535517Y759639D01*
X571614D01*
X572426Y758827D01*
X574462Y757984D01*
X576666D01*
X578702Y758827D01*
X580261Y760386D01*
X581104Y762422D01*
Y764626D01*
X580261Y766662D01*
X578702Y768221D01*
X576666Y769064D01*
D02*
G37*
G36*
X1003386Y858472D02*
X1001182D01*
X999146Y857629D01*
X997587Y856070D01*
X996744Y854034D01*
Y851830D01*
X997587Y849794D01*
X999146Y848235D01*
X1001182Y847392D01*
X1003386D01*
X1005422Y848235D01*
X1006881Y849695D01*
X1058855D01*
X1197353Y711197D01*
X1198403Y710495D01*
X1199642Y710249D01*
X1261872D01*
X1263111Y710495D01*
X1264161Y711197D01*
X1277877Y724913D01*
X1278579Y725963D01*
X1278825Y727202D01*
Y742625D01*
X1284595Y748395D01*
X1284624Y748391D01*
X1286501Y746514D01*
X1288799Y745187D01*
X1291363Y744500D01*
X1294017D01*
X1296581Y745187D01*
X1298879Y746514D01*
X1300756Y748391D01*
X1302083Y750689D01*
X1302770Y753253D01*
Y755907D01*
X1302083Y758471D01*
X1300756Y760769D01*
X1298879Y762646D01*
X1296581Y763973D01*
X1294017Y764660D01*
X1291363D01*
X1288799Y763973D01*
X1286501Y762646D01*
X1284624Y760769D01*
X1283297Y758471D01*
X1282610Y755907D01*
Y754986D01*
X1282321Y754928D01*
X1281270Y754227D01*
X1273299Y746255D01*
X1272597Y745205D01*
X1272351Y743966D01*
Y728543D01*
X1260531Y716723D01*
X1200983D01*
X1062485Y855221D01*
X1061435Y855923D01*
X1060196Y856169D01*
X1006881D01*
X1005422Y857629D01*
X1003386Y858472D01*
D02*
G37*
G36*
X1210994Y765887D02*
X1208790D01*
X1206754Y765043D01*
X1205196Y763485D01*
X1204352Y761449D01*
Y759245D01*
X1205196Y757208D01*
X1206655Y755749D01*
Y752512D01*
X1206901Y751273D01*
X1207603Y750223D01*
X1213425Y744401D01*
X1214475Y743699D01*
X1215714Y743453D01*
X1220550D01*
Y736610D01*
X1240710D01*
Y756770D01*
X1220550D01*
Y749927D01*
X1217055D01*
X1213129Y753853D01*
Y755749D01*
X1214589Y757208D01*
X1215432Y759245D01*
Y761449D01*
X1214589Y763485D01*
X1213030Y765043D01*
X1210994Y765887D01*
D02*
G37*
G36*
X327335Y674045D02*
X297505D01*
Y644215D01*
X327335D01*
Y674045D01*
D02*
G37*
G36*
X1322840Y645360D02*
X1285840D01*
X1284849Y645163D01*
X1284009Y644601D01*
X1283447Y643761D01*
X1283250Y642770D01*
Y629770D01*
X1283447Y628779D01*
X1284009Y627939D01*
X1284849Y627377D01*
X1285840Y627180D01*
X1322840D01*
X1323831Y627377D01*
X1324671Y627939D01*
X1325233Y628779D01*
X1325430Y629770D01*
Y642770D01*
X1325233Y643761D01*
X1324671Y644601D01*
X1323831Y645163D01*
X1322840Y645360D01*
D02*
G37*
G36*
X1252640D02*
X1215640D01*
X1214649Y645163D01*
X1213809Y644601D01*
X1213247Y643761D01*
X1213050Y642770D01*
Y629770D01*
X1213247Y628779D01*
X1213809Y627939D01*
X1214649Y627377D01*
X1215640Y627180D01*
X1252640D01*
X1253631Y627377D01*
X1254471Y627939D01*
X1255033Y628779D01*
X1255230Y629770D01*
Y642770D01*
X1255033Y643761D01*
X1254471Y644601D01*
X1253631Y645163D01*
X1252640Y645360D01*
D02*
G37*
G36*
X1322840Y619960D02*
X1285840D01*
X1284849Y619763D01*
X1284009Y619201D01*
X1283447Y618361D01*
X1283250Y617370D01*
Y604370D01*
X1283447Y603379D01*
X1284009Y602539D01*
X1284849Y601977D01*
X1285840Y601780D01*
X1322840D01*
X1323831Y601977D01*
X1324671Y602539D01*
X1325233Y603379D01*
X1325430Y604370D01*
Y617370D01*
X1325233Y618361D01*
X1324671Y619201D01*
X1323831Y619763D01*
X1322840Y619960D01*
D02*
G37*
G36*
X1252640D02*
X1215640D01*
X1214649Y619763D01*
X1213809Y619201D01*
X1213247Y618361D01*
X1213050Y617370D01*
Y604370D01*
X1213247Y603379D01*
X1213809Y602539D01*
X1214649Y601977D01*
X1215640Y601780D01*
X1252640D01*
X1253631Y601977D01*
X1254471Y602539D01*
X1255033Y603379D01*
X1255230Y604370D01*
Y617370D01*
X1255033Y618361D01*
X1254471Y619201D01*
X1253631Y619763D01*
X1252640Y619960D01*
D02*
G37*
G36*
X595716Y801322D02*
X593512D01*
X591476Y800479D01*
X589917Y798920D01*
X589074Y796884D01*
Y794680D01*
X589917Y792644D01*
X590729Y791832D01*
Y571246D01*
X591025Y569759D01*
X591867Y568499D01*
X656007Y504359D01*
Y480962D01*
X655195Y480150D01*
X654352Y478114D01*
Y475910D01*
X655195Y473874D01*
X656134Y472935D01*
Y458229D01*
X655449Y457544D01*
X654606Y455508D01*
Y453304D01*
X655449Y451268D01*
X657008Y449709D01*
X659044Y448866D01*
X661248D01*
X663284Y449709D01*
X664843Y451268D01*
X665686Y453304D01*
Y455508D01*
X664843Y457544D01*
X663904Y458483D01*
Y473127D01*
X678688D01*
X680175Y473423D01*
X681435Y474265D01*
X734521Y527351D01*
X735363Y528611D01*
X735659Y530098D01*
Y561509D01*
X777579Y603429D01*
X829424D01*
X830236Y602617D01*
X832272Y601774D01*
X834476D01*
X836512Y602617D01*
X838071Y604176D01*
X838914Y606212D01*
Y608416D01*
X838071Y610452D01*
X836512Y612011D01*
X834476Y612854D01*
X832272D01*
X830236Y612011D01*
X829424Y611199D01*
X775970D01*
X774483Y610903D01*
X773223Y610061D01*
X729027Y565865D01*
X728185Y564605D01*
X727889Y563118D01*
Y531707D01*
X677079Y480897D01*
X663842D01*
X663777Y480962D01*
Y505968D01*
X663481Y507455D01*
X662639Y508715D01*
X598499Y572855D01*
Y791832D01*
X599311Y792644D01*
X600154Y794680D01*
Y796884D01*
X599311Y798920D01*
X597752Y800479D01*
X595716Y801322D01*
D02*
G37*
G36*
X1252640Y592860D02*
X1215640D01*
X1214649Y592663D01*
X1213809Y592101D01*
X1213247Y591261D01*
X1213050Y590270D01*
Y577270D01*
X1213247Y576279D01*
X1213809Y575439D01*
X1214649Y574877D01*
X1215640Y574680D01*
X1252640D01*
X1253631Y574877D01*
X1254471Y575439D01*
X1255033Y576279D01*
X1255230Y577270D01*
Y590270D01*
X1255033Y591261D01*
X1254471Y592101D01*
X1253631Y592663D01*
X1252640Y592860D01*
D02*
G37*
G36*
X1322840Y598560D02*
X1285840D01*
X1284849Y598363D01*
X1284009Y597801D01*
X1283447Y596961D01*
X1283250Y595970D01*
Y571570D01*
X1283447Y570579D01*
X1284009Y569739D01*
X1284849Y569177D01*
X1285840Y568980D01*
X1322840D01*
X1323831Y569177D01*
X1324671Y569739D01*
X1325233Y570579D01*
X1325430Y571570D01*
Y595970D01*
X1325233Y596961D01*
X1324671Y597801D01*
X1323831Y598363D01*
X1322840Y598560D01*
D02*
G37*
G36*
X912200Y766016D02*
X909996D01*
X907960Y765173D01*
X906401Y763614D01*
X905558Y761578D01*
Y759514D01*
X854199Y708155D01*
X853497Y707105D01*
X853251Y705866D01*
Y566699D01*
X851791Y565240D01*
X850948Y563204D01*
Y561000D01*
X851791Y558964D01*
X853350Y557405D01*
X855386Y556562D01*
X857590D01*
X859626Y557405D01*
X861185Y558964D01*
X862028Y561000D01*
Y563204D01*
X861185Y565240D01*
X859725Y566699D01*
Y704525D01*
X910136Y754936D01*
X912200D01*
X914236Y755779D01*
X915795Y757338D01*
X916638Y759374D01*
Y761578D01*
X915795Y763614D01*
X914236Y765173D01*
X912200Y766016D01*
D02*
G37*
G36*
X956691Y572810D02*
X953389D01*
X950200Y571955D01*
X947340Y570304D01*
X945005Y567970D01*
X943355Y565110D01*
X942500Y561921D01*
Y558619D01*
X943355Y555430D01*
X945005Y552570D01*
X947340Y550235D01*
X950200Y548585D01*
X953389Y547730D01*
X956691D01*
X959880Y548585D01*
X962740Y550235D01*
X965074Y552570D01*
X966725Y555430D01*
X967580Y558619D01*
Y561921D01*
X966725Y565110D01*
X965074Y567970D01*
X962740Y570304D01*
X959880Y571955D01*
X956691Y572810D01*
D02*
G37*
G36*
X314736Y472260D02*
X311105D01*
X307597Y471320D01*
X304453Y469505D01*
X301885Y466937D01*
X300070Y463793D01*
X299130Y460285D01*
Y456655D01*
X300070Y453147D01*
X301885Y450003D01*
X304453Y447435D01*
X307597Y445620D01*
X311105Y444680D01*
X314736D01*
X318243Y445620D01*
X321387Y447435D01*
X323955Y450003D01*
X325770Y453147D01*
X326710Y456655D01*
Y460285D01*
X325770Y463793D01*
X323955Y466937D01*
X321387Y469505D01*
X318243Y471320D01*
X314736Y472260D01*
D02*
G37*
G36*
X1157515Y334600D02*
X1153885D01*
X1150377Y333660D01*
X1147233Y331845D01*
X1144665Y329277D01*
X1142850Y326133D01*
X1141910Y322626D01*
Y318995D01*
X1142850Y315487D01*
X1144665Y312343D01*
X1147233Y309775D01*
X1150377Y307960D01*
X1153885Y307020D01*
X1157515D01*
X1161023Y307960D01*
X1164167Y309775D01*
X1166735Y312343D01*
X1168550Y315487D01*
X1169490Y318995D01*
Y322626D01*
X1168550Y326133D01*
X1166735Y329277D01*
X1164167Y331845D01*
X1161023Y333660D01*
X1157515Y334600D01*
D02*
G37*
G36*
X1106715D02*
X1103084D01*
X1099577Y333660D01*
X1096433Y331845D01*
X1093865Y329277D01*
X1092050Y326133D01*
X1091110Y322626D01*
Y318995D01*
X1092050Y315487D01*
X1093865Y312343D01*
X1096433Y309775D01*
X1099577Y307960D01*
X1103084Y307020D01*
X1106715D01*
X1110223Y307960D01*
X1113367Y309775D01*
X1115935Y312343D01*
X1117750Y315487D01*
X1118690Y318995D01*
Y322626D01*
X1117750Y326133D01*
X1115935Y329277D01*
X1113367Y331845D01*
X1110223Y333660D01*
X1106715Y334600D01*
D02*
G37*
G36*
X658329D02*
X654698D01*
X651191Y333660D01*
X648046Y331845D01*
X645479Y329277D01*
X643663Y326133D01*
X642723Y322626D01*
Y318995D01*
X643663Y315487D01*
X645479Y312343D01*
X648046Y309775D01*
X651191Y307960D01*
X654698Y307020D01*
X658329D01*
X661836Y307960D01*
X664981Y309775D01*
X667548Y312343D01*
X669364Y315487D01*
X670303Y318995D01*
Y322626D01*
X669364Y326133D01*
X667548Y329277D01*
X664981Y331845D01*
X661836Y333660D01*
X658329Y334600D01*
D02*
G37*
G36*
X607529D02*
X603898D01*
X600391Y333660D01*
X597246Y331845D01*
X594679Y329277D01*
X592863Y326133D01*
X591923Y322626D01*
Y318995D01*
X592863Y315487D01*
X594679Y312343D01*
X597246Y309775D01*
X600391Y307960D01*
X603898Y307020D01*
X607529D01*
X611036Y307960D01*
X614181Y309775D01*
X616748Y312343D01*
X618564Y315487D01*
X619503Y318995D01*
Y322626D01*
X618564Y326133D01*
X616748Y329277D01*
X614181Y331845D01*
X611036Y333660D01*
X607529Y334600D01*
D02*
G37*
G36*
X479682D02*
X476051D01*
X472544Y333660D01*
X469399Y331845D01*
X466832Y329277D01*
X465016Y326133D01*
X464077Y322626D01*
Y318995D01*
X465016Y315487D01*
X466832Y312343D01*
X469399Y309775D01*
X472544Y307960D01*
X476051Y307020D01*
X479682D01*
X483189Y307960D01*
X486334Y309775D01*
X488901Y312343D01*
X490717Y315487D01*
X491657Y318995D01*
Y322626D01*
X490717Y326133D01*
X488901Y329277D01*
X486334Y331845D01*
X483189Y333660D01*
X479682Y334600D01*
D02*
G37*
G36*
X428882D02*
X425251D01*
X421744Y333660D01*
X418599Y331845D01*
X416032Y329277D01*
X414216Y326133D01*
X413277Y322626D01*
Y318995D01*
X414216Y315487D01*
X416032Y312343D01*
X418599Y309775D01*
X421744Y307960D01*
X425251Y307020D01*
X428882D01*
X432389Y307960D01*
X435534Y309775D01*
X438101Y312343D01*
X439917Y315487D01*
X440857Y318995D01*
Y322626D01*
X439917Y326133D01*
X438101Y329277D01*
X435534Y331845D01*
X432389Y333660D01*
X428882Y334600D01*
D02*
G37*
G36*
X996625Y336225D02*
X966795D01*
Y306395D01*
X996625D01*
Y336225D01*
D02*
G37*
G36*
X872165D02*
X842335D01*
Y306395D01*
X872165D01*
Y336225D01*
D02*
G37*
G36*
X788869D02*
X785931D01*
X783049Y335652D01*
X780335Y334528D01*
X777892Y332895D01*
X775815Y330818D01*
X774183Y328375D01*
X773058Y325661D01*
X772485Y322779D01*
Y319841D01*
X773058Y316959D01*
X774183Y314245D01*
X775815Y311802D01*
X777892Y309725D01*
X780335Y308092D01*
X783049Y306968D01*
X785931Y306395D01*
X788869D01*
X791750Y306968D01*
X794465Y308092D01*
X796908Y309725D01*
X798985Y311802D01*
X800617Y314245D01*
X801742Y316959D01*
X802315Y319841D01*
Y322779D01*
X801742Y325661D01*
X800617Y328375D01*
X798985Y330818D01*
X796908Y332895D01*
X794465Y334528D01*
X791750Y335652D01*
X788869Y336225D01*
D02*
G37*
G36*
X751515D02*
X721685D01*
Y306395D01*
X751515D01*
Y336225D01*
D02*
G37*
G36*
X1291611Y330990D02*
X1286489D01*
X1281430Y330189D01*
X1276559Y328606D01*
X1271995Y326281D01*
X1267852Y323270D01*
X1264230Y319648D01*
X1261219Y315505D01*
X1258894Y310941D01*
X1257311Y306070D01*
X1256510Y301011D01*
Y295889D01*
X1257311Y290830D01*
X1258894Y285959D01*
X1261219Y281395D01*
X1264230Y277252D01*
X1267852Y273630D01*
X1271995Y270619D01*
X1276559Y268294D01*
X1281430Y266711D01*
X1286489Y265910D01*
X1291611D01*
X1296670Y266711D01*
X1301541Y268294D01*
X1306105Y270619D01*
X1310248Y273630D01*
X1313870Y277252D01*
X1316881Y281395D01*
X1319206Y285959D01*
X1320789Y290830D01*
X1321590Y295889D01*
Y301011D01*
X1320789Y306070D01*
X1319206Y310941D01*
X1316881Y315505D01*
X1313870Y319648D01*
X1310248Y323270D01*
X1306105Y326281D01*
X1301541Y328606D01*
X1296670Y330189D01*
X1291611Y330990D01*
D02*
G37*
G36*
X301011D02*
X295889D01*
X290830Y330189D01*
X285959Y328606D01*
X281395Y326281D01*
X277252Y323270D01*
X273630Y319648D01*
X270619Y315505D01*
X268294Y310941D01*
X266711Y306070D01*
X265910Y301011D01*
Y295889D01*
X266711Y290830D01*
X268294Y285959D01*
X270619Y281395D01*
X273630Y277252D01*
X277252Y273630D01*
X281395Y270619D01*
X285959Y268294D01*
X290830Y266711D01*
X295889Y265910D01*
X301011D01*
X306070Y266711D01*
X310941Y268294D01*
X315505Y270619D01*
X319648Y273630D01*
X323270Y277252D01*
X326281Y281395D01*
X328606Y285959D01*
X330189Y290830D01*
X330990Y295889D01*
Y301011D01*
X330189Y306070D01*
X328606Y310941D01*
X326281Y315505D01*
X323270Y319648D01*
X319648Y323270D01*
X315505Y326281D01*
X310941Y328606D01*
X306070Y330189D01*
X301011Y330990D01*
D02*
G37*
%LPD*%
G36*
X748580Y1020751D02*
X748448Y1020697D01*
X746889Y1019138D01*
X746046Y1017102D01*
Y1015954D01*
X725725Y995633D01*
X724883Y994373D01*
X724587Y992886D01*
Y965086D01*
X723775Y964274D01*
X723265Y963041D01*
X721890D01*
X721485Y964020D01*
X720673Y964832D01*
Y996357D01*
X734776Y1010460D01*
X735924D01*
X737960Y1011303D01*
X739519Y1012862D01*
X740362Y1014898D01*
Y1017102D01*
X739519Y1019138D01*
X737960Y1020697D01*
X737828Y1020751D01*
X738081Y1022021D01*
X748327D01*
X748580Y1020751D01*
D02*
G37*
D11*
X712190Y1221740D02*
X748766Y1258316D01*
X1001268D01*
X471488Y996696D02*
X685356Y1210564D01*
X802910D02*
X818896Y1226550D01*
X685356Y1210564D02*
X802910D01*
X1209892Y752512D02*
Y760347D01*
Y752512D02*
X1215714Y746690D01*
X1209294Y776986D02*
X1219454D01*
X1221929Y774511D01*
X1227809D02*
X1230630Y771690D01*
X1221929Y774511D02*
X1227809D01*
X1210056Y789940D02*
X1217676D01*
X1228133Y794193D02*
X1230630Y796690D01*
X1217676Y789940D02*
X1221929Y794193D01*
X1228133D01*
X1215714Y746690D02*
X1230630D01*
X1008380Y898906D02*
X1026668D01*
X1204214Y721360D01*
X1002284Y852932D02*
X1060196D01*
X1199642Y713486D02*
X1261872D01*
X1060196Y852932D02*
X1199642Y713486D01*
X1290048Y751938D02*
X1292690Y754580D01*
X1283560Y751938D02*
X1290048D01*
X1275588Y743966D02*
X1283560Y751938D01*
X1261872Y713486D02*
X1275588Y727202D01*
Y743966D01*
X1251712Y721360D02*
X1265682Y735330D01*
X1204214Y721360D02*
X1251712D01*
X1265682Y735330D02*
Y770890D01*
X1292382Y779272D02*
X1292690Y779580D01*
X1274064Y779272D02*
X1292382D01*
X1265682Y770890D02*
X1274064Y779272D01*
X856488Y705866D02*
X911098Y760476D01*
X856488Y562102D02*
Y705866D01*
X660400Y1114806D02*
X660781Y1115187D01*
X698373D01*
X698754Y1115568D01*
X684941Y1181608D02*
X873760D01*
X499554Y996220D02*
X684941Y1181608D01*
X773430Y955548D02*
X802894D01*
X854964Y903478D01*
X343662Y868680D02*
X362712D01*
X362966Y868934D01*
X935736Y1114806D02*
X998982D01*
X998982Y1077214D02*
Y1114806D01*
X998982Y1114806D02*
X998982Y1114806D01*
Y1114806D02*
Y1201166D01*
X837025Y1244679D02*
X979091D01*
X1003300Y1220470D01*
X818896Y1226550D02*
X837025Y1244679D01*
X873760Y1181608D02*
X897382Y1157986D01*
Y1114552D02*
Y1157986D01*
X447040Y996696D02*
X471488D01*
X1022350Y1224534D02*
X1160272D01*
X998982Y1201166D02*
X1022350Y1224534D01*
X517144Y455930D02*
X549402Y488188D01*
X517144Y455422D02*
Y455930D01*
X549402Y488188D02*
Y521716D01*
X499554Y971486D02*
Y996220D01*
X489458Y961390D02*
X499554Y971486D01*
X854964Y903478D02*
X930402D01*
X552704Y848868D02*
Y935949D01*
X601726Y984971D01*
Y984971D01*
X601726D02*
Y997204D01*
D17*
X639064Y844804D02*
X653034Y858774D01*
X604520Y844804D02*
X639064D01*
X653034Y858774D02*
Y1014984D01*
X764794Y490982D02*
Y527812D01*
Y407670D02*
Y490982D01*
Y527812D02*
X776986Y540004D01*
X764794Y407670D02*
X883666D01*
X515182D02*
X764794D01*
X362966Y792988D02*
Y868934D01*
Y457716D02*
Y792988D01*
Y868934D02*
Y1163320D01*
X312920Y407670D02*
X515182D01*
X517144Y409632D02*
Y455422D01*
X515182Y407670D02*
X517144Y409632D01*
X883666Y407670D02*
X994664D01*
X883412Y417830D02*
X883588Y417654D01*
Y407748D02*
Y417654D01*
Y407748D02*
X883666Y407670D01*
X362966Y1163320D02*
X447294Y1247648D01*
X312920Y407670D02*
X362966Y457716D01*
X447294Y1247648D02*
X686282D01*
X712190Y1221740D01*
D137*
X764794Y490982D02*
X772668D01*
X731774Y563118D02*
X775970Y607314D01*
X731774Y530098D02*
Y563118D01*
X775970Y607314D02*
X833374D01*
X678688Y477012D02*
X731774Y530098D01*
X842094Y1204976D02*
X844634Y1207516D01*
X845312D01*
X686054Y1204976D02*
X842094D01*
X467106Y986028D02*
X686054Y1204976D01*
X820626Y1197610D02*
X821182Y1198166D01*
X689864Y1197610D02*
X820626D01*
X465836Y973582D02*
X689864Y1197610D01*
X295910Y793350D02*
X362604D01*
X362966Y792988D01*
X533908Y763524D02*
X575564D01*
X517652Y747268D02*
X533908Y763524D01*
X752348Y762508D02*
X770890Y781050D01*
Y895858D01*
X742442Y924306D02*
Y988314D01*
Y924306D02*
X770890Y895858D01*
X742442Y988314D02*
X769620Y1015492D01*
X716788Y960882D02*
Y997966D01*
X702310Y961136D02*
Y999998D01*
X728472Y961136D02*
Y992886D01*
X716788Y997966D02*
X734822Y1016000D01*
X832104Y1055370D02*
Y1118616D01*
X826262Y1124458D02*
X832104Y1118616D01*
X728472Y992886D02*
X751586Y1016000D01*
X702310Y999998D02*
X719328Y1017016D01*
X604520Y1033272D02*
X868426D01*
X598424Y1040384D02*
X850392D01*
X877824Y1025906D02*
X919734Y1067816D01*
X868426Y1033272D02*
X910082Y1074928D01*
X611378Y1025906D02*
X877824D01*
X413766Y842518D02*
X604520Y1033272D01*
X403352Y817880D02*
X611378Y1025906D01*
X857504Y1047496D02*
Y1101344D01*
X850392Y1040384D02*
X857504Y1047496D01*
X685800Y945642D02*
Y1011936D01*
X735076Y896366D02*
X740664D01*
X685800Y945642D02*
X735076Y896366D01*
X673862Y941832D02*
X730023Y885671D01*
X752362D01*
X673862Y941832D02*
Y1012190D01*
X416814Y858774D02*
X598424Y1040384D01*
X659892Y477012D02*
X660019Y476885D01*
X659892Y477012D02*
X678688D01*
X660019Y454533D02*
Y476885D01*
X659892Y477012D02*
Y505968D01*
X660019Y454533D02*
X660146Y454406D01*
X594614Y571246D02*
Y795782D01*
Y571246D02*
X659892Y505968D01*
X910082Y1074928D02*
Y1208532D01*
X919734Y1067816D02*
Y1224534D01*
X906018Y1238250D02*
X919734Y1224534D01*
X890778Y1227836D02*
X910082Y1208532D01*
X435356Y986028D02*
X467106D01*
X389382Y842518D02*
X413766D01*
X435356Y973582D02*
X465836D01*
X407924Y858774D02*
X416814D01*
X387858Y817880D02*
X403352D01*
D138*
X1184910Y974370D02*
X1274090D01*
X1275080Y975360D01*
X943584Y974370D02*
X1184910D01*
X916432Y1001522D02*
X943584Y974370D01*
X1275080Y975360D02*
X1290320D01*
X1308100Y957580D01*
Y819990D02*
Y957580D01*
X1292690Y804580D02*
X1308100Y819990D01*
D139*
X341376Y941578D02*
X352199Y952401D01*
Y956211D01*
X353060Y957072D01*
D140*
X712190Y1221740D02*
D03*
D141*
X677190D02*
D03*
X499110Y1220470D02*
D03*
X1275080Y1010360D02*
D03*
X1184910Y1009370D02*
D03*
D142*
X656513Y320810D02*
D03*
X605713D02*
D03*
X554913D02*
D03*
X1206500D02*
D03*
X1155700D02*
D03*
X1104900D02*
D03*
X312920Y509270D02*
D03*
X376267Y320810D02*
D03*
X312920Y407670D02*
D03*
Y458470D02*
D03*
X427067Y320810D02*
D03*
X477867D02*
D03*
D143*
X736600Y321310D02*
D03*
X857250D02*
D03*
X981710D02*
D03*
D144*
X787400D02*
D03*
X908050D02*
D03*
X1032510D02*
D03*
X312420Y608330D02*
D03*
X303530Y1078230D02*
D03*
D145*
X1230630Y821690D02*
D03*
Y796690D02*
D03*
Y771690D02*
D03*
Y746690D02*
D03*
X295910Y843350D02*
D03*
X1292690Y729580D02*
D03*
D146*
X295910Y818350D02*
D03*
Y768350D02*
D03*
Y793350D02*
D03*
X1292690Y779580D02*
D03*
Y804580D02*
D03*
Y754580D02*
D03*
D147*
X317290Y994480D02*
D03*
Y907980D02*
D03*
D148*
X275590Y994480D02*
D03*
Y907980D02*
D03*
D149*
X955040Y636270D02*
D03*
Y560270D02*
D03*
X916432Y1001522D02*
D03*
D150*
X1289050Y1225550D02*
D03*
X298450Y298450D02*
D03*
X1289050D02*
D03*
X298450Y1225550D02*
D03*
D151*
X312420Y659130D02*
D03*
X303530Y1129030D02*
D03*
D152*
X499110Y1170470D02*
D03*
X1275080Y975360D02*
D03*
X1184910Y974370D02*
D03*
D153*
X312390Y980130D02*
D03*
Y922330D02*
D03*
X992632Y437388D02*
D03*
X979932Y437896D02*
D03*
X1151636Y419100D02*
D03*
X1138936Y419608D02*
D03*
X1085850Y412242D02*
D03*
X1086358Y424942D02*
D03*
X1230376Y297080D02*
D03*
X1208960D02*
D03*
X1187543D02*
D03*
X1230376Y340005D02*
D03*
X1208960D02*
D03*
X1187543D02*
D03*
Y318669D02*
D03*
X1230376Y318262D02*
D03*
X1053592Y299620D02*
D03*
X1032176D02*
D03*
X1010759D02*
D03*
X1053592Y342546D02*
D03*
X1032176D02*
D03*
X1010759D02*
D03*
Y321209D02*
D03*
X1053592Y320802D02*
D03*
X928116Y300382D02*
D03*
X906700D02*
D03*
X885283D02*
D03*
X928116Y343307D02*
D03*
X906700D02*
D03*
X885283D02*
D03*
Y321972D02*
D03*
X928116Y321564D02*
D03*
X702056Y330708D02*
D03*
Y319024D02*
D03*
Y307340D02*
D03*
X689356Y331216D02*
D03*
Y319532D02*
D03*
Y307848D02*
D03*
X891794Y478028D02*
D03*
X880110D02*
D03*
X868426D02*
D03*
X892302Y490728D02*
D03*
X880618D02*
D03*
X868934D02*
D03*
X798576Y654812D02*
D03*
X786892D02*
D03*
X775208D02*
D03*
X799084Y667512D02*
D03*
X787400D02*
D03*
X775716D02*
D03*
X696976Y710946D02*
D03*
X685292D02*
D03*
X673608D02*
D03*
X697484Y723646D02*
D03*
X685800D02*
D03*
X674116D02*
D03*
X687578Y824230D02*
D03*
Y835914D02*
D03*
Y847598D02*
D03*
X700278Y823722D02*
D03*
Y835406D02*
D03*
Y847090D02*
D03*
X509270Y847852D02*
D03*
Y859536D02*
D03*
Y871220D02*
D03*
X521970Y847344D02*
D03*
Y859028D02*
D03*
Y870712D02*
D03*
X453136Y753364D02*
D03*
Y765048D02*
D03*
Y776732D02*
D03*
X465836Y752856D02*
D03*
Y764540D02*
D03*
Y776224D02*
D03*
X379984Y737108D02*
D03*
Y748792D02*
D03*
Y760476D02*
D03*
X392684Y736600D02*
D03*
Y748284D02*
D03*
Y759968D02*
D03*
X282194Y749808D02*
D03*
X293878D02*
D03*
X305562D02*
D03*
X281686Y737108D02*
D03*
X293370D02*
D03*
X305054D02*
D03*
X282956Y960882D02*
D03*
Y949198D02*
D03*
Y937514D02*
D03*
X270256Y961390D02*
D03*
Y949706D02*
D03*
Y938022D02*
D03*
X447040Y941324D02*
D03*
Y929640D02*
D03*
Y917956D02*
D03*
X434340Y941832D02*
D03*
Y930148D02*
D03*
Y918464D02*
D03*
X604774Y891032D02*
D03*
X593090D02*
D03*
X581406D02*
D03*
X605282Y903732D02*
D03*
X593598D02*
D03*
X581914D02*
D03*
X875284Y930656D02*
D03*
Y942340D02*
D03*
Y954024D02*
D03*
X887984Y930148D02*
D03*
Y941832D02*
D03*
Y953516D02*
D03*
X332740Y585369D02*
D03*
X311324D02*
D03*
X289907D02*
D03*
X332740Y628296D02*
D03*
X311324D02*
D03*
X289907D02*
D03*
Y606959D02*
D03*
X332740Y606552D02*
D03*
X334772Y487071D02*
D03*
X313356D02*
D03*
X291939D02*
D03*
X334772Y529997D02*
D03*
X313356D02*
D03*
X291939D02*
D03*
Y508661D02*
D03*
X334772Y508254D02*
D03*
X397764Y299111D02*
D03*
X376348D02*
D03*
X354931D02*
D03*
X397764Y342038D02*
D03*
X376348D02*
D03*
X354931D02*
D03*
Y320701D02*
D03*
X397764Y320294D02*
D03*
X575564Y320040D02*
D03*
X532731Y320448D02*
D03*
Y341783D02*
D03*
X554147D02*
D03*
X575564D02*
D03*
X532731Y298857D02*
D03*
X554147D02*
D03*
X575564D02*
D03*
X971296Y619913D02*
D03*
X954959D02*
D03*
X938623D02*
D03*
X971296Y652680D02*
D03*
X954959D02*
D03*
X938623D02*
D03*
Y636423D02*
D03*
X971296Y636016D02*
D03*
X1288034Y996341D02*
D03*
X1274238D02*
D03*
X1260441D02*
D03*
X1288034Y1024281D02*
D03*
X1274238D02*
D03*
X1260441D02*
D03*
Y1010312D02*
D03*
X1288034Y1009904D02*
D03*
X1197102Y995325D02*
D03*
X1183306D02*
D03*
X1169509D02*
D03*
X1197102Y1023266D02*
D03*
X1183306D02*
D03*
X1169509D02*
D03*
Y1009296D02*
D03*
X1197102Y1008888D02*
D03*
X513241Y1219809D02*
D03*
X485648Y1220216D02*
D03*
X429260Y1057148D02*
D03*
Y1068832D02*
D03*
Y1080516D02*
D03*
X456946Y1034542D02*
D03*
X468630D02*
D03*
X480314D02*
D03*
X312674Y1054100D02*
D03*
X300990D02*
D03*
X289306D02*
D03*
X281432Y1065276D02*
D03*
Y1076960D02*
D03*
Y1088644D02*
D03*
X485648Y1234186D02*
D03*
X499445D02*
D03*
X513241D02*
D03*
X485648Y1206246D02*
D03*
X499445D02*
D03*
X513241D02*
D03*
X1166876Y1164844D02*
D03*
X1178560D02*
D03*
X1190244D02*
D03*
X1107186Y1163828D02*
D03*
X1118870D02*
D03*
X1130554D02*
D03*
X1061720D02*
D03*
X1073404D02*
D03*
X1085088D02*
D03*
X1291336Y916432D02*
D03*
Y904748D02*
D03*
Y893064D02*
D03*
X1311656Y740918D02*
D03*
Y729234D02*
D03*
Y717550D02*
D03*
X1244346Y690626D02*
D03*
X1232662D02*
D03*
X1220978D02*
D03*
X1243330Y531622D02*
D03*
X1231646D02*
D03*
X1219962D02*
D03*
X1274318Y851662D02*
D03*
X1259942D02*
D03*
X1245565D02*
D03*
X1231189D02*
D03*
X1216812D02*
D03*
X1202436D02*
D03*
X1274318Y873252D02*
D03*
X1259942D02*
D03*
X1245565D02*
D03*
X1231189D02*
D03*
X1216812D02*
D03*
X1202436D02*
D03*
X1157732Y796036D02*
D03*
Y807720D02*
D03*
Y819404D02*
D03*
X1104646Y861568D02*
D03*
X1116330D02*
D03*
X1128014D02*
D03*
X1105154Y876808D02*
D03*
X1116838D02*
D03*
X1128522D02*
D03*
X1061466Y808736D02*
D03*
Y797052D02*
D03*
Y785368D02*
D03*
X1049020Y808990D02*
D03*
Y797306D02*
D03*
Y785622D02*
D03*
X966216Y872744D02*
D03*
X954532D02*
D03*
X942848D02*
D03*
X966724Y885444D02*
D03*
X955040D02*
D03*
X943356D02*
D03*
X969264Y1019556D02*
D03*
X957580D02*
D03*
X945896D02*
D03*
X969264Y1005840D02*
D03*
X957580D02*
D03*
X945896D02*
D03*
X868680Y1226566D02*
D03*
X856996D02*
D03*
X845312D02*
D03*
X937006Y1154938D02*
D03*
Y1166622D02*
D03*
Y1178306D02*
D03*
X840486Y1148588D02*
D03*
Y1160272D02*
D03*
Y1171956D02*
D03*
X855726Y1147572D02*
D03*
X867410D02*
D03*
X879094D02*
D03*
X653034Y1014984D02*
D03*
X565658Y1227074D02*
D03*
X659638Y1212596D02*
D03*
Y1224280D02*
D03*
X685038Y1235964D02*
D03*
X672338D02*
D03*
X772668Y490982D02*
D03*
X776986Y540004D02*
D03*
X821182Y1198166D02*
D03*
X659638Y1235964D02*
D03*
X341376Y941578D02*
D03*
X353060Y957072D02*
D03*
X517652Y747268D02*
D03*
X575564Y763524D02*
D03*
X752348Y762508D02*
D03*
X716788Y960882D02*
D03*
X769620Y1015492D02*
D03*
X1209892Y760347D02*
D03*
X1210056Y789940D02*
D03*
X1209294Y776986D02*
D03*
X1002284Y852932D02*
D03*
X1008380Y898906D02*
D03*
X856488Y562102D02*
D03*
X911098Y760476D02*
D03*
X698754Y1115568D02*
D03*
X660400Y1114806D02*
D03*
X826262Y1124458D02*
D03*
X832104Y1055370D02*
D03*
X751586Y1016000D02*
D03*
X728472Y961136D02*
D03*
X734822Y1016000D02*
D03*
X719328Y1017016D02*
D03*
X702310Y961136D02*
D03*
X740664Y896366D02*
D03*
X752362Y885671D02*
D03*
X685800Y1011936D02*
D03*
X673862Y1012190D02*
D03*
X659892Y477012D02*
D03*
X660146Y454406D02*
D03*
X857504Y1101344D02*
D03*
X773430Y955548D02*
D03*
X833374Y607314D02*
D03*
X594614Y795782D02*
D03*
X343662Y868680D02*
D03*
X935736Y1114806D02*
D03*
X906018Y1238250D02*
D03*
X890778Y1227836D02*
D03*
X845312Y1207516D02*
D03*
X897382Y1114552D02*
D03*
X447040Y996696D02*
D03*
X1003300Y1220470D02*
D03*
X1001268Y1258316D02*
D03*
X818896Y1226550D02*
D03*
X517144Y455422D02*
D03*
X549402Y521716D02*
D03*
X883412Y417830D02*
D03*
X994664Y407670D02*
D03*
X389382Y842518D02*
D03*
X435356Y986028D02*
D03*
Y973582D02*
D03*
X407924Y858774D02*
D03*
X930402Y903478D02*
D03*
X601726Y997204D02*
D03*
X552704Y848868D02*
D03*
X489458Y961390D02*
D03*
X387858Y817880D02*
D03*
X1160272Y1224534D02*
D03*
X998982Y1077214D02*
D03*
D154*
X604520Y844804D02*
D03*
D155*
X754380Y1061974D02*
D03*
M02*
