G04*
G04 #@! TF.GenerationSoftware,Altium Limited,Altium Designer,23.7.1 (13)*
G04*
G04 Layer_Color=16711935*
%FSLAX44Y44*%
%MOMM*%
G71*
G04*
G04 #@! TF.SameCoordinates,B3BED012-A8B6-438F-A654-7E25F243F1DC*
G04*
G04*
G04 #@! TF.FilePolarity,Negative*
G04*
G01*
G75*
%ADD123R,1.4032X1.4032*%
%ADD124C,1.4032*%
%ADD125C,2.4532*%
%ADD126R,2.6782X2.6782*%
%ADD127C,2.6782*%
%ADD128R,1.7112X1.7112*%
%ADD129C,1.7112*%
%ADD130O,2.2032X1.1032*%
%ADD131O,1.9032X1.1032*%
%ADD132C,2.2032*%
%ADD133C,6.2032*%
%ADD134R,2.6782X2.6782*%
%ADD135R,1.4032X1.4032*%
%ADD136C,0.8032*%
%ADD137C,0.7032*%
D123*
X712190Y1221740D02*
D03*
D124*
X677190D02*
D03*
X499110Y1220470D02*
D03*
X1275080Y1010360D02*
D03*
X1184910Y1009370D02*
D03*
D125*
X656513Y320810D02*
D03*
X605713D02*
D03*
X554913D02*
D03*
X1206500D02*
D03*
X1155700D02*
D03*
X1104900D02*
D03*
X312920Y509270D02*
D03*
X376267Y320810D02*
D03*
X312920Y407670D02*
D03*
Y458470D02*
D03*
X427067Y320810D02*
D03*
X477867D02*
D03*
D126*
X736600Y321310D02*
D03*
X857250D02*
D03*
X981710D02*
D03*
D127*
X787400D02*
D03*
X908050D02*
D03*
X1032510D02*
D03*
X312420Y608330D02*
D03*
X303530Y1078230D02*
D03*
D128*
X1230630Y821690D02*
D03*
Y796690D02*
D03*
Y771690D02*
D03*
Y746690D02*
D03*
X295910Y843350D02*
D03*
X1292690Y729580D02*
D03*
D129*
X295910Y818350D02*
D03*
Y768350D02*
D03*
Y793350D02*
D03*
X1292690Y779580D02*
D03*
Y804580D02*
D03*
Y754580D02*
D03*
D130*
X317290Y994480D02*
D03*
Y907980D02*
D03*
D131*
X275590Y994480D02*
D03*
Y907980D02*
D03*
D132*
X955040Y636270D02*
D03*
Y560270D02*
D03*
X916432Y1001522D02*
D03*
D133*
X1289050Y1225550D02*
D03*
X298450Y298450D02*
D03*
X1289050D02*
D03*
X298450Y1225550D02*
D03*
D134*
X312420Y659130D02*
D03*
X303530Y1129030D02*
D03*
D135*
X499110Y1170470D02*
D03*
X1275080Y975360D02*
D03*
X1184910Y974370D02*
D03*
D136*
X312390Y980130D02*
D03*
Y922330D02*
D03*
X821182Y1198166D02*
D03*
X341376Y941578D02*
D03*
X353060Y957072D02*
D03*
X517652Y747268D02*
D03*
X575564Y763524D02*
D03*
X752348Y762508D02*
D03*
X716788Y960882D02*
D03*
X769620Y1015492D02*
D03*
X1209892Y760347D02*
D03*
X1210056Y789940D02*
D03*
X1209294Y776986D02*
D03*
X1002284Y852932D02*
D03*
X1008380Y898906D02*
D03*
X856488Y562102D02*
D03*
X911098Y760476D02*
D03*
X698754Y1115568D02*
D03*
X660400Y1114806D02*
D03*
X826262Y1124458D02*
D03*
X832104Y1055370D02*
D03*
X751586Y1016000D02*
D03*
X728472Y961136D02*
D03*
X734822Y1016000D02*
D03*
X719328Y1017016D02*
D03*
X702310Y961136D02*
D03*
X740664Y896366D02*
D03*
X752362Y885671D02*
D03*
X685800Y1011936D02*
D03*
X673862Y1012190D02*
D03*
X659892Y477012D02*
D03*
X660146Y454406D02*
D03*
X857504Y1101344D02*
D03*
X773430Y955548D02*
D03*
X833374Y607314D02*
D03*
X594614Y795782D02*
D03*
X343662Y868680D02*
D03*
X935736Y1114806D02*
D03*
X906018Y1238250D02*
D03*
X890778Y1227836D02*
D03*
X845312Y1207516D02*
D03*
X897382Y1114552D02*
D03*
X447040Y996696D02*
D03*
X1003300Y1220470D02*
D03*
X745490Y1233678D02*
D03*
X1001268Y1258316D02*
D03*
X818896Y1226550D02*
D03*
X764794Y556006D02*
D03*
X517144Y455422D02*
D03*
X549402Y521716D02*
D03*
X883412Y417830D02*
D03*
X994664Y407670D02*
D03*
X389382Y842518D02*
D03*
X435356Y986028D02*
D03*
Y973582D02*
D03*
X407924Y858774D02*
D03*
X930402Y903478D02*
D03*
X601726Y997204D02*
D03*
X552704Y848868D02*
D03*
X489458Y961390D02*
D03*
X387858Y817880D02*
D03*
X1160272Y1224534D02*
D03*
X998982Y1077214D02*
D03*
D137*
X835914Y1190752D02*
D03*
X897382Y1188974D02*
D03*
Y1176782D02*
D03*
X884682Y1145540D02*
D03*
X869188Y1146556D02*
D03*
X855980D02*
D03*
X838200Y1172718D02*
D03*
X838708Y1160780D02*
D03*
X699008Y1152144D02*
D03*
X754380Y1061974D02*
D03*
X658114Y1079246D02*
D03*
X651764Y1104646D02*
D03*
X661416Y1092962D02*
D03*
X648208Y1091692D02*
D03*
X668528Y1208024D02*
D03*
X664718Y1234440D02*
D03*
X658114Y1220724D02*
D03*
X476758Y1237488D02*
D03*
X513588Y1235710D02*
D03*
X477266Y1210564D02*
D03*
X498094Y1206754D02*
D03*
X497586Y1236726D02*
D03*
X519176Y1220470D02*
D03*
X472948Y1222756D02*
D03*
X449326Y1034034D02*
D03*
X472440Y1034288D02*
D03*
X488188Y1034034D02*
D03*
X277622Y1072134D02*
D03*
X276352Y1057910D02*
D03*
X277876Y1048766D02*
D03*
X292608Y1045972D02*
D03*
X276098Y753618D02*
D03*
X275082Y769620D02*
D03*
X411988Y593598D02*
D03*
X411480Y628904D02*
D03*
X287020Y598424D02*
D03*
X288036Y617728D02*
D03*
X287528Y535178D02*
D03*
X285496Y510032D02*
D03*
X375920Y354330D02*
D03*
X374904Y292862D02*
D03*
X520192Y359918D02*
D03*
X539496D02*
D03*
X555244D02*
D03*
X1146810Y419100D02*
D03*
X1087882Y419608D02*
D03*
M02*
