G04*
G04 #@! TF.GenerationSoftware,Altium Limited,Altium Designer,23.7.1 (13)*
G04*
G04 Layer_Color=32768*
%FSLAX44Y44*%
%MOMM*%
G71*
G04*
G04 #@! TF.SameCoordinates,24B2A3DB-1DB8-4C05-8545-67722458D9E1*
G04*
G04*
G04 #@! TF.FilePolarity,Positive*
G04*
G01*
G75*
%ADD12C,0.1000*%
%ADD156C,0.0500*%
D12*
X545336Y843830D02*
Y948330D01*
Y843830D02*
X640336D01*
Y948330D01*
X545336D02*
X640336D01*
X721360Y1120978D02*
Y1130478D01*
X716610Y1125728D02*
X726110D01*
X721106Y1077290D02*
Y1086790D01*
X716356Y1082040D02*
X725856D01*
X721106Y1100150D02*
Y1109650D01*
X716356Y1104900D02*
X725856D01*
X721106Y1059510D02*
Y1069010D01*
X716356Y1064260D02*
X725856D01*
X778650Y1056850D02*
Y1336850D01*
Y1056850D02*
X988650D01*
Y1336850D01*
X778650D02*
X988650D01*
X335210Y1198320D02*
X421710D01*
X335210Y1128320D02*
Y1198320D01*
Y1128320D02*
X421710D01*
Y1198320D01*
X524513Y215810D02*
Y345810D01*
Y215810D02*
X686913D01*
Y345810D01*
X524513D02*
X686913D01*
X1074500Y215810D02*
Y345810D01*
Y215810D02*
X1236900D01*
Y345810D01*
X1074500D02*
X1236900D01*
X1259840Y605870D02*
Y615870D01*
X1254840Y610870D02*
X1264840D01*
X1173480Y401650D02*
Y411150D01*
X1168730Y406400D02*
X1178230D01*
X1168400Y449660D02*
Y459660D01*
X1163400Y454660D02*
X1173400D01*
X370840Y654380D02*
Y663880D01*
X366090Y659130D02*
X375590D01*
X1145540Y395300D02*
Y404800D01*
X1140790Y400050D02*
X1150290D01*
X1111250Y394030D02*
Y403530D01*
X1106500Y398780D02*
X1116000D01*
X1078230Y392760D02*
Y402260D01*
X1073480Y397510D02*
X1082980D01*
X326320Y859106D02*
X349320D01*
X326320Y833106D02*
Y859106D01*
Y833106D02*
X349320D01*
Y859106D01*
X326320Y801800D02*
X349320D01*
Y827800D01*
X326320D02*
X349320D01*
X326320Y801800D02*
Y827800D01*
X373270Y970818D02*
X391270D01*
X373270Y942818D02*
Y970818D01*
Y942818D02*
X391270D01*
Y970818D01*
X373524Y913354D02*
X391524D01*
Y941354D01*
X373524D02*
X391524D01*
X373524Y913354D02*
Y941354D01*
X830944Y897126D02*
Y992126D01*
X935444D01*
Y897126D02*
Y992126D01*
X830944Y897126D02*
X935444D01*
X336440Y902940D02*
Y930940D01*
X354440D01*
Y902940D02*
Y930940D01*
X336440Y902940D02*
X354440D01*
X885040Y528270D02*
X1025040D01*
Y668270D01*
X885040D02*
X1025040D01*
X885040Y528270D02*
Y668270D01*
X337920Y377270D02*
Y539670D01*
X207920Y377270D02*
X337920D01*
X207920D02*
Y539670D01*
X337920D01*
X345867Y345810D02*
X508267D01*
Y215810D02*
Y345810D01*
X345867Y215810D02*
X508267D01*
X345867D02*
Y345810D01*
D156*
X737190Y1221740D02*
G03*
X737190Y1221740I-42500J0D01*
G01*
X569110Y1195470D02*
G03*
X569110Y1195470I-70000J0D01*
G01*
X1317580Y992860D02*
G03*
X1317580Y992860I-42500J0D01*
G01*
X1227410Y991870D02*
G03*
X1227410Y991870I-42500J0D01*
G01*
X629886Y1191854D02*
Y1234354D01*
X593886Y1191854D02*
X629886D01*
X593886D02*
Y1234354D01*
X629886D01*
X780850Y575286D02*
X805350D01*
Y562886D02*
Y575286D01*
X780850Y562886D02*
X805350D01*
X780850D02*
Y575286D01*
X781104Y560046D02*
X805604D01*
Y547646D02*
Y560046D01*
X781104Y547646D02*
X805604D01*
X781104D02*
Y560046D01*
X809512Y578732D02*
Y593732D01*
X779512D02*
X809512D01*
X779512Y578732D02*
Y593732D01*
Y578732D02*
X809512D01*
X757548Y575070D02*
X772548D01*
X757548Y545070D02*
Y575070D01*
Y545070D02*
X772548D01*
Y575070D01*
X758640Y437284D02*
Y449684D01*
Y437284D02*
X783140D01*
Y449684D01*
X758640D02*
X783140D01*
X763792Y527170D02*
Y542170D01*
X733792D02*
X763792D01*
X733792Y527170D02*
Y542170D01*
Y527170D02*
X763792D01*
X729038Y528520D02*
Y540920D01*
X704538D02*
X729038D01*
X704538Y528520D02*
Y540920D01*
Y528520D02*
X729038D01*
X563486Y824350D02*
Y839350D01*
Y824350D02*
X593486D01*
Y839350D01*
X563486D02*
X593486D01*
X640606Y807860D02*
Y838060D01*
X598406D02*
X640606D01*
X598406Y807860D02*
Y838060D01*
Y807860D02*
X640606D01*
X956714Y913326D02*
X969114D01*
Y937826D01*
X956714D02*
X969114D01*
X956714Y913326D02*
Y937826D01*
X544696Y809230D02*
X559696D01*
Y839230D01*
X544696D02*
X559696D01*
X544696Y809230D02*
Y839230D01*
X564838Y807870D02*
Y820270D01*
Y807870D02*
X589338D01*
Y820270D01*
X564838D02*
X589338D01*
X552948Y962030D02*
X570748D01*
Y991230D01*
X552948D02*
X570748D01*
X552948Y962030D02*
Y991230D01*
X642424Y951126D02*
Y963526D01*
X617924D02*
X642424D01*
X617924Y951126D02*
Y963526D01*
Y951126D02*
X642424D01*
X575086Y947760D02*
Y990260D01*
X610586D01*
Y947760D02*
Y990260D01*
X575086Y947760D02*
X610586D01*
X636166Y1195774D02*
Y1220274D01*
X648566D01*
Y1195774D02*
Y1220274D01*
X636166Y1195774D02*
X648566D01*
X576730Y1231704D02*
X589130D01*
X576730Y1207204D02*
Y1231704D01*
Y1207204D02*
X589130D01*
Y1231704D01*
X707860Y1133228D02*
X734860D01*
X707860Y1118228D02*
X734860D01*
X707860D02*
Y1133228D01*
X734860Y1118228D02*
Y1133228D01*
X707606Y1089540D02*
X734606D01*
X707606Y1074540D02*
X734606D01*
X707606D02*
Y1089540D01*
X734606Y1074540D02*
Y1089540D01*
X707606Y1112400D02*
X734606D01*
X707606Y1097400D02*
X734606D01*
X707606D02*
Y1112400D01*
X734606Y1097400D02*
Y1112400D01*
X707606Y1071760D02*
X734606D01*
X707606Y1056760D02*
X734606D01*
X707606D02*
Y1071760D01*
X734606Y1056760D02*
Y1071760D01*
X753260Y1237430D02*
Y1261930D01*
X765660D01*
Y1237430D02*
Y1261930D01*
X753260Y1237430D02*
X765660D01*
X758030Y1141700D02*
Y1169700D01*
X738030Y1141700D02*
X758030D01*
X738030D02*
Y1169700D01*
X758030D01*
X709110Y1172060D02*
X733610D01*
Y1159660D02*
Y1172060D01*
X709110Y1159660D02*
X733610D01*
X709110D02*
Y1172060D01*
Y1151740D02*
X733610D01*
Y1139340D02*
Y1151740D01*
X709110Y1139340D02*
X733610D01*
X709110D02*
Y1151740D01*
X401440Y1206740D02*
Y1236740D01*
X416440D01*
Y1206740D02*
Y1236740D01*
X401440Y1206740D02*
X416440D01*
X379410Y1259700D02*
X415610D01*
X379410Y1242200D02*
X415610D01*
X379410D02*
Y1259700D01*
X415610Y1242200D02*
Y1259700D01*
X708700Y343810D02*
X815300D01*
Y218810D02*
Y343810D01*
X708700Y218810D02*
X815300D01*
X708700D02*
Y343810D01*
X829350Y218810D02*
Y343810D01*
Y218810D02*
X935950D01*
Y343810D01*
X829350D02*
X935950D01*
X953810Y218810D02*
Y343810D01*
Y218810D02*
X1060410D01*
Y343810D01*
X953810D02*
X1060410D01*
X969024Y896486D02*
Y911486D01*
X939024D02*
X969024D01*
X939024Y896486D02*
Y911486D01*
Y896486D02*
X969024D01*
X813430Y903976D02*
Y921776D01*
X784230D02*
X813430D01*
X784230Y903976D02*
Y921776D01*
Y903976D02*
X813430D01*
X1004810Y920870D02*
X1034810D01*
X1004810D02*
Y935870D01*
X1034810D01*
Y920870D02*
Y935870D01*
X1011508Y975052D02*
X1046908D01*
X1011508Y936552D02*
Y975052D01*
Y936552D02*
X1046908D01*
Y975052D01*
X1014208Y993782D02*
X1044208D01*
Y978782D02*
Y993782D01*
X1014208Y978782D02*
X1044208D01*
X1014208D02*
Y993782D01*
X1028058Y996682D02*
Y1026682D01*
X1043058D01*
Y996682D02*
Y1026682D01*
X1028058Y996682D02*
X1043058D01*
X1020130Y905800D02*
X1051630D01*
X1020130Y881300D02*
Y905800D01*
X1010130Y881300D02*
X1020130D01*
X1010130Y744300D02*
Y881300D01*
Y744300D02*
X1020130D01*
Y719800D02*
Y744300D01*
Y719800D02*
X1051630D01*
Y709800D02*
Y719800D01*
Y709800D02*
X1155630D01*
Y719800D01*
X1187130D01*
Y744300D01*
X1197130D01*
Y881300D01*
X1187130D02*
X1197130D01*
X1187130D02*
Y905800D01*
X1155630D02*
X1187130D01*
X1155630D02*
Y915800D01*
X1051630D02*
X1155630D01*
X1051630Y905800D02*
Y915800D01*
X1253730Y1107320D02*
X1283730D01*
Y1092320D02*
Y1107320D01*
X1253730Y1092320D02*
X1283730D01*
X1253730D02*
Y1107320D01*
Y1132720D02*
X1283730D01*
Y1117720D02*
Y1132720D01*
X1253730Y1117720D02*
X1283730D01*
X1253730D02*
Y1132720D01*
X1293000Y1109030D02*
X1310500D01*
X1293000Y1072830D02*
X1310500D01*
Y1109030D01*
X1293000Y1072830D02*
Y1109030D01*
X1309230Y1122360D02*
Y1158560D01*
X1291730Y1122360D02*
Y1158560D01*
X1309230D01*
X1291730Y1122360D02*
X1309230D01*
X1183340Y540370D02*
X1332340D01*
Y681370D01*
X1183340D02*
X1332340D01*
X1183340Y540370D02*
Y681370D01*
X1165980Y392900D02*
X1180980D01*
X1165980Y419900D02*
X1180980D01*
X1165980Y392900D02*
Y419900D01*
X1180980Y392900D02*
Y419900D01*
X1156900Y478160D02*
X1179900D01*
X1156900Y431160D02*
X1179900D01*
Y478160D01*
X1156900Y431160D02*
Y478160D01*
X811426Y992436D02*
X823826D01*
X811426Y967936D02*
Y992436D01*
Y967936D02*
X823826D01*
Y992436D01*
X937634Y910576D02*
X952634D01*
Y940576D01*
X937634D02*
X952634D01*
X937634Y910576D02*
Y940576D01*
X357340Y666630D02*
X384340D01*
X357340Y651630D02*
X384340D01*
X357340D02*
Y666630D01*
X384340Y651630D02*
Y666630D01*
X346050Y641290D02*
X390550D01*
X346050Y570290D02*
Y641290D01*
Y570290D02*
X390550D01*
Y641290D01*
X542410Y511950D02*
X557410D01*
X542410Y481950D02*
Y511950D01*
Y481950D02*
X557410D01*
Y511950D01*
X525900Y449820D02*
X540900D01*
Y479820D01*
X525900D02*
X540900D01*
X525900Y449820D02*
Y479820D01*
Y481570D02*
X540900D01*
Y511570D01*
X525900D02*
X540900D01*
X525900Y481570D02*
Y511570D01*
X542410Y479820D02*
X557410D01*
X542410Y449820D02*
Y479820D01*
Y449820D02*
X557410D01*
Y479820D01*
X798726Y479748D02*
X811126D01*
Y504248D01*
X798726D02*
X811126D01*
X798726Y479748D02*
Y504248D01*
X734180Y475220D02*
X749180D01*
Y505220D01*
X734180D02*
X749180D01*
X734180Y475220D02*
Y505220D01*
X752890Y458720D02*
Y521720D01*
X788890D01*
Y458720D02*
Y521720D01*
X752890Y458720D02*
X788890D01*
X821958Y435730D02*
Y450730D01*
X791958D02*
X821958D01*
X791958Y435730D02*
Y450730D01*
Y435730D02*
X821958D01*
X721346D02*
Y450730D01*
Y435730D02*
X751346D01*
Y450730D01*
X721346D02*
X751346D01*
X439480Y386690D02*
Y431190D01*
Y386690D02*
X510480D01*
Y431190D01*
X439480D02*
X510480D01*
X593030Y386690D02*
Y431190D01*
X522030D02*
X593030D01*
X522030Y386690D02*
Y431190D01*
Y386690D02*
X593030D01*
X619820D02*
Y431190D01*
Y386690D02*
X690820D01*
Y431190D01*
X619820D02*
X690820D01*
X697290Y386690D02*
X768290D01*
X697290D02*
Y431190D01*
X768290D01*
Y386690D02*
Y431190D01*
X776030D02*
X847030D01*
Y386690D02*
Y431190D01*
X776030Y386690D02*
X847030D01*
X776030D02*
Y431190D01*
X416500Y386690D02*
Y431190D01*
X345500D02*
X416500D01*
X345500Y386690D02*
Y431190D01*
Y386690D02*
X416500D01*
X598290Y401560D02*
Y431560D01*
X613290D01*
Y401560D02*
Y431560D01*
X598290Y401560D02*
X613290D01*
X420490D02*
Y431560D01*
X435490D01*
Y401560D02*
Y431560D01*
X420490Y401560D02*
X435490D01*
X598410Y451810D02*
X628410D01*
Y436810D02*
Y451810D01*
X598410Y436810D02*
X628410D01*
X598410D02*
Y451810D01*
X566080Y438060D02*
X590580D01*
X566080D02*
Y450460D01*
X590580D01*
Y438060D02*
Y450460D01*
X1132040Y407550D02*
X1159040D01*
X1132040Y392550D02*
X1159040D01*
X1132040D02*
Y407550D01*
X1159040Y392550D02*
Y407550D01*
X1097750Y391280D02*
X1124750D01*
X1097750Y406280D02*
X1124750D01*
Y391280D02*
Y406280D01*
X1097750Y391280D02*
Y406280D01*
X1083750Y504610D02*
X1138750D01*
X1083750Y430110D02*
Y504610D01*
Y430110D02*
X1138750D01*
Y504610D01*
X1064730Y405010D02*
X1091730D01*
X1064730Y390010D02*
X1091730D01*
X1064730D02*
Y405010D01*
X1091730Y390010D02*
Y405010D01*
X355720Y835900D02*
Y865900D01*
X370720D01*
Y835900D02*
Y865900D01*
X355720Y835900D02*
X370720D01*
Y795260D02*
Y825260D01*
X355720Y795260D02*
X370720D01*
X355720D02*
Y825260D01*
X370720D01*
X259410Y741350D02*
X321910D01*
Y870350D01*
X259410D02*
X321910D01*
X259410Y741350D02*
Y870350D01*
X879990Y537450D02*
Y567450D01*
X864990Y537450D02*
X879990D01*
X864990D02*
Y567450D01*
X879990D01*
X880830Y589560D02*
Y624560D01*
X843830D02*
X880830D01*
X843830Y589560D02*
Y624560D01*
Y589560D02*
X880830D01*
X849870Y571620D02*
X879870D01*
X849870D02*
Y586620D01*
X879870D01*
Y571620D02*
Y586620D01*
X1155820Y1254060D02*
X1230820D01*
Y1193060D02*
Y1254060D01*
X1155820Y1193060D02*
X1230820D01*
X1155820D02*
Y1254060D01*
X1116570Y1234560D02*
X1146570D01*
X1116570D02*
Y1249560D01*
X1146570D01*
Y1234560D02*
Y1249560D01*
X1145390Y1203140D02*
Y1227640D01*
X1132990Y1203140D02*
X1145390D01*
X1132990D02*
Y1227640D01*
X1145390D01*
X1026010Y1203140D02*
Y1227640D01*
X1013610Y1203140D02*
X1026010D01*
X1013610D02*
Y1227640D01*
X1026010D01*
X356490Y963860D02*
X367490D01*
Y986860D01*
X356490D02*
X367490D01*
X356490Y963860D02*
Y986860D01*
X357320Y1003150D02*
X381820D01*
Y990750D02*
Y1003150D01*
X357320Y990750D02*
X381820D01*
X357320D02*
Y1003150D01*
X423060Y1091380D02*
Y1115880D01*
X435460D01*
Y1091380D02*
Y1115880D01*
X423060Y1091380D02*
X435460D01*
X387450Y1059330D02*
X411950D01*
X387450D02*
Y1071730D01*
X411950D01*
Y1059330D02*
Y1071730D01*
X1190040Y383514D02*
X1228040D01*
Y348514D02*
Y383514D01*
X1190040Y348514D02*
X1228040D01*
X1190040D02*
Y383514D01*
X565810Y494330D02*
X628810D01*
Y458330D02*
Y494330D01*
X565810Y458330D02*
X628810D01*
X565810D02*
Y494330D01*
X640230Y474668D02*
X652630D01*
Y499168D01*
X640230D02*
X652630D01*
X640230Y474668D02*
Y499168D01*
X334920Y580430D02*
Y687030D01*
X209920Y580430D02*
X334920D01*
X209920D02*
Y687030D01*
X334920D01*
X326030Y1050330D02*
Y1156930D01*
X201030Y1050330D02*
X326030D01*
X201030D02*
Y1156930D01*
X326030D01*
X376530Y1052640D02*
Y1124140D01*
X332130Y1052640D02*
X376530D01*
X332130D02*
Y1124140D01*
X376530D01*
X506900Y1035520D02*
Y1134020D01*
X432900Y1035520D02*
X506900D01*
X432900D02*
Y1134020D01*
X506900D01*
X382300Y1076280D02*
Y1118280D01*
X417800D01*
Y1076280D02*
Y1118280D01*
X382300Y1076280D02*
X417800D01*
X825414Y927638D02*
Y963138D01*
X782914D02*
X825414D01*
X782914Y927638D02*
Y963138D01*
Y927638D02*
X825414D01*
X970394Y950196D02*
Y992396D01*
X940194Y950196D02*
X970394D01*
X940194D02*
Y992396D01*
X970394D01*
X247090Y1001480D02*
X331290D01*
X247090Y900980D02*
Y1001480D01*
Y900980D02*
X331290D01*
Y1001480D01*
X357720Y904170D02*
Y927170D01*
X368720D01*
Y904170D02*
Y927170D01*
X357720Y904170D02*
X368720D01*
X404339Y902141D02*
Y1007141D01*
Y902141D02*
X477439D01*
Y1007141D01*
X404339D02*
X477439D01*
X486560Y980890D02*
X498960D01*
Y1005390D01*
X486560D02*
X498960D01*
X486560Y980890D02*
Y1005390D01*
X1026810Y1234560D02*
Y1249560D01*
X996810D02*
X1026810D01*
X996810Y1234560D02*
Y1249560D01*
Y1234560D02*
X1026810D01*
X1033110Y1193060D02*
Y1254060D01*
Y1193060D02*
X1108110D01*
Y1254060D01*
X1033110D02*
X1108110D01*
X344290Y472200D02*
X359290D01*
X344290Y442200D02*
Y472200D01*
Y442200D02*
X359290D01*
Y472200D01*
X857370Y390130D02*
X872370D01*
Y420130D01*
X857370D02*
X872370D01*
X857370Y390130D02*
Y420130D01*
X960240Y390130D02*
X975240D01*
Y420130D01*
X960240D02*
X975240D01*
X960240Y390130D02*
Y420130D01*
X1329190Y702580D02*
Y831580D01*
X1266690Y702580D02*
X1329190D01*
X1266690D02*
Y831580D01*
X1329190D01*
X1155850Y559250D02*
X1168250D01*
Y583750D01*
X1155850D02*
X1168250D01*
X1155850Y559250D02*
Y583750D01*
X1140610Y559250D02*
X1153010D01*
Y583750D01*
X1140610D02*
X1153010D01*
X1140610Y559250D02*
Y583750D01*
X1283830Y884830D02*
X1322330D01*
X1283830Y839830D02*
Y884830D01*
Y839830D02*
X1322330D01*
Y884830D01*
X423360Y438060D02*
Y450460D01*
Y438060D02*
X447860D01*
Y450460D01*
X423360D02*
X447860D01*
X415050Y436810D02*
Y451810D01*
X385050D02*
X415050D01*
X385050Y436810D02*
Y451810D01*
Y436810D02*
X415050D01*
M02*
