G04*
G04 #@! TF.GenerationSoftware,Altium Limited,Altium Designer,23.7.1 (13)*
G04*
G04 Layer_Color=16711935*
%FSLAX44Y44*%
%MOMM*%
G71*
G04*
G04 #@! TF.SameCoordinates,24B2A3DB-1DB8-4C05-8545-67722458D9E1*
G04*
G04*
G04 #@! TF.FilePolarity,Negative*
G04*
G01*
G75*
%ADD121R,1.4032X1.4032*%
%ADD122C,1.4032*%
%ADD123C,2.4532*%
%ADD124R,2.6782X2.6782*%
%ADD125C,2.6782*%
%ADD126R,1.7112X1.7112*%
%ADD127C,1.7112*%
%ADD128O,2.2032X1.1032*%
%ADD129O,1.9032X1.1032*%
%ADD130C,2.2032*%
%ADD131C,6.2032*%
%ADD132R,2.6782X2.6782*%
%ADD133R,1.4032X1.4032*%
%ADD134C,0.8032*%
%ADD135C,1.2032*%
%ADD136C,0.7032*%
D121*
X712190Y1221740D02*
D03*
D122*
X677190D02*
D03*
X499110Y1220470D02*
D03*
X1275080Y1010360D02*
D03*
X1184910Y1009370D02*
D03*
D123*
X656513Y320810D02*
D03*
X605713D02*
D03*
X554913D02*
D03*
X1206500D02*
D03*
X1155700D02*
D03*
X1104900D02*
D03*
X312920Y509270D02*
D03*
X376267Y320810D02*
D03*
X312920Y407670D02*
D03*
Y458470D02*
D03*
X427067Y320810D02*
D03*
X477867D02*
D03*
D124*
X736600Y321310D02*
D03*
X857250D02*
D03*
X981710D02*
D03*
D125*
X787400D02*
D03*
X908050D02*
D03*
X1032510D02*
D03*
X312420Y608330D02*
D03*
X303530Y1078230D02*
D03*
D126*
X1230630Y821690D02*
D03*
Y796690D02*
D03*
Y771690D02*
D03*
Y746690D02*
D03*
X295910Y843350D02*
D03*
X1292690Y729580D02*
D03*
D127*
X295910Y818350D02*
D03*
Y768350D02*
D03*
Y793350D02*
D03*
X1292690Y779580D02*
D03*
Y804580D02*
D03*
Y754580D02*
D03*
D128*
X317290Y994480D02*
D03*
Y907980D02*
D03*
D129*
X275590Y994480D02*
D03*
Y907980D02*
D03*
D130*
X955040Y636270D02*
D03*
Y560270D02*
D03*
X916432Y1001522D02*
D03*
D131*
X1289050Y1225550D02*
D03*
X298450Y298450D02*
D03*
X1289050D02*
D03*
X298450Y1225550D02*
D03*
D132*
X312420Y659130D02*
D03*
X303530Y1129030D02*
D03*
D133*
X499110Y1170470D02*
D03*
X1275080Y975360D02*
D03*
X1184910Y974370D02*
D03*
D134*
X312390Y980130D02*
D03*
Y922330D02*
D03*
X992632Y437388D02*
D03*
X979932Y437896D02*
D03*
X1151636Y419100D02*
D03*
X1138936Y419608D02*
D03*
X1085850Y412242D02*
D03*
X1086358Y424942D02*
D03*
X1230376Y297080D02*
D03*
X1208960D02*
D03*
X1187543D02*
D03*
X1230376Y340005D02*
D03*
X1208960D02*
D03*
X1187543D02*
D03*
Y318669D02*
D03*
X1230376Y318262D02*
D03*
X1053592Y299620D02*
D03*
X1032176D02*
D03*
X1010759D02*
D03*
X1053592Y342546D02*
D03*
X1032176D02*
D03*
X1010759D02*
D03*
Y321209D02*
D03*
X1053592Y320802D02*
D03*
X928116Y300382D02*
D03*
X906700D02*
D03*
X885283D02*
D03*
X928116Y343307D02*
D03*
X906700D02*
D03*
X885283D02*
D03*
Y321972D02*
D03*
X928116Y321564D02*
D03*
X702056Y330708D02*
D03*
Y319024D02*
D03*
Y307340D02*
D03*
X689356Y331216D02*
D03*
Y319532D02*
D03*
Y307848D02*
D03*
X891794Y478028D02*
D03*
X880110D02*
D03*
X868426D02*
D03*
X892302Y490728D02*
D03*
X880618D02*
D03*
X868934D02*
D03*
X798576Y654812D02*
D03*
X786892D02*
D03*
X775208D02*
D03*
X799084Y667512D02*
D03*
X787400D02*
D03*
X775716D02*
D03*
X696976Y710946D02*
D03*
X685292D02*
D03*
X673608D02*
D03*
X697484Y723646D02*
D03*
X685800D02*
D03*
X674116D02*
D03*
X687578Y824230D02*
D03*
Y835914D02*
D03*
Y847598D02*
D03*
X700278Y823722D02*
D03*
Y835406D02*
D03*
Y847090D02*
D03*
X509270Y847852D02*
D03*
Y859536D02*
D03*
Y871220D02*
D03*
X521970Y847344D02*
D03*
Y859028D02*
D03*
Y870712D02*
D03*
X453136Y753364D02*
D03*
Y765048D02*
D03*
Y776732D02*
D03*
X465836Y752856D02*
D03*
Y764540D02*
D03*
Y776224D02*
D03*
X379984Y737108D02*
D03*
Y748792D02*
D03*
Y760476D02*
D03*
X392684Y736600D02*
D03*
Y748284D02*
D03*
Y759968D02*
D03*
X282194Y749808D02*
D03*
X293878D02*
D03*
X305562D02*
D03*
X281686Y737108D02*
D03*
X293370D02*
D03*
X305054D02*
D03*
X282956Y960882D02*
D03*
Y949198D02*
D03*
Y937514D02*
D03*
X270256Y961390D02*
D03*
Y949706D02*
D03*
Y938022D02*
D03*
X447040Y941324D02*
D03*
Y929640D02*
D03*
Y917956D02*
D03*
X434340Y941832D02*
D03*
Y930148D02*
D03*
Y918464D02*
D03*
X604774Y891032D02*
D03*
X593090D02*
D03*
X581406D02*
D03*
X605282Y903732D02*
D03*
X593598D02*
D03*
X581914D02*
D03*
X875284Y930656D02*
D03*
Y942340D02*
D03*
Y954024D02*
D03*
X887984Y930148D02*
D03*
Y941832D02*
D03*
Y953516D02*
D03*
X332740Y585369D02*
D03*
X311324D02*
D03*
X289907D02*
D03*
X332740Y628296D02*
D03*
X311324D02*
D03*
X289907D02*
D03*
Y606959D02*
D03*
X332740Y606552D02*
D03*
X334772Y487071D02*
D03*
X313356D02*
D03*
X291939D02*
D03*
X334772Y529997D02*
D03*
X313356D02*
D03*
X291939D02*
D03*
Y508661D02*
D03*
X334772Y508254D02*
D03*
X397764Y299111D02*
D03*
X376348D02*
D03*
X354931D02*
D03*
X397764Y342038D02*
D03*
X376348D02*
D03*
X354931D02*
D03*
Y320701D02*
D03*
X397764Y320294D02*
D03*
X575564Y320040D02*
D03*
X532731Y320448D02*
D03*
Y341783D02*
D03*
X554147D02*
D03*
X575564D02*
D03*
X532731Y298857D02*
D03*
X554147D02*
D03*
X575564D02*
D03*
X971296Y619913D02*
D03*
X954959D02*
D03*
X938623D02*
D03*
X971296Y652680D02*
D03*
X954959D02*
D03*
X938623D02*
D03*
Y636423D02*
D03*
X971296Y636016D02*
D03*
X1288034Y996341D02*
D03*
X1274238D02*
D03*
X1260441D02*
D03*
X1288034Y1024281D02*
D03*
X1274238D02*
D03*
X1260441D02*
D03*
Y1010312D02*
D03*
X1288034Y1009904D02*
D03*
X1197102Y995325D02*
D03*
X1183306D02*
D03*
X1169509D02*
D03*
X1197102Y1023266D02*
D03*
X1183306D02*
D03*
X1169509D02*
D03*
Y1009296D02*
D03*
X1197102Y1008888D02*
D03*
X513241Y1219809D02*
D03*
X485648Y1220216D02*
D03*
X429260Y1057148D02*
D03*
Y1068832D02*
D03*
Y1080516D02*
D03*
X456946Y1034542D02*
D03*
X468630D02*
D03*
X480314D02*
D03*
X312674Y1054100D02*
D03*
X300990D02*
D03*
X289306D02*
D03*
X281432Y1065276D02*
D03*
Y1076960D02*
D03*
Y1088644D02*
D03*
X485648Y1234186D02*
D03*
X499445D02*
D03*
X513241D02*
D03*
X485648Y1206246D02*
D03*
X499445D02*
D03*
X513241D02*
D03*
X1166876Y1164844D02*
D03*
X1178560D02*
D03*
X1190244D02*
D03*
X1107186Y1163828D02*
D03*
X1118870D02*
D03*
X1130554D02*
D03*
X1061720D02*
D03*
X1073404D02*
D03*
X1085088D02*
D03*
X1291336Y916432D02*
D03*
Y904748D02*
D03*
Y893064D02*
D03*
X1311656Y740918D02*
D03*
Y729234D02*
D03*
Y717550D02*
D03*
X1244346Y690626D02*
D03*
X1232662D02*
D03*
X1220978D02*
D03*
X1243330Y531622D02*
D03*
X1231646D02*
D03*
X1219962D02*
D03*
X1274318Y851662D02*
D03*
X1259942D02*
D03*
X1245565D02*
D03*
X1231189D02*
D03*
X1216812D02*
D03*
X1202436D02*
D03*
X1274318Y873252D02*
D03*
X1259942D02*
D03*
X1245565D02*
D03*
X1231189D02*
D03*
X1216812D02*
D03*
X1202436D02*
D03*
X1157732Y796036D02*
D03*
Y807720D02*
D03*
Y819404D02*
D03*
X1104646Y861568D02*
D03*
X1116330D02*
D03*
X1128014D02*
D03*
X1105154Y876808D02*
D03*
X1116838D02*
D03*
X1128522D02*
D03*
X1061466Y808736D02*
D03*
Y797052D02*
D03*
Y785368D02*
D03*
X1049020Y808990D02*
D03*
Y797306D02*
D03*
Y785622D02*
D03*
X966216Y872744D02*
D03*
X954532D02*
D03*
X942848D02*
D03*
X966724Y885444D02*
D03*
X955040D02*
D03*
X943356D02*
D03*
X969264Y1019556D02*
D03*
X957580D02*
D03*
X945896D02*
D03*
X969264Y1005840D02*
D03*
X957580D02*
D03*
X945896D02*
D03*
X868680Y1226566D02*
D03*
X856996D02*
D03*
X845312D02*
D03*
X937006Y1154938D02*
D03*
Y1166622D02*
D03*
Y1178306D02*
D03*
X840486Y1148588D02*
D03*
Y1160272D02*
D03*
Y1171956D02*
D03*
X855726Y1147572D02*
D03*
X867410D02*
D03*
X879094D02*
D03*
X653034Y1014984D02*
D03*
X565658Y1227074D02*
D03*
X659638Y1212596D02*
D03*
Y1224280D02*
D03*
X685038Y1235964D02*
D03*
X672338D02*
D03*
X772668Y490982D02*
D03*
X776986Y540004D02*
D03*
X821182Y1198166D02*
D03*
X659638Y1235964D02*
D03*
X341376Y941578D02*
D03*
X353060Y957072D02*
D03*
X517652Y747268D02*
D03*
X575564Y763524D02*
D03*
X752348Y762508D02*
D03*
X716788Y960882D02*
D03*
X769620Y1015492D02*
D03*
X1209892Y760347D02*
D03*
X1210056Y789940D02*
D03*
X1209294Y776986D02*
D03*
X1002284Y852932D02*
D03*
X1008380Y898906D02*
D03*
X856488Y562102D02*
D03*
X911098Y760476D02*
D03*
X698754Y1115568D02*
D03*
X660400Y1114806D02*
D03*
X826262Y1124458D02*
D03*
X832104Y1055370D02*
D03*
X751586Y1016000D02*
D03*
X728472Y961136D02*
D03*
X734822Y1016000D02*
D03*
X719328Y1017016D02*
D03*
X702310Y961136D02*
D03*
X740664Y896366D02*
D03*
X752362Y885671D02*
D03*
X685800Y1011936D02*
D03*
X673862Y1012190D02*
D03*
X659892Y477012D02*
D03*
X660146Y454406D02*
D03*
X857504Y1101344D02*
D03*
X773430Y955548D02*
D03*
X833374Y607314D02*
D03*
X594614Y795782D02*
D03*
X343662Y868680D02*
D03*
X935736Y1114806D02*
D03*
X906018Y1238250D02*
D03*
X890778Y1227836D02*
D03*
X845312Y1207516D02*
D03*
X897382Y1114552D02*
D03*
X447040Y996696D02*
D03*
X1003300Y1220470D02*
D03*
X1001268Y1258316D02*
D03*
X818896Y1226550D02*
D03*
X517144Y455422D02*
D03*
X549402Y521716D02*
D03*
X883412Y417830D02*
D03*
X994664Y407670D02*
D03*
X389382Y842518D02*
D03*
X435356Y986028D02*
D03*
Y973582D02*
D03*
X407924Y858774D02*
D03*
X930402Y903478D02*
D03*
X601726Y997204D02*
D03*
X552704Y848868D02*
D03*
X489458Y961390D02*
D03*
X387858Y817880D02*
D03*
X1160272Y1224534D02*
D03*
X998982Y1077214D02*
D03*
D135*
X604520Y844804D02*
D03*
D136*
X754380Y1061974D02*
D03*
M02*
