G04*
G04 #@! TF.GenerationSoftware,Altium Limited,Altium Designer,23.7.1 (13)*
G04*
G04 Layer_Color=2752767*
%FSLAX44Y44*%
%MOMM*%
G71*
G04*
G04 #@! TF.SameCoordinates,3071C145-2305-4F11-89AA-D09C7C2D5F18*
G04*
G04*
G04 #@! TF.FilePolarity,Positive*
G04*
G01*
G75*
%ADD11C,0.1270*%
%ADD157C,0.1693*%
%ADD158C,0.1016*%
D11*
X707110Y1221740D02*
X712190Y1226820D01*
X717270Y1221740D01*
X712190Y1216660D01*
X707110Y1221740D01*
X672110D02*
X677190Y1226820D01*
X682270Y1221740D01*
X677190Y1216660D01*
X672110Y1221740D01*
X651433Y315730D02*
Y325890D01*
X661593D01*
Y315730D01*
X651433D01*
X600633D02*
Y325890D01*
X610793D01*
Y315730D01*
X600633D01*
X549833D02*
Y325890D01*
X559993D01*
Y315730D01*
X549833D01*
X1201420D02*
Y325890D01*
X1211580D01*
Y315730D01*
X1201420D01*
X1150620D02*
Y325890D01*
X1160780D01*
Y315730D01*
X1150620D01*
X1099820D02*
Y325890D01*
X1109980D01*
Y315730D01*
X1099820D01*
X290830Y838270D02*
X293370D01*
X295910Y840810D01*
X298450Y838270D01*
X300990D01*
Y840810D01*
X298450Y843350D01*
X300990Y845890D01*
Y848430D01*
X298450D01*
X295910Y845890D01*
X293370Y848430D01*
X290830D01*
Y845890D01*
X293370Y843350D01*
X290830Y840810D01*
Y838270D01*
Y813270D02*
X293370D01*
X295910Y815810D01*
X298450Y813270D01*
X300990D01*
Y815810D01*
X298450Y818350D01*
X300990Y820890D01*
Y823430D01*
X298450D01*
X295910Y820890D01*
X293370Y823430D01*
X290830D01*
Y820890D01*
X293370Y818350D01*
X290830Y815810D01*
Y813270D01*
Y763270D02*
X293370D01*
X295910Y765810D01*
X298450Y763270D01*
X300990D01*
Y765810D01*
X298450Y768350D01*
X300990Y770890D01*
Y773430D01*
X298450D01*
X295910Y770890D01*
X293370Y773430D01*
X290830D01*
Y770890D01*
X293370Y768350D01*
X290830Y765810D01*
Y763270D01*
Y788270D02*
X293370D01*
X295910Y790810D01*
X298450Y788270D01*
X300990D01*
Y790810D01*
X298450Y793350D01*
X300990Y795890D01*
Y798430D01*
X298450D01*
X295910Y795890D01*
X293370Y798430D01*
X290830D01*
Y795890D01*
X293370Y793350D01*
X290830Y790810D01*
Y788270D01*
X499110Y1215390D02*
X494030Y1225550D01*
X504190D01*
X499110Y1215390D01*
X312210Y989400D02*
X314750Y994480D01*
X312210Y999560D01*
X317290Y997020D01*
X322370Y999560D01*
X319830Y994480D01*
X322370Y989400D01*
X317290Y991940D01*
X312210Y989400D01*
Y902900D02*
X314750Y907980D01*
X312210Y913060D01*
X317290Y910520D01*
X322370Y913060D01*
X319830Y907980D01*
X322370Y902900D01*
X317290Y905440D01*
X312210Y902900D01*
X273050Y991940D02*
Y989400D01*
X278130D01*
Y991940D01*
X280670D01*
Y997020D01*
X278130D01*
Y999560D01*
X273050D01*
Y997020D01*
X270510D01*
Y991940D01*
X273050D01*
Y905440D02*
Y902900D01*
X278130D01*
Y905440D01*
X280670D01*
Y910520D01*
X278130D01*
Y913060D01*
X273050D01*
Y910520D01*
X270510D01*
Y905440D01*
X273050D01*
X955040Y631190D02*
X949960Y641350D01*
X960120D01*
X955040Y631190D01*
X307840Y504190D02*
Y514350D01*
X318000D01*
Y504190D01*
X307840D01*
X1287610Y724500D02*
X1290150D01*
X1292690Y727040D01*
X1295230Y724500D01*
X1297770D01*
Y727040D01*
X1295230Y729580D01*
X1297770Y732120D01*
Y734660D01*
X1295230D01*
X1292690Y732120D01*
X1290150Y734660D01*
X1287610D01*
Y732120D01*
X1290150Y729580D01*
X1287610Y727040D01*
Y724500D01*
X1270000Y1010360D02*
X1275080Y1015440D01*
X1280160Y1010360D01*
X1275080Y1005280D01*
X1270000Y1010360D01*
X1179830Y1009370D02*
X1184910Y1014450D01*
X1189990Y1009370D01*
X1184910Y1004290D01*
X1179830Y1009370D01*
X371187Y315730D02*
Y325890D01*
X381347D01*
Y315730D01*
X371187D01*
X307840Y402590D02*
Y412750D01*
X318000D01*
Y402590D01*
X307840D01*
X1283970Y1220470D02*
Y1230630D01*
X1294130D01*
Y1220470D01*
X1283970D01*
X1286002Y1222502D02*
Y1228598D01*
X1292098D01*
Y1222502D01*
X1286002D01*
X293370Y293370D02*
Y303530D01*
X303530D01*
Y293370D01*
X293370D01*
X295402Y295402D02*
Y301498D01*
X301498D01*
Y295402D01*
X295402D01*
X1283970Y293370D02*
Y303530D01*
X1294130D01*
Y293370D01*
X1283970D01*
X1286002Y295402D02*
Y301498D01*
X1292098D01*
Y295402D01*
X1286002D01*
X293370Y1220470D02*
Y1230630D01*
X303530D01*
Y1220470D01*
X293370D01*
X295402Y1222502D02*
Y1228598D01*
X301498D01*
Y1222502D01*
X295402D01*
X499110Y1165390D02*
X494030Y1175550D01*
X504190D01*
X499110Y1165390D01*
X312390Y975050D02*
X314930Y977590D01*
X317470D01*
X314930Y980130D01*
X317470Y982670D01*
X314930D01*
X312390Y985210D01*
X309850Y982670D01*
X307310D01*
X309850Y980130D01*
X307310Y977590D01*
X309850D01*
X312390Y975050D01*
Y917250D02*
X314930Y919790D01*
X317470D01*
X314930Y922330D01*
X317470Y924870D01*
X314930D01*
X312390Y927410D01*
X309850Y924870D01*
X307310D01*
X309850Y922330D01*
X307310Y919790D01*
X309850D01*
X312390Y917250D01*
X955040Y555190D02*
X949960Y565350D01*
X960120D01*
X955040Y555190D01*
X307840Y453390D02*
Y463550D01*
X318000D01*
Y453390D01*
X307840D01*
X1287610Y774500D02*
X1290150D01*
X1292690Y777040D01*
X1295230Y774500D01*
X1297770D01*
Y777040D01*
X1295230Y779580D01*
X1297770Y782120D01*
Y784660D01*
X1295230D01*
X1292690Y782120D01*
X1290150Y784660D01*
X1287610D01*
Y782120D01*
X1290150Y779580D01*
X1287610Y777040D01*
Y774500D01*
Y799500D02*
X1290150D01*
X1292690Y802040D01*
X1295230Y799500D01*
X1297770D01*
Y802040D01*
X1295230Y804580D01*
X1297770Y807120D01*
Y809660D01*
X1295230D01*
X1292690Y807120D01*
X1290150Y809660D01*
X1287610D01*
Y807120D01*
X1290150Y804580D01*
X1287610Y802040D01*
Y799500D01*
Y749500D02*
X1290150D01*
X1292690Y752040D01*
X1295230Y749500D01*
X1297770D01*
Y752040D01*
X1295230Y754580D01*
X1297770Y757120D01*
Y759660D01*
X1295230D01*
X1292690Y757120D01*
X1290150Y759660D01*
X1287610D01*
Y757120D01*
X1290150Y754580D01*
X1287610Y752040D01*
Y749500D01*
X1270000Y975360D02*
X1275080Y980440D01*
X1280160Y975360D01*
X1275080Y970280D01*
X1270000Y975360D01*
X1179830Y974370D02*
X1184910Y979450D01*
X1189990Y974370D01*
X1184910Y969290D01*
X1179830Y974370D01*
X421987Y315730D02*
Y325890D01*
X432147D01*
Y315730D01*
X421987D01*
X472787D02*
Y325890D01*
X482947D01*
Y315730D01*
X472787D01*
X992632Y432308D02*
X987552Y442468D01*
X997712D01*
X992632Y432308D01*
Y434340D02*
X989584Y440436D01*
X995680D01*
X992632Y434340D01*
X979932Y432816D02*
X974852Y442976D01*
X985012D01*
X979932Y432816D01*
Y434848D02*
X976884Y440944D01*
X982980D01*
X979932Y434848D01*
X1151636Y414020D02*
X1146556Y424180D01*
X1156716D01*
X1151636Y414020D01*
Y416052D02*
X1148588Y422148D01*
X1154684D01*
X1151636Y416052D01*
X1138936Y414528D02*
X1133856Y424688D01*
X1144016D01*
X1138936Y414528D01*
Y416560D02*
X1135888Y422656D01*
X1141984D01*
X1138936Y416560D01*
X1085850Y407162D02*
X1080770Y417322D01*
X1090930D01*
X1085850Y407162D01*
Y409194D02*
X1082802Y415290D01*
X1088898D01*
X1085850Y409194D01*
X1086358Y419862D02*
X1081278Y430022D01*
X1091438D01*
X1086358Y419862D01*
Y421894D02*
X1083310Y427990D01*
X1089406D01*
X1086358Y421894D01*
X1230376Y291999D02*
X1225296Y302160D01*
X1235456D01*
X1230376Y291999D01*
Y294032D02*
X1227328Y300128D01*
X1233424D01*
X1230376Y294032D01*
X1208960Y291999D02*
X1203879Y302160D01*
X1214040D01*
X1208960Y291999D01*
Y294032D02*
X1205911Y300128D01*
X1212008D01*
X1208960Y294032D01*
X1187543Y291999D02*
X1182463Y302160D01*
X1192623D01*
X1187543Y291999D01*
Y294032D02*
X1184495Y300128D01*
X1190591D01*
X1187543Y294032D01*
X1230376Y334925D02*
X1225296Y345085D01*
X1235456D01*
X1230376Y334925D01*
Y336958D02*
X1227328Y343054D01*
X1233424D01*
X1230376Y336958D01*
X1208960Y334925D02*
X1203879Y345085D01*
X1214040D01*
X1208960Y334925D01*
Y336958D02*
X1205911Y343054D01*
X1212008D01*
X1208960Y336958D01*
X1187543Y334925D02*
X1182463Y345085D01*
X1192623D01*
X1187543Y334925D01*
Y336958D02*
X1184495Y343054D01*
X1190591D01*
X1187543Y336958D01*
Y313589D02*
X1182463Y323750D01*
X1192623D01*
X1187543Y313589D01*
Y315621D02*
X1184495Y321717D01*
X1190591D01*
X1187543Y315621D01*
X1230376Y313182D02*
X1225296Y323342D01*
X1235456D01*
X1230376Y313182D01*
Y315214D02*
X1227328Y321310D01*
X1233424D01*
X1230376Y315214D01*
X1053592Y294540D02*
X1048512Y304699D01*
X1058672D01*
X1053592Y294540D01*
Y296572D02*
X1050544Y302668D01*
X1056640D01*
X1053592Y296572D01*
X1032176Y294540D02*
X1027095Y304699D01*
X1037255D01*
X1032176Y294540D01*
Y296572D02*
X1029128Y302668D01*
X1035223D01*
X1032176Y296572D01*
X1010759Y294540D02*
X1005679Y304699D01*
X1015839D01*
X1010759Y294540D01*
Y296572D02*
X1007711Y302668D01*
X1013807D01*
X1010759Y296572D01*
X1053592Y337466D02*
X1048512Y347626D01*
X1058672D01*
X1053592Y337466D01*
Y339497D02*
X1050544Y345593D01*
X1056640D01*
X1053592Y339497D01*
X1032176Y337466D02*
X1027095Y347626D01*
X1037255D01*
X1032176Y337466D01*
Y339497D02*
X1029128Y345593D01*
X1035223D01*
X1032176Y339497D01*
X1010759Y337466D02*
X1005679Y347626D01*
X1015839D01*
X1010759Y337466D01*
Y339497D02*
X1007711Y345593D01*
X1013807D01*
X1010759Y339497D01*
Y316129D02*
X1005679Y326289D01*
X1015839D01*
X1010759Y316129D01*
Y318162D02*
X1007711Y324258D01*
X1013807D01*
X1010759Y318162D01*
X1053592Y315722D02*
X1048512Y325882D01*
X1058672D01*
X1053592Y315722D01*
Y317754D02*
X1050544Y323850D01*
X1056640D01*
X1053592Y317754D01*
X928116Y295301D02*
X923036Y305462D01*
X933196D01*
X928116Y295301D01*
Y297334D02*
X925068Y303430D01*
X931164D01*
X928116Y297334D01*
X906700Y295301D02*
X901619Y305462D01*
X911779D01*
X906700Y295301D01*
Y297334D02*
X903652Y303430D01*
X909747D01*
X906700Y297334D01*
X885283Y295301D02*
X880203Y305462D01*
X890363D01*
X885283Y295301D01*
Y297334D02*
X882235Y303430D01*
X888331D01*
X885283Y297334D01*
X928116Y338228D02*
X923036Y348387D01*
X933196D01*
X928116Y338228D01*
Y340260D02*
X925068Y346356D01*
X931164D01*
X928116Y340260D01*
X906700Y338228D02*
X901619Y348387D01*
X911779D01*
X906700Y338228D01*
Y340260D02*
X903652Y346356D01*
X909747D01*
X906700Y340260D01*
X885283Y338228D02*
X880203Y348387D01*
X890363D01*
X885283Y338228D01*
Y340260D02*
X882235Y346356D01*
X888331D01*
X885283Y340260D01*
Y316891D02*
X880203Y327052D01*
X890363D01*
X885283Y316891D01*
Y318923D02*
X882235Y325019D01*
X888331D01*
X885283Y318923D01*
X928116Y316484D02*
X923036Y326644D01*
X933196D01*
X928116Y316484D01*
Y318516D02*
X925068Y324612D01*
X931164D01*
X928116Y318516D01*
X702056Y325628D02*
X696976Y335788D01*
X707136D01*
X702056Y325628D01*
Y327660D02*
X699008Y333756D01*
X705104D01*
X702056Y327660D01*
Y313944D02*
X696976Y324104D01*
X707136D01*
X702056Y313944D01*
Y315976D02*
X699008Y322072D01*
X705104D01*
X702056Y315976D01*
Y302260D02*
X696976Y312420D01*
X707136D01*
X702056Y302260D01*
Y304292D02*
X699008Y310388D01*
X705104D01*
X702056Y304292D01*
X689356Y326136D02*
X684276Y336296D01*
X694436D01*
X689356Y326136D01*
Y328168D02*
X686308Y334264D01*
X692404D01*
X689356Y328168D01*
Y314452D02*
X684276Y324612D01*
X694436D01*
X689356Y314452D01*
Y316484D02*
X686308Y322580D01*
X692404D01*
X689356Y316484D01*
Y302768D02*
X684276Y312928D01*
X694436D01*
X689356Y302768D01*
Y304800D02*
X686308Y310896D01*
X692404D01*
X689356Y304800D01*
X891794Y472948D02*
X886714Y483108D01*
X896874D01*
X891794Y472948D01*
Y474980D02*
X888746Y481076D01*
X894842D01*
X891794Y474980D01*
X880110Y472948D02*
X875030Y483108D01*
X885190D01*
X880110Y472948D01*
Y474980D02*
X877062Y481076D01*
X883158D01*
X880110Y474980D01*
X868426Y472948D02*
X863346Y483108D01*
X873506D01*
X868426Y472948D01*
Y474980D02*
X865378Y481076D01*
X871474D01*
X868426Y474980D01*
X892302Y485648D02*
X887222Y495808D01*
X897382D01*
X892302Y485648D01*
Y487680D02*
X889254Y493776D01*
X895350D01*
X892302Y487680D01*
X880618Y485648D02*
X875538Y495808D01*
X885698D01*
X880618Y485648D01*
Y487680D02*
X877570Y493776D01*
X883666D01*
X880618Y487680D01*
X868934Y485648D02*
X863854Y495808D01*
X874014D01*
X868934Y485648D01*
Y487680D02*
X865886Y493776D01*
X871982D01*
X868934Y487680D01*
X798576Y649732D02*
X793496Y659892D01*
X803656D01*
X798576Y649732D01*
Y651764D02*
X795528Y657860D01*
X801624D01*
X798576Y651764D01*
X786892Y649732D02*
X781812Y659892D01*
X791972D01*
X786892Y649732D01*
Y651764D02*
X783844Y657860D01*
X789940D01*
X786892Y651764D01*
X775208Y649732D02*
X770128Y659892D01*
X780288D01*
X775208Y649732D01*
Y651764D02*
X772160Y657860D01*
X778256D01*
X775208Y651764D01*
X799084Y662432D02*
X794004Y672592D01*
X804164D01*
X799084Y662432D01*
Y664464D02*
X796036Y670560D01*
X802132D01*
X799084Y664464D01*
X787400Y662432D02*
X782320Y672592D01*
X792480D01*
X787400Y662432D01*
Y664464D02*
X784352Y670560D01*
X790448D01*
X787400Y664464D01*
X775716Y662432D02*
X770636Y672592D01*
X780796D01*
X775716Y662432D01*
Y664464D02*
X772668Y670560D01*
X778764D01*
X775716Y664464D01*
X696976Y705866D02*
X691896Y716026D01*
X702056D01*
X696976Y705866D01*
Y707898D02*
X693928Y713994D01*
X700024D01*
X696976Y707898D01*
X685292Y705866D02*
X680212Y716026D01*
X690372D01*
X685292Y705866D01*
Y707898D02*
X682244Y713994D01*
X688340D01*
X685292Y707898D01*
X673608Y705866D02*
X668528Y716026D01*
X678688D01*
X673608Y705866D01*
Y707898D02*
X670560Y713994D01*
X676656D01*
X673608Y707898D01*
X697484Y718566D02*
X692404Y728726D01*
X702564D01*
X697484Y718566D01*
Y720598D02*
X694436Y726694D01*
X700532D01*
X697484Y720598D01*
X685800Y718566D02*
X680720Y728726D01*
X690880D01*
X685800Y718566D01*
Y720598D02*
X682752Y726694D01*
X688848D01*
X685800Y720598D01*
X674116Y718566D02*
X669036Y728726D01*
X679196D01*
X674116Y718566D01*
Y720598D02*
X671068Y726694D01*
X677164D01*
X674116Y720598D01*
X687578Y819150D02*
X682498Y829310D01*
X692658D01*
X687578Y819150D01*
Y821182D02*
X684530Y827278D01*
X690626D01*
X687578Y821182D01*
Y830834D02*
X682498Y840994D01*
X692658D01*
X687578Y830834D01*
Y832866D02*
X684530Y838962D01*
X690626D01*
X687578Y832866D01*
Y842518D02*
X682498Y852678D01*
X692658D01*
X687578Y842518D01*
Y844550D02*
X684530Y850646D01*
X690626D01*
X687578Y844550D01*
X700278Y818642D02*
X695198Y828802D01*
X705358D01*
X700278Y818642D01*
Y820674D02*
X697230Y826770D01*
X703326D01*
X700278Y820674D01*
Y830326D02*
X695198Y840486D01*
X705358D01*
X700278Y830326D01*
Y832358D02*
X697230Y838454D01*
X703326D01*
X700278Y832358D01*
Y842010D02*
X695198Y852170D01*
X705358D01*
X700278Y842010D01*
Y844042D02*
X697230Y850138D01*
X703326D01*
X700278Y844042D01*
X509270Y842772D02*
X504190Y852932D01*
X514350D01*
X509270Y842772D01*
Y844804D02*
X506222Y850900D01*
X512318D01*
X509270Y844804D01*
Y854456D02*
X504190Y864616D01*
X514350D01*
X509270Y854456D01*
Y856488D02*
X506222Y862584D01*
X512318D01*
X509270Y856488D01*
Y866140D02*
X504190Y876300D01*
X514350D01*
X509270Y866140D01*
Y868172D02*
X506222Y874268D01*
X512318D01*
X509270Y868172D01*
X521970Y842264D02*
X516890Y852424D01*
X527050D01*
X521970Y842264D01*
Y844296D02*
X518922Y850392D01*
X525018D01*
X521970Y844296D01*
Y853948D02*
X516890Y864108D01*
X527050D01*
X521970Y853948D01*
Y855980D02*
X518922Y862076D01*
X525018D01*
X521970Y855980D01*
Y865632D02*
X516890Y875792D01*
X527050D01*
X521970Y865632D01*
Y867664D02*
X518922Y873760D01*
X525018D01*
X521970Y867664D01*
X453136Y748284D02*
X448056Y758444D01*
X458216D01*
X453136Y748284D01*
Y750316D02*
X450088Y756412D01*
X456184D01*
X453136Y750316D01*
Y759968D02*
X448056Y770128D01*
X458216D01*
X453136Y759968D01*
Y762000D02*
X450088Y768096D01*
X456184D01*
X453136Y762000D01*
Y771652D02*
X448056Y781812D01*
X458216D01*
X453136Y771652D01*
Y773684D02*
X450088Y779780D01*
X456184D01*
X453136Y773684D01*
X465836Y747776D02*
X460756Y757936D01*
X470916D01*
X465836Y747776D01*
Y749808D02*
X462788Y755904D01*
X468884D01*
X465836Y749808D01*
Y759460D02*
X460756Y769620D01*
X470916D01*
X465836Y759460D01*
Y761492D02*
X462788Y767588D01*
X468884D01*
X465836Y761492D01*
Y771144D02*
X460756Y781304D01*
X470916D01*
X465836Y771144D01*
Y773176D02*
X462788Y779272D01*
X468884D01*
X465836Y773176D01*
X379984Y732028D02*
X374904Y742188D01*
X385064D01*
X379984Y732028D01*
Y734060D02*
X376936Y740156D01*
X383032D01*
X379984Y734060D01*
Y743712D02*
X374904Y753872D01*
X385064D01*
X379984Y743712D01*
Y745744D02*
X376936Y751840D01*
X383032D01*
X379984Y745744D01*
Y755396D02*
X374904Y765556D01*
X385064D01*
X379984Y755396D01*
Y757428D02*
X376936Y763524D01*
X383032D01*
X379984Y757428D01*
X392684Y731520D02*
X387604Y741680D01*
X397764D01*
X392684Y731520D01*
Y733552D02*
X389636Y739648D01*
X395732D01*
X392684Y733552D01*
Y743204D02*
X387604Y753364D01*
X397764D01*
X392684Y743204D01*
Y745236D02*
X389636Y751332D01*
X395732D01*
X392684Y745236D01*
Y754888D02*
X387604Y765048D01*
X397764D01*
X392684Y754888D01*
Y756920D02*
X389636Y763016D01*
X395732D01*
X392684Y756920D01*
X282194Y744728D02*
X277114Y754888D01*
X287274D01*
X282194Y744728D01*
Y746760D02*
X279146Y752856D01*
X285242D01*
X282194Y746760D01*
X293878Y744728D02*
X288798Y754888D01*
X298958D01*
X293878Y744728D01*
Y746760D02*
X290830Y752856D01*
X296926D01*
X293878Y746760D01*
X305562Y744728D02*
X300482Y754888D01*
X310642D01*
X305562Y744728D01*
Y746760D02*
X302514Y752856D01*
X308610D01*
X305562Y746760D01*
X281686Y732028D02*
X276606Y742188D01*
X286766D01*
X281686Y732028D01*
Y734060D02*
X278638Y740156D01*
X284734D01*
X281686Y734060D01*
X293370Y732028D02*
X288290Y742188D01*
X298450D01*
X293370Y732028D01*
Y734060D02*
X290322Y740156D01*
X296418D01*
X293370Y734060D01*
X305054Y732028D02*
X299974Y742188D01*
X310134D01*
X305054Y732028D01*
Y734060D02*
X302006Y740156D01*
X308102D01*
X305054Y734060D01*
X282956Y955802D02*
X277876Y965962D01*
X288036D01*
X282956Y955802D01*
Y957834D02*
X279908Y963930D01*
X286004D01*
X282956Y957834D01*
Y944118D02*
X277876Y954278D01*
X288036D01*
X282956Y944118D01*
Y946150D02*
X279908Y952246D01*
X286004D01*
X282956Y946150D01*
Y932434D02*
X277876Y942594D01*
X288036D01*
X282956Y932434D01*
Y934466D02*
X279908Y940562D01*
X286004D01*
X282956Y934466D01*
X270256Y956310D02*
X265176Y966470D01*
X275336D01*
X270256Y956310D01*
Y958342D02*
X267208Y964438D01*
X273304D01*
X270256Y958342D01*
Y944626D02*
X265176Y954786D01*
X275336D01*
X270256Y944626D01*
Y946658D02*
X267208Y952754D01*
X273304D01*
X270256Y946658D01*
Y932942D02*
X265176Y943102D01*
X275336D01*
X270256Y932942D01*
Y934974D02*
X267208Y941070D01*
X273304D01*
X270256Y934974D01*
X447040Y936244D02*
X441960Y946404D01*
X452120D01*
X447040Y936244D01*
Y938276D02*
X443992Y944372D01*
X450088D01*
X447040Y938276D01*
Y924560D02*
X441960Y934720D01*
X452120D01*
X447040Y924560D01*
Y926592D02*
X443992Y932688D01*
X450088D01*
X447040Y926592D01*
Y912876D02*
X441960Y923036D01*
X452120D01*
X447040Y912876D01*
Y914908D02*
X443992Y921004D01*
X450088D01*
X447040Y914908D01*
X434340Y936752D02*
X429260Y946912D01*
X439420D01*
X434340Y936752D01*
Y938784D02*
X431292Y944880D01*
X437388D01*
X434340Y938784D01*
Y925068D02*
X429260Y935228D01*
X439420D01*
X434340Y925068D01*
Y927100D02*
X431292Y933196D01*
X437388D01*
X434340Y927100D01*
Y913384D02*
X429260Y923544D01*
X439420D01*
X434340Y913384D01*
Y915416D02*
X431292Y921512D01*
X437388D01*
X434340Y915416D01*
X604774Y885952D02*
X599694Y896112D01*
X609854D01*
X604774Y885952D01*
Y887984D02*
X601726Y894080D01*
X607822D01*
X604774Y887984D01*
X593090Y885952D02*
X588010Y896112D01*
X598170D01*
X593090Y885952D01*
Y887984D02*
X590042Y894080D01*
X596138D01*
X593090Y887984D01*
X581406Y885952D02*
X576326Y896112D01*
X586486D01*
X581406Y885952D01*
Y887984D02*
X578358Y894080D01*
X584454D01*
X581406Y887984D01*
X605282Y898652D02*
X600202Y908812D01*
X610362D01*
X605282Y898652D01*
Y900684D02*
X602234Y906780D01*
X608330D01*
X605282Y900684D01*
X593598Y898652D02*
X588518Y908812D01*
X598678D01*
X593598Y898652D01*
Y900684D02*
X590550Y906780D01*
X596646D01*
X593598Y900684D01*
X581914Y898652D02*
X576834Y908812D01*
X586994D01*
X581914Y898652D01*
Y900684D02*
X578866Y906780D01*
X584962D01*
X581914Y900684D01*
X875284Y925576D02*
X870204Y935736D01*
X880364D01*
X875284Y925576D01*
Y927608D02*
X872236Y933704D01*
X878332D01*
X875284Y927608D01*
Y937260D02*
X870204Y947420D01*
X880364D01*
X875284Y937260D01*
Y939292D02*
X872236Y945388D01*
X878332D01*
X875284Y939292D01*
Y948944D02*
X870204Y959104D01*
X880364D01*
X875284Y948944D01*
Y950976D02*
X872236Y957072D01*
X878332D01*
X875284Y950976D01*
X887984Y925068D02*
X882904Y935228D01*
X893064D01*
X887984Y925068D01*
Y927100D02*
X884936Y933196D01*
X891032D01*
X887984Y927100D01*
Y936752D02*
X882904Y946912D01*
X893064D01*
X887984Y936752D01*
Y938784D02*
X884936Y944880D01*
X891032D01*
X887984Y938784D01*
Y948436D02*
X882904Y958596D01*
X893064D01*
X887984Y948436D01*
Y950468D02*
X884936Y956564D01*
X891032D01*
X887984Y950468D01*
X332740Y580289D02*
X327660Y590449D01*
X337820D01*
X332740Y580289D01*
Y582322D02*
X329692Y588418D01*
X335788D01*
X332740Y582322D01*
X311324Y580289D02*
X306243Y590449D01*
X316404D01*
X311324Y580289D01*
Y582322D02*
X308276Y588418D01*
X314371D01*
X311324Y582322D01*
X289907Y580289D02*
X284827Y590449D01*
X294987D01*
X289907Y580289D01*
Y582322D02*
X286859Y588418D01*
X292955D01*
X289907Y582322D01*
X332740Y623215D02*
X327660Y633376D01*
X337820D01*
X332740Y623215D01*
Y625247D02*
X329692Y631343D01*
X335788D01*
X332740Y625247D01*
X311324Y623215D02*
X306243Y633376D01*
X316404D01*
X311324Y623215D01*
Y625247D02*
X308276Y631343D01*
X314371D01*
X311324Y625247D01*
X289907Y623215D02*
X284827Y633376D01*
X294987D01*
X289907Y623215D01*
Y625247D02*
X286859Y631343D01*
X292955D01*
X289907Y625247D01*
Y601880D02*
X284827Y612039D01*
X294987D01*
X289907Y601880D01*
Y603912D02*
X286859Y610008D01*
X292955D01*
X289907Y603912D01*
X332740Y601472D02*
X327660Y611632D01*
X337820D01*
X332740Y601472D01*
Y603504D02*
X329692Y609600D01*
X335788D01*
X332740Y603504D01*
X334772Y481992D02*
X329692Y492151D01*
X339852D01*
X334772Y481992D01*
Y484024D02*
X331724Y490120D01*
X337820D01*
X334772Y484024D01*
X313356Y481992D02*
X308276Y492151D01*
X318435D01*
X313356Y481992D01*
Y484024D02*
X310308Y490120D01*
X316404D01*
X313356Y484024D01*
X291939Y481992D02*
X286859Y492151D01*
X297019D01*
X291939Y481992D01*
Y484024D02*
X288891Y490120D01*
X294987D01*
X291939Y484024D01*
X334772Y524917D02*
X329692Y535078D01*
X339852D01*
X334772Y524917D01*
Y526950D02*
X331724Y533046D01*
X337820D01*
X334772Y526950D01*
X313356Y524917D02*
X308276Y535078D01*
X318435D01*
X313356Y524917D01*
Y526950D02*
X310308Y533046D01*
X316404D01*
X313356Y526950D01*
X291939Y524917D02*
X286859Y535078D01*
X297019D01*
X291939Y524917D01*
Y526950D02*
X288891Y533046D01*
X294987D01*
X291939Y526950D01*
Y503582D02*
X286859Y513741D01*
X297019D01*
X291939Y503582D01*
Y505614D02*
X288891Y511710D01*
X294987D01*
X291939Y505614D01*
X334772Y503174D02*
X329692Y513334D01*
X339852D01*
X334772Y503174D01*
Y505206D02*
X331724Y511302D01*
X337820D01*
X334772Y505206D01*
X397764Y294032D02*
X392684Y304191D01*
X402844D01*
X397764Y294032D01*
Y296063D02*
X394716Y302160D01*
X400812D01*
X397764Y296063D01*
X376348Y294032D02*
X371268Y304191D01*
X381427D01*
X376348Y294032D01*
Y296063D02*
X373299Y302160D01*
X379395D01*
X376348Y296063D01*
X354931Y294032D02*
X349851Y304191D01*
X360011D01*
X354931Y294032D01*
Y296063D02*
X351883Y302160D01*
X357979D01*
X354931Y296063D01*
X397764Y336958D02*
X392684Y347118D01*
X402844D01*
X397764Y336958D01*
Y338989D02*
X394716Y345085D01*
X400812D01*
X397764Y338989D01*
X376348Y336958D02*
X371268Y347118D01*
X381427D01*
X376348Y336958D01*
Y338989D02*
X373299Y345085D01*
X379395D01*
X376348Y338989D01*
X354931Y336958D02*
X349851Y347118D01*
X360011D01*
X354931Y336958D01*
Y338989D02*
X351883Y345085D01*
X357979D01*
X354931Y338989D01*
Y315621D02*
X349851Y325782D01*
X360011D01*
X354931Y315621D01*
Y317654D02*
X351883Y323750D01*
X357979D01*
X354931Y317654D01*
X397764Y315214D02*
X392684Y325374D01*
X402844D01*
X397764Y315214D01*
Y317246D02*
X394716Y323342D01*
X400812D01*
X397764Y317246D01*
X575564Y314960D02*
X570484Y325120D01*
X580644D01*
X575564Y314960D01*
Y316992D02*
X572516Y323088D01*
X578612D01*
X575564Y316992D01*
X532731Y315368D02*
X527651Y325527D01*
X537811D01*
X532731Y315368D01*
Y317400D02*
X529683Y323495D01*
X535779D01*
X532731Y317400D01*
Y336703D02*
X527651Y346864D01*
X537811D01*
X532731Y336703D01*
Y338736D02*
X529683Y344832D01*
X535779D01*
X532731Y338736D01*
X554147Y336703D02*
X549067Y346864D01*
X559227D01*
X554147Y336703D01*
Y338736D02*
X551100Y344832D01*
X557196D01*
X554147Y338736D01*
X575564Y336703D02*
X570484Y346864D01*
X580644D01*
X575564Y336703D01*
Y338736D02*
X572516Y344832D01*
X578612D01*
X575564Y338736D01*
X532731Y293778D02*
X527651Y303937D01*
X537811D01*
X532731Y293778D01*
Y295809D02*
X529683Y301905D01*
X535779D01*
X532731Y295809D01*
X554147Y293778D02*
X549067Y303937D01*
X559227D01*
X554147Y293778D01*
Y295809D02*
X551100Y301905D01*
X557196D01*
X554147Y295809D01*
X575564Y293778D02*
X570484Y303937D01*
X580644D01*
X575564Y293778D01*
Y295809D02*
X572516Y301905D01*
X578612D01*
X575564Y295809D01*
X971296Y614833D02*
X966216Y624994D01*
X976376D01*
X971296Y614833D01*
Y616866D02*
X968248Y622962D01*
X974344D01*
X971296Y616866D01*
X954959Y614833D02*
X949880Y624994D01*
X960040D01*
X954959Y614833D01*
Y616866D02*
X951911Y622962D01*
X958008D01*
X954959Y616866D01*
X938623Y614833D02*
X933543Y624994D01*
X943703D01*
X938623Y614833D01*
Y616866D02*
X935575Y622962D01*
X941671D01*
X938623Y616866D01*
X971296Y647599D02*
X966216Y657759D01*
X976376D01*
X971296Y647599D01*
Y649632D02*
X968248Y655727D01*
X974344D01*
X971296Y649632D01*
X954959Y647599D02*
X949880Y657759D01*
X960040D01*
X954959Y647599D01*
Y649632D02*
X951911Y655727D01*
X958008D01*
X954959Y649632D01*
X938623Y647599D02*
X933543Y657759D01*
X943703D01*
X938623Y647599D01*
Y649632D02*
X935575Y655727D01*
X941671D01*
X938623Y649632D01*
Y631343D02*
X933543Y641504D01*
X943703D01*
X938623Y631343D01*
Y633376D02*
X935575Y639472D01*
X941671D01*
X938623Y633376D01*
X971296Y630936D02*
X966216Y641096D01*
X976376D01*
X971296Y630936D01*
Y632968D02*
X968248Y639064D01*
X974344D01*
X971296Y632968D01*
X1288034Y991262D02*
X1282954Y1001422D01*
X1293114D01*
X1288034Y991262D01*
Y993294D02*
X1284986Y999389D01*
X1291082D01*
X1288034Y993294D01*
X1274238Y991262D02*
X1269157Y1001422D01*
X1279317D01*
X1274238Y991262D01*
Y993294D02*
X1271189Y999389D01*
X1277286D01*
X1274238Y993294D01*
X1260441Y991262D02*
X1255361Y1001422D01*
X1265521D01*
X1260441Y991262D01*
Y993294D02*
X1257393Y999389D01*
X1263489D01*
X1260441Y993294D01*
X1288034Y1019202D02*
X1282954Y1029361D01*
X1293114D01*
X1288034Y1019202D01*
Y1021234D02*
X1284986Y1027329D01*
X1291082D01*
X1288034Y1021234D01*
X1274238Y1019202D02*
X1269157Y1029361D01*
X1279317D01*
X1274238Y1019202D01*
Y1021234D02*
X1271189Y1027329D01*
X1277286D01*
X1274238Y1021234D01*
X1260441Y1019202D02*
X1255361Y1029361D01*
X1265521D01*
X1260441Y1019202D01*
Y1021234D02*
X1257393Y1027329D01*
X1263489D01*
X1260441Y1021234D01*
Y1005231D02*
X1255361Y1015391D01*
X1265521D01*
X1260441Y1005231D01*
Y1007263D02*
X1257393Y1013360D01*
X1263489D01*
X1260441Y1007263D01*
X1288034Y1004824D02*
X1282954Y1014984D01*
X1293114D01*
X1288034Y1004824D01*
Y1006856D02*
X1284986Y1012952D01*
X1291082D01*
X1288034Y1006856D01*
X1197102Y990246D02*
X1192022Y1000406D01*
X1202182D01*
X1197102Y990246D01*
Y992278D02*
X1194054Y998373D01*
X1200150D01*
X1197102Y992278D01*
X1183306Y990246D02*
X1178225Y1000406D01*
X1188385D01*
X1183306Y990246D01*
Y992278D02*
X1180257Y998373D01*
X1186354D01*
X1183306Y992278D01*
X1169509Y990246D02*
X1164429Y1000406D01*
X1174589D01*
X1169509Y990246D01*
Y992278D02*
X1166461Y998373D01*
X1172557D01*
X1169509Y992278D01*
X1197102Y1018186D02*
X1192022Y1028345D01*
X1202182D01*
X1197102Y1018186D01*
Y1020218D02*
X1194054Y1026313D01*
X1200150D01*
X1197102Y1020218D01*
X1183306Y1018186D02*
X1178225Y1028345D01*
X1188385D01*
X1183306Y1018186D01*
Y1020218D02*
X1180257Y1026313D01*
X1186354D01*
X1183306Y1020218D01*
X1169509Y1018186D02*
X1164429Y1028345D01*
X1174589D01*
X1169509Y1018186D01*
Y1020218D02*
X1166461Y1026313D01*
X1172557D01*
X1169509Y1020218D01*
Y1004215D02*
X1164429Y1014376D01*
X1174589D01*
X1169509Y1004215D01*
Y1006247D02*
X1166461Y1012344D01*
X1172557D01*
X1169509Y1006247D01*
X1197102Y1003808D02*
X1192022Y1013968D01*
X1202182D01*
X1197102Y1003808D01*
Y1005840D02*
X1194054Y1011936D01*
X1200150D01*
X1197102Y1005840D01*
X513241Y1214728D02*
X508161Y1224889D01*
X518321D01*
X513241Y1214728D01*
Y1216760D02*
X510193Y1222857D01*
X516289D01*
X513241Y1216760D01*
X485648Y1215136D02*
X480568Y1225296D01*
X490728D01*
X485648Y1215136D01*
Y1217168D02*
X482600Y1223264D01*
X488696D01*
X485648Y1217168D01*
X429260Y1052068D02*
X424180Y1062228D01*
X434340D01*
X429260Y1052068D01*
Y1054100D02*
X426212Y1060196D01*
X432308D01*
X429260Y1054100D01*
Y1063752D02*
X424180Y1073912D01*
X434340D01*
X429260Y1063752D01*
Y1065784D02*
X426212Y1071880D01*
X432308D01*
X429260Y1065784D01*
Y1075436D02*
X424180Y1085596D01*
X434340D01*
X429260Y1075436D01*
Y1077468D02*
X426212Y1083564D01*
X432308D01*
X429260Y1077468D01*
X456946Y1029462D02*
X451866Y1039622D01*
X462026D01*
X456946Y1029462D01*
Y1031494D02*
X453898Y1037590D01*
X459994D01*
X456946Y1031494D01*
X468630Y1029462D02*
X463550Y1039622D01*
X473710D01*
X468630Y1029462D01*
Y1031494D02*
X465582Y1037590D01*
X471678D01*
X468630Y1031494D01*
X480314Y1029462D02*
X475234Y1039622D01*
X485394D01*
X480314Y1029462D01*
Y1031494D02*
X477266Y1037590D01*
X483362D01*
X480314Y1031494D01*
X312674Y1049020D02*
X307594Y1059180D01*
X317754D01*
X312674Y1049020D01*
Y1051052D02*
X309626Y1057148D01*
X315722D01*
X312674Y1051052D01*
X300990Y1049020D02*
X295910Y1059180D01*
X306070D01*
X300990Y1049020D01*
Y1051052D02*
X297942Y1057148D01*
X304038D01*
X300990Y1051052D01*
X289306Y1049020D02*
X284226Y1059180D01*
X294386D01*
X289306Y1049020D01*
Y1051052D02*
X286258Y1057148D01*
X292354D01*
X289306Y1051052D01*
X281432Y1060196D02*
X276352Y1070356D01*
X286512D01*
X281432Y1060196D01*
Y1062228D02*
X278384Y1068324D01*
X284480D01*
X281432Y1062228D01*
Y1071880D02*
X276352Y1082040D01*
X286512D01*
X281432Y1071880D01*
Y1073912D02*
X278384Y1080008D01*
X284480D01*
X281432Y1073912D01*
Y1083564D02*
X276352Y1093724D01*
X286512D01*
X281432Y1083564D01*
Y1085596D02*
X278384Y1091692D01*
X284480D01*
X281432Y1085596D01*
X485648Y1229106D02*
X480568Y1239266D01*
X490728D01*
X485648Y1229106D01*
Y1231138D02*
X482600Y1237234D01*
X488696D01*
X485648Y1231138D01*
X499445Y1229106D02*
X494365Y1239266D01*
X504524D01*
X499445Y1229106D01*
Y1231138D02*
X496396Y1237234D01*
X502492D01*
X499445Y1231138D01*
X513241Y1229106D02*
X508161Y1239266D01*
X518321D01*
X513241Y1229106D01*
Y1231138D02*
X510193Y1237234D01*
X516289D01*
X513241Y1231138D01*
X485648Y1201166D02*
X480568Y1211326D01*
X490728D01*
X485648Y1201166D01*
Y1203198D02*
X482600Y1209294D01*
X488696D01*
X485648Y1203198D01*
X499445Y1201166D02*
X494365Y1211326D01*
X504524D01*
X499445Y1201166D01*
Y1203198D02*
X496396Y1209294D01*
X502492D01*
X499445Y1203198D01*
X513241Y1201166D02*
X508161Y1211326D01*
X518321D01*
X513241Y1201166D01*
Y1203198D02*
X510193Y1209294D01*
X516289D01*
X513241Y1203198D01*
X1166876Y1159764D02*
X1161796Y1169924D01*
X1171956D01*
X1166876Y1159764D01*
Y1161796D02*
X1163828Y1167892D01*
X1169924D01*
X1166876Y1161796D01*
X1178560Y1159764D02*
X1173480Y1169924D01*
X1183640D01*
X1178560Y1159764D01*
Y1161796D02*
X1175512Y1167892D01*
X1181608D01*
X1178560Y1161796D01*
X1190244Y1159764D02*
X1185164Y1169924D01*
X1195324D01*
X1190244Y1159764D01*
Y1161796D02*
X1187196Y1167892D01*
X1193292D01*
X1190244Y1161796D01*
X1107186Y1158748D02*
X1102106Y1168908D01*
X1112266D01*
X1107186Y1158748D01*
Y1160780D02*
X1104138Y1166876D01*
X1110234D01*
X1107186Y1160780D01*
X1118870Y1158748D02*
X1113790Y1168908D01*
X1123950D01*
X1118870Y1158748D01*
Y1160780D02*
X1115822Y1166876D01*
X1121918D01*
X1118870Y1160780D01*
X1130554Y1158748D02*
X1125474Y1168908D01*
X1135634D01*
X1130554Y1158748D01*
Y1160780D02*
X1127506Y1166876D01*
X1133602D01*
X1130554Y1160780D01*
X1061720Y1158748D02*
X1056640Y1168908D01*
X1066800D01*
X1061720Y1158748D01*
Y1160780D02*
X1058672Y1166876D01*
X1064768D01*
X1061720Y1160780D01*
X1073404Y1158748D02*
X1068324Y1168908D01*
X1078484D01*
X1073404Y1158748D01*
Y1160780D02*
X1070356Y1166876D01*
X1076452D01*
X1073404Y1160780D01*
X1085088Y1158748D02*
X1080008Y1168908D01*
X1090168D01*
X1085088Y1158748D01*
Y1160780D02*
X1082040Y1166876D01*
X1088136D01*
X1085088Y1160780D01*
X1291336Y911352D02*
X1286256Y921512D01*
X1296416D01*
X1291336Y911352D01*
Y913384D02*
X1288288Y919480D01*
X1294384D01*
X1291336Y913384D01*
Y899668D02*
X1286256Y909828D01*
X1296416D01*
X1291336Y899668D01*
Y901700D02*
X1288288Y907796D01*
X1294384D01*
X1291336Y901700D01*
Y887984D02*
X1286256Y898144D01*
X1296416D01*
X1291336Y887984D01*
Y890016D02*
X1288288Y896112D01*
X1294384D01*
X1291336Y890016D01*
X1311656Y735838D02*
X1306576Y745998D01*
X1316736D01*
X1311656Y735838D01*
Y737870D02*
X1308608Y743966D01*
X1314704D01*
X1311656Y737870D01*
Y724154D02*
X1306576Y734314D01*
X1316736D01*
X1311656Y724154D01*
Y726186D02*
X1308608Y732282D01*
X1314704D01*
X1311656Y726186D01*
Y712470D02*
X1306576Y722630D01*
X1316736D01*
X1311656Y712470D01*
Y714502D02*
X1308608Y720598D01*
X1314704D01*
X1311656Y714502D01*
X1244346Y685546D02*
X1239266Y695706D01*
X1249426D01*
X1244346Y685546D01*
Y687578D02*
X1241298Y693674D01*
X1247394D01*
X1244346Y687578D01*
X1232662Y685546D02*
X1227582Y695706D01*
X1237742D01*
X1232662Y685546D01*
Y687578D02*
X1229614Y693674D01*
X1235710D01*
X1232662Y687578D01*
X1220978Y685546D02*
X1215898Y695706D01*
X1226058D01*
X1220978Y685546D01*
Y687578D02*
X1217930Y693674D01*
X1224026D01*
X1220978Y687578D01*
X1243330Y526542D02*
X1238250Y536702D01*
X1248410D01*
X1243330Y526542D01*
Y528574D02*
X1240282Y534670D01*
X1246378D01*
X1243330Y528574D01*
X1231646Y526542D02*
X1226566Y536702D01*
X1236726D01*
X1231646Y526542D01*
Y528574D02*
X1228598Y534670D01*
X1234694D01*
X1231646Y528574D01*
X1219962Y526542D02*
X1214882Y536702D01*
X1225042D01*
X1219962Y526542D01*
Y528574D02*
X1216914Y534670D01*
X1223010D01*
X1219962Y528574D01*
X1274318Y846582D02*
X1269238Y856742D01*
X1279398D01*
X1274318Y846582D01*
Y848614D02*
X1271270Y854710D01*
X1277366D01*
X1274318Y848614D01*
X1259942Y846582D02*
X1254862Y856742D01*
X1265022D01*
X1259942Y846582D01*
Y848614D02*
X1256894Y854710D01*
X1262990D01*
X1259942Y848614D01*
X1245565Y846582D02*
X1240485Y856742D01*
X1250645D01*
X1245565Y846582D01*
Y848614D02*
X1242517Y854710D01*
X1248613D01*
X1245565Y848614D01*
X1231189Y846582D02*
X1226109Y856742D01*
X1236269D01*
X1231189Y846582D01*
Y848614D02*
X1228141Y854710D01*
X1234237D01*
X1231189Y848614D01*
X1216812Y846582D02*
X1211732Y856742D01*
X1221892D01*
X1216812Y846582D01*
Y848614D02*
X1213764Y854710D01*
X1219860D01*
X1216812Y848614D01*
X1202436Y846582D02*
X1197356Y856742D01*
X1207516D01*
X1202436Y846582D01*
Y848614D02*
X1199388Y854710D01*
X1205484D01*
X1202436Y848614D01*
X1274318Y868172D02*
X1269238Y878332D01*
X1279398D01*
X1274318Y868172D01*
Y870204D02*
X1271270Y876300D01*
X1277366D01*
X1274318Y870204D01*
X1259942Y868172D02*
X1254862Y878332D01*
X1265022D01*
X1259942Y868172D01*
Y870204D02*
X1256894Y876300D01*
X1262990D01*
X1259942Y870204D01*
X1245565Y868172D02*
X1240485Y878332D01*
X1250645D01*
X1245565Y868172D01*
Y870204D02*
X1242517Y876300D01*
X1248613D01*
X1245565Y870204D01*
X1231189Y868172D02*
X1226109Y878332D01*
X1236269D01*
X1231189Y868172D01*
Y870204D02*
X1228141Y876300D01*
X1234237D01*
X1231189Y870204D01*
X1216812Y868172D02*
X1211732Y878332D01*
X1221892D01*
X1216812Y868172D01*
Y870204D02*
X1213764Y876300D01*
X1219860D01*
X1216812Y870204D01*
X1202436Y868172D02*
X1197356Y878332D01*
X1207516D01*
X1202436Y868172D01*
Y870204D02*
X1199388Y876300D01*
X1205484D01*
X1202436Y870204D01*
X1157732Y790956D02*
X1152652Y801116D01*
X1162812D01*
X1157732Y790956D01*
Y792988D02*
X1154684Y799084D01*
X1160780D01*
X1157732Y792988D01*
Y802640D02*
X1152652Y812800D01*
X1162812D01*
X1157732Y802640D01*
Y804672D02*
X1154684Y810768D01*
X1160780D01*
X1157732Y804672D01*
Y814324D02*
X1152652Y824484D01*
X1162812D01*
X1157732Y814324D01*
Y816356D02*
X1154684Y822452D01*
X1160780D01*
X1157732Y816356D01*
X1104646Y856488D02*
X1099566Y866648D01*
X1109726D01*
X1104646Y856488D01*
Y858520D02*
X1101598Y864616D01*
X1107694D01*
X1104646Y858520D01*
X1116330Y856488D02*
X1111250Y866648D01*
X1121410D01*
X1116330Y856488D01*
Y858520D02*
X1113282Y864616D01*
X1119378D01*
X1116330Y858520D01*
X1128014Y856488D02*
X1122934Y866648D01*
X1133094D01*
X1128014Y856488D01*
Y858520D02*
X1124966Y864616D01*
X1131062D01*
X1128014Y858520D01*
X1105154Y871728D02*
X1100074Y881888D01*
X1110234D01*
X1105154Y871728D01*
Y873760D02*
X1102106Y879856D01*
X1108202D01*
X1105154Y873760D01*
X1116838Y871728D02*
X1111758Y881888D01*
X1121918D01*
X1116838Y871728D01*
Y873760D02*
X1113790Y879856D01*
X1119886D01*
X1116838Y873760D01*
X1128522Y871728D02*
X1123442Y881888D01*
X1133602D01*
X1128522Y871728D01*
Y873760D02*
X1125474Y879856D01*
X1131570D01*
X1128522Y873760D01*
X1061466Y803656D02*
X1056386Y813816D01*
X1066546D01*
X1061466Y803656D01*
Y805688D02*
X1058418Y811784D01*
X1064514D01*
X1061466Y805688D01*
Y791972D02*
X1056386Y802132D01*
X1066546D01*
X1061466Y791972D01*
Y794004D02*
X1058418Y800100D01*
X1064514D01*
X1061466Y794004D01*
Y780288D02*
X1056386Y790448D01*
X1066546D01*
X1061466Y780288D01*
Y782320D02*
X1058418Y788416D01*
X1064514D01*
X1061466Y782320D01*
X1049020Y803910D02*
X1043940Y814070D01*
X1054100D01*
X1049020Y803910D01*
Y805942D02*
X1045972Y812038D01*
X1052068D01*
X1049020Y805942D01*
Y792226D02*
X1043940Y802386D01*
X1054100D01*
X1049020Y792226D01*
Y794258D02*
X1045972Y800354D01*
X1052068D01*
X1049020Y794258D01*
Y780542D02*
X1043940Y790702D01*
X1054100D01*
X1049020Y780542D01*
Y782574D02*
X1045972Y788670D01*
X1052068D01*
X1049020Y782574D01*
X966216Y867664D02*
X961136Y877824D01*
X971296D01*
X966216Y867664D01*
Y869696D02*
X963168Y875792D01*
X969264D01*
X966216Y869696D01*
X954532Y867664D02*
X949452Y877824D01*
X959612D01*
X954532Y867664D01*
Y869696D02*
X951484Y875792D01*
X957580D01*
X954532Y869696D01*
X942848Y867664D02*
X937768Y877824D01*
X947928D01*
X942848Y867664D01*
Y869696D02*
X939800Y875792D01*
X945896D01*
X942848Y869696D01*
X966724Y880364D02*
X961644Y890524D01*
X971804D01*
X966724Y880364D01*
Y882396D02*
X963676Y888492D01*
X969772D01*
X966724Y882396D01*
X955040Y880364D02*
X949960Y890524D01*
X960120D01*
X955040Y880364D01*
Y882396D02*
X951992Y888492D01*
X958088D01*
X955040Y882396D01*
X943356Y880364D02*
X938276Y890524D01*
X948436D01*
X943356Y880364D01*
Y882396D02*
X940308Y888492D01*
X946404D01*
X943356Y882396D01*
X969264Y1014476D02*
X964184Y1024636D01*
X974344D01*
X969264Y1014476D01*
Y1016508D02*
X966216Y1022604D01*
X972312D01*
X969264Y1016508D01*
X957580Y1014476D02*
X952500Y1024636D01*
X962660D01*
X957580Y1014476D01*
Y1016508D02*
X954532Y1022604D01*
X960628D01*
X957580Y1016508D01*
X945896Y1014476D02*
X940816Y1024636D01*
X950976D01*
X945896Y1014476D01*
Y1016508D02*
X942848Y1022604D01*
X948944D01*
X945896Y1016508D01*
X969264Y1000760D02*
X964184Y1010920D01*
X974344D01*
X969264Y1000760D01*
Y1002792D02*
X966216Y1008888D01*
X972312D01*
X969264Y1002792D01*
X957580Y1000760D02*
X952500Y1010920D01*
X962660D01*
X957580Y1000760D01*
Y1002792D02*
X954532Y1008888D01*
X960628D01*
X957580Y1002792D01*
X945896Y1000760D02*
X940816Y1010920D01*
X950976D01*
X945896Y1000760D01*
Y1002792D02*
X942848Y1008888D01*
X948944D01*
X945896Y1002792D01*
X868680Y1221486D02*
X863600Y1231646D01*
X873760D01*
X868680Y1221486D01*
Y1223518D02*
X865632Y1229614D01*
X871728D01*
X868680Y1223518D01*
X856996Y1221486D02*
X851916Y1231646D01*
X862076D01*
X856996Y1221486D01*
Y1223518D02*
X853948Y1229614D01*
X860044D01*
X856996Y1223518D01*
X845312Y1221486D02*
X840232Y1231646D01*
X850392D01*
X845312Y1221486D01*
Y1223518D02*
X842264Y1229614D01*
X848360D01*
X845312Y1223518D01*
X937006Y1149858D02*
X931926Y1160018D01*
X942086D01*
X937006Y1149858D01*
Y1151890D02*
X933958Y1157986D01*
X940054D01*
X937006Y1151890D01*
Y1161542D02*
X931926Y1171702D01*
X942086D01*
X937006Y1161542D01*
Y1163574D02*
X933958Y1169670D01*
X940054D01*
X937006Y1163574D01*
Y1173226D02*
X931926Y1183386D01*
X942086D01*
X937006Y1173226D01*
Y1175258D02*
X933958Y1181354D01*
X940054D01*
X937006Y1175258D01*
X840486Y1143508D02*
X835406Y1153668D01*
X845566D01*
X840486Y1143508D01*
Y1145540D02*
X837438Y1151636D01*
X843534D01*
X840486Y1145540D01*
Y1155192D02*
X835406Y1165352D01*
X845566D01*
X840486Y1155192D01*
Y1157224D02*
X837438Y1163320D01*
X843534D01*
X840486Y1157224D01*
Y1166876D02*
X835406Y1177036D01*
X845566D01*
X840486Y1166876D01*
Y1168908D02*
X837438Y1175004D01*
X843534D01*
X840486Y1168908D01*
X855726Y1142492D02*
X850646Y1152652D01*
X860806D01*
X855726Y1142492D01*
Y1144524D02*
X852678Y1150620D01*
X858774D01*
X855726Y1144524D01*
X867410Y1142492D02*
X862330Y1152652D01*
X872490D01*
X867410Y1142492D01*
Y1144524D02*
X864362Y1150620D01*
X870458D01*
X867410Y1144524D01*
X879094Y1142492D02*
X874014Y1152652D01*
X884174D01*
X879094Y1142492D01*
Y1144524D02*
X876046Y1150620D01*
X882142D01*
X879094Y1144524D01*
X604520Y839724D02*
X607060Y842264D01*
X609600D01*
X607060Y844804D01*
X609600Y847344D01*
X607060D01*
X604520Y849884D01*
X601980Y847344D01*
X599440D01*
X601980Y844804D01*
X599440Y842264D01*
X601980D01*
X604520Y839724D01*
Y841756D02*
X606044Y843280D01*
X607568D01*
X606044Y844804D01*
X607568Y846328D01*
X606044D01*
X604520Y847852D01*
X602996Y846328D01*
X601472D01*
X602996Y844804D01*
X601472Y843280D01*
X602996D01*
X604520Y841756D01*
X653034Y1009904D02*
X647954Y1020064D01*
X658114D01*
X653034Y1009904D01*
Y1011936D02*
X649986Y1018032D01*
X656082D01*
X653034Y1011936D01*
X565658Y1221994D02*
X560578Y1232154D01*
X570738D01*
X565658Y1221994D01*
Y1224026D02*
X562610Y1230122D01*
X568706D01*
X565658Y1224026D01*
X659638Y1207516D02*
X654558Y1217676D01*
X664718D01*
X659638Y1207516D01*
Y1209548D02*
X656590Y1215644D01*
X662686D01*
X659638Y1209548D01*
Y1219200D02*
X654558Y1229360D01*
X664718D01*
X659638Y1219200D01*
Y1221232D02*
X656590Y1227328D01*
X662686D01*
X659638Y1221232D01*
X685038Y1230884D02*
X679958Y1241044D01*
X690118D01*
X685038Y1230884D01*
Y1232916D02*
X681990Y1239012D01*
X688086D01*
X685038Y1232916D01*
X672338Y1230884D02*
X667258Y1241044D01*
X677418D01*
X672338Y1230884D01*
Y1232916D02*
X669290Y1239012D01*
X675386D01*
X672338Y1232916D01*
X772668Y485902D02*
X767588Y496062D01*
X777748D01*
X772668Y485902D01*
Y487934D02*
X769620Y494030D01*
X775716D01*
X772668Y487934D01*
X776986Y534924D02*
X771906Y545084D01*
X782066D01*
X776986Y534924D01*
Y536956D02*
X773938Y543052D01*
X780034D01*
X776986Y536956D01*
X911352Y996442D02*
X913892D01*
X916432Y998982D01*
X918972Y996442D01*
X921512D01*
Y998982D01*
X918972Y1001522D01*
X921512Y1004062D01*
Y1006602D01*
X918972D01*
X916432Y1004062D01*
X913892Y1006602D01*
X911352D01*
Y1004062D01*
X913892Y1001522D01*
X911352Y998982D01*
Y996442D01*
X821182Y1193086D02*
X816102Y1203246D01*
X826262D01*
X821182Y1193086D01*
Y1195118D02*
X818134Y1201214D01*
X824230D01*
X821182Y1195118D01*
X659638Y1230884D02*
X654558Y1241044D01*
X664718D01*
X659638Y1230884D01*
Y1232916D02*
X656590Y1239012D01*
X662686D01*
X659638Y1232916D01*
X341376Y936498D02*
X336296Y946658D01*
X346456D01*
X341376Y936498D01*
Y938530D02*
X338328Y944626D01*
X344424D01*
X341376Y938530D01*
X353060Y951992D02*
X347980Y962152D01*
X358140D01*
X353060Y951992D01*
Y954024D02*
X350012Y960120D01*
X356108D01*
X353060Y954024D01*
X517652Y742188D02*
X512572Y752348D01*
X522732D01*
X517652Y742188D01*
Y744220D02*
X514604Y750316D01*
X520700D01*
X517652Y744220D01*
X575564Y758444D02*
X570484Y768604D01*
X580644D01*
X575564Y758444D01*
Y760476D02*
X572516Y766572D01*
X578612D01*
X575564Y760476D01*
X752348Y757428D02*
X747268Y767588D01*
X757428D01*
X752348Y757428D01*
Y759460D02*
X749300Y765556D01*
X755396D01*
X752348Y759460D01*
X716788Y955802D02*
X711708Y965962D01*
X721868D01*
X716788Y955802D01*
Y957834D02*
X713740Y963930D01*
X719836D01*
X716788Y957834D01*
X769620Y1010412D02*
X764540Y1020572D01*
X774700D01*
X769620Y1010412D01*
Y1012444D02*
X766572Y1018540D01*
X772668D01*
X769620Y1012444D01*
X1209892Y755267D02*
X1204812Y765427D01*
X1214972D01*
X1209892Y755267D01*
Y757299D02*
X1206844Y763395D01*
X1212940D01*
X1209892Y757299D01*
X1210056Y784860D02*
X1204976Y795020D01*
X1215136D01*
X1210056Y784860D01*
Y786892D02*
X1207008Y792988D01*
X1213104D01*
X1210056Y786892D01*
X1209294Y771906D02*
X1204214Y782066D01*
X1214374D01*
X1209294Y771906D01*
Y773938D02*
X1206246Y780034D01*
X1212342D01*
X1209294Y773938D01*
X1002284Y847852D02*
X997204Y858012D01*
X1007364D01*
X1002284Y847852D01*
Y849884D02*
X999236Y855980D01*
X1005332D01*
X1002284Y849884D01*
X1008380Y893826D02*
X1003300Y903986D01*
X1013460D01*
X1008380Y893826D01*
Y895858D02*
X1005332Y901954D01*
X1011428D01*
X1008380Y895858D01*
X856488Y557022D02*
X851408Y567182D01*
X861568D01*
X856488Y557022D01*
Y559054D02*
X853440Y565150D01*
X859536D01*
X856488Y559054D01*
X911098Y755396D02*
X906018Y765556D01*
X916178D01*
X911098Y755396D01*
Y757428D02*
X908050Y763524D01*
X914146D01*
X911098Y757428D01*
X698754Y1110488D02*
X693674Y1120648D01*
X703834D01*
X698754Y1110488D01*
Y1112520D02*
X695706Y1118616D01*
X701802D01*
X698754Y1112520D01*
X660400Y1109726D02*
X655320Y1119886D01*
X665480D01*
X660400Y1109726D01*
Y1111758D02*
X657352Y1117854D01*
X663448D01*
X660400Y1111758D01*
X826262Y1119378D02*
X821182Y1129538D01*
X831342D01*
X826262Y1119378D01*
Y1121410D02*
X823214Y1127506D01*
X829310D01*
X826262Y1121410D01*
X832104Y1050290D02*
X827024Y1060450D01*
X837184D01*
X832104Y1050290D01*
Y1052322D02*
X829056Y1058418D01*
X835152D01*
X832104Y1052322D01*
X751586Y1010920D02*
X746506Y1021080D01*
X756666D01*
X751586Y1010920D01*
Y1012952D02*
X748538Y1019048D01*
X754634D01*
X751586Y1012952D01*
X728472Y956056D02*
X723392Y966216D01*
X733552D01*
X728472Y956056D01*
Y958088D02*
X725424Y964184D01*
X731520D01*
X728472Y958088D01*
X734822Y1010920D02*
X729742Y1021080D01*
X739902D01*
X734822Y1010920D01*
Y1012952D02*
X731774Y1019048D01*
X737870D01*
X734822Y1012952D01*
X719328Y1011936D02*
X714248Y1022096D01*
X724408D01*
X719328Y1011936D01*
Y1013968D02*
X716280Y1020064D01*
X722376D01*
X719328Y1013968D01*
X702310Y956056D02*
X697230Y966216D01*
X707390D01*
X702310Y956056D01*
Y958088D02*
X699262Y964184D01*
X705358D01*
X702310Y958088D01*
X740664Y891286D02*
X735584Y901446D01*
X745744D01*
X740664Y891286D01*
Y893318D02*
X737616Y899414D01*
X743712D01*
X740664Y893318D01*
X752362Y880591D02*
X747282Y890751D01*
X757442D01*
X752362Y880591D01*
Y882623D02*
X749314Y888719D01*
X755410D01*
X752362Y882623D01*
X685800Y1006856D02*
X680720Y1017016D01*
X690880D01*
X685800Y1006856D01*
Y1008888D02*
X682752Y1014984D01*
X688848D01*
X685800Y1008888D01*
X673862Y1007110D02*
X668782Y1017270D01*
X678942D01*
X673862Y1007110D01*
Y1009142D02*
X670814Y1015238D01*
X676910D01*
X673862Y1009142D01*
X659892Y471932D02*
X654812Y482092D01*
X664972D01*
X659892Y471932D01*
Y473964D02*
X656844Y480060D01*
X662940D01*
X659892Y473964D01*
X660146Y449326D02*
X655066Y459486D01*
X665226D01*
X660146Y449326D01*
Y451358D02*
X657098Y457454D01*
X663194D01*
X660146Y451358D01*
X857504Y1096264D02*
X852424Y1106424D01*
X862584D01*
X857504Y1096264D01*
Y1098296D02*
X854456Y1104392D01*
X860552D01*
X857504Y1098296D01*
X773430Y950468D02*
X768350Y960628D01*
X778510D01*
X773430Y950468D01*
Y952500D02*
X770382Y958596D01*
X776478D01*
X773430Y952500D01*
X833374Y602234D02*
X828294Y612394D01*
X838454D01*
X833374Y602234D01*
Y604266D02*
X830326Y610362D01*
X836422D01*
X833374Y604266D01*
X594614Y790702D02*
X589534Y800862D01*
X599694D01*
X594614Y790702D01*
Y792734D02*
X591566Y798830D01*
X597662D01*
X594614Y792734D01*
X343662Y863600D02*
X338582Y873760D01*
X348742D01*
X343662Y863600D01*
Y865632D02*
X340614Y871728D01*
X346710D01*
X343662Y865632D01*
X935736Y1109726D02*
X930656Y1119886D01*
X940816D01*
X935736Y1109726D01*
Y1111758D02*
X932688Y1117854D01*
X938784D01*
X935736Y1111758D01*
X906018Y1233170D02*
X900938Y1243330D01*
X911098D01*
X906018Y1233170D01*
Y1235202D02*
X902970Y1241298D01*
X909066D01*
X906018Y1235202D01*
X890778Y1222756D02*
X885698Y1232916D01*
X895858D01*
X890778Y1222756D01*
Y1224788D02*
X887730Y1230884D01*
X893826D01*
X890778Y1224788D01*
X845312Y1202436D02*
X840232Y1212596D01*
X850392D01*
X845312Y1202436D01*
Y1204468D02*
X842264Y1210564D01*
X848360D01*
X845312Y1204468D01*
X897382Y1109472D02*
X892302Y1119632D01*
X902462D01*
X897382Y1109472D01*
Y1111504D02*
X894334Y1117600D01*
X900430D01*
X897382Y1111504D01*
X447040Y991616D02*
X441960Y1001776D01*
X452120D01*
X447040Y991616D01*
Y993648D02*
X443992Y999744D01*
X450088D01*
X447040Y993648D01*
X1003300Y1215390D02*
X998220Y1225550D01*
X1008380D01*
X1003300Y1215390D01*
Y1217422D02*
X1000252Y1223518D01*
X1006348D01*
X1003300Y1217422D01*
X1001268Y1253236D02*
X996188Y1263396D01*
X1006348D01*
X1001268Y1253236D01*
Y1255268D02*
X998220Y1261364D01*
X1004316D01*
X1001268Y1255268D01*
X818896Y1221470D02*
X813816Y1231630D01*
X823976D01*
X818896Y1221470D01*
Y1223502D02*
X815848Y1229598D01*
X821944D01*
X818896Y1223502D01*
X517144Y450342D02*
X512064Y460502D01*
X522224D01*
X517144Y450342D01*
Y452374D02*
X514096Y458470D01*
X520192D01*
X517144Y452374D01*
X549402Y516636D02*
X544322Y526796D01*
X554482D01*
X549402Y516636D01*
Y518668D02*
X546354Y524764D01*
X552450D01*
X549402Y518668D01*
X883412Y412750D02*
X878332Y422910D01*
X888492D01*
X883412Y412750D01*
Y414782D02*
X880364Y420878D01*
X886460D01*
X883412Y414782D01*
X994664Y402590D02*
X989584Y412750D01*
X999744D01*
X994664Y402590D01*
Y404622D02*
X991616Y410718D01*
X997712D01*
X994664Y404622D01*
X389382Y837438D02*
X384302Y847598D01*
X394462D01*
X389382Y837438D01*
Y839470D02*
X386334Y845566D01*
X392430D01*
X389382Y839470D01*
X435356Y980948D02*
X430276Y991108D01*
X440436D01*
X435356Y980948D01*
Y982980D02*
X432308Y989076D01*
X438404D01*
X435356Y982980D01*
Y968502D02*
X430276Y978662D01*
X440436D01*
X435356Y968502D01*
Y970534D02*
X432308Y976630D01*
X438404D01*
X435356Y970534D01*
X407924Y853694D02*
X402844Y863854D01*
X413004D01*
X407924Y853694D01*
Y855726D02*
X404876Y861822D01*
X410972D01*
X407924Y855726D01*
X930402Y898398D02*
X925322Y908558D01*
X935482D01*
X930402Y898398D01*
Y900430D02*
X927354Y906526D01*
X933450D01*
X930402Y900430D01*
X601726Y992124D02*
X596646Y1002284D01*
X606806D01*
X601726Y992124D01*
Y994156D02*
X598678Y1000252D01*
X604774D01*
X601726Y994156D01*
X552704Y843788D02*
X547624Y853948D01*
X557784D01*
X552704Y843788D01*
Y845820D02*
X549656Y851916D01*
X555752D01*
X552704Y845820D01*
X489458Y956310D02*
X484378Y966470D01*
X494538D01*
X489458Y956310D01*
Y958342D02*
X486410Y964438D01*
X492506D01*
X489458Y958342D01*
X387858Y812800D02*
X382778Y822960D01*
X392938D01*
X387858Y812800D01*
Y814832D02*
X384810Y820928D01*
X390906D01*
X387858Y814832D01*
X1160272Y1219454D02*
X1155192Y1229614D01*
X1165352D01*
X1160272Y1219454D01*
Y1221486D02*
X1157224Y1227582D01*
X1163320D01*
X1160272Y1221486D01*
X998982Y1072134D02*
X993902Y1082294D01*
X1004062D01*
X998982Y1072134D01*
Y1074166D02*
X995934Y1080262D01*
X1002030D01*
X998982Y1074166D01*
D157*
X741680Y321310D02*
G03*
X741680Y321310I-5080J0D01*
G01*
X792480D02*
G03*
X792480Y321310I-5080J0D01*
G01*
X913130D02*
G03*
X913130Y321310I-5080J0D01*
G01*
X862330D02*
G03*
X862330Y321310I-5080J0D01*
G01*
X1037590D02*
G03*
X1037590Y321310I-5080J0D01*
G01*
X986790D02*
G03*
X986790Y321310I-5080J0D01*
G01*
X317500Y608330D02*
G03*
X317500Y608330I-5080J0D01*
G01*
X308610Y1078230D02*
G03*
X308610Y1078230I-5080J0D01*
G01*
X317500Y659130D02*
G03*
X317500Y659130I-5080J0D01*
G01*
X308610Y1129030D02*
G03*
X308610Y1129030I-5080J0D01*
G01*
X759460Y1061974D02*
G03*
X759460Y1061974I-5080J0D01*
G01*
D158*
X757428D02*
G03*
X757428Y1061974I-3048J0D01*
G01*
M02*
