G04*
G04 #@! TF.GenerationSoftware,Altium Limited,Altium Designer,23.7.1 (13)*
G04*
G04 Layer_Color=255*
%FSLAX44Y44*%
%MOMM*%
G71*
G04*
G04 #@! TF.SameCoordinates,3071C145-2305-4F11-89AA-D09C7C2D5F18*
G04*
G04*
G04 #@! TF.FilePolarity,Positive*
G04*
G01*
G75*
%ADD19R,0.6000X1.1500*%
%ADD20R,0.8100X0.9400*%
%ADD21R,0.9000X0.9500*%
%ADD22R,0.9500X0.9000*%
%ADD23R,1.2600X2.7200*%
%ADD24R,0.9400X0.8100*%
%ADD25R,2.3000X1.6000*%
%ADD26R,1.4700X1.0200*%
%ADD27R,0.6000X1.2500*%
%ADD28R,0.8500X0.9500*%
%ADD29R,1.5000X0.8000*%
%ADD30R,0.9000X0.9000*%
%ADD31R,1.5000X0.9000*%
%ADD32R,0.9000X1.5000*%
%ADD33R,0.6000X3.2000*%
%ADD34R,3.7500X4.4100*%
%ADD35R,0.8000X0.6000*%
%ADD36R,1.1000X0.5000*%
%ADD37R,0.5000X0.5000*%
G04:AMPARAMS|DCode=38|XSize=1.07mm|YSize=1.08mm|CornerRadius=0.1338mm|HoleSize=0mm|Usage=FLASHONLY|Rotation=0.000|XOffset=0mm|YOffset=0mm|HoleType=Round|Shape=RoundedRectangle|*
%AMROUNDEDRECTD38*
21,1,1.0700,0.8125,0,0,0.0*
21,1,0.8025,1.0800,0,0,0.0*
1,1,0.2675,0.4013,-0.4063*
1,1,0.2675,-0.4013,-0.4063*
1,1,0.2675,-0.4013,0.4063*
1,1,0.2675,0.4013,0.4063*
%
%ADD38ROUNDEDRECTD38*%
%ADD39R,1.0200X1.4700*%
%ADD40O,0.6000X1.8000*%
%ADD41O,1.8000X0.6000*%
G04:AMPARAMS|DCode=42|XSize=1.07mm|YSize=1.08mm|CornerRadius=0.1338mm|HoleSize=0mm|Usage=FLASHONLY|Rotation=90.000|XOffset=0mm|YOffset=0mm|HoleType=Round|Shape=RoundedRectangle|*
%AMROUNDEDRECTD42*
21,1,1.0700,0.8125,0,0,90.0*
21,1,0.8025,1.0800,0,0,90.0*
1,1,0.2675,0.4063,0.4013*
1,1,0.2675,0.4063,-0.4013*
1,1,0.2675,-0.4063,-0.4013*
1,1,0.2675,-0.4063,0.4013*
%
%ADD42ROUNDEDRECTD42*%
%ADD43R,1.8000X1.3000*%
%ADD44R,1.2000X0.9000*%
%ADD45R,1.0000X0.9000*%
%ADD46R,1.8000X1.3000*%
%ADD47R,2.1500X2.2000*%
%ADD48R,0.4500X1.4000*%
%ADD49R,2.2000X2.1500*%
%ADD50R,0.7000X1.5250*%
%ADD51R,0.2910X0.1940*%
%ADD52R,1.4000X0.3000*%
%ADD53R,2.1500X2.2500*%
%ADD54R,4.5000X1.3000*%
%ADD55R,0.6000X1.2000*%
%ADD56R,1.2500X0.6000*%
%ADD57R,2.7200X1.2600*%
%ADD58R,1.1400X0.6000*%
%ADD59R,0.4000X0.4800*%
%ADD60R,0.6000X0.7000*%
G04:AMPARAMS|DCode=61|XSize=1.31mm|YSize=0.62mm|CornerRadius=0.0775mm|HoleSize=0mm|Usage=FLASHONLY|Rotation=0.000|XOffset=0mm|YOffset=0mm|HoleType=Round|Shape=RoundedRectangle|*
%AMROUNDEDRECTD61*
21,1,1.3100,0.4650,0,0,0.0*
21,1,1.1550,0.6200,0,0,0.0*
1,1,0.1550,0.5775,-0.2325*
1,1,0.1550,-0.5775,-0.2325*
1,1,0.1550,-0.5775,0.2325*
1,1,0.1550,0.5775,0.2325*
%
%ADD61ROUNDEDRECTD61*%
%ADD62R,0.7000X0.6000*%
%ADD63R,1.0000X0.7000*%
%ADD64R,2.2000X1.0500*%
%ADD65R,1.1000X1.0000*%
%ADD66R,1.1000X0.6500*%
%ADD67R,1.6000X2.3000*%
%ADD68R,1.1400X0.3000*%
%ADD69R,1.0500X1.0000*%
%ADD140R,1.2000X1.2000*%
%ADD141C,1.2000*%
%ADD142C,2.2500*%
%ADD143R,2.4750X2.4750*%
%ADD144C,2.4750*%
%ADD145R,1.5080X1.5080*%
%ADD146C,1.5080*%
%ADD147O,2.0000X0.9000*%
%ADD148O,1.7000X0.9000*%
%ADD149C,2.0000*%
%ADD150C,6.0000*%
%ADD151R,2.4750X2.4750*%
%ADD152R,1.2000X1.2000*%
%ADD153C,0.6000*%
D19*
X621386Y1226104D02*
D03*
X611886D02*
D03*
X602386D02*
D03*
Y1200104D02*
D03*
X621386D02*
D03*
D20*
X786400Y569086D02*
D03*
X799800D02*
D03*
X786654Y553846D02*
D03*
X800054D02*
D03*
X777590Y443484D02*
D03*
X764190D02*
D03*
X710088Y534720D02*
D03*
X723488D02*
D03*
X583788Y814070D02*
D03*
X570388D02*
D03*
X623474Y957326D02*
D03*
X636874D02*
D03*
X714660Y1165860D02*
D03*
X728060D02*
D03*
X714660Y1145540D02*
D03*
X728060D02*
D03*
X585030Y444260D02*
D03*
X571630D02*
D03*
X362870Y996950D02*
D03*
X442310Y444260D02*
D03*
X376270Y996950D02*
D03*
X406400Y1065530D02*
D03*
X393000D02*
D03*
X428910Y444260D02*
D03*
D21*
X786512Y586232D02*
D03*
X802512D02*
D03*
X740792Y534670D02*
D03*
X756792D02*
D03*
X586486Y831850D02*
D03*
X570486D02*
D03*
X946024Y903986D02*
D03*
X962024D02*
D03*
X1027810Y928370D02*
D03*
X1011810D02*
D03*
X1021208Y986282D02*
D03*
X1037208D02*
D03*
X1260730Y1099820D02*
D03*
X1276730D02*
D03*
X1260730Y1125220D02*
D03*
X1276730D02*
D03*
X798958Y443230D02*
D03*
X814958D02*
D03*
X744346D02*
D03*
X728346D02*
D03*
X605410Y444310D02*
D03*
X621410D02*
D03*
X392050D02*
D03*
X1003810Y1242060D02*
D03*
X1123570D02*
D03*
X872870Y579120D02*
D03*
X856870D02*
D03*
X1139570Y1242060D02*
D03*
X1019810D02*
D03*
X408050Y444310D02*
D03*
D22*
X765048Y552070D02*
D03*
Y568070D02*
D03*
X552196Y832230D02*
D03*
Y816230D02*
D03*
X408940Y1213740D02*
D03*
Y1229740D02*
D03*
X1035558Y1003682D02*
D03*
Y1019682D02*
D03*
X945134Y933576D02*
D03*
Y917576D02*
D03*
X549910Y488950D02*
D03*
Y504950D02*
D03*
X533400Y472820D02*
D03*
Y456820D02*
D03*
Y504570D02*
D03*
Y488570D02*
D03*
X549910Y456820D02*
D03*
Y472820D02*
D03*
X741680Y498220D02*
D03*
Y482220D02*
D03*
X605790Y408560D02*
D03*
Y424560D02*
D03*
X427990Y408560D02*
D03*
Y424560D02*
D03*
X363220Y842900D02*
D03*
Y858900D02*
D03*
Y818260D02*
D03*
Y802260D02*
D03*
X872490Y544450D02*
D03*
X351790Y449200D02*
D03*
X864870Y413130D02*
D03*
X967740D02*
D03*
X872490Y560450D02*
D03*
X351790Y465200D02*
D03*
X864870Y397130D02*
D03*
X967740D02*
D03*
D23*
X606206Y822960D02*
D03*
X632806D02*
D03*
D24*
X962914Y932276D02*
D03*
Y918876D02*
D03*
X642366Y1201324D02*
D03*
Y1214724D02*
D03*
X582930Y1212754D02*
D03*
Y1226154D02*
D03*
X759460Y1242980D02*
D03*
Y1256380D02*
D03*
X817626Y973486D02*
D03*
Y986886D02*
D03*
X804926Y498698D02*
D03*
Y485298D02*
D03*
X429260Y1096930D02*
D03*
X492760Y986440D02*
D03*
X1019810Y1208690D02*
D03*
X1139190D02*
D03*
X1162050Y564800D02*
D03*
X1146810D02*
D03*
X646430Y493618D02*
D03*
X1139190Y1222090D02*
D03*
X1019810D02*
D03*
X429260Y1110330D02*
D03*
X646430Y480218D02*
D03*
X492760Y999840D02*
D03*
X1162050Y578200D02*
D03*
X1146810D02*
D03*
D25*
X592836Y861830D02*
D03*
Y925830D02*
D03*
D26*
X561848Y984630D02*
D03*
Y968630D02*
D03*
D27*
X583336Y956510D02*
D03*
X592836D02*
D03*
X602336D02*
D03*
Y981510D02*
D03*
X592836D02*
D03*
X583336D02*
D03*
X1029208Y945302D02*
D03*
X1019658Y966302D02*
D03*
X1038758D02*
D03*
D28*
X714860Y1125728D02*
D03*
X727860D02*
D03*
X714606Y1082040D02*
D03*
X727606D02*
D03*
X714606Y1104900D02*
D03*
X727606D02*
D03*
X714606Y1064260D02*
D03*
X727606D02*
D03*
X364340Y659130D02*
D03*
X377340D02*
D03*
X1139040Y400050D02*
D03*
X1152040D02*
D03*
X1117750Y398780D02*
D03*
X1104750D02*
D03*
X1071730Y397510D02*
D03*
X1084730D02*
D03*
D29*
X748030Y1148200D02*
D03*
Y1163200D02*
D03*
D30*
X868650Y1174750D02*
D03*
Y1188750D02*
D03*
X882650D02*
D03*
Y1174750D02*
D03*
Y1160750D02*
D03*
X868650D02*
D03*
X854650D02*
D03*
Y1174750D02*
D03*
Y1188750D02*
D03*
D31*
X971150Y1251950D02*
D03*
Y1239250D02*
D03*
Y1226550D02*
D03*
Y1213850D02*
D03*
Y1201150D02*
D03*
Y1188450D02*
D03*
Y1175750D02*
D03*
Y1163050D02*
D03*
Y1150350D02*
D03*
Y1137650D02*
D03*
Y1124950D02*
D03*
Y1112250D02*
D03*
Y1099550D02*
D03*
Y1086850D02*
D03*
X796150D02*
D03*
Y1099550D02*
D03*
Y1112250D02*
D03*
Y1124950D02*
D03*
Y1137650D02*
D03*
Y1150350D02*
D03*
Y1163050D02*
D03*
Y1175750D02*
D03*
Y1188450D02*
D03*
Y1201150D02*
D03*
Y1213850D02*
D03*
Y1226550D02*
D03*
Y1239250D02*
D03*
Y1251950D02*
D03*
D32*
X940800Y1074350D02*
D03*
X928100D02*
D03*
X915400D02*
D03*
X902700D02*
D03*
X890000D02*
D03*
X877300D02*
D03*
X864600D02*
D03*
X851900D02*
D03*
X839200D02*
D03*
X826500D02*
D03*
D33*
X353210Y1170470D02*
D03*
D34*
X384960Y1163320D02*
D03*
D35*
X407710Y1182370D02*
D03*
Y1169670D02*
D03*
Y1156970D02*
D03*
Y1144270D02*
D03*
D36*
X350710D02*
D03*
D37*
X347710Y1156970D02*
D03*
Y1169670D02*
D03*
Y1182370D02*
D03*
D38*
X387260Y1250950D02*
D03*
X407760D02*
D03*
D39*
X790830Y912876D02*
D03*
X806830D02*
D03*
D40*
X1059630Y901800D02*
D03*
X1070630D02*
D03*
X1081630D02*
D03*
X1092630D02*
D03*
X1103630D02*
D03*
X1114630D02*
D03*
X1125630D02*
D03*
X1136630D02*
D03*
X1147630D02*
D03*
Y723800D02*
D03*
X1136630D02*
D03*
X1125630D02*
D03*
X1114630D02*
D03*
X1103630D02*
D03*
X1092630D02*
D03*
X1081630D02*
D03*
X1070630D02*
D03*
X1059630D02*
D03*
D41*
X1183130Y873300D02*
D03*
Y862300D02*
D03*
Y851300D02*
D03*
Y840300D02*
D03*
Y829300D02*
D03*
Y818300D02*
D03*
Y807300D02*
D03*
Y796300D02*
D03*
Y785300D02*
D03*
Y774300D02*
D03*
Y763300D02*
D03*
Y752300D02*
D03*
X1024130D02*
D03*
Y763300D02*
D03*
Y774300D02*
D03*
Y785300D02*
D03*
Y796300D02*
D03*
Y807300D02*
D03*
Y818300D02*
D03*
Y829300D02*
D03*
Y840300D02*
D03*
Y851300D02*
D03*
Y862300D02*
D03*
Y873300D02*
D03*
D42*
X1301750Y1101180D02*
D03*
Y1080680D02*
D03*
X1300480Y1150710D02*
D03*
Y1130210D02*
D03*
D43*
X1320840Y672370D02*
D03*
X1232840D02*
D03*
X1320840Y549370D02*
D03*
X1232840D02*
D03*
D44*
X1191840Y642620D02*
D03*
Y617220D02*
D03*
Y591820D02*
D03*
Y629920D02*
D03*
Y604520D02*
D03*
Y579120D02*
D03*
D45*
X1173480Y399650D02*
D03*
Y413150D02*
D03*
D46*
X1168400Y469160D02*
D03*
Y440160D02*
D03*
D47*
X368300Y583790D02*
D03*
Y627790D02*
D03*
D48*
X761140Y468220D02*
D03*
X767640D02*
D03*
X774140D02*
D03*
X780640D02*
D03*
Y512220D02*
D03*
X774140D02*
D03*
X767640D02*
D03*
X761140D02*
D03*
D49*
X496980Y408940D02*
D03*
X452980D02*
D03*
X535530D02*
D03*
X579530D02*
D03*
X677320D02*
D03*
X633320D02*
D03*
X754790D02*
D03*
X710790D02*
D03*
X789530D02*
D03*
X833530D02*
D03*
X359000D02*
D03*
X403000D02*
D03*
D50*
X1130300Y440240D02*
D03*
X1117600D02*
D03*
X1104900D02*
D03*
X1092200D02*
D03*
Y494480D02*
D03*
X1104900D02*
D03*
X1117600D02*
D03*
X1130300D02*
D03*
D51*
X337820Y844106D02*
D03*
Y848106D02*
D03*
Y816800D02*
D03*
Y812800D02*
D03*
D52*
X619310Y486330D02*
D03*
Y481330D02*
D03*
X575310Y476330D02*
D03*
Y486330D02*
D03*
Y481330D02*
D03*
Y471330D02*
D03*
Y466330D02*
D03*
X619310D02*
D03*
Y471330D02*
D03*
Y476330D02*
D03*
D53*
X354330Y1066390D02*
D03*
Y1110390D02*
D03*
D54*
X469900Y1052020D02*
D03*
Y1109520D02*
D03*
D55*
X400050Y1084780D02*
D03*
X390550D02*
D03*
X409550D02*
D03*
Y1109780D02*
D03*
X400050D02*
D03*
X390550D02*
D03*
D56*
X816664Y935888D02*
D03*
X791664D02*
D03*
Y945388D02*
D03*
Y954888D02*
D03*
X816664D02*
D03*
Y945388D02*
D03*
D57*
X955294Y984596D02*
D03*
Y957996D02*
D03*
D58*
X323090Y983230D02*
D03*
Y919230D02*
D03*
Y975230D02*
D03*
Y927230D02*
D03*
D59*
X345440Y910340D02*
D03*
X382270Y963418D02*
D03*
X382524Y920754D02*
D03*
X382270Y950218D02*
D03*
X382524Y933954D02*
D03*
X345440Y923540D02*
D03*
D60*
X361990Y980860D02*
D03*
X363220Y910170D02*
D03*
X361990Y969860D02*
D03*
X363220Y921170D02*
D03*
D61*
X413389Y999091D02*
D03*
Y986391D02*
D03*
Y973691D02*
D03*
Y960991D02*
D03*
Y948291D02*
D03*
Y935591D02*
D03*
Y922891D02*
D03*
Y910191D02*
D03*
X468389D02*
D03*
Y922891D02*
D03*
Y935591D02*
D03*
Y948291D02*
D03*
Y960991D02*
D03*
Y973691D02*
D03*
Y986391D02*
D03*
Y999091D02*
D03*
D62*
X1070610Y1198560D02*
D03*
X1193320D02*
D03*
Y1248560D02*
D03*
X1070610D02*
D03*
D63*
X1100610Y1205060D02*
D03*
X1040610D02*
D03*
X1223320D02*
D03*
X1163320D02*
D03*
Y1242060D02*
D03*
X1223320D02*
D03*
X1100610D02*
D03*
X1040610D02*
D03*
D64*
X1306830Y847580D02*
D03*
Y877080D02*
D03*
D65*
X1220040Y366014D02*
D03*
X1198040Y375514D02*
D03*
Y356514D02*
D03*
D66*
X851830Y607060D02*
D03*
X872830Y616660D02*
D03*
Y597460D02*
D03*
D67*
X853444Y944626D02*
D03*
X917444D02*
D03*
D68*
X323090Y953730D02*
D03*
Y958730D02*
D03*
Y963730D02*
D03*
Y968730D02*
D03*
Y948730D02*
D03*
Y943730D02*
D03*
Y938730D02*
D03*
Y933730D02*
D03*
D69*
X1291580Y862330D02*
D03*
D140*
X712190Y1221740D02*
D03*
D141*
X677190D02*
D03*
X499110Y1220470D02*
D03*
X1275080Y1010360D02*
D03*
X1184910Y1009370D02*
D03*
D142*
X656513Y320810D02*
D03*
X605713D02*
D03*
X554913D02*
D03*
X1206500D02*
D03*
X1155700D02*
D03*
X1104900D02*
D03*
X312920Y509270D02*
D03*
X376267Y320810D02*
D03*
X312920Y407670D02*
D03*
Y458470D02*
D03*
X427067Y320810D02*
D03*
X477867D02*
D03*
D143*
X736600Y321310D02*
D03*
X857250D02*
D03*
X981710D02*
D03*
D144*
X787400D02*
D03*
X908050D02*
D03*
X1032510D02*
D03*
X312420Y608330D02*
D03*
X303530Y1078230D02*
D03*
D145*
X295910Y843350D02*
D03*
X1292690Y729580D02*
D03*
D146*
X295910Y818350D02*
D03*
Y768350D02*
D03*
Y793350D02*
D03*
X1292690Y779580D02*
D03*
Y804580D02*
D03*
Y754580D02*
D03*
D147*
X317290Y994480D02*
D03*
Y907980D02*
D03*
D148*
X275590Y994480D02*
D03*
Y907980D02*
D03*
D149*
X955040Y636270D02*
D03*
Y560270D02*
D03*
D150*
X1289050Y1225550D02*
D03*
X298450Y298450D02*
D03*
X1289050D02*
D03*
X298450Y1225550D02*
D03*
D151*
X312420Y659130D02*
D03*
X303530Y1129030D02*
D03*
D152*
X499110Y1170470D02*
D03*
X1275080Y975360D02*
D03*
X1184910Y974370D02*
D03*
D153*
X312390Y980130D02*
D03*
Y922330D02*
D03*
M02*
