G04*
G04 #@! TF.GenerationSoftware,Altium Limited,Altium Designer,23.7.1 (13)*
G04*
G04 Layer_Color=2752767*
%FSLAX44Y44*%
%MOMM*%
G71*
G04*
G04 #@! TF.SameCoordinates,B3BED012-A8B6-438F-A654-7E25F243F1DC*
G04*
G04*
G04 #@! TF.FilePolarity,Positive*
G04*
G01*
G75*
%ADD11C,0.1270*%
%ADD157C,0.1693*%
%ADD158C,0.1016*%
D11*
X707110Y1221740D02*
X712190Y1226820D01*
X717270Y1221740D01*
X712190Y1216660D01*
X707110Y1221740D01*
X672110D02*
X677190Y1226820D01*
X682270Y1221740D01*
X677190Y1216660D01*
X672110Y1221740D01*
X651433Y315730D02*
Y325890D01*
X661593D01*
Y315730D01*
X651433D01*
X600633D02*
Y325890D01*
X610793D01*
Y315730D01*
X600633D01*
X549833D02*
Y325890D01*
X559993D01*
Y315730D01*
X549833D01*
X1201420D02*
Y325890D01*
X1211580D01*
Y315730D01*
X1201420D01*
X1150620D02*
Y325890D01*
X1160780D01*
Y315730D01*
X1150620D01*
X1099820D02*
Y325890D01*
X1109980D01*
Y315730D01*
X1099820D01*
X290830Y838270D02*
X293370D01*
X295910Y840810D01*
X298450Y838270D01*
X300990D01*
Y840810D01*
X298450Y843350D01*
X300990Y845890D01*
Y848430D01*
X298450D01*
X295910Y845890D01*
X293370Y848430D01*
X290830D01*
Y845890D01*
X293370Y843350D01*
X290830Y840810D01*
Y838270D01*
Y813270D02*
X293370D01*
X295910Y815810D01*
X298450Y813270D01*
X300990D01*
Y815810D01*
X298450Y818350D01*
X300990Y820890D01*
Y823430D01*
X298450D01*
X295910Y820890D01*
X293370Y823430D01*
X290830D01*
Y820890D01*
X293370Y818350D01*
X290830Y815810D01*
Y813270D01*
Y763270D02*
X293370D01*
X295910Y765810D01*
X298450Y763270D01*
X300990D01*
Y765810D01*
X298450Y768350D01*
X300990Y770890D01*
Y773430D01*
X298450D01*
X295910Y770890D01*
X293370Y773430D01*
X290830D01*
Y770890D01*
X293370Y768350D01*
X290830Y765810D01*
Y763270D01*
Y788270D02*
X293370D01*
X295910Y790810D01*
X298450Y788270D01*
X300990D01*
Y790810D01*
X298450Y793350D01*
X300990Y795890D01*
Y798430D01*
X298450D01*
X295910Y795890D01*
X293370Y798430D01*
X290830D01*
Y795890D01*
X293370Y793350D01*
X290830Y790810D01*
Y788270D01*
X499110Y1215390D02*
X494030Y1225550D01*
X504190D01*
X499110Y1215390D01*
X312210Y989400D02*
X314750Y994480D01*
X312210Y999560D01*
X317290Y997020D01*
X322370Y999560D01*
X319830Y994480D01*
X322370Y989400D01*
X317290Y991940D01*
X312210Y989400D01*
Y902900D02*
X314750Y907980D01*
X312210Y913060D01*
X317290Y910520D01*
X322370Y913060D01*
X319830Y907980D01*
X322370Y902900D01*
X317290Y905440D01*
X312210Y902900D01*
X273050Y991940D02*
Y989400D01*
X278130D01*
Y991940D01*
X280670D01*
Y997020D01*
X278130D01*
Y999560D01*
X273050D01*
Y997020D01*
X270510D01*
Y991940D01*
X273050D01*
Y905440D02*
Y902900D01*
X278130D01*
Y905440D01*
X280670D01*
Y910520D01*
X278130D01*
Y913060D01*
X273050D01*
Y910520D01*
X270510D01*
Y905440D01*
X273050D01*
X955040Y631190D02*
X949960Y641350D01*
X960120D01*
X955040Y631190D01*
X307840Y504190D02*
Y514350D01*
X318000D01*
Y504190D01*
X307840D01*
X1287610Y724500D02*
X1290150D01*
X1292690Y727040D01*
X1295230Y724500D01*
X1297770D01*
Y727040D01*
X1295230Y729580D01*
X1297770Y732120D01*
Y734660D01*
X1295230D01*
X1292690Y732120D01*
X1290150Y734660D01*
X1287610D01*
Y732120D01*
X1290150Y729580D01*
X1287610Y727040D01*
Y724500D01*
X1270000Y1010360D02*
X1275080Y1015440D01*
X1280160Y1010360D01*
X1275080Y1005280D01*
X1270000Y1010360D01*
X1179830Y1009370D02*
X1184910Y1014450D01*
X1189990Y1009370D01*
X1184910Y1004290D01*
X1179830Y1009370D01*
X371187Y315730D02*
Y325890D01*
X381347D01*
Y315730D01*
X371187D01*
X307840Y402590D02*
Y412750D01*
X318000D01*
Y402590D01*
X307840D01*
X1283970Y1220470D02*
Y1230630D01*
X1294130D01*
Y1220470D01*
X1283970D01*
X1286002Y1222502D02*
Y1228598D01*
X1292098D01*
Y1222502D01*
X1286002D01*
X293370Y293370D02*
Y303530D01*
X303530D01*
Y293370D01*
X293370D01*
X295402Y295402D02*
Y301498D01*
X301498D01*
Y295402D01*
X295402D01*
X1283970Y293370D02*
Y303530D01*
X1294130D01*
Y293370D01*
X1283970D01*
X1286002Y295402D02*
Y301498D01*
X1292098D01*
Y295402D01*
X1286002D01*
X293370Y1220470D02*
Y1230630D01*
X303530D01*
Y1220470D01*
X293370D01*
X295402Y1222502D02*
Y1228598D01*
X301498D01*
Y1222502D01*
X295402D01*
X499110Y1165390D02*
X494030Y1175550D01*
X504190D01*
X499110Y1165390D01*
X312390Y975050D02*
X314930Y977590D01*
X317470D01*
X314930Y980130D01*
X317470Y982670D01*
X314930D01*
X312390Y985210D01*
X309850Y982670D01*
X307310D01*
X309850Y980130D01*
X307310Y977590D01*
X309850D01*
X312390Y975050D01*
Y917250D02*
X314930Y919790D01*
X317470D01*
X314930Y922330D01*
X317470Y924870D01*
X314930D01*
X312390Y927410D01*
X309850Y924870D01*
X307310D01*
X309850Y922330D01*
X307310Y919790D01*
X309850D01*
X312390Y917250D01*
X955040Y555190D02*
X949960Y565350D01*
X960120D01*
X955040Y555190D01*
X307840Y453390D02*
Y463550D01*
X318000D01*
Y453390D01*
X307840D01*
X1287610Y774500D02*
X1290150D01*
X1292690Y777040D01*
X1295230Y774500D01*
X1297770D01*
Y777040D01*
X1295230Y779580D01*
X1297770Y782120D01*
Y784660D01*
X1295230D01*
X1292690Y782120D01*
X1290150Y784660D01*
X1287610D01*
Y782120D01*
X1290150Y779580D01*
X1287610Y777040D01*
Y774500D01*
Y799500D02*
X1290150D01*
X1292690Y802040D01*
X1295230Y799500D01*
X1297770D01*
Y802040D01*
X1295230Y804580D01*
X1297770Y807120D01*
Y809660D01*
X1295230D01*
X1292690Y807120D01*
X1290150Y809660D01*
X1287610D01*
Y807120D01*
X1290150Y804580D01*
X1287610Y802040D01*
Y799500D01*
Y749500D02*
X1290150D01*
X1292690Y752040D01*
X1295230Y749500D01*
X1297770D01*
Y752040D01*
X1295230Y754580D01*
X1297770Y757120D01*
Y759660D01*
X1295230D01*
X1292690Y757120D01*
X1290150Y759660D01*
X1287610D01*
Y757120D01*
X1290150Y754580D01*
X1287610Y752040D01*
Y749500D01*
X1270000Y975360D02*
X1275080Y980440D01*
X1280160Y975360D01*
X1275080Y970280D01*
X1270000Y975360D01*
X1179830Y974370D02*
X1184910Y979450D01*
X1189990Y974370D01*
X1184910Y969290D01*
X1179830Y974370D01*
X421987Y315730D02*
Y325890D01*
X432147D01*
Y315730D01*
X421987D01*
X472787D02*
Y325890D01*
X482947D01*
Y315730D01*
X472787D01*
X911352Y996442D02*
X913892D01*
X916432Y998982D01*
X918972Y996442D01*
X921512D01*
Y998982D01*
X918972Y1001522D01*
X921512Y1004062D01*
Y1006602D01*
X918972D01*
X916432Y1004062D01*
X913892Y1006602D01*
X911352D01*
Y1004062D01*
X913892Y1001522D01*
X911352Y998982D01*
Y996442D01*
X821182Y1193086D02*
X816102Y1203246D01*
X826262D01*
X821182Y1193086D01*
Y1195118D02*
X818134Y1201214D01*
X824230D01*
X821182Y1195118D01*
X341376Y936498D02*
X336296Y946658D01*
X346456D01*
X341376Y936498D01*
Y938530D02*
X338328Y944626D01*
X344424D01*
X341376Y938530D01*
X353060Y951992D02*
X347980Y962152D01*
X358140D01*
X353060Y951992D01*
Y954024D02*
X350012Y960120D01*
X356108D01*
X353060Y954024D01*
X517652Y742188D02*
X512572Y752348D01*
X522732D01*
X517652Y742188D01*
Y744220D02*
X514604Y750316D01*
X520700D01*
X517652Y744220D01*
X575564Y758444D02*
X570484Y768604D01*
X580644D01*
X575564Y758444D01*
Y760476D02*
X572516Y766572D01*
X578612D01*
X575564Y760476D01*
X752348Y757428D02*
X747268Y767588D01*
X757428D01*
X752348Y757428D01*
Y759460D02*
X749300Y765556D01*
X755396D01*
X752348Y759460D01*
X716788Y955802D02*
X711708Y965962D01*
X721868D01*
X716788Y955802D01*
Y957834D02*
X713740Y963930D01*
X719836D01*
X716788Y957834D01*
X769620Y1010412D02*
X764540Y1020572D01*
X774700D01*
X769620Y1010412D01*
Y1012444D02*
X766572Y1018540D01*
X772668D01*
X769620Y1012444D01*
X1209892Y755267D02*
X1204812Y765427D01*
X1214972D01*
X1209892Y755267D01*
Y757299D02*
X1206844Y763395D01*
X1212940D01*
X1209892Y757299D01*
X1210056Y784860D02*
X1204976Y795020D01*
X1215136D01*
X1210056Y784860D01*
Y786892D02*
X1207008Y792988D01*
X1213104D01*
X1210056Y786892D01*
X1209294Y771906D02*
X1204214Y782066D01*
X1214374D01*
X1209294Y771906D01*
Y773938D02*
X1206246Y780034D01*
X1212342D01*
X1209294Y773938D01*
X1002284Y847852D02*
X997204Y858012D01*
X1007364D01*
X1002284Y847852D01*
Y849884D02*
X999236Y855980D01*
X1005332D01*
X1002284Y849884D01*
X1008380Y893826D02*
X1003300Y903986D01*
X1013460D01*
X1008380Y893826D01*
Y895858D02*
X1005332Y901954D01*
X1011428D01*
X1008380Y895858D01*
X856488Y557022D02*
X851408Y567182D01*
X861568D01*
X856488Y557022D01*
Y559054D02*
X853440Y565150D01*
X859536D01*
X856488Y559054D01*
X911098Y755396D02*
X906018Y765556D01*
X916178D01*
X911098Y755396D01*
Y757428D02*
X908050Y763524D01*
X914146D01*
X911098Y757428D01*
X698754Y1110488D02*
X693674Y1120648D01*
X703834D01*
X698754Y1110488D01*
Y1112520D02*
X695706Y1118616D01*
X701802D01*
X698754Y1112520D01*
X660400Y1109726D02*
X655320Y1119886D01*
X665480D01*
X660400Y1109726D01*
Y1111758D02*
X657352Y1117854D01*
X663448D01*
X660400Y1111758D01*
X826262Y1119378D02*
X821182Y1129538D01*
X831342D01*
X826262Y1119378D01*
Y1121410D02*
X823214Y1127506D01*
X829310D01*
X826262Y1121410D01*
X832104Y1050290D02*
X827024Y1060450D01*
X837184D01*
X832104Y1050290D01*
Y1052322D02*
X829056Y1058418D01*
X835152D01*
X832104Y1052322D01*
X751586Y1010920D02*
X746506Y1021080D01*
X756666D01*
X751586Y1010920D01*
Y1012952D02*
X748538Y1019048D01*
X754634D01*
X751586Y1012952D01*
X728472Y956056D02*
X723392Y966216D01*
X733552D01*
X728472Y956056D01*
Y958088D02*
X725424Y964184D01*
X731520D01*
X728472Y958088D01*
X734822Y1010920D02*
X729742Y1021080D01*
X739902D01*
X734822Y1010920D01*
Y1012952D02*
X731774Y1019048D01*
X737870D01*
X734822Y1012952D01*
X719328Y1011936D02*
X714248Y1022096D01*
X724408D01*
X719328Y1011936D01*
Y1013968D02*
X716280Y1020064D01*
X722376D01*
X719328Y1013968D01*
X702310Y956056D02*
X697230Y966216D01*
X707390D01*
X702310Y956056D01*
Y958088D02*
X699262Y964184D01*
X705358D01*
X702310Y958088D01*
X740664Y891286D02*
X735584Y901446D01*
X745744D01*
X740664Y891286D01*
Y893318D02*
X737616Y899414D01*
X743712D01*
X740664Y893318D01*
X752362Y880591D02*
X747282Y890751D01*
X757442D01*
X752362Y880591D01*
Y882623D02*
X749314Y888719D01*
X755410D01*
X752362Y882623D01*
X685800Y1006856D02*
X680720Y1017016D01*
X690880D01*
X685800Y1006856D01*
Y1008888D02*
X682752Y1014984D01*
X688848D01*
X685800Y1008888D01*
X673862Y1007110D02*
X668782Y1017270D01*
X678942D01*
X673862Y1007110D01*
Y1009142D02*
X670814Y1015238D01*
X676910D01*
X673862Y1009142D01*
X659892Y471932D02*
X654812Y482092D01*
X664972D01*
X659892Y471932D01*
Y473964D02*
X656844Y480060D01*
X662940D01*
X659892Y473964D01*
X660146Y449326D02*
X655066Y459486D01*
X665226D01*
X660146Y449326D01*
Y451358D02*
X657098Y457454D01*
X663194D01*
X660146Y451358D01*
X857504Y1096264D02*
X852424Y1106424D01*
X862584D01*
X857504Y1096264D01*
Y1098296D02*
X854456Y1104392D01*
X860552D01*
X857504Y1098296D01*
X773430Y950468D02*
X768350Y960628D01*
X778510D01*
X773430Y950468D01*
Y952500D02*
X770382Y958596D01*
X776478D01*
X773430Y952500D01*
X833374Y602234D02*
X828294Y612394D01*
X838454D01*
X833374Y602234D01*
Y604266D02*
X830326Y610362D01*
X836422D01*
X833374Y604266D01*
X594614Y790702D02*
X589534Y800862D01*
X599694D01*
X594614Y790702D01*
Y792734D02*
X591566Y798830D01*
X597662D01*
X594614Y792734D01*
X343662Y863600D02*
X338582Y873760D01*
X348742D01*
X343662Y863600D01*
Y865632D02*
X340614Y871728D01*
X346710D01*
X343662Y865632D01*
X935736Y1109726D02*
X930656Y1119886D01*
X940816D01*
X935736Y1109726D01*
Y1111758D02*
X932688Y1117854D01*
X938784D01*
X935736Y1111758D01*
X906018Y1233170D02*
X900938Y1243330D01*
X911098D01*
X906018Y1233170D01*
Y1235202D02*
X902970Y1241298D01*
X909066D01*
X906018Y1235202D01*
X890778Y1222756D02*
X885698Y1232916D01*
X895858D01*
X890778Y1222756D01*
Y1224788D02*
X887730Y1230884D01*
X893826D01*
X890778Y1224788D01*
X845312Y1202436D02*
X840232Y1212596D01*
X850392D01*
X845312Y1202436D01*
Y1204468D02*
X842264Y1210564D01*
X848360D01*
X845312Y1204468D01*
X897382Y1109472D02*
X892302Y1119632D01*
X902462D01*
X897382Y1109472D01*
Y1111504D02*
X894334Y1117600D01*
X900430D01*
X897382Y1111504D01*
X447040Y991616D02*
X441960Y1001776D01*
X452120D01*
X447040Y991616D01*
Y993648D02*
X443992Y999744D01*
X450088D01*
X447040Y993648D01*
X1003300Y1215390D02*
X998220Y1225550D01*
X1008380D01*
X1003300Y1215390D01*
Y1217422D02*
X1000252Y1223518D01*
X1006348D01*
X1003300Y1217422D01*
X745490Y1228598D02*
X740410Y1238758D01*
X750570D01*
X745490Y1228598D01*
Y1230630D02*
X742442Y1236726D01*
X748538D01*
X745490Y1230630D01*
X1001268Y1253236D02*
X996188Y1263396D01*
X1006348D01*
X1001268Y1253236D01*
Y1255268D02*
X998220Y1261364D01*
X1004316D01*
X1001268Y1255268D01*
X818896Y1221470D02*
X813816Y1231630D01*
X823976D01*
X818896Y1221470D01*
Y1223502D02*
X815848Y1229598D01*
X821944D01*
X818896Y1223502D01*
X764794Y550926D02*
X759714Y561086D01*
X769874D01*
X764794Y550926D01*
Y552958D02*
X761746Y559054D01*
X767842D01*
X764794Y552958D01*
X517144Y450342D02*
X512064Y460502D01*
X522224D01*
X517144Y450342D01*
Y452374D02*
X514096Y458470D01*
X520192D01*
X517144Y452374D01*
X549402Y516636D02*
X544322Y526796D01*
X554482D01*
X549402Y516636D01*
Y518668D02*
X546354Y524764D01*
X552450D01*
X549402Y518668D01*
X883412Y412750D02*
X878332Y422910D01*
X888492D01*
X883412Y412750D01*
Y414782D02*
X880364Y420878D01*
X886460D01*
X883412Y414782D01*
X994664Y402590D02*
X989584Y412750D01*
X999744D01*
X994664Y402590D01*
Y404622D02*
X991616Y410718D01*
X997712D01*
X994664Y404622D01*
X389382Y837438D02*
X384302Y847598D01*
X394462D01*
X389382Y837438D01*
Y839470D02*
X386334Y845566D01*
X392430D01*
X389382Y839470D01*
X435356Y980948D02*
X430276Y991108D01*
X440436D01*
X435356Y980948D01*
Y982980D02*
X432308Y989076D01*
X438404D01*
X435356Y982980D01*
Y968502D02*
X430276Y978662D01*
X440436D01*
X435356Y968502D01*
Y970534D02*
X432308Y976630D01*
X438404D01*
X435356Y970534D01*
X407924Y853694D02*
X402844Y863854D01*
X413004D01*
X407924Y853694D01*
Y855726D02*
X404876Y861822D01*
X410972D01*
X407924Y855726D01*
X930402Y898398D02*
X925322Y908558D01*
X935482D01*
X930402Y898398D01*
Y900430D02*
X927354Y906526D01*
X933450D01*
X930402Y900430D01*
X601726Y992124D02*
X596646Y1002284D01*
X606806D01*
X601726Y992124D01*
Y994156D02*
X598678Y1000252D01*
X604774D01*
X601726Y994156D01*
X552704Y843788D02*
X547624Y853948D01*
X557784D01*
X552704Y843788D01*
Y845820D02*
X549656Y851916D01*
X555752D01*
X552704Y845820D01*
X489458Y956310D02*
X484378Y966470D01*
X494538D01*
X489458Y956310D01*
Y958342D02*
X486410Y964438D01*
X492506D01*
X489458Y958342D01*
X387858Y812800D02*
X382778Y822960D01*
X392938D01*
X387858Y812800D01*
Y814832D02*
X384810Y820928D01*
X390906D01*
X387858Y814832D01*
X1160272Y1219454D02*
X1155192Y1229614D01*
X1165352D01*
X1160272Y1219454D01*
Y1221486D02*
X1157224Y1227582D01*
X1163320D01*
X1160272Y1221486D01*
X998982Y1072134D02*
X993902Y1082294D01*
X1004062D01*
X998982Y1072134D01*
Y1074166D02*
X995934Y1080262D01*
X1002030D01*
X998982Y1074166D01*
D157*
X741680Y321310D02*
G03*
X741680Y321310I-5080J0D01*
G01*
X792480D02*
G03*
X792480Y321310I-5080J0D01*
G01*
X913130D02*
G03*
X913130Y321310I-5080J0D01*
G01*
X862330D02*
G03*
X862330Y321310I-5080J0D01*
G01*
X1037590D02*
G03*
X1037590Y321310I-5080J0D01*
G01*
X986790D02*
G03*
X986790Y321310I-5080J0D01*
G01*
X317500Y608330D02*
G03*
X317500Y608330I-5080J0D01*
G01*
X308610Y1078230D02*
G03*
X308610Y1078230I-5080J0D01*
G01*
X317500Y659130D02*
G03*
X317500Y659130I-5080J0D01*
G01*
X308610Y1129030D02*
G03*
X308610Y1129030I-5080J0D01*
G01*
X840994Y1190752D02*
G03*
X840994Y1190752I-5080J0D01*
G01*
X902462Y1188974D02*
G03*
X902462Y1188974I-5080J0D01*
G01*
Y1176782D02*
G03*
X902462Y1176782I-5080J0D01*
G01*
X889762Y1145540D02*
G03*
X889762Y1145540I-5080J0D01*
G01*
X874268Y1146556D02*
G03*
X874268Y1146556I-5080J0D01*
G01*
X861060D02*
G03*
X861060Y1146556I-5080J0D01*
G01*
X843280Y1172718D02*
G03*
X843280Y1172718I-5080J0D01*
G01*
X843788Y1160780D02*
G03*
X843788Y1160780I-5080J0D01*
G01*
X704088Y1152144D02*
G03*
X704088Y1152144I-5080J0D01*
G01*
X759460Y1061974D02*
G03*
X759460Y1061974I-5080J0D01*
G01*
X663194Y1079246D02*
G03*
X663194Y1079246I-5080J0D01*
G01*
X656844Y1104646D02*
G03*
X656844Y1104646I-5080J0D01*
G01*
X666496Y1092962D02*
G03*
X666496Y1092962I-5080J0D01*
G01*
X653288Y1091692D02*
G03*
X653288Y1091692I-5080J0D01*
G01*
X673608Y1208024D02*
G03*
X673608Y1208024I-5080J0D01*
G01*
X669798Y1234440D02*
G03*
X669798Y1234440I-5080J0D01*
G01*
X663194Y1220724D02*
G03*
X663194Y1220724I-5080J0D01*
G01*
X481838Y1237488D02*
G03*
X481838Y1237488I-5080J0D01*
G01*
X518668Y1235710D02*
G03*
X518668Y1235710I-5080J0D01*
G01*
X482346Y1210564D02*
G03*
X482346Y1210564I-5080J0D01*
G01*
X503174Y1206754D02*
G03*
X503174Y1206754I-5080J0D01*
G01*
X502666Y1236726D02*
G03*
X502666Y1236726I-5080J0D01*
G01*
X524256Y1220470D02*
G03*
X524256Y1220470I-5080J0D01*
G01*
X478028Y1222756D02*
G03*
X478028Y1222756I-5080J0D01*
G01*
X454406Y1034034D02*
G03*
X454406Y1034034I-5080J0D01*
G01*
X477520Y1034288D02*
G03*
X477520Y1034288I-5080J0D01*
G01*
X493268Y1034034D02*
G03*
X493268Y1034034I-5080J0D01*
G01*
X282702Y1072134D02*
G03*
X282702Y1072134I-5080J0D01*
G01*
X281432Y1057910D02*
G03*
X281432Y1057910I-5080J0D01*
G01*
X282956Y1048766D02*
G03*
X282956Y1048766I-5080J0D01*
G01*
X297688Y1045972D02*
G03*
X297688Y1045972I-5080J0D01*
G01*
X281178Y753618D02*
G03*
X281178Y753618I-5080J0D01*
G01*
X280162Y769620D02*
G03*
X280162Y769620I-5080J0D01*
G01*
X417068Y593598D02*
G03*
X417068Y593598I-5080J0D01*
G01*
X416560Y628904D02*
G03*
X416560Y628904I-5080J0D01*
G01*
X292100Y598424D02*
G03*
X292100Y598424I-5080J0D01*
G01*
X293116Y617728D02*
G03*
X293116Y617728I-5080J0D01*
G01*
X292608Y535178D02*
G03*
X292608Y535178I-5080J0D01*
G01*
X290576Y510032D02*
G03*
X290576Y510032I-5080J0D01*
G01*
X381000Y354330D02*
G03*
X381000Y354330I-5080J0D01*
G01*
X379984Y292862D02*
G03*
X379984Y292862I-5080J0D01*
G01*
X525272Y359918D02*
G03*
X525272Y359918I-5080J0D01*
G01*
X544576D02*
G03*
X544576Y359918I-5080J0D01*
G01*
X560324D02*
G03*
X560324Y359918I-5080J0D01*
G01*
X1151890Y419100D02*
G03*
X1151890Y419100I-5080J0D01*
G01*
X1092962Y419608D02*
G03*
X1092962Y419608I-5080J0D01*
G01*
D158*
X838962Y1190752D02*
G03*
X838962Y1190752I-3048J0D01*
G01*
X900430Y1188974D02*
G03*
X900430Y1188974I-3048J0D01*
G01*
Y1176782D02*
G03*
X900430Y1176782I-3048J0D01*
G01*
X887730Y1145540D02*
G03*
X887730Y1145540I-3048J0D01*
G01*
X872236Y1146556D02*
G03*
X872236Y1146556I-3048J0D01*
G01*
X859028D02*
G03*
X859028Y1146556I-3048J0D01*
G01*
X841248Y1172718D02*
G03*
X841248Y1172718I-3048J0D01*
G01*
X841756Y1160780D02*
G03*
X841756Y1160780I-3048J0D01*
G01*
X702056Y1152144D02*
G03*
X702056Y1152144I-3048J0D01*
G01*
X757428Y1061974D02*
G03*
X757428Y1061974I-3048J0D01*
G01*
X661162Y1079246D02*
G03*
X661162Y1079246I-3048J0D01*
G01*
X654812Y1104646D02*
G03*
X654812Y1104646I-3048J0D01*
G01*
X664464Y1092962D02*
G03*
X664464Y1092962I-3048J0D01*
G01*
X651256Y1091692D02*
G03*
X651256Y1091692I-3048J0D01*
G01*
X671576Y1208024D02*
G03*
X671576Y1208024I-3048J0D01*
G01*
X667766Y1234440D02*
G03*
X667766Y1234440I-3048J0D01*
G01*
X661162Y1220724D02*
G03*
X661162Y1220724I-3048J0D01*
G01*
X479806Y1237488D02*
G03*
X479806Y1237488I-3048J0D01*
G01*
X516636Y1235710D02*
G03*
X516636Y1235710I-3048J0D01*
G01*
X480314Y1210564D02*
G03*
X480314Y1210564I-3048J0D01*
G01*
X501142Y1206754D02*
G03*
X501142Y1206754I-3048J0D01*
G01*
X500634Y1236726D02*
G03*
X500634Y1236726I-3048J0D01*
G01*
X522224Y1220470D02*
G03*
X522224Y1220470I-3048J0D01*
G01*
X475996Y1222756D02*
G03*
X475996Y1222756I-3048J0D01*
G01*
X452374Y1034034D02*
G03*
X452374Y1034034I-3048J0D01*
G01*
X475488Y1034288D02*
G03*
X475488Y1034288I-3048J0D01*
G01*
X491236Y1034034D02*
G03*
X491236Y1034034I-3048J0D01*
G01*
X280670Y1072134D02*
G03*
X280670Y1072134I-3048J0D01*
G01*
X279400Y1057910D02*
G03*
X279400Y1057910I-3048J0D01*
G01*
X280924Y1048766D02*
G03*
X280924Y1048766I-3048J0D01*
G01*
X295656Y1045972D02*
G03*
X295656Y1045972I-3048J0D01*
G01*
X279146Y753618D02*
G03*
X279146Y753618I-3048J0D01*
G01*
X278130Y769620D02*
G03*
X278130Y769620I-3048J0D01*
G01*
X415036Y593598D02*
G03*
X415036Y593598I-3048J0D01*
G01*
X414528Y628904D02*
G03*
X414528Y628904I-3048J0D01*
G01*
X290068Y598424D02*
G03*
X290068Y598424I-3048J0D01*
G01*
X291084Y617728D02*
G03*
X291084Y617728I-3048J0D01*
G01*
X290576Y535178D02*
G03*
X290576Y535178I-3048J0D01*
G01*
X288544Y510032D02*
G03*
X288544Y510032I-3048J0D01*
G01*
X378968Y354330D02*
G03*
X378968Y354330I-3048J0D01*
G01*
X377952Y292862D02*
G03*
X377952Y292862I-3048J0D01*
G01*
X523240Y359918D02*
G03*
X523240Y359918I-3048J0D01*
G01*
X542544D02*
G03*
X542544Y359918I-3048J0D01*
G01*
X558292D02*
G03*
X558292Y359918I-3048J0D01*
G01*
X1149858Y419100D02*
G03*
X1149858Y419100I-3048J0D01*
G01*
X1090930Y419608D02*
G03*
X1090930Y419608I-3048J0D01*
G01*
M02*
