G04*
G04 #@! TF.GenerationSoftware,Altium Limited,Altium Designer,23.7.1 (13)*
G04*
G04 Layer_Color=255*
%FSLAX44Y44*%
%MOMM*%
G71*
G04*
G04 #@! TF.SameCoordinates,24B2A3DB-1DB8-4C05-8545-67722458D9E1*
G04*
G04*
G04 #@! TF.FilePolarity,Positive*
G04*
G01*
G75*
%ADD140R,1.2000X1.2000*%
%ADD141C,1.2000*%
%ADD142C,2.2500*%
%ADD143R,2.4750X2.4750*%
%ADD144C,2.4750*%
%ADD145R,1.5080X1.5080*%
%ADD146C,1.5080*%
%ADD147O,2.0000X0.9000*%
%ADD148O,1.7000X0.9000*%
%ADD149C,2.0000*%
%ADD150C,6.0000*%
%ADD151R,2.4750X2.4750*%
%ADD152R,1.2000X1.2000*%
%ADD153C,0.6000*%
D140*
X712190Y1221740D02*
D03*
D141*
X677190D02*
D03*
X499110Y1220470D02*
D03*
X1275080Y1010360D02*
D03*
X1184910Y1009370D02*
D03*
D142*
X656513Y320810D02*
D03*
X605713D02*
D03*
X554913D02*
D03*
X1206500D02*
D03*
X1155700D02*
D03*
X1104900D02*
D03*
X312920Y509270D02*
D03*
X376267Y320810D02*
D03*
X312920Y407670D02*
D03*
Y458470D02*
D03*
X427067Y320810D02*
D03*
X477867D02*
D03*
D143*
X736600Y321310D02*
D03*
X857250D02*
D03*
X981710D02*
D03*
D144*
X787400D02*
D03*
X908050D02*
D03*
X1032510D02*
D03*
X312420Y608330D02*
D03*
X303530Y1078230D02*
D03*
D145*
X1230630Y821690D02*
D03*
Y796690D02*
D03*
Y771690D02*
D03*
Y746690D02*
D03*
X295910Y843350D02*
D03*
X1292690Y729580D02*
D03*
D146*
X295910Y818350D02*
D03*
Y768350D02*
D03*
Y793350D02*
D03*
X1292690Y779580D02*
D03*
Y804580D02*
D03*
Y754580D02*
D03*
D147*
X317290Y994480D02*
D03*
Y907980D02*
D03*
D148*
X275590Y994480D02*
D03*
Y907980D02*
D03*
D149*
X955040Y636270D02*
D03*
Y560270D02*
D03*
D150*
X1289050Y1225550D02*
D03*
X298450Y298450D02*
D03*
X1289050D02*
D03*
X298450Y1225550D02*
D03*
D151*
X312420Y659130D02*
D03*
X303530Y1129030D02*
D03*
D152*
X499110Y1170470D02*
D03*
X1275080Y975360D02*
D03*
X1184910Y974370D02*
D03*
D153*
X312390Y980130D02*
D03*
Y922330D02*
D03*
M02*
