G04*
G04 #@! TF.GenerationSoftware,Altium Limited,Altium Designer,23.7.1 (13)*
G04*
G04 Layer_Color=128*
%FSLAX44Y44*%
%MOMM*%
G71*
G04*
G04 #@! TF.SameCoordinates,B3BED012-A8B6-438F-A654-7E25F243F1DC*
G04*
G04*
G04 #@! TF.FilePolarity,Positive*
G04*
G01*
G75*
%ADD11C,0.1270*%
D11*
X707940Y1221740D02*
X716440D01*
X712190Y1217490D02*
Y1225990D01*
X672940Y1221740D02*
X681440D01*
X677190Y1217490D02*
Y1225990D01*
X649013Y320810D02*
X664013D01*
X656513Y313310D02*
Y328310D01*
X598213Y320810D02*
X613213D01*
X605713Y313310D02*
Y328310D01*
X547413Y320810D02*
X562413D01*
X554913Y313310D02*
Y328310D01*
X728350Y321310D02*
X744850D01*
X736600Y313060D02*
Y329560D01*
X779150Y321310D02*
X795650D01*
X787400Y313060D02*
Y329560D01*
X899800Y321310D02*
X916300D01*
X908050Y313060D02*
Y329560D01*
X849000Y321310D02*
X865500D01*
X857250Y313060D02*
Y329560D01*
X1024260Y321310D02*
X1040760D01*
X1032510Y313060D02*
Y329560D01*
X973460Y321310D02*
X989960D01*
X981710Y313060D02*
Y329560D01*
X1199000Y320810D02*
X1214000D01*
X1206500Y313310D02*
Y328310D01*
X1148200Y320810D02*
X1163200D01*
X1155700Y313310D02*
Y328310D01*
X1097400Y320810D02*
X1112400D01*
X1104900Y313310D02*
Y328310D01*
X290910Y843350D02*
X300910D01*
X295910Y838350D02*
Y848350D01*
X290910Y818350D02*
X300910D01*
X295910Y813350D02*
Y823350D01*
X290910Y768350D02*
X300910D01*
X295910Y763350D02*
Y773350D01*
X290910Y793350D02*
X300910D01*
X295910Y788350D02*
Y798350D01*
X304170Y608330D02*
X320670D01*
X312420Y600080D02*
Y616580D01*
X295280Y1078230D02*
X311780D01*
X303530Y1069980D02*
Y1086480D01*
X495110Y1220470D02*
X503110D01*
X499110Y1216470D02*
Y1224470D01*
X314290Y994480D02*
X320290D01*
X317290Y991480D02*
Y997480D01*
X314290Y907980D02*
X320290D01*
X317290Y904980D02*
Y910980D01*
X272590Y994480D02*
X278590D01*
X275590Y991480D02*
Y997480D01*
X272590Y907980D02*
X278590D01*
X275590Y904980D02*
Y910980D01*
X951040Y636270D02*
X959040D01*
X955040Y632270D02*
Y640270D01*
X305420Y509270D02*
X320420D01*
X312920Y501770D02*
Y516770D01*
X1287690Y729580D02*
X1297690D01*
X1292690Y724580D02*
Y734580D01*
X1270830Y1010360D02*
X1279330D01*
X1275080Y1006110D02*
Y1014610D01*
X1180660Y1009370D02*
X1189160D01*
X1184910Y1005120D02*
Y1013620D01*
X368767Y320810D02*
X383767D01*
X376267Y313310D02*
Y328310D01*
X305420Y407670D02*
X320420D01*
X312920Y400170D02*
Y415170D01*
X1274050Y1225550D02*
X1304050D01*
X1289050Y1210550D02*
Y1240550D01*
X283450Y298450D02*
X313450D01*
X298450Y283450D02*
Y313450D01*
X1274050Y298450D02*
X1304050D01*
X1289050Y283450D02*
Y313450D01*
X283450Y1225550D02*
X313450D01*
X298450Y1210550D02*
Y1240550D01*
X304170Y659130D02*
X320670D01*
X312420Y650880D02*
Y667380D01*
X295280Y1129030D02*
X311780D01*
X303530Y1120780D02*
Y1137280D01*
X495110Y1170470D02*
X503110D01*
X499110Y1166470D02*
Y1174470D01*
X309390Y980130D02*
X315390D01*
X312390Y977130D02*
Y983130D01*
X309390Y922330D02*
X315390D01*
X312390Y919330D02*
Y925330D01*
X951040Y560270D02*
X959040D01*
X955040Y556270D02*
Y564270D01*
X305420Y458470D02*
X320420D01*
X312920Y450970D02*
Y465970D01*
X1287690Y779580D02*
X1297690D01*
X1292690Y774580D02*
Y784580D01*
X1287690Y804580D02*
X1297690D01*
X1292690Y799580D02*
Y809580D01*
X1287690Y754580D02*
X1297690D01*
X1292690Y749580D02*
Y759580D01*
X1270830Y975360D02*
X1279330D01*
X1275080Y971110D02*
Y979610D01*
X1180660Y974370D02*
X1189160D01*
X1184910Y970120D02*
Y978620D01*
X419567Y320810D02*
X434567D01*
X427067Y313310D02*
Y328310D01*
X470367Y320810D02*
X485367D01*
X477867Y313310D02*
Y328310D01*
X911432Y1001522D02*
X921432D01*
X916432Y996522D02*
Y1006522D01*
X819682Y1198166D02*
X822682D01*
X821182Y1196666D02*
Y1199666D01*
X834664Y1190752D02*
X837164D01*
X835914Y1189502D02*
Y1192002D01*
X896132Y1188974D02*
X898632D01*
X897382Y1187724D02*
Y1190224D01*
X896132Y1176782D02*
X898632D01*
X897382Y1175532D02*
Y1178032D01*
X883432Y1145540D02*
X885932D01*
X884682Y1144290D02*
Y1146790D01*
X867938Y1146556D02*
X870438D01*
X869188Y1145306D02*
Y1147806D01*
X854730Y1146556D02*
X857230D01*
X855980Y1145306D02*
Y1147806D01*
X836950Y1172718D02*
X839450D01*
X838200Y1171468D02*
Y1173968D01*
X837458Y1160780D02*
X839958D01*
X838708Y1159530D02*
Y1162030D01*
X697758Y1152144D02*
X700258D01*
X699008Y1150894D02*
Y1153394D01*
X753130Y1061974D02*
X755630D01*
X754380Y1060724D02*
Y1063224D01*
X656864Y1079246D02*
X659364D01*
X658114Y1077996D02*
Y1080496D01*
X650514Y1104646D02*
X653014D01*
X651764Y1103396D02*
Y1105896D01*
X660166Y1092962D02*
X662666D01*
X661416Y1091712D02*
Y1094212D01*
X646958Y1091692D02*
X649458D01*
X648208Y1090442D02*
Y1092942D01*
X667278Y1208024D02*
X669778D01*
X668528Y1206774D02*
Y1209274D01*
X663468Y1234440D02*
X665968D01*
X664718Y1233190D02*
Y1235690D01*
X656864Y1220724D02*
X659364D01*
X658114Y1219474D02*
Y1221974D01*
X475508Y1237488D02*
X478008D01*
X476758Y1236238D02*
Y1238738D01*
X512338Y1235710D02*
X514838D01*
X513588Y1234460D02*
Y1236960D01*
X476016Y1210564D02*
X478516D01*
X477266Y1209314D02*
Y1211814D01*
X496844Y1206754D02*
X499344D01*
X498094Y1205504D02*
Y1208004D01*
X496336Y1236726D02*
X498836D01*
X497586Y1235476D02*
Y1237976D01*
X517926Y1220470D02*
X520426D01*
X519176Y1219220D02*
Y1221720D01*
X471698Y1222756D02*
X474198D01*
X472948Y1221506D02*
Y1224006D01*
X448076Y1034034D02*
X450576D01*
X449326Y1032784D02*
Y1035284D01*
X471190Y1034288D02*
X473690D01*
X472440Y1033038D02*
Y1035538D01*
X486938Y1034034D02*
X489438D01*
X488188Y1032784D02*
Y1035284D01*
X276372Y1072134D02*
X278872D01*
X277622Y1070884D02*
Y1073384D01*
X275102Y1057910D02*
X277602D01*
X276352Y1056660D02*
Y1059160D01*
X276626Y1048766D02*
X279126D01*
X277876Y1047516D02*
Y1050016D01*
X291358Y1045972D02*
X293858D01*
X292608Y1044722D02*
Y1047222D01*
X274848Y753618D02*
X277348D01*
X276098Y752368D02*
Y754868D01*
X273832Y769620D02*
X276332D01*
X275082Y768370D02*
Y770870D01*
X410738Y593598D02*
X413238D01*
X411988Y592348D02*
Y594848D01*
X410230Y628904D02*
X412730D01*
X411480Y627654D02*
Y630154D01*
X285770Y598424D02*
X288270D01*
X287020Y597174D02*
Y599674D01*
X286786Y617728D02*
X289286D01*
X288036Y616478D02*
Y618978D01*
X286278Y535178D02*
X288778D01*
X287528Y533928D02*
Y536428D01*
X284246Y510032D02*
X286746D01*
X285496Y508782D02*
Y511282D01*
X374670Y354330D02*
X377170D01*
X375920Y353080D02*
Y355580D01*
X373654Y292862D02*
X376154D01*
X374904Y291612D02*
Y294112D01*
X518942Y359918D02*
X521442D01*
X520192Y358668D02*
Y361168D01*
X538246Y359918D02*
X540746D01*
X539496Y358668D02*
Y361168D01*
X553994Y359918D02*
X556494D01*
X555244Y358668D02*
Y361168D01*
X1145560Y419100D02*
X1148060D01*
X1146810Y417850D02*
Y420350D01*
X1086632Y419608D02*
X1089132D01*
X1087882Y418358D02*
Y420858D01*
X339876Y941578D02*
X342876D01*
X341376Y940078D02*
Y943078D01*
X351560Y957072D02*
X354560D01*
X353060Y955572D02*
Y958572D01*
X516152Y747268D02*
X519152D01*
X517652Y745768D02*
Y748768D01*
X574064Y763524D02*
X577064D01*
X575564Y762024D02*
Y765024D01*
X750848Y762508D02*
X753848D01*
X752348Y761008D02*
Y764008D01*
X715288Y960882D02*
X718288D01*
X716788Y959382D02*
Y962382D01*
X768120Y1015492D02*
X771120D01*
X769620Y1013992D02*
Y1016992D01*
X1208392Y760347D02*
X1211392D01*
X1209892Y758847D02*
Y761847D01*
X1208556Y789940D02*
X1211556D01*
X1210056Y788440D02*
Y791440D01*
X1207794Y776986D02*
X1210794D01*
X1209294Y775486D02*
Y778486D01*
X1000784Y852932D02*
X1003784D01*
X1002284Y851432D02*
Y854432D01*
X1006880Y898906D02*
X1009880D01*
X1008380Y897406D02*
Y900406D01*
X854988Y562102D02*
X857988D01*
X856488Y560602D02*
Y563602D01*
X909598Y760476D02*
X912598D01*
X911098Y758976D02*
Y761976D01*
X697254Y1115568D02*
X700254D01*
X698754Y1114068D02*
Y1117068D01*
X658900Y1114806D02*
X661900D01*
X660400Y1113306D02*
Y1116306D01*
X824762Y1124458D02*
X827762D01*
X826262Y1122958D02*
Y1125958D01*
X830604Y1055370D02*
X833604D01*
X832104Y1053870D02*
Y1056870D01*
X750086Y1016000D02*
X753086D01*
X751586Y1014500D02*
Y1017500D01*
X726972Y961136D02*
X729972D01*
X728472Y959636D02*
Y962636D01*
X733322Y1016000D02*
X736322D01*
X734822Y1014500D02*
Y1017500D01*
X717828Y1017016D02*
X720828D01*
X719328Y1015516D02*
Y1018516D01*
X700810Y961136D02*
X703810D01*
X702310Y959636D02*
Y962636D01*
X739164Y896366D02*
X742164D01*
X740664Y894866D02*
Y897866D01*
X750862Y885671D02*
X753862D01*
X752362Y884171D02*
Y887171D01*
X684300Y1011936D02*
X687300D01*
X685800Y1010436D02*
Y1013436D01*
X672362Y1012190D02*
X675362D01*
X673862Y1010690D02*
Y1013690D01*
X658392Y477012D02*
X661392D01*
X659892Y475512D02*
Y478512D01*
X658646Y454406D02*
X661646D01*
X660146Y452906D02*
Y455906D01*
X856004Y1101344D02*
X859004D01*
X857504Y1099844D02*
Y1102844D01*
X771930Y955548D02*
X774930D01*
X773430Y954048D02*
Y957048D01*
X831874Y607314D02*
X834874D01*
X833374Y605814D02*
Y608814D01*
X593114Y795782D02*
X596114D01*
X594614Y794282D02*
Y797282D01*
X342162Y868680D02*
X345162D01*
X343662Y867180D02*
Y870180D01*
X934236Y1114806D02*
X937236D01*
X935736Y1113306D02*
Y1116306D01*
X904518Y1238250D02*
X907518D01*
X906018Y1236750D02*
Y1239750D01*
X889278Y1227836D02*
X892278D01*
X890778Y1226336D02*
Y1229336D01*
X843812Y1207516D02*
X846812D01*
X845312Y1206016D02*
Y1209016D01*
X895882Y1114552D02*
X898882D01*
X897382Y1113052D02*
Y1116052D01*
X445540Y996696D02*
X448540D01*
X447040Y995196D02*
Y998196D01*
X1001800Y1220470D02*
X1004800D01*
X1003300Y1218970D02*
Y1221970D01*
X743990Y1233678D02*
X746990D01*
X745490Y1232178D02*
Y1235178D01*
X999768Y1258316D02*
X1002768D01*
X1001268Y1256816D02*
Y1259816D01*
X817396Y1226550D02*
X820396D01*
X818896Y1225050D02*
Y1228050D01*
X763294Y556006D02*
X766294D01*
X764794Y554506D02*
Y557506D01*
X515644Y455422D02*
X518644D01*
X517144Y453922D02*
Y456922D01*
X547902Y521716D02*
X550902D01*
X549402Y520216D02*
Y523216D01*
X881912Y417830D02*
X884912D01*
X883412Y416330D02*
Y419330D01*
X993164Y407670D02*
X996164D01*
X994664Y406170D02*
Y409170D01*
X387882Y842518D02*
X390882D01*
X389382Y841018D02*
Y844018D01*
X433856Y986028D02*
X436856D01*
X435356Y984528D02*
Y987528D01*
X433856Y973582D02*
X436856D01*
X435356Y972082D02*
Y975082D01*
X406424Y858774D02*
X409424D01*
X407924Y857274D02*
Y860274D01*
X928902Y903478D02*
X931902D01*
X930402Y901978D02*
Y904978D01*
X600226Y997204D02*
X603226D01*
X601726Y995704D02*
Y998704D01*
X551204Y848868D02*
X554204D01*
X552704Y847368D02*
Y850368D01*
X487958Y961390D02*
X490958D01*
X489458Y959890D02*
Y962890D01*
X386358Y817880D02*
X389358D01*
X387858Y816380D02*
Y819380D01*
X1158772Y1224534D02*
X1161772D01*
X1160272Y1223034D02*
Y1226034D01*
X997482Y1077214D02*
X1000482D01*
X998982Y1075714D02*
Y1078714D01*
M02*
