G04*
G04 #@! TF.GenerationSoftware,Altium Limited,Altium Designer,23.7.1 (13)*
G04*
G04 Layer_Physical_Order=1*
G04 Layer_Color=255*
%FSLAX44Y44*%
%MOMM*%
G71*
G04*
G04 #@! TF.SameCoordinates,B3BED012-A8B6-438F-A654-7E25F243F1DC*
G04*
G04*
G04 #@! TF.FilePolarity,Positive*
G04*
G01*
G75*
%ADD11C,0.1270*%
%ADD16C,0.5080*%
%ADD19R,0.9000X0.9500*%
%ADD20R,1.2600X2.7200*%
%ADD21R,0.9400X0.8100*%
%ADD22R,0.9500X0.9000*%
%ADD23R,0.8100X0.9400*%
%ADD24R,2.3000X1.6000*%
%ADD25R,1.4700X1.0200*%
%ADD26R,0.6000X1.2500*%
%ADD27R,0.5500X1.0500*%
%ADD28R,4.0000X1.5000*%
%ADD29R,0.8500X0.9500*%
%ADD30R,1.5000X0.8000*%
%ADD31R,0.9000X0.9000*%
%ADD32R,1.5000X0.9000*%
%ADD33R,0.9000X1.5000*%
%ADD34R,0.6000X3.2000*%
%ADD35R,3.7500X4.4100*%
%ADD36R,0.8000X0.6000*%
%ADD37R,1.1000X0.5000*%
%ADD38R,0.5000X0.5000*%
G04:AMPARAMS|DCode=39|XSize=1.07mm|YSize=1.08mm|CornerRadius=0.1338mm|HoleSize=0mm|Usage=FLASHONLY|Rotation=0.000|XOffset=0mm|YOffset=0mm|HoleType=Round|Shape=RoundedRectangle|*
%AMROUNDEDRECTD39*
21,1,1.0700,0.8125,0,0,0.0*
21,1,0.8025,1.0800,0,0,0.0*
1,1,0.2675,0.4013,-0.4063*
1,1,0.2675,-0.4013,-0.4063*
1,1,0.2675,-0.4013,0.4063*
1,1,0.2675,0.4013,0.4063*
%
%ADD39ROUNDEDRECTD39*%
%ADD40R,1.0200X1.4700*%
%ADD41O,0.6000X1.8000*%
%ADD42O,1.8000X0.6000*%
G04:AMPARAMS|DCode=43|XSize=1.07mm|YSize=1.08mm|CornerRadius=0.1338mm|HoleSize=0mm|Usage=FLASHONLY|Rotation=90.000|XOffset=0mm|YOffset=0mm|HoleType=Round|Shape=RoundedRectangle|*
%AMROUNDEDRECTD43*
21,1,1.0700,0.8125,0,0,90.0*
21,1,0.8025,1.0800,0,0,90.0*
1,1,0.2675,0.4063,0.4013*
1,1,0.2675,0.4063,-0.4013*
1,1,0.2675,-0.4063,-0.4013*
1,1,0.2675,-0.4063,0.4013*
%
%ADD43ROUNDEDRECTD43*%
%ADD44R,1.8000X1.3000*%
%ADD45R,1.2000X0.9000*%
%ADD46R,1.0000X0.9000*%
%ADD47R,1.8000X1.3000*%
%ADD48R,2.1500X2.2000*%
%ADD49R,0.4500X1.4000*%
%ADD50R,2.2000X2.1500*%
%ADD51R,0.7000X1.5250*%
%ADD52R,0.2910X0.1940*%
%ADD53R,1.4000X0.3000*%
%ADD54R,2.1500X2.2500*%
%ADD55R,4.5000X1.3000*%
%ADD56R,0.6000X1.2000*%
%ADD57R,1.2500X0.6000*%
%ADD58R,2.7200X1.2600*%
%ADD59R,1.1400X0.6000*%
%ADD60R,0.4000X0.4800*%
%ADD61R,0.6000X0.7000*%
G04:AMPARAMS|DCode=62|XSize=1.31mm|YSize=0.62mm|CornerRadius=0.0775mm|HoleSize=0mm|Usage=FLASHONLY|Rotation=0.000|XOffset=0mm|YOffset=0mm|HoleType=Round|Shape=RoundedRectangle|*
%AMROUNDEDRECTD62*
21,1,1.3100,0.4650,0,0,0.0*
21,1,1.1550,0.6200,0,0,0.0*
1,1,0.1550,0.5775,-0.2325*
1,1,0.1550,-0.5775,-0.2325*
1,1,0.1550,-0.5775,0.2325*
1,1,0.1550,0.5775,0.2325*
%
%ADD62ROUNDEDRECTD62*%
%ADD63R,0.7000X0.6000*%
%ADD64R,1.0000X0.7000*%
%ADD65R,2.2000X1.0500*%
%ADD66R,1.1000X1.0000*%
%ADD67R,1.1000X0.6500*%
%ADD68R,1.6000X2.3000*%
%ADD69R,1.1400X0.3000*%
%ADD70R,1.0500X1.0000*%
%ADD138C,1.0160*%
%ADD139C,0.2540*%
%ADD140C,0.1500*%
%ADD141R,1.2000X1.2000*%
%ADD142C,1.2000*%
%ADD143C,2.2500*%
%ADD144R,2.4750X2.4750*%
%ADD145C,2.4750*%
%ADD146R,1.5080X1.5080*%
%ADD147C,1.5080*%
%ADD148O,2.0000X0.9000*%
%ADD149O,1.7000X0.9000*%
%ADD150C,2.0000*%
%ADD151C,6.0000*%
%ADD152R,2.4750X2.4750*%
%ADD153R,1.2000X1.2000*%
%ADD154C,0.6000*%
%ADD155C,0.5000*%
G36*
X1315824Y1268291D02*
X1317904Y1267429D01*
X1319776Y1266178D01*
X1321368Y1264586D01*
X1322619Y1262714D01*
X1323481Y1260634D01*
X1323920Y1258426D01*
Y1257300D01*
Y646440D01*
X1322840Y645360D01*
X1285840D01*
X1284849Y645163D01*
X1284009Y644601D01*
X1283447Y643761D01*
X1283250Y642770D01*
Y629770D01*
X1283447Y628779D01*
X1284009Y627939D01*
X1284849Y627377D01*
X1285840Y627180D01*
X1322840D01*
X1323920Y626100D01*
Y621040D01*
X1322840Y619960D01*
X1285840D01*
X1284849Y619763D01*
X1284009Y619201D01*
X1283447Y618361D01*
X1283250Y617370D01*
Y604370D01*
X1283447Y603379D01*
X1284009Y602539D01*
X1284849Y601977D01*
X1285840Y601780D01*
X1322840D01*
X1323920Y600700D01*
Y599640D01*
X1322840Y598560D01*
X1285840D01*
X1284849Y598363D01*
X1284009Y597801D01*
X1283447Y596961D01*
X1283250Y595970D01*
Y571570D01*
X1283447Y570579D01*
X1284009Y569739D01*
X1284849Y569177D01*
X1285840Y568980D01*
X1322840D01*
X1323920Y567900D01*
Y558410D01*
X1309300D01*
Y540330D01*
X1323920D01*
Y268732D01*
Y267656D01*
X1323500Y265546D01*
X1322677Y263559D01*
X1321482Y261770D01*
X1319960Y260248D01*
X1318172Y259053D01*
X1316184Y258230D01*
X1314074Y257810D01*
X265529D01*
X262094Y258493D01*
X258858Y259834D01*
X255946Y261779D01*
X253469Y264256D01*
X251524Y267168D01*
X250183Y270404D01*
X249500Y273839D01*
Y275590D01*
Y1258824D01*
Y1259800D01*
X249881Y1261713D01*
X250627Y1263516D01*
X251712Y1265139D01*
X253091Y1266518D01*
X254714Y1267602D01*
X256516Y1268349D01*
X258430Y1268730D01*
X1005308D01*
X1005834Y1267460D01*
X1002230Y1263856D01*
X1000166D01*
X998130Y1263013D01*
X996571Y1261454D01*
X995728Y1259418D01*
Y1257214D01*
X996571Y1255178D01*
X998130Y1253619D01*
X1000166Y1252776D01*
X1000573D01*
Y1249350D01*
X996770D01*
Y1234770D01*
X1010850D01*
Y1249350D01*
X1007047D01*
Y1254494D01*
X1006801Y1255733D01*
X1006426Y1256293D01*
X1006808Y1257214D01*
Y1259278D01*
X1009879Y1262349D01*
X1110005D01*
X1120459Y1251895D01*
Y1249350D01*
X1116530D01*
Y1234770D01*
X1130610D01*
Y1249350D01*
X1126933D01*
Y1253236D01*
X1126687Y1254475D01*
X1125985Y1255525D01*
X1114050Y1267460D01*
X1114576Y1268730D01*
X1313616D01*
X1315824Y1268291D01*
D02*
G37*
%LPC*%
G36*
X1199360Y1254100D02*
X1187280D01*
Y1245297D01*
X1170860D01*
Y1248100D01*
X1155780D01*
Y1245297D01*
X1146610D01*
Y1249350D01*
X1132530D01*
Y1234770D01*
X1136333D01*
Y1228680D01*
X1131950D01*
Y1215500D01*
X1146430D01*
Y1221297D01*
X1155675D01*
X1157134Y1219837D01*
X1159170Y1218994D01*
X1161374D01*
X1163410Y1219837D01*
X1164969Y1221396D01*
X1165812Y1223432D01*
Y1225636D01*
X1164969Y1227672D01*
X1163410Y1229231D01*
X1161374Y1230074D01*
X1159170D01*
X1157134Y1229231D01*
X1155675Y1227771D01*
X1146430D01*
Y1228680D01*
X1142807D01*
Y1234770D01*
X1146610D01*
Y1238823D01*
X1155780D01*
Y1236020D01*
X1170860D01*
Y1238823D01*
X1215780D01*
Y1236020D01*
X1230860D01*
Y1248100D01*
X1215780D01*
Y1245297D01*
X1199360D01*
Y1254100D01*
D02*
G37*
G36*
X1076650D02*
X1064570D01*
Y1245297D01*
X1048150D01*
Y1248100D01*
X1033070D01*
Y1245297D01*
X1026850D01*
Y1249350D01*
X1012770D01*
Y1234770D01*
X1016573D01*
Y1228680D01*
X1012570D01*
Y1223707D01*
X1007897D01*
X1006438Y1225167D01*
X1004402Y1226010D01*
X1002198D01*
X1000162Y1225167D01*
X998603Y1223608D01*
X997760Y1221572D01*
Y1219368D01*
X998603Y1217332D01*
X1000162Y1215773D01*
X1002198Y1214930D01*
X1004402D01*
X1006438Y1215773D01*
X1007897Y1217233D01*
X1012570D01*
Y1215500D01*
X1027050D01*
Y1228680D01*
X1023047D01*
Y1234770D01*
X1026850D01*
Y1238823D01*
X1033070D01*
Y1236020D01*
X1048150D01*
Y1238823D01*
X1093070D01*
Y1236020D01*
X1108150D01*
Y1248100D01*
X1093070D01*
Y1245297D01*
X1076650D01*
Y1254100D01*
D02*
G37*
G36*
X411772Y1258966D02*
X403747D01*
X402235Y1258665D01*
X400952Y1257808D01*
X400095Y1256525D01*
X399794Y1255013D01*
Y1246888D01*
X400095Y1245375D01*
X400952Y1244092D01*
X402235Y1243235D01*
X403747Y1242934D01*
X404523D01*
Y1236780D01*
X401650D01*
Y1222700D01*
X416230D01*
Y1236780D01*
X410997D01*
Y1242934D01*
X411772D01*
X413285Y1243235D01*
X414568Y1244092D01*
X415425Y1245375D01*
X415726Y1246888D01*
Y1255013D01*
X415425Y1256525D01*
X414568Y1257808D01*
X413285Y1258665D01*
X411772Y1258966D01*
D02*
G37*
G36*
X1291611Y1258090D02*
X1286489D01*
X1281430Y1257289D01*
X1276559Y1255706D01*
X1271995Y1253381D01*
X1267852Y1250370D01*
X1264230Y1246748D01*
X1261219Y1242605D01*
X1258894Y1238041D01*
X1257311Y1233170D01*
X1256510Y1228111D01*
Y1222989D01*
X1257311Y1217930D01*
X1258894Y1213059D01*
X1261219Y1208495D01*
X1264230Y1204352D01*
X1267852Y1200730D01*
X1271995Y1197719D01*
X1276559Y1195394D01*
X1281430Y1193811D01*
X1286489Y1193010D01*
X1291611D01*
X1296670Y1193811D01*
X1301541Y1195394D01*
X1306105Y1197719D01*
X1310248Y1200730D01*
X1313870Y1204352D01*
X1316881Y1208495D01*
X1319206Y1213059D01*
X1320789Y1217930D01*
X1321590Y1222989D01*
Y1228111D01*
X1320789Y1233170D01*
X1319206Y1238041D01*
X1316881Y1242605D01*
X1313870Y1246748D01*
X1310248Y1250370D01*
X1306105Y1253381D01*
X1301541Y1255706D01*
X1296670Y1257289D01*
X1291611Y1258090D01*
D02*
G37*
G36*
X301011D02*
X295889D01*
X290830Y1257289D01*
X285959Y1255706D01*
X281395Y1253381D01*
X277252Y1250370D01*
X273630Y1246748D01*
X270619Y1242605D01*
X268294Y1238041D01*
X266711Y1233170D01*
X265910Y1228111D01*
Y1222989D01*
X266711Y1217930D01*
X268294Y1213059D01*
X270619Y1208495D01*
X273630Y1204352D01*
X277252Y1200730D01*
X281395Y1197719D01*
X285959Y1195394D01*
X290830Y1193811D01*
X295889Y1193010D01*
X301011D01*
X306070Y1193811D01*
X310941Y1195394D01*
X315505Y1197719D01*
X319648Y1200730D01*
X323270Y1204352D01*
X326281Y1208495D01*
X328606Y1213059D01*
X330189Y1217930D01*
X330990Y1222989D01*
Y1228111D01*
X330189Y1233170D01*
X328606Y1238041D01*
X326281Y1242605D01*
X323270Y1246748D01*
X319648Y1250370D01*
X315505Y1253381D01*
X310941Y1255706D01*
X306070Y1257289D01*
X301011Y1258090D01*
D02*
G37*
G36*
X1304543Y1138176D02*
X1296418D01*
X1294905Y1137875D01*
X1293622Y1137018D01*
X1292765Y1135735D01*
X1292464Y1134222D01*
Y1129105D01*
X1283770D01*
Y1132510D01*
X1269690D01*
Y1117930D01*
X1283770D01*
Y1121335D01*
X1295403D01*
X1296890Y1121631D01*
X1297807Y1122244D01*
X1304543D01*
X1306055Y1122545D01*
X1307338Y1123402D01*
X1308195Y1124685D01*
X1308496Y1126198D01*
Y1134222D01*
X1308195Y1135735D01*
X1307338Y1137018D01*
X1306055Y1137875D01*
X1304543Y1138176D01*
D02*
G37*
G36*
X1267770Y1132510D02*
X1253690D01*
Y1128203D01*
X1163828D01*
X1162589Y1127957D01*
X1161539Y1127255D01*
X1057341Y1023057D01*
X1056639Y1022007D01*
X1056393Y1020768D01*
Y912300D01*
X1055636Y911794D01*
X1054411Y909962D01*
X1053981Y907800D01*
Y895800D01*
X1054411Y893638D01*
X1055636Y891806D01*
X1057468Y890582D01*
X1059630Y890152D01*
X1061792Y890582D01*
X1063624Y891806D01*
X1064366Y892917D01*
X1065894D01*
X1066636Y891806D01*
X1068468Y890582D01*
X1070630Y890152D01*
X1072792Y890582D01*
X1074624Y891806D01*
X1075366Y892917D01*
X1076894D01*
X1077636Y891806D01*
X1079468Y890582D01*
X1081630Y890152D01*
X1083792Y890582D01*
X1085624Y891806D01*
X1086366Y892917D01*
X1087894D01*
X1088636Y891806D01*
X1089393Y891300D01*
Y872483D01*
X1089081Y872171D01*
X1067887D01*
X1032445Y907613D01*
Y921080D01*
X1034850D01*
Y935284D01*
X1034850Y935660D01*
X1034850D01*
X1034748Y936512D01*
X1034748D01*
Y954092D01*
X1023668D01*
Y936512D01*
X1022751Y935660D01*
X1020770D01*
Y921080D01*
X1025971D01*
Y906272D01*
X1026217Y905033D01*
X1026919Y903983D01*
X1064257Y866645D01*
X1065307Y865943D01*
X1066546Y865697D01*
X1090422D01*
X1091661Y865943D01*
X1092711Y866645D01*
X1094919Y868853D01*
X1095621Y869903D01*
X1095867Y871142D01*
Y891300D01*
X1096624Y891806D01*
X1097366Y892917D01*
X1098894D01*
X1099636Y891806D01*
X1101468Y890582D01*
X1103630Y890152D01*
X1105792Y890582D01*
X1107624Y891806D01*
X1108849Y893638D01*
X1109278Y895800D01*
Y907800D01*
X1108849Y909962D01*
X1107624Y911794D01*
X1105792Y913018D01*
X1103630Y913448D01*
X1101468Y913018D01*
X1099636Y911794D01*
X1098894Y910683D01*
X1097366D01*
X1096624Y911794D01*
X1094792Y913018D01*
X1092630Y913448D01*
X1090468Y913018D01*
X1088636Y911794D01*
X1087894Y910683D01*
X1086366D01*
X1085624Y911794D01*
X1083792Y913018D01*
X1081630Y913448D01*
X1079468Y913018D01*
X1077636Y911794D01*
X1076894Y910683D01*
X1075366D01*
X1074624Y911794D01*
X1073867Y912300D01*
Y1005281D01*
X1165677Y1097091D01*
X1253690D01*
Y1092530D01*
X1267770D01*
Y1107110D01*
X1253690D01*
Y1103565D01*
X1164336D01*
X1163097Y1103319D01*
X1162047Y1102617D01*
X1068341Y1008911D01*
X1067639Y1007861D01*
X1067393Y1006622D01*
Y912300D01*
X1066636Y911794D01*
X1065894Y910683D01*
X1064366D01*
X1063624Y911794D01*
X1062867Y912300D01*
Y1019427D01*
X1165169Y1121729D01*
X1253690D01*
Y1117930D01*
X1267770D01*
Y1132510D01*
D02*
G37*
G36*
X936838Y1120346D02*
X934634D01*
X932598Y1119503D01*
X931039Y1117944D01*
X931028Y1117916D01*
X901852D01*
X900520Y1119249D01*
X898484Y1120092D01*
X896280D01*
X894244Y1119249D01*
X892685Y1117690D01*
X891842Y1115654D01*
Y1113450D01*
X892685Y1111414D01*
X894244Y1109855D01*
X896280Y1109012D01*
X898484D01*
X900520Y1109855D01*
X902079Y1111414D01*
X902090Y1111442D01*
X931265D01*
X932598Y1110109D01*
X934634Y1109266D01*
X936838D01*
X938874Y1110109D01*
X940433Y1111668D01*
X941276Y1113704D01*
Y1115908D01*
X940433Y1117944D01*
X938874Y1119503D01*
X936838Y1120346D01*
D02*
G37*
G36*
X1305813Y1109146D02*
X1297688D01*
X1296175Y1108845D01*
X1294892Y1107988D01*
X1294035Y1106705D01*
X1293734Y1105192D01*
Y1105065D01*
X1283770D01*
Y1107110D01*
X1269690D01*
Y1092530D01*
X1283770D01*
Y1097295D01*
X1293734D01*
Y1097168D01*
X1294035Y1095655D01*
X1294892Y1094372D01*
X1296175Y1093515D01*
X1297688Y1093214D01*
X1305813D01*
X1307325Y1093515D01*
X1308608Y1094372D01*
X1309465Y1095655D01*
X1309766Y1097168D01*
Y1105192D01*
X1309465Y1106705D01*
X1308608Y1107988D01*
X1307325Y1108845D01*
X1305813Y1109146D01*
D02*
G37*
G36*
X779272Y1252016D02*
X750062D01*
X749071Y1251819D01*
X748231Y1251257D01*
X735273Y1238300D01*
X706374D01*
X705383Y1238103D01*
X704543Y1237541D01*
X697685Y1230683D01*
X697123Y1229843D01*
X696926Y1228852D01*
Y1217479D01*
X658709Y1179262D01*
X606712D01*
X605721Y1179065D01*
X604881Y1178503D01*
X602579Y1176201D01*
X602017Y1175361D01*
X601820Y1174370D01*
Y1161500D01*
X600134Y1159814D01*
X593344D01*
X592353Y1159617D01*
X591513Y1159055D01*
X588465Y1156007D01*
X587903Y1155167D01*
X587706Y1154176D01*
Y1139554D01*
X567991Y1119839D01*
X567149Y1118579D01*
X566853Y1117092D01*
Y1061720D01*
X567149Y1060233D01*
X567991Y1058973D01*
X573833Y1053131D01*
X575093Y1052289D01*
X576580Y1051993D01*
X602794D01*
X602957Y1051520D01*
X602020Y1050340D01*
X572065D01*
X559866Y1062539D01*
Y1124712D01*
X559669Y1125703D01*
X559107Y1126543D01*
X554535Y1131115D01*
X553695Y1131677D01*
X552704Y1131874D01*
X543864D01*
Y1165860D01*
X543667Y1166851D01*
X543105Y1167691D01*
X515419Y1195377D01*
X514579Y1195939D01*
X513588Y1196136D01*
X412177D01*
Y1206700D01*
X416230D01*
Y1220780D01*
X401650D01*
Y1206700D01*
X405703D01*
Y1196136D01*
X364744D01*
X363753Y1195939D01*
X362913Y1195377D01*
X361061Y1193525D01*
X359717Y1194869D01*
X358877Y1195431D01*
X357886Y1195628D01*
X340614D01*
X339623Y1195431D01*
X338783Y1194869D01*
X297123Y1153210D01*
X284734D01*
X283743Y1153013D01*
X282903Y1152451D01*
X282341Y1151611D01*
X282221Y1151008D01*
X276553Y1145339D01*
X275991Y1144499D01*
X275794Y1143508D01*
Y1113536D01*
X275991Y1112545D01*
X276553Y1111705D01*
X285951Y1102307D01*
X286791Y1101745D01*
X287782Y1101548D01*
X325063D01*
X336751Y1089861D01*
X337591Y1089299D01*
X338582Y1089102D01*
X371094D01*
X372085Y1089299D01*
X372925Y1089861D01*
X378513Y1095449D01*
X379075Y1096289D01*
X379272Y1097280D01*
Y1106543D01*
X385010D01*
Y1101240D01*
X387313D01*
Y1100430D01*
X387559Y1099191D01*
X388261Y1098141D01*
X390141Y1096261D01*
X391191Y1095559D01*
X392430Y1095313D01*
X403769D01*
X404488Y1094439D01*
X404010Y1093320D01*
X404010D01*
Y1076240D01*
X406313D01*
Y1072770D01*
X400860D01*
X399810Y1072770D01*
X398540Y1072770D01*
X393787D01*
Y1076240D01*
X396090D01*
Y1093320D01*
X385010D01*
Y1076240D01*
X387313D01*
Y1072770D01*
X386410D01*
Y1058290D01*
X398540D01*
X399590Y1058290D01*
X400860Y1058290D01*
X412990D01*
Y1072770D01*
X412787D01*
Y1076240D01*
X415090D01*
Y1093320D01*
X412787D01*
Y1094130D01*
X412541Y1095369D01*
X411839Y1096419D01*
X408288Y1099970D01*
X408814Y1101240D01*
X415090D01*
Y1101294D01*
X437839D01*
X455115Y1084019D01*
X455955Y1083457D01*
X456946Y1083260D01*
X503378D01*
Y1047750D01*
X503575Y1046759D01*
X504137Y1045919D01*
X543253Y1006803D01*
X544093Y1006241D01*
X545084Y1006044D01*
X601755D01*
X601927Y1005787D01*
X604137Y1003576D01*
X603418Y1002500D01*
X602828Y1002744D01*
X600624D01*
X598588Y1001901D01*
X597029Y1000342D01*
X596186Y998306D01*
Y996102D01*
X597029Y994066D01*
X598489Y992607D01*
Y990300D01*
X577796D01*
Y987867D01*
X571738D01*
Y992270D01*
X551958D01*
Y977540D01*
X551958Y976630D01*
X551958Y975720D01*
Y960990D01*
X571738D01*
Y965773D01*
X586222D01*
X587296Y965300D01*
Y947720D01*
X587657D01*
Y936370D01*
X578796D01*
Y915290D01*
X606876D01*
Y936370D01*
X598016D01*
Y942436D01*
X599286Y943115D01*
X599465Y942995D01*
X600456Y942798D01*
X627126D01*
X628117Y942995D01*
X628957Y943557D01*
X631751Y946351D01*
X632313Y947191D01*
X632510Y948182D01*
Y964388D01*
X633984D01*
X634975Y964585D01*
X635815Y965147D01*
X651821Y981152D01*
X788867D01*
X802336Y967683D01*
Y952754D01*
X802533Y951763D01*
X803095Y950923D01*
X805249Y948768D01*
X805545Y948571D01*
X805814Y947154D01*
X805775Y947005D01*
X804941Y946171D01*
X804239Y945121D01*
X803993Y943882D01*
Y922766D01*
X798830Y922766D01*
X797920Y922766D01*
X794901D01*
Y930348D01*
X800454D01*
Y939848D01*
Y949348D01*
Y960428D01*
X782874D01*
Y958785D01*
X778027D01*
X776568Y960245D01*
X774532Y961088D01*
X772328D01*
X770292Y960245D01*
X768733Y958686D01*
X767890Y956650D01*
Y954446D01*
X768733Y952410D01*
X770292Y950851D01*
X772328Y950008D01*
X774532D01*
X776568Y950851D01*
X778027Y952311D01*
X782874D01*
Y939848D01*
Y930348D01*
X788427D01*
Y922766D01*
X783190D01*
Y904084D01*
X783190Y903548D01*
X781920Y903022D01*
X732103Y952839D01*
Y956932D01*
X733169Y957998D01*
X734012Y960034D01*
Y962238D01*
X733169Y964274D01*
X731610Y965833D01*
X729574Y966676D01*
X727370D01*
X725334Y965833D01*
X723775Y964274D01*
X723265Y963041D01*
X721890D01*
X721485Y964020D01*
X719926Y965579D01*
X717890Y966422D01*
X715686D01*
X713650Y965579D01*
X712091Y964020D01*
X711248Y961984D01*
Y959780D01*
X712091Y957744D01*
X712903Y956932D01*
Y948436D01*
X713199Y946949D01*
X714041Y945689D01*
X771069Y888661D01*
Y832612D01*
X771365Y831125D01*
X772207Y829865D01*
X882951Y719121D01*
X884211Y718279D01*
X885698Y717983D01*
X965659D01*
X1007289Y676353D01*
Y673989D01*
X1006019Y673604D01*
X1005539Y674323D01*
X967947Y711915D01*
X966687Y712757D01*
X965200Y713053D01*
X881465D01*
X766901Y827617D01*
Y889000D01*
X766605Y890487D01*
X765763Y891747D01*
X706195Y951315D01*
Y957186D01*
X707007Y957998D01*
X707850Y960034D01*
Y962238D01*
X707007Y964274D01*
X705448Y965833D01*
X703412Y966676D01*
X701208D01*
X699172Y965833D01*
X697613Y964274D01*
X696770Y962238D01*
Y960034D01*
X697613Y957998D01*
X698425Y957186D01*
Y949706D01*
X698721Y948219D01*
X699563Y946959D01*
X744285Y902237D01*
X743566Y901161D01*
X741766Y901906D01*
X739562D01*
X737526Y901063D01*
X735967Y899504D01*
X735124Y897468D01*
Y895264D01*
X735967Y893228D01*
X736779Y892416D01*
Y812800D01*
X737075Y811313D01*
X737917Y810053D01*
X867838Y680132D01*
X869098Y679290D01*
X870585Y678994D01*
X954320D01*
X977571Y655743D01*
Y475319D01*
X903267Y401015D01*
X872160D01*
Y404170D01*
X857580D01*
Y390090D01*
X860985D01*
Y336225D01*
X842335D01*
Y306395D01*
X872165D01*
Y336225D01*
X868755D01*
Y390090D01*
X872160D01*
Y393245D01*
X904876D01*
X906363Y393541D01*
X907623Y394383D01*
X984203Y470963D01*
X985045Y472223D01*
X985341Y473710D01*
Y657352D01*
X985045Y658839D01*
X984203Y660099D01*
X958676Y685626D01*
X957416Y686468D01*
X955929Y686764D01*
X872194D01*
X744549Y814409D01*
Y892416D01*
X745361Y893228D01*
X746204Y895264D01*
Y897468D01*
X745459Y899268D01*
X746535Y899987D01*
X754271Y892252D01*
X753551Y891175D01*
X753464Y891211D01*
X751260D01*
X749223Y890368D01*
X747665Y888810D01*
X746822Y886773D01*
Y884569D01*
X747665Y882533D01*
X748477Y881721D01*
Y817612D01*
X748773Y816126D01*
X749615Y814866D01*
X872537Y691943D01*
X873797Y691101D01*
X875284Y690805D01*
X958511D01*
X987731Y661585D01*
Y471932D01*
X988027Y470445D01*
X988869Y469185D01*
X1008559Y449495D01*
Y414359D01*
X1001474Y407274D01*
X1000204Y407800D01*
Y408772D01*
X999361Y410808D01*
X997802Y412367D01*
X996507Y412903D01*
X992617Y416792D01*
X990937Y417915D01*
X988955Y418310D01*
X975030D01*
Y420170D01*
X960450D01*
Y406090D01*
X975030D01*
Y407951D01*
X986810D01*
X989783Y404977D01*
X989967Y404532D01*
X991526Y402973D01*
X993189Y402285D01*
X992936Y401015D01*
X975030D01*
Y404170D01*
X960450D01*
Y390090D01*
X963855D01*
Y335280D01*
X964151Y333793D01*
X964993Y332533D01*
X966795Y330731D01*
Y306395D01*
X996625D01*
Y336225D01*
X972289D01*
X971625Y336889D01*
Y390090D01*
X975030D01*
Y393245D01*
X996824D01*
X998311Y393541D01*
X999571Y394383D01*
X1015191Y410003D01*
X1016033Y411263D01*
X1016329Y412750D01*
Y451104D01*
X1016033Y452591D01*
X1015191Y453851D01*
X995501Y473541D01*
Y663194D01*
X995205Y664681D01*
X994363Y665941D01*
X962867Y697437D01*
X961607Y698279D01*
X960120Y698575D01*
X876893D01*
X756246Y819221D01*
Y881721D01*
X757058Y882533D01*
X757902Y884569D01*
X759131Y884472D01*
Y826008D01*
X759427Y824521D01*
X760269Y823261D01*
X877109Y706421D01*
X878369Y705579D01*
X879856Y705283D01*
X963591D01*
X998907Y669967D01*
Y641096D01*
X999203Y639609D01*
X1000045Y638349D01*
X1088315Y550079D01*
Y504645D01*
X1086160D01*
Y484315D01*
X1098240D01*
Y484315D01*
X1098860D01*
Y484315D01*
X1110940D01*
Y484315D01*
X1111560D01*
Y484315D01*
X1123640D01*
Y484315D01*
X1124260D01*
Y484315D01*
X1136340D01*
Y504645D01*
X1134185D01*
Y535432D01*
X1133889Y536919D01*
X1133047Y538179D01*
X1024203Y647023D01*
Y687070D01*
X1023907Y688557D01*
X1023065Y689817D01*
X980901Y731981D01*
X979641Y732823D01*
X978154Y733119D01*
X897213D01*
X792555Y837777D01*
Y890778D01*
X792259Y892265D01*
X791417Y893525D01*
X783226Y901716D01*
X783752Y902986D01*
X784227Y902986D01*
X797920D01*
X798830Y902986D01*
X799740Y902986D01*
X814470D01*
Y911468D01*
X814583Y911637D01*
X814829Y912876D01*
X814583Y914115D01*
X814470Y914284D01*
Y922766D01*
X810467D01*
Y939848D01*
X825454D01*
Y940257D01*
X842904D01*
Y930586D01*
X863984D01*
Y958666D01*
X842904D01*
Y950615D01*
X830884D01*
Y976648D01*
X830687Y977639D01*
X830125Y978479D01*
X826697Y981907D01*
X825857Y982469D01*
X824866Y982666D01*
X811459D01*
X794327Y999797D01*
X793487Y1000359D01*
X792496Y1000556D01*
X647249D01*
X626414Y1021391D01*
Y1031437D01*
X640645Y1045668D01*
X657098D01*
X658089Y1045865D01*
X658929Y1046427D01*
X661723Y1049221D01*
X662285Y1050061D01*
X662482Y1051052D01*
Y1064514D01*
X662285Y1065505D01*
X661723Y1066345D01*
X659691Y1068377D01*
X658851Y1068939D01*
X657860Y1069136D01*
X653924D01*
X652933Y1068939D01*
X652252Y1068484D01*
X641116D01*
X640435Y1068939D01*
X639444Y1069136D01*
X617785D01*
X617659Y1070406D01*
X617697Y1070413D01*
X618747Y1071115D01*
X620779Y1073147D01*
X621481Y1074197D01*
X621727Y1075436D01*
Y1077090D01*
X623780D01*
Y1092670D01*
X623670D01*
Y1098450D01*
X638490D01*
Y1118530D01*
X593410D01*
Y1098450D01*
X613311D01*
Y1092670D01*
X603700D01*
Y1091119D01*
X597962D01*
X596723Y1090873D01*
X595673Y1090171D01*
X591942Y1086440D01*
X582040D01*
Y1073260D01*
X582040D01*
Y1073040D01*
X582040D01*
X582040Y1059860D01*
X580810Y1059763D01*
X578189D01*
X574623Y1063329D01*
Y1115483D01*
X586619Y1127479D01*
X586966Y1127493D01*
X588129Y1127193D01*
X588465Y1126691D01*
X589305Y1126129D01*
X590296Y1125932D01*
X647446D01*
X648437Y1126129D01*
X649277Y1126691D01*
X655990Y1133403D01*
X657163Y1132917D01*
Y1119404D01*
X655703Y1117944D01*
X654860Y1115908D01*
Y1113704D01*
X655703Y1111668D01*
X657262Y1110109D01*
X659298Y1109266D01*
X661502D01*
X663538Y1110109D01*
X665097Y1111668D01*
X665940Y1113704D01*
Y1115908D01*
X665097Y1117944D01*
X663637Y1119404D01*
Y1141051D01*
X668804Y1146217D01*
X669977Y1145732D01*
Y1016140D01*
X669165Y1015328D01*
X668322Y1013292D01*
Y1011088D01*
X669165Y1009052D01*
X670724Y1007493D01*
X672760Y1006650D01*
X674964D01*
X677000Y1007493D01*
X678559Y1009052D01*
X679091Y1010337D01*
X680466D01*
X681103Y1008798D01*
X682662Y1007239D01*
X684698Y1006396D01*
X686902D01*
X688938Y1007239D01*
X690497Y1008798D01*
X691340Y1010834D01*
Y1013038D01*
X690497Y1015074D01*
X689685Y1015886D01*
Y1160695D01*
X705443Y1176453D01*
X765979D01*
X769429Y1173003D01*
X770689Y1172161D01*
X772176Y1171865D01*
X786110D01*
Y1166437D01*
X758070D01*
Y1169740D01*
X737990D01*
Y1169097D01*
X734650D01*
Y1173100D01*
X721470D01*
Y1158620D01*
X734650D01*
Y1162623D01*
X737990D01*
Y1156660D01*
X758070D01*
Y1159963D01*
X786110D01*
Y1151437D01*
X758070D01*
Y1154740D01*
X737990D01*
Y1148777D01*
X734650D01*
Y1152780D01*
X721470D01*
Y1138300D01*
X734650D01*
Y1142303D01*
X737990D01*
Y1141660D01*
X758070D01*
Y1144963D01*
X786110D01*
Y1129613D01*
X734650D01*
Y1133018D01*
X708070D01*
Y1118805D01*
X703352D01*
X701892Y1120265D01*
X699856Y1121108D01*
X697652D01*
X695616Y1120265D01*
X694057Y1118706D01*
X693214Y1116670D01*
Y1114466D01*
X694057Y1112430D01*
X695616Y1110871D01*
X697652Y1110028D01*
X699856D01*
X701892Y1110871D01*
X703352Y1112331D01*
X706604D01*
X707816Y1112190D01*
Y1097610D01*
X711623D01*
Y1089330D01*
X707816D01*
Y1074750D01*
X711623D01*
Y1071550D01*
X707816D01*
Y1056970D01*
X723721D01*
Y1055097D01*
X702103Y1033479D01*
X701261Y1032219D01*
X700965Y1030732D01*
Y1014222D01*
X701261Y1012735D01*
X702103Y1011475D01*
X708453Y1005125D01*
X709713Y1004283D01*
X711200Y1003987D01*
X726694D01*
X728181Y1004283D01*
X729441Y1005125D01*
X734776Y1010460D01*
X735924D01*
X737960Y1011303D01*
X739519Y1012862D01*
X740362Y1014898D01*
Y1017102D01*
X739519Y1019138D01*
X737960Y1020697D01*
X735924Y1021540D01*
X733720D01*
X731684Y1020697D01*
X730125Y1019138D01*
X729282Y1017102D01*
Y1015954D01*
X725085Y1011757D01*
X723699D01*
X723173Y1013027D01*
X724025Y1013878D01*
X724868Y1015914D01*
Y1018118D01*
X724025Y1020154D01*
X723213Y1020966D01*
Y1029885D01*
X731351Y1038023D01*
X766456D01*
X766942Y1036850D01*
X751632Y1021540D01*
X750484D01*
X748448Y1020697D01*
X746889Y1019138D01*
X746046Y1017102D01*
Y1014898D01*
X746889Y1012862D01*
X748448Y1011303D01*
X750484Y1010460D01*
X752688D01*
X754724Y1011303D01*
X756283Y1012862D01*
X757126Y1014898D01*
Y1016046D01*
X773211Y1032131D01*
X811206D01*
X811732Y1030861D01*
X798470Y1017599D01*
X774744D01*
X774317Y1018630D01*
X772758Y1020189D01*
X770722Y1021032D01*
X768518D01*
X766482Y1020189D01*
X764923Y1018630D01*
X764080Y1016594D01*
Y1014390D01*
X764923Y1012354D01*
X766482Y1010795D01*
X768518Y1009952D01*
X770491D01*
X771108Y1009829D01*
X800079D01*
X801565Y1010125D01*
X802826Y1010967D01*
X841947Y1050088D01*
X842789Y1051349D01*
X843085Y1052835D01*
Y1064310D01*
X947840D01*
Y1070420D01*
X949110Y1070946D01*
X984315Y1035741D01*
Y838271D01*
X912060Y766016D01*
X909996D01*
X907960Y765173D01*
X906401Y763614D01*
X905558Y761578D01*
Y759374D01*
X906401Y757338D01*
X907960Y755779D01*
X909996Y754936D01*
X912200D01*
X914236Y755779D01*
X915795Y757338D01*
X916638Y759374D01*
Y761438D01*
X989841Y834641D01*
X990543Y835691D01*
X990789Y836930D01*
Y876341D01*
X992059Y876867D01*
X999062Y869864D01*
Y857544D01*
X997587Y856070D01*
X996744Y854034D01*
Y851830D01*
X997587Y849794D01*
X999146Y848235D01*
X1001182Y847392D01*
X1003386D01*
X1005422Y848235D01*
X1006981Y849794D01*
X1007824Y851830D01*
Y854034D01*
X1006981Y856070D01*
X1005536Y857514D01*
Y861730D01*
X1006710Y862216D01*
X1008915Y860011D01*
X1009965Y859309D01*
X1011204Y859063D01*
X1013630D01*
X1014136Y858306D01*
X1015247Y857564D01*
Y856036D01*
X1014136Y855294D01*
X1012912Y853462D01*
X1012482Y851300D01*
X1012912Y849138D01*
X1014136Y847306D01*
X1015247Y846564D01*
Y845036D01*
X1014136Y844294D01*
X1012912Y842462D01*
X1012482Y840300D01*
X1012912Y838138D01*
X1014136Y836306D01*
X1015247Y835564D01*
Y834036D01*
X1014136Y833294D01*
X1012912Y831462D01*
X1012482Y829300D01*
X1012912Y827138D01*
X1014136Y825306D01*
X1015247Y824564D01*
Y823036D01*
X1014136Y822294D01*
X1012912Y820462D01*
X1012482Y818300D01*
X1012912Y816138D01*
X1014136Y814306D01*
X1015247Y813564D01*
Y812036D01*
X1014136Y811294D01*
X1012912Y809462D01*
X1012482Y807300D01*
X1012912Y805138D01*
X1014136Y803306D01*
X1015968Y802082D01*
X1018130Y801652D01*
X1030130D01*
X1032292Y802082D01*
X1034124Y803306D01*
X1035349Y805138D01*
X1035779Y807300D01*
X1035349Y809462D01*
X1034124Y811294D01*
X1033013Y812036D01*
Y813564D01*
X1034124Y814306D01*
X1035349Y816138D01*
X1035779Y818300D01*
X1035349Y820462D01*
X1034124Y822294D01*
X1033013Y823036D01*
Y824564D01*
X1034124Y825306D01*
X1035349Y827138D01*
X1035779Y829300D01*
X1035349Y831462D01*
X1034124Y833294D01*
X1033013Y834036D01*
Y835564D01*
X1034124Y836306D01*
X1035349Y838138D01*
X1035779Y840300D01*
X1035349Y842462D01*
X1034124Y844294D01*
X1033013Y845036D01*
Y846564D01*
X1034124Y847306D01*
X1035349Y849138D01*
X1035779Y851300D01*
X1035349Y853462D01*
X1034124Y855294D01*
X1033013Y856036D01*
Y857564D01*
X1034124Y858306D01*
X1035349Y860138D01*
X1035779Y862300D01*
X1035349Y864462D01*
X1034124Y866294D01*
X1033013Y867036D01*
Y868564D01*
X1034124Y869306D01*
X1035349Y871138D01*
X1035779Y873300D01*
X1035349Y875462D01*
X1034124Y877294D01*
X1032292Y878519D01*
X1030130Y878949D01*
X1018130D01*
X1015968Y878519D01*
X1014136Y877294D01*
X1013853Y876870D01*
X1012481Y876777D01*
X1000441Y888817D01*
Y895415D01*
X1004036D01*
X1005242Y894209D01*
X1007278Y893366D01*
X1009482D01*
X1011518Y894209D01*
X1013077Y895768D01*
X1013920Y897804D01*
Y900008D01*
X1013077Y902044D01*
X1011518Y903603D01*
X1009482Y904446D01*
X1007278D01*
X1005242Y903603D01*
X1003683Y902044D01*
X1003619Y901889D01*
X1000441D01*
Y1040130D01*
X1000195Y1041369D01*
X999493Y1042419D01*
X963275Y1078637D01*
X963761Y1079810D01*
X981190D01*
Y1083613D01*
X994863D01*
X995745Y1082731D01*
Y1081812D01*
X994285Y1080352D01*
X993442Y1078316D01*
Y1076112D01*
X994285Y1074076D01*
X995844Y1072517D01*
X997880Y1071674D01*
X1000084D01*
X1002120Y1072517D01*
X1003679Y1074076D01*
X1004522Y1076112D01*
Y1078316D01*
X1003679Y1080352D01*
X1002219Y1081812D01*
Y1084072D01*
X1001973Y1085311D01*
X1001271Y1086361D01*
X998493Y1089139D01*
X997443Y1089841D01*
X996204Y1090087D01*
X981190D01*
Y1096313D01*
X1001467D01*
X1032321Y1065459D01*
Y1026722D01*
X1028268D01*
Y1012642D01*
X1042848D01*
Y1026722D01*
X1038795D01*
Y1066800D01*
X1038549Y1068039D01*
X1037847Y1069089D01*
X1005097Y1101839D01*
X1004047Y1102541D01*
X1002808Y1102787D01*
X981190D01*
Y1117910D01*
Y1130610D01*
Y1143310D01*
Y1156010D01*
Y1168710D01*
Y1181410D01*
Y1194110D01*
Y1206810D01*
Y1219510D01*
Y1232210D01*
Y1246290D01*
X961110D01*
Y1242135D01*
X909968D01*
X909156Y1242947D01*
X907120Y1243790D01*
X904916D01*
X902880Y1242947D01*
X901321Y1241388D01*
X900478Y1239352D01*
Y1237148D01*
X901321Y1235112D01*
X902880Y1233553D01*
X904916Y1232710D01*
X907120D01*
X909156Y1233553D01*
X909968Y1234365D01*
X961110D01*
Y1230435D01*
X895698D01*
X895475Y1230974D01*
X893916Y1232533D01*
X891880Y1233376D01*
X889676D01*
X887640Y1232533D01*
X886081Y1230974D01*
X885238Y1228938D01*
Y1226734D01*
X886081Y1224698D01*
X887640Y1223139D01*
X889676Y1222296D01*
X891880D01*
X892846Y1222696D01*
X893000Y1222665D01*
X961110D01*
Y1217735D01*
X940017D01*
X938530Y1217439D01*
X937270Y1216597D01*
X932074Y1211401D01*
X849262D01*
X848450Y1212213D01*
X846414Y1213056D01*
X844210D01*
X842174Y1212213D01*
X840615Y1210654D01*
X839772Y1208618D01*
Y1206414D01*
X840615Y1204378D01*
X841673Y1203321D01*
X841147Y1202051D01*
X825132D01*
X824320Y1202863D01*
X822284Y1203706D01*
X820080D01*
X818044Y1202863D01*
X816485Y1201304D01*
X815642Y1199268D01*
Y1197064D01*
X816485Y1195028D01*
X818044Y1193469D01*
X820080Y1192626D01*
X822284D01*
X824320Y1193469D01*
X825132Y1194281D01*
X961110D01*
Y1181410D01*
Y1168710D01*
Y1153587D01*
X955024D01*
X953785Y1153341D01*
X952735Y1152639D01*
X948687Y1148591D01*
X947985Y1147541D01*
X947739Y1146302D01*
Y1084390D01*
X832160D01*
Y1064310D01*
X835315D01*
Y1061411D01*
X834045Y1060562D01*
X833206Y1060910D01*
X831002D01*
X828966Y1060067D01*
X827407Y1058508D01*
X826564Y1056472D01*
Y1055324D01*
X811141Y1039901D01*
X804992D01*
X804506Y1041074D01*
X817325Y1053893D01*
X818167Y1055153D01*
X818463Y1056640D01*
Y1107948D01*
X818167Y1109435D01*
X817325Y1110695D01*
X813023Y1114997D01*
X811763Y1115839D01*
X810276Y1116135D01*
X806190D01*
Y1120573D01*
X822312D01*
X823124Y1119761D01*
X825160Y1118918D01*
X827364D01*
X829400Y1119761D01*
X830959Y1121320D01*
X831802Y1123356D01*
Y1125560D01*
X830959Y1127596D01*
X829400Y1129155D01*
X827364Y1129998D01*
X825160D01*
X823124Y1129155D01*
X822312Y1128343D01*
X806190D01*
Y1134035D01*
X847259D01*
X853619Y1127675D01*
Y1105294D01*
X852807Y1104482D01*
X851964Y1102446D01*
Y1100242D01*
X852807Y1098206D01*
X854366Y1096647D01*
X856402Y1095804D01*
X858606D01*
X860642Y1096647D01*
X862201Y1098206D01*
X863044Y1100242D01*
Y1102446D01*
X862201Y1104482D01*
X861389Y1105294D01*
Y1129284D01*
X861093Y1130771D01*
X860251Y1132031D01*
X851615Y1140667D01*
X850355Y1141509D01*
X848868Y1141805D01*
X806190D01*
Y1156010D01*
Y1168710D01*
Y1181410D01*
Y1194110D01*
Y1206810D01*
Y1219510D01*
Y1223313D01*
X814298D01*
X815758Y1221853D01*
X817794Y1221010D01*
X819998D01*
X822034Y1221853D01*
X823593Y1223412D01*
X824436Y1225448D01*
Y1227652D01*
X823593Y1229688D01*
X822034Y1231247D01*
X819998Y1232090D01*
X817794D01*
X815758Y1231247D01*
X814298Y1229787D01*
X806601D01*
X806476Y1231057D01*
X806666Y1231095D01*
X807137Y1231180D01*
X808258Y1231620D01*
X808278Y1231633D01*
X808301Y1231638D01*
X808702Y1231906D01*
X809108Y1232166D01*
X809122Y1232186D01*
X809142Y1232199D01*
X810313Y1233371D01*
X810875Y1234211D01*
X811072Y1235202D01*
Y1242568D01*
X810875Y1243559D01*
X810313Y1244399D01*
X807971Y1246741D01*
X807131Y1247303D01*
X806140Y1247500D01*
X788076D01*
X787941Y1247701D01*
X787101Y1248263D01*
X786110Y1248460D01*
X783901D01*
X781103Y1251257D01*
X780263Y1251819D01*
X779272Y1252016D01*
D02*
G37*
G36*
X460502Y1027251D02*
X362712D01*
X361225Y1026955D01*
X359965Y1026113D01*
X345487Y1011635D01*
X344645Y1010375D01*
X344349Y1008888D01*
Y983827D01*
X339637Y979115D01*
X331330D01*
Y980770D01*
X317930D01*
Y981232D01*
X317087Y983268D01*
X315528Y984827D01*
X313492Y985670D01*
X311288D01*
X309252Y984827D01*
X307693Y983268D01*
X306850Y981232D01*
Y979028D01*
X307693Y976992D01*
X309252Y975433D01*
X309935Y975150D01*
X310183Y973905D01*
X309173Y972895D01*
X299720D01*
X298233Y972599D01*
X296973Y971757D01*
X291893Y966677D01*
X291051Y965417D01*
X290755Y963930D01*
Y950595D01*
Y937260D01*
X291051Y935773D01*
X291893Y934513D01*
X296973Y929433D01*
X298233Y928591D01*
X299720Y928295D01*
X308996D01*
X309251Y927033D01*
X309251Y927025D01*
X307693Y925468D01*
X306850Y923432D01*
Y921228D01*
X307693Y919192D01*
X309252Y917633D01*
X311288Y916790D01*
X313492D01*
X315528Y917633D01*
X317087Y919192D01*
X317930Y921228D01*
Y921690D01*
X331330D01*
Y923345D01*
X340541D01*
X340900Y922986D01*
Y918600D01*
X349980D01*
Y928480D01*
X346567D01*
X345872Y929349D01*
X346368Y930493D01*
X355249D01*
X357342Y928400D01*
X357680Y927210D01*
X357680D01*
X357680Y927210D01*
Y915130D01*
X368760D01*
Y927210D01*
X366435D01*
X366211Y928339D01*
X365509Y929389D01*
X359602Y935296D01*
X360128Y936566D01*
X377984D01*
Y929014D01*
X387064D01*
Y936566D01*
X404234D01*
Y933266D01*
X404492Y931972D01*
X405224Y930876D01*
X406321Y930143D01*
X407614Y929886D01*
X419164D01*
X420458Y930143D01*
X421554Y930876D01*
X422287Y931972D01*
X422544Y933266D01*
Y937916D01*
X422287Y939209D01*
X421554Y940306D01*
X420458Y941038D01*
X419164Y941296D01*
X412022D01*
X411649Y941941D01*
X412022Y942586D01*
X419164D01*
X420458Y942843D01*
X421554Y943576D01*
X422287Y944672D01*
X422544Y945966D01*
Y950616D01*
X422287Y951909D01*
X421554Y953006D01*
X420458Y953738D01*
X419164Y953996D01*
X407614D01*
X406321Y953738D01*
X405224Y953006D01*
X404492Y951909D01*
X404234Y950616D01*
Y947315D01*
X386810D01*
Y955158D01*
X377730D01*
Y947315D01*
X356468D01*
X354162Y949620D01*
X355125Y950583D01*
X355852Y951671D01*
X355974Y952282D01*
X356198Y952375D01*
X357757Y953934D01*
X358600Y955970D01*
Y958174D01*
X357757Y960210D01*
X358191Y961572D01*
X358459Y961751D01*
X360528Y963820D01*
X367530D01*
Y975900D01*
X356450D01*
Y968898D01*
X354829Y967277D01*
X331330D01*
Y971345D01*
X341246D01*
X342733Y971641D01*
X343993Y972483D01*
X350981Y979471D01*
X351823Y980731D01*
X352119Y982218D01*
Y1007279D01*
X364321Y1019481D01*
X458893D01*
X464505Y1013870D01*
Y1004796D01*
X462614D01*
X461321Y1004538D01*
X460224Y1003806D01*
X459492Y1002709D01*
X459234Y1001416D01*
Y996766D01*
X459492Y995472D01*
X460224Y994376D01*
X461321Y993643D01*
X462614Y993386D01*
X474164D01*
X475458Y993643D01*
X476554Y994376D01*
X477109Y995206D01*
X485520D01*
Y993250D01*
X500000D01*
Y1006430D01*
X485520D01*
Y1002975D01*
X477109D01*
X476554Y1003806D01*
X475458Y1004538D01*
X474164Y1004796D01*
X472274D01*
Y1015479D01*
X471978Y1016965D01*
X471136Y1018226D01*
X463249Y1026113D01*
X461989Y1026955D01*
X460502Y1027251D01*
D02*
G37*
G36*
X1283620Y983900D02*
X1266540D01*
Y982551D01*
X1193450D01*
Y982910D01*
X1176370D01*
Y965830D01*
X1177224D01*
Y931553D01*
X1155156Y909486D01*
X1152943D01*
X1152849Y909962D01*
X1151624Y911794D01*
X1149792Y913018D01*
X1147630Y913448D01*
X1145468Y913018D01*
X1143636Y911794D01*
X1142894Y910683D01*
X1141366D01*
X1140624Y911794D01*
X1138792Y913018D01*
X1136630Y913448D01*
X1134468Y913018D01*
X1132636Y911794D01*
X1131412Y909962D01*
X1130982Y907800D01*
Y906956D01*
X1129974Y905643D01*
X1129206Y903789D01*
X1128944Y901800D01*
X1129206Y899811D01*
X1129974Y897957D01*
X1130982Y896644D01*
Y895800D01*
X1131412Y893638D01*
X1132636Y891806D01*
X1134468Y890582D01*
X1136630Y890152D01*
X1138792Y890582D01*
X1140624Y891806D01*
X1141366Y892917D01*
X1142894D01*
X1143636Y891806D01*
X1145468Y890582D01*
X1147630Y890152D01*
X1148008Y890227D01*
X1148503Y889030D01*
X1148355Y888931D01*
X1147794Y888091D01*
X1147597Y887100D01*
Y837630D01*
X1147794Y836639D01*
X1148355Y835799D01*
X1149195Y835238D01*
X1150186Y835040D01*
X1171630D01*
X1172621Y835238D01*
X1173461Y835799D01*
X1174023Y836639D01*
X1174220Y837630D01*
Y856171D01*
X1175490Y856978D01*
X1177130Y856652D01*
X1189130D01*
X1191292Y857081D01*
X1193124Y858306D01*
X1193630Y859063D01*
X1283790D01*
Y854790D01*
X1299370D01*
Y869870D01*
X1283790D01*
Y865537D01*
X1193630D01*
X1193124Y866294D01*
X1191292Y867519D01*
X1189130Y867949D01*
X1177130D01*
X1175490Y867622D01*
X1174220Y868429D01*
Y887100D01*
X1174023Y888091D01*
X1173461Y888931D01*
X1172621Y889493D01*
X1171630Y889690D01*
X1150743D01*
X1150358Y890960D01*
X1151624Y891806D01*
X1152849Y893638D01*
X1152943Y894114D01*
X1158340D01*
X1160329Y894376D01*
X1162183Y895144D01*
X1163775Y896365D01*
X1190345Y922935D01*
X1190345Y922935D01*
X1191566Y924527D01*
X1192334Y926381D01*
X1192596Y928370D01*
Y965830D01*
X1193450D01*
Y967179D01*
X1266540D01*
Y966820D01*
X1283620D01*
Y983900D01*
D02*
G37*
G36*
X474164Y992096D02*
X462614D01*
X461321Y991838D01*
X460224Y991106D01*
X459492Y990009D01*
X459234Y988716D01*
Y984066D01*
X459492Y982772D01*
X460224Y981676D01*
X461321Y980943D01*
X462614Y980686D01*
X474164D01*
X475458Y980943D01*
X476554Y981676D01*
X477287Y982772D01*
X477544Y984066D01*
Y988716D01*
X477287Y990009D01*
X476554Y991106D01*
X475458Y991838D01*
X474164Y992096D01*
D02*
G37*
G36*
X419164D02*
X407614D01*
X406321Y991838D01*
X405224Y991106D01*
X404492Y990009D01*
X404234Y988716D01*
Y984066D01*
X404492Y982772D01*
X405224Y981676D01*
X406321Y980943D01*
X407614Y980686D01*
X419164D01*
X420458Y980943D01*
X421554Y981676D01*
X421988Y982325D01*
X431225D01*
X432218Y981331D01*
X434254Y980488D01*
X436458D01*
X438494Y981331D01*
X440053Y982890D01*
X440896Y984926D01*
Y987130D01*
X440053Y989166D01*
X438494Y990725D01*
X436458Y991568D01*
X434254D01*
X432218Y990725D01*
X431587Y990094D01*
X422230D01*
X421554Y991106D01*
X420458Y991838D01*
X419164Y992096D01*
D02*
G37*
G36*
Y979396D02*
X407614D01*
X406321Y979138D01*
X405224Y978406D01*
X404492Y977309D01*
X404234Y976016D01*
Y971366D01*
X404492Y970072D01*
X405224Y968976D01*
X406321Y968243D01*
X407614Y967986D01*
X419164D01*
X420458Y968243D01*
X421554Y968976D01*
X422073Y969752D01*
X431352D01*
X432218Y968885D01*
X434254Y968042D01*
X436458D01*
X438494Y968885D01*
X440053Y970444D01*
X440896Y972480D01*
Y974684D01*
X440053Y976720D01*
X438494Y978279D01*
X436458Y979122D01*
X434254D01*
X432218Y978279D01*
X431460Y977521D01*
X422145D01*
X421554Y978406D01*
X420458Y979138D01*
X419164Y979396D01*
D02*
G37*
G36*
X448142Y1002236D02*
X445938D01*
X443902Y1001393D01*
X442343Y999834D01*
X441500Y997798D01*
Y995594D01*
X442343Y993558D01*
X443803Y992098D01*
Y977646D01*
X444049Y976407D01*
X444751Y975357D01*
X448706Y971402D01*
X449757Y970700D01*
X450995Y970453D01*
X459416D01*
X459492Y970072D01*
X460224Y968976D01*
X461321Y968243D01*
X462614Y967986D01*
X474164D01*
X475458Y968243D01*
X476554Y968976D01*
X477287Y970072D01*
X477544Y971366D01*
Y976016D01*
X477287Y977309D01*
X476554Y978406D01*
X475458Y979138D01*
X474164Y979396D01*
X462614D01*
X461321Y979138D01*
X460224Y978406D01*
X459492Y977309D01*
X459416Y976928D01*
X452336D01*
X450277Y978987D01*
Y992098D01*
X451737Y993558D01*
X452580Y995594D01*
Y997798D01*
X451737Y999834D01*
X450178Y1001393D01*
X448142Y1002236D01*
D02*
G37*
G36*
X490560Y966930D02*
X488356D01*
X486320Y966087D01*
X484860Y964627D01*
X477275D01*
X476554Y965706D01*
X475458Y966438D01*
X474164Y966696D01*
X462614D01*
X461321Y966438D01*
X460224Y965706D01*
X459492Y964609D01*
X459234Y963316D01*
Y958666D01*
X459492Y957372D01*
X460224Y956276D01*
X461321Y955543D01*
X462614Y955286D01*
X474164D01*
X475458Y955543D01*
X476554Y956276D01*
X477287Y957372D01*
X477442Y958153D01*
X484860D01*
X486320Y956693D01*
X488356Y955850D01*
X490560D01*
X492596Y956693D01*
X494155Y958252D01*
X494998Y960288D01*
Y962492D01*
X494155Y964528D01*
X492596Y966087D01*
X490560Y966930D01*
D02*
G37*
G36*
X1042848Y1010722D02*
X1028268D01*
Y996642D01*
X1035521D01*
Y993572D01*
X1030168D01*
Y978992D01*
X1035521D01*
Y975092D01*
X1033218D01*
Y957512D01*
X1044298D01*
Y975092D01*
X1041995D01*
Y978992D01*
X1044248D01*
Y993572D01*
X1041995D01*
Y996642D01*
X1042848D01*
Y1010722D01*
D02*
G37*
G36*
X382860Y1004190D02*
X369680D01*
Y989710D01*
X382860D01*
Y993065D01*
X386503D01*
X393625Y985943D01*
Y964438D01*
X393921Y962951D01*
X394763Y961691D01*
X398210Y958244D01*
X399471Y957402D01*
X400957Y957106D01*
X404669D01*
X405224Y956276D01*
X406321Y955543D01*
X407614Y955286D01*
X419164D01*
X420458Y955543D01*
X421554Y956276D01*
X422287Y957372D01*
X422544Y958666D01*
Y963316D01*
X422287Y964609D01*
X421554Y965706D01*
X420458Y966438D01*
X419164Y966696D01*
X407614D01*
X406321Y966438D01*
X405224Y965706D01*
X404669Y964875D01*
X402566D01*
X401395Y966047D01*
Y987552D01*
X401099Y989039D01*
X400257Y990299D01*
X390859Y999697D01*
X389599Y1000539D01*
X388112Y1000835D01*
X382860D01*
Y1004190D01*
D02*
G37*
G36*
X474164Y953996D02*
X462614D01*
X461321Y953738D01*
X460224Y953006D01*
X459492Y951909D01*
X459234Y950616D01*
Y945966D01*
X459492Y944672D01*
X460224Y943576D01*
X461321Y942843D01*
X462614Y942586D01*
X474164D01*
X475458Y942843D01*
X476554Y943576D01*
X477287Y944672D01*
X477544Y945966D01*
Y950616D01*
X477287Y951909D01*
X476554Y953006D01*
X475458Y953738D01*
X474164Y953996D01*
D02*
G37*
G36*
Y941296D02*
X462614D01*
X461321Y941038D01*
X460224Y940306D01*
X459492Y939209D01*
X459234Y937916D01*
Y933266D01*
X459492Y931972D01*
X460224Y930876D01*
X461321Y930143D01*
X462614Y929886D01*
X474164D01*
X475458Y930143D01*
X476554Y930876D01*
X477287Y931972D01*
X477544Y933266D01*
Y937916D01*
X477287Y939209D01*
X476554Y940306D01*
X475458Y941038D01*
X474164Y941296D01*
D02*
G37*
G36*
Y928596D02*
X462614D01*
X461321Y928338D01*
X460224Y927606D01*
X459492Y926509D01*
X459234Y925216D01*
Y920566D01*
X459492Y919272D01*
X460224Y918176D01*
X461321Y917443D01*
X462614Y917186D01*
X474164D01*
X475458Y917443D01*
X476554Y918176D01*
X477287Y919272D01*
X477544Y920566D01*
Y925216D01*
X477287Y926509D01*
X476554Y927606D01*
X475458Y928338D01*
X474164Y928596D01*
D02*
G37*
G36*
X419164D02*
X407614D01*
X406321Y928338D01*
X405224Y927606D01*
X404492Y926509D01*
X404234Y925216D01*
Y920566D01*
X404492Y919272D01*
X405224Y918176D01*
X406321Y917443D01*
X407614Y917186D01*
X419164D01*
X420458Y917443D01*
X421554Y918176D01*
X422287Y919272D01*
X422544Y920566D01*
Y925216D01*
X422287Y926509D01*
X421554Y927606D01*
X420458Y928338D01*
X419164Y928596D01*
D02*
G37*
G36*
X918083Y1014062D02*
X914781D01*
X911592Y1013207D01*
X908732Y1011556D01*
X906397Y1009222D01*
X904747Y1006362D01*
X903892Y1003173D01*
Y999871D01*
X904747Y996682D01*
X906397Y993822D01*
X908732Y991488D01*
X908746Y991479D01*
Y970076D01*
X903224D01*
X902233Y969879D01*
X901393Y969317D01*
X898853Y966777D01*
X898291Y965937D01*
X898094Y964946D01*
Y930656D01*
X898291Y929665D01*
X898853Y928825D01*
X903933Y923745D01*
X904773Y923183D01*
X905764Y922986D01*
X937844D01*
Y910536D01*
X938984D01*
Y906715D01*
X934999D01*
X933540Y908175D01*
X931504Y909018D01*
X929300D01*
X927264Y908175D01*
X925705Y906616D01*
X924862Y904580D01*
Y902376D01*
X925705Y900340D01*
X927264Y898781D01*
X929300Y897938D01*
X931504D01*
X933540Y898781D01*
X934999Y900241D01*
X938984D01*
Y896696D01*
X953064D01*
Y911276D01*
X952424D01*
Y914339D01*
X955674D01*
Y912286D01*
X970154D01*
Y922986D01*
X971804D01*
X972795Y923183D01*
X973635Y923745D01*
X978715Y928825D01*
X979277Y929665D01*
X979474Y930656D01*
Y962406D01*
X979277Y963397D01*
X978715Y964237D01*
X973635Y969317D01*
X972795Y969879D01*
X971804Y970076D01*
X924118D01*
Y991479D01*
X924132Y991488D01*
X926467Y993822D01*
X928117Y996682D01*
X928972Y999871D01*
Y1003173D01*
X928117Y1006362D01*
X926467Y1009222D01*
X924132Y1011556D01*
X921272Y1013207D01*
X918083Y1014062D01*
D02*
G37*
G36*
X474164Y915896D02*
X462614D01*
X461321Y915638D01*
X460224Y914906D01*
X459492Y913809D01*
X459234Y912516D01*
Y907866D01*
X459492Y906572D01*
X460224Y905476D01*
X461321Y904743D01*
X462614Y904486D01*
X474164D01*
X475458Y904743D01*
X476554Y905476D01*
X477287Y906572D01*
X477544Y907866D01*
Y912516D01*
X477287Y913809D01*
X476554Y914906D01*
X475458Y915638D01*
X474164Y915896D01*
D02*
G37*
G36*
X419164D02*
X407614D01*
X406321Y915638D01*
X405224Y914906D01*
X404492Y913809D01*
X404234Y912516D01*
Y907866D01*
X404492Y906572D01*
X405224Y905476D01*
X406321Y904743D01*
X407614Y904486D01*
X419164D01*
X420458Y904743D01*
X421554Y905476D01*
X422287Y906572D01*
X422544Y907866D01*
Y912516D01*
X422287Y913809D01*
X421554Y914906D01*
X420458Y915638D01*
X419164Y915896D01*
D02*
G37*
G36*
X344764Y874220D02*
X342560D01*
X340524Y873377D01*
X338965Y871818D01*
X338122Y869782D01*
Y867578D01*
X338965Y865542D01*
X340524Y863983D01*
X342560Y863140D01*
X343608D01*
X350137Y856611D01*
X351187Y855909D01*
X352426Y855663D01*
X355930D01*
Y851860D01*
X370510D01*
Y865940D01*
X355930D01*
Y862137D01*
X353767D01*
X348946Y866959D01*
X349202Y867578D01*
Y869782D01*
X348359Y871818D01*
X346800Y873377D01*
X344764Y874220D01*
D02*
G37*
G36*
X614426Y882446D02*
X582676D01*
X581685Y882249D01*
X580845Y881687D01*
X575765Y876607D01*
X575203Y875767D01*
X575006Y874776D01*
Y839140D01*
X563446D01*
Y835467D01*
X559486D01*
Y839270D01*
X555941D01*
Y844270D01*
X557401Y845730D01*
X558244Y847766D01*
Y849970D01*
X557401Y852006D01*
X555842Y853565D01*
X553806Y854408D01*
X551602D01*
X549566Y853565D01*
X548007Y852006D01*
X547164Y849970D01*
Y847766D01*
X548007Y845730D01*
X549467Y844270D01*
Y839270D01*
X544906D01*
Y825190D01*
X559486D01*
Y828993D01*
X563446D01*
Y824560D01*
X567249D01*
Y821310D01*
X563798D01*
Y806830D01*
X575006D01*
Y806196D01*
X575203Y805205D01*
X575765Y804365D01*
X578305Y801825D01*
X579145Y801263D01*
X580136Y801066D01*
X590627D01*
X590793Y799796D01*
X589917Y798920D01*
X589074Y796884D01*
Y794680D01*
X589917Y792644D01*
X591476Y791085D01*
X593512Y790242D01*
X595716D01*
X597752Y791085D01*
X599311Y792644D01*
X600154Y794680D01*
Y796884D01*
X599311Y798920D01*
X598681Y799550D01*
Y801066D01*
X614426D01*
X615417Y801263D01*
X616257Y801825D01*
X621337Y806905D01*
X621899Y807745D01*
X622096Y808736D01*
Y874776D01*
X621899Y875767D01*
X621337Y876607D01*
X616257Y881687D01*
X615417Y882249D01*
X614426Y882446D01*
D02*
G37*
G36*
X1189130Y834949D02*
X1177130D01*
X1174968Y834519D01*
X1173136Y833294D01*
X1171911Y831462D01*
X1171481Y829300D01*
X1171911Y827138D01*
X1173136Y825306D01*
X1174247Y824564D01*
Y823036D01*
X1173136Y822294D01*
X1171911Y820462D01*
X1171481Y818300D01*
X1171911Y816138D01*
X1173136Y814306D01*
X1174968Y813081D01*
X1177130Y812652D01*
X1189130D01*
X1191292Y813081D01*
X1193124Y814306D01*
X1194349Y816138D01*
X1194779Y818300D01*
X1194349Y820462D01*
X1193124Y822294D01*
X1192013Y823036D01*
Y824564D01*
X1193124Y825306D01*
X1194349Y827138D01*
X1194779Y829300D01*
X1194349Y831462D01*
X1193124Y833294D01*
X1191292Y834519D01*
X1189130Y834949D01*
D02*
G37*
G36*
X370510Y809300D02*
X355930D01*
Y800714D01*
X352451Y797235D01*
X305305D01*
X305303Y797241D01*
X303976Y799539D01*
X302099Y801416D01*
X299801Y802743D01*
X297237Y803430D01*
X294583D01*
X292019Y802743D01*
X289721Y801416D01*
X287844Y799539D01*
X286517Y797241D01*
X285830Y794677D01*
Y792023D01*
X286517Y789459D01*
X287844Y787161D01*
X289721Y785284D01*
X292019Y783957D01*
X294583Y783270D01*
X297237D01*
X299801Y783957D01*
X302099Y785284D01*
X303976Y787161D01*
X305303Y789459D01*
X305305Y789465D01*
X354060D01*
X355547Y789761D01*
X356807Y790603D01*
X361424Y795220D01*
X370510D01*
Y809300D01*
D02*
G37*
G36*
X1294017Y814660D02*
X1291363D01*
X1288799Y813973D01*
X1286501Y812646D01*
X1284624Y810769D01*
X1283297Y808471D01*
X1282610Y805907D01*
Y803253D01*
X1283297Y800689D01*
X1284624Y798391D01*
X1286501Y796514D01*
X1288799Y795187D01*
X1291363Y794500D01*
X1294017D01*
X1296581Y795187D01*
X1298879Y796514D01*
X1300756Y798391D01*
X1302083Y800689D01*
X1302770Y803253D01*
Y805907D01*
X1302083Y808471D01*
X1300756Y810769D01*
X1298879Y812646D01*
X1296581Y813973D01*
X1294017Y814660D01*
D02*
G37*
G36*
X1189130Y801948D02*
X1177130D01*
X1174968Y801519D01*
X1173136Y800294D01*
X1171911Y798462D01*
X1171481Y796300D01*
X1171911Y794138D01*
X1173136Y792306D01*
X1174247Y791564D01*
Y790036D01*
X1173136Y789294D01*
X1171911Y787462D01*
X1171481Y785300D01*
X1171911Y783138D01*
X1173136Y781306D01*
X1174247Y780564D01*
Y779036D01*
X1173136Y778294D01*
X1171911Y776462D01*
X1171481Y774300D01*
X1171911Y772138D01*
X1173136Y770306D01*
X1174247Y769564D01*
Y768036D01*
X1173136Y767294D01*
X1171911Y765462D01*
X1171481Y763300D01*
X1171911Y761138D01*
X1173136Y759306D01*
X1174247Y758564D01*
Y757036D01*
X1173136Y756294D01*
X1171911Y754462D01*
X1171530Y752544D01*
X1170361Y751917D01*
X1161799Y760479D01*
X1160749Y761181D01*
X1159510Y761427D01*
X1094740D01*
X1093501Y761181D01*
X1092451Y760479D01*
X1068341Y736369D01*
X1067639Y735319D01*
X1067443Y734334D01*
X1066636Y733794D01*
X1065411Y731962D01*
X1064982Y729800D01*
Y717800D01*
X1065411Y715638D01*
X1066636Y713806D01*
X1068468Y712581D01*
X1070630Y712151D01*
X1072792Y712581D01*
X1074624Y713806D01*
X1075366Y714917D01*
X1076894D01*
X1077636Y713806D01*
X1079468Y712581D01*
X1081630Y712151D01*
X1083792Y712581D01*
X1085624Y713806D01*
X1086366Y714917D01*
X1087894D01*
X1088636Y713806D01*
X1090468Y712581D01*
X1092630Y712151D01*
X1094792Y712581D01*
X1096624Y713806D01*
X1097366Y714917D01*
X1098894D01*
X1099636Y713806D01*
X1101468Y712581D01*
X1103630Y712151D01*
X1105792Y712581D01*
X1107624Y713806D01*
X1108366Y714917D01*
X1109894D01*
X1110636Y713806D01*
X1111393Y713300D01*
Y698930D01*
X1111639Y697691D01*
X1112341Y696641D01*
X1143573Y665409D01*
Y584790D01*
X1139570D01*
Y571610D01*
X1154050D01*
Y571610D01*
X1154810D01*
Y571610D01*
X1169290D01*
Y574963D01*
X1183300D01*
Y572080D01*
X1200380D01*
Y586160D01*
X1183300D01*
Y581437D01*
X1169290D01*
Y584790D01*
X1154810D01*
Y584790D01*
X1154050D01*
Y584790D01*
X1150047D01*
Y666750D01*
X1149801Y667989D01*
X1149099Y669039D01*
X1117867Y700271D01*
Y713300D01*
X1118624Y713806D01*
X1119849Y715638D01*
X1120278Y717800D01*
Y729800D01*
X1119849Y731962D01*
X1118624Y733794D01*
X1116792Y735018D01*
X1114630Y735449D01*
X1112468Y735018D01*
X1110636Y733794D01*
X1109894Y732683D01*
X1108366D01*
X1107624Y733794D01*
X1106867Y734300D01*
Y740339D01*
X1110051Y743523D01*
X1149279D01*
X1153733Y739069D01*
Y621030D01*
X1153979Y619791D01*
X1154681Y618741D01*
X1171191Y602231D01*
X1172241Y601529D01*
X1173480Y601283D01*
X1183300D01*
Y597480D01*
X1200380D01*
Y610180D01*
Y614029D01*
X1201389Y614229D01*
X1202439Y614931D01*
X1208789Y621281D01*
X1209491Y622331D01*
X1209737Y623570D01*
Y646430D01*
X1209491Y647669D01*
X1208789Y648719D01*
X1201169Y656339D01*
X1200119Y657041D01*
X1198880Y657287D01*
X1181171D01*
X1174177Y664281D01*
Y746083D01*
X1174381Y746340D01*
X1175288Y746967D01*
X1175420Y746992D01*
X1177130Y746652D01*
X1189130D01*
X1191292Y747081D01*
X1193124Y748306D01*
X1194349Y750138D01*
X1194779Y752300D01*
X1194349Y754462D01*
X1193124Y756294D01*
X1192013Y757036D01*
Y758564D01*
X1193124Y759306D01*
X1194349Y761138D01*
X1194779Y763300D01*
X1194349Y765462D01*
X1193124Y767294D01*
X1192013Y768036D01*
Y769564D01*
X1193124Y770306D01*
X1193443Y770784D01*
X1194788Y770872D01*
X1204352Y761309D01*
Y759245D01*
X1205196Y757208D01*
X1206754Y755650D01*
X1208790Y754807D01*
X1210994D01*
X1213030Y755650D01*
X1214589Y757208D01*
X1215432Y759245D01*
Y761449D01*
X1214589Y763485D01*
X1213030Y765043D01*
X1210994Y765887D01*
X1208930D01*
X1198228Y776589D01*
X1197178Y777291D01*
X1195939Y777537D01*
X1193630D01*
X1193124Y778294D01*
X1192013Y779036D01*
Y780564D01*
X1193124Y781306D01*
X1193630Y782063D01*
X1195829D01*
X1202902Y774990D01*
X1203952Y774288D01*
X1204456Y774188D01*
X1204597Y773848D01*
X1206156Y772289D01*
X1208192Y771446D01*
X1210396D01*
X1212432Y772289D01*
X1213991Y773848D01*
X1214834Y775884D01*
Y778088D01*
X1213991Y780124D01*
X1212432Y781683D01*
X1210396Y782526D01*
X1208192D01*
X1206156Y781683D01*
X1205761Y781287D01*
X1201574Y785474D01*
X1202141Y786703D01*
X1205459D01*
X1206918Y785243D01*
X1208954Y784400D01*
X1211158D01*
X1213194Y785243D01*
X1214753Y786802D01*
X1215596Y788838D01*
Y791042D01*
X1214753Y793078D01*
X1213194Y794637D01*
X1211158Y795480D01*
X1208954D01*
X1206918Y794637D01*
X1205459Y793177D01*
X1203015D01*
X1197603Y798589D01*
X1196553Y799291D01*
X1195314Y799537D01*
X1193630D01*
X1193124Y800294D01*
X1191292Y801519D01*
X1189130Y801948D01*
D02*
G37*
G36*
X1294017Y789660D02*
X1291363D01*
X1288799Y788973D01*
X1286501Y787646D01*
X1284624Y785769D01*
X1283297Y783471D01*
X1282610Y780907D01*
Y778253D01*
X1283297Y775689D01*
X1284624Y773391D01*
X1286501Y771514D01*
X1288799Y770187D01*
X1291363Y769500D01*
X1294017D01*
X1296581Y770187D01*
X1298879Y771514D01*
X1300756Y773391D01*
X1302083Y775689D01*
X1302770Y778253D01*
Y780907D01*
X1302083Y783471D01*
X1300756Y785769D01*
X1298879Y787646D01*
X1296581Y788973D01*
X1294017Y789660D01*
D02*
G37*
G36*
X576666Y769064D02*
X574462D01*
X572426Y768221D01*
X570867Y766662D01*
X570024Y764626D01*
Y762422D01*
X570867Y760386D01*
X572426Y758827D01*
X574462Y757984D01*
X576666D01*
X578209Y758623D01*
X748398D01*
X749210Y757811D01*
X751246Y756968D01*
X753450D01*
X755486Y757811D01*
X757045Y759370D01*
X757888Y761406D01*
Y763610D01*
X757045Y765646D01*
X755486Y767205D01*
X753450Y768048D01*
X751246D01*
X749210Y767205D01*
X748398Y766393D01*
X580372D01*
X580261Y766662D01*
X578702Y768221D01*
X576666Y769064D01*
D02*
G37*
G36*
X1030130Y790948D02*
X1018130D01*
X1015968Y790519D01*
X1014136Y789294D01*
X1012912Y787462D01*
X1012482Y785300D01*
X1012912Y783138D01*
X1014136Y781306D01*
X1015247Y780564D01*
Y779036D01*
X1014136Y778294D01*
X1012912Y776462D01*
X1012482Y774300D01*
X1012912Y772138D01*
X1014136Y770306D01*
X1015247Y769564D01*
Y768036D01*
X1014136Y767294D01*
X1012912Y765462D01*
X1012482Y763300D01*
X1012912Y761138D01*
X1014136Y759306D01*
X1015247Y758564D01*
Y757036D01*
X1014136Y756294D01*
X1012912Y754462D01*
X1012482Y752300D01*
X1012912Y750138D01*
X1014136Y748306D01*
X1015968Y747081D01*
X1018130Y746652D01*
X1030130D01*
X1032292Y747081D01*
X1034124Y748306D01*
X1035349Y750138D01*
X1035779Y752300D01*
X1035349Y754462D01*
X1034124Y756294D01*
X1033013Y757036D01*
Y758564D01*
X1034124Y759306D01*
X1035349Y761138D01*
X1035779Y763300D01*
X1035349Y765462D01*
X1034124Y767294D01*
X1033013Y768036D01*
Y769564D01*
X1034124Y770306D01*
X1035349Y772138D01*
X1035779Y774300D01*
X1035349Y776462D01*
X1034124Y778294D01*
X1033013Y779036D01*
Y780564D01*
X1034124Y781306D01*
X1035349Y783138D01*
X1035779Y785300D01*
X1035349Y787462D01*
X1034124Y789294D01*
X1032292Y790519D01*
X1030130Y790948D01*
D02*
G37*
G36*
X1294017Y764660D02*
X1291363D01*
X1288799Y763973D01*
X1286501Y762646D01*
X1284624Y760769D01*
X1283297Y758471D01*
X1282610Y755907D01*
Y753253D01*
X1283297Y750689D01*
X1284624Y748391D01*
X1286501Y746514D01*
X1288799Y745187D01*
X1291363Y744500D01*
X1294017D01*
X1296581Y745187D01*
X1298879Y746514D01*
X1300756Y748391D01*
X1302083Y750689D01*
X1302770Y753253D01*
Y755907D01*
X1302083Y758471D01*
X1300756Y760769D01*
X1298879Y762646D01*
X1296581Y763973D01*
X1294017Y764660D01*
D02*
G37*
G36*
X1136630Y735449D02*
X1134468Y735018D01*
X1132636Y733794D01*
X1131412Y731962D01*
X1130982Y729800D01*
Y717800D01*
X1131412Y715638D01*
X1132636Y713806D01*
X1134468Y712581D01*
X1136630Y712151D01*
X1138792Y712581D01*
X1140624Y713806D01*
X1141849Y715638D01*
X1142279Y717800D01*
Y729800D01*
X1141849Y731962D01*
X1140624Y733794D01*
X1138792Y735018D01*
X1136630Y735449D01*
D02*
G37*
G36*
X409026Y864314D02*
X406822D01*
X404786Y863471D01*
X403227Y861912D01*
X402384Y859876D01*
Y857672D01*
X403227Y855636D01*
X404039Y854824D01*
Y691323D01*
X379136Y666420D01*
X357550D01*
Y663015D01*
X327335D01*
Y674045D01*
X297505D01*
Y644215D01*
X327335D01*
Y655245D01*
X357550D01*
Y651840D01*
X360455D01*
Y641330D01*
X355010D01*
Y614250D01*
X381590D01*
Y641330D01*
X368225D01*
Y651840D01*
X384130D01*
Y660426D01*
X410671Y686967D01*
X411513Y688227D01*
X411809Y689714D01*
Y854824D01*
X412621Y855636D01*
X413464Y857672D01*
Y859876D01*
X412621Y861912D01*
X411062Y863471D01*
X409026Y864314D01*
D02*
G37*
G36*
X1252640Y645360D02*
X1215640D01*
X1214649Y645163D01*
X1213809Y644601D01*
X1213247Y643761D01*
X1213050Y642770D01*
Y629770D01*
X1213247Y628779D01*
X1213809Y627939D01*
X1214649Y627377D01*
X1215640Y627180D01*
X1252640D01*
X1253631Y627377D01*
X1254471Y627939D01*
X1255033Y628779D01*
X1255230Y629770D01*
Y642770D01*
X1255033Y643761D01*
X1254471Y644601D01*
X1253631Y645163D01*
X1252640Y645360D01*
D02*
G37*
G36*
Y619960D02*
X1215640D01*
X1214649Y619763D01*
X1213809Y619201D01*
X1213247Y618361D01*
X1213050Y617370D01*
Y604370D01*
X1213247Y603379D01*
X1213809Y602539D01*
X1214649Y601977D01*
X1215640Y601780D01*
X1252640D01*
X1253631Y601977D01*
X1254471Y602539D01*
X1255033Y603379D01*
X1255230Y604370D01*
Y617370D01*
X1255033Y618361D01*
X1254471Y619201D01*
X1253631Y619763D01*
X1252640Y619960D01*
D02*
G37*
G36*
X834476Y612854D02*
X832272D01*
X830236Y612011D01*
X828677Y610452D01*
X827834Y608416D01*
Y606212D01*
X828677Y604176D01*
X830236Y602617D01*
X832272Y601774D01*
X834476D01*
X836512Y602617D01*
X837197Y603302D01*
X843790D01*
Y601270D01*
X859870D01*
Y612850D01*
X843790D01*
Y611072D01*
X837451D01*
X836512Y612011D01*
X834476Y612854D01*
D02*
G37*
G36*
X1252640Y592860D02*
X1215640D01*
X1214649Y592663D01*
X1213809Y592101D01*
X1213247Y591261D01*
X1213050Y590270D01*
Y577270D01*
X1213247Y576279D01*
X1213809Y575439D01*
X1214649Y574877D01*
X1215640Y574680D01*
X1252640D01*
X1253631Y574877D01*
X1254471Y575439D01*
X1255033Y576279D01*
X1255230Y577270D01*
Y590270D01*
X1255033Y591261D01*
X1254471Y592101D01*
X1253631Y592663D01*
X1252640Y592860D01*
D02*
G37*
G36*
X863910Y586410D02*
X849830D01*
Y571830D01*
X853251D01*
Y566699D01*
X851791Y565240D01*
X850948Y563204D01*
Y561000D01*
X851791Y558964D01*
X853350Y557405D01*
X855386Y556562D01*
X857590D01*
X859626Y557405D01*
X861185Y558964D01*
X862028Y561000D01*
Y563204D01*
X861185Y565240D01*
X859725Y566699D01*
Y571830D01*
X863910D01*
Y586410D01*
D02*
G37*
G36*
X880870Y603250D02*
X864790D01*
Y591670D01*
X869593D01*
Y586410D01*
X865830D01*
Y571830D01*
X869593D01*
Y567490D01*
X865200D01*
Y553410D01*
X879780D01*
Y567490D01*
X876067D01*
Y571830D01*
X879910D01*
Y586410D01*
X876067D01*
Y591670D01*
X880870D01*
Y603250D01*
D02*
G37*
G36*
Y622450D02*
X864790D01*
Y610870D01*
X880870D01*
Y613423D01*
X926319D01*
X951803Y587939D01*
Y572385D01*
X950200Y571955D01*
X947340Y570304D01*
X945005Y567970D01*
X943355Y565110D01*
X942500Y561921D01*
Y558619D01*
X943355Y555430D01*
X945005Y552570D01*
X947340Y550235D01*
X950200Y548585D01*
X953389Y547730D01*
X956691D01*
X959880Y548585D01*
X962740Y550235D01*
X965074Y552570D01*
X966725Y555430D01*
X967580Y558619D01*
Y561921D01*
X966725Y565110D01*
X965074Y567970D01*
X962740Y570304D01*
X959880Y571955D01*
X958277Y572385D01*
Y589280D01*
X958031Y590519D01*
X957329Y591569D01*
X929949Y618949D01*
X928899Y619651D01*
X927660Y619897D01*
X880870D01*
Y622450D01*
D02*
G37*
G36*
X550504Y527256D02*
X548300D01*
X546264Y526413D01*
X544705Y524854D01*
X543862Y522818D01*
Y520614D01*
X544705Y518578D01*
X546264Y517019D01*
X546673Y516850D01*
Y511990D01*
X542620D01*
Y497910D01*
X557200D01*
Y511990D01*
X553147D01*
Y517626D01*
X554099Y518578D01*
X554942Y520614D01*
Y522818D01*
X554099Y524854D01*
X552540Y526413D01*
X550504Y527256D01*
D02*
G37*
G36*
X557200Y495990D02*
X542620D01*
Y492835D01*
X540690D01*
Y495610D01*
X526110D01*
Y481530D01*
X540690D01*
Y485065D01*
X542620D01*
Y481910D01*
X557200D01*
Y483093D01*
X561945D01*
X562431Y481920D01*
X558373Y477861D01*
X557200Y478348D01*
Y479860D01*
X542620D01*
Y476057D01*
X540690D01*
Y479860D01*
X526110D01*
Y465780D01*
X540690D01*
Y469583D01*
X542620D01*
Y465780D01*
X557200D01*
Y469583D01*
X557910D01*
X559149Y469829D01*
X560199Y470531D01*
X564500Y474832D01*
X565770Y474306D01*
Y469789D01*
X564863Y469609D01*
X563603Y468767D01*
X558593Y463757D01*
X557751Y462497D01*
X557455Y461010D01*
Y447379D01*
X547911Y437835D01*
X435500D01*
Y451500D01*
X422320D01*
Y448195D01*
X415090D01*
Y451600D01*
X401010D01*
Y437020D01*
X415090D01*
Y440425D01*
X422320D01*
Y437020D01*
X424105D01*
Y431600D01*
X420700D01*
Y417520D01*
X435280D01*
Y430065D01*
X549520D01*
X551007Y430361D01*
X552267Y431203D01*
X564087Y443023D01*
X564929Y444283D01*
X565225Y445770D01*
Y459401D01*
X567959Y462135D01*
X575310D01*
X576087Y462290D01*
X584850D01*
Y467290D01*
Y475370D01*
X567368D01*
X566802Y476627D01*
X567318Y477290D01*
X584850D01*
Y482290D01*
Y490370D01*
X565770D01*
Y489567D01*
X557200D01*
Y495990D01*
D02*
G37*
G36*
X422910Y887919D02*
X283210D01*
X281971Y887673D01*
X280921Y886971D01*
X270761Y876811D01*
X270059Y875761D01*
X269813Y874522D01*
Y825754D01*
X270059Y824515D01*
X270761Y823465D01*
X278165Y816061D01*
X279215Y815359D01*
X280454Y815113D01*
X286342D01*
X286517Y814459D01*
X287844Y812161D01*
X289721Y810284D01*
X292019Y808957D01*
X294583Y808270D01*
X297237D01*
X299801Y808957D01*
X302099Y810284D01*
X303976Y812161D01*
X305303Y814459D01*
X305478Y815113D01*
X333825D01*
Y813290D01*
X341815D01*
Y815113D01*
X355930D01*
Y811220D01*
X370510D01*
Y813995D01*
X383908D01*
X384720Y813183D01*
X386756Y812340D01*
X388960D01*
X390996Y813183D01*
X392555Y814742D01*
X393398Y816778D01*
Y818982D01*
X392555Y821018D01*
X390996Y822577D01*
X388960Y823420D01*
X386756D01*
X384720Y822577D01*
X383908Y821765D01*
X370510D01*
Y825300D01*
X363256D01*
X363220Y825307D01*
X363184Y825300D01*
X355930D01*
Y821587D01*
X305478D01*
X305303Y822241D01*
X303976Y824539D01*
X302099Y826416D01*
X299801Y827743D01*
X297237Y828430D01*
X294583D01*
X292019Y827743D01*
X289721Y826416D01*
X287844Y824539D01*
X286517Y822241D01*
X286342Y821587D01*
X281795D01*
X276287Y827095D01*
Y873181D01*
X284551Y881445D01*
X421569D01*
X629731Y673283D01*
Y491275D01*
X628850Y490370D01*
X625542D01*
Y671826D01*
X625295Y673064D01*
X624594Y674115D01*
X421643Y877065D01*
X420593Y877767D01*
X419354Y878013D01*
X399288D01*
X398049Y877767D01*
X396999Y877065D01*
X387093Y867159D01*
X386391Y866109D01*
X386145Y864870D01*
Y847115D01*
X385167Y846137D01*
X370510D01*
Y849940D01*
X355930D01*
Y846587D01*
X341815D01*
Y847616D01*
X333825D01*
Y846587D01*
X305990D01*
Y853430D01*
X285830D01*
Y833270D01*
X305990D01*
Y840113D01*
X355930D01*
Y835860D01*
X370510D01*
Y839663D01*
X384568D01*
X384685Y839380D01*
X386244Y837821D01*
X388280Y836978D01*
X390484D01*
X392520Y837821D01*
X394079Y839380D01*
X394922Y841416D01*
Y843620D01*
X394079Y845656D01*
X392619Y847115D01*
Y863529D01*
X400629Y871539D01*
X418013D01*
X619067Y670485D01*
Y490370D01*
X609770D01*
Y482290D01*
Y469567D01*
X603490D01*
X602251Y469321D01*
X601201Y468619D01*
X599473Y466891D01*
X598771Y465841D01*
X598525Y464602D01*
Y458020D01*
X598771Y456781D01*
X599473Y455731D01*
X602173Y453031D01*
Y451600D01*
X598370D01*
Y447547D01*
X591620D01*
Y451500D01*
X578440D01*
Y437020D01*
X591620D01*
Y441073D01*
X598370D01*
Y437020D01*
X602553D01*
Y431600D01*
X598500D01*
Y417520D01*
X613080D01*
Y431600D01*
X609027D01*
Y437020D01*
X612450D01*
Y451600D01*
X608647D01*
Y454372D01*
X608401Y455611D01*
X607699Y456661D01*
X604999Y459361D01*
Y463093D01*
X609770D01*
Y462290D01*
X628850D01*
Y468093D01*
X633753D01*
X636267Y465579D01*
X637317Y464877D01*
X638556Y464631D01*
X680720D01*
X681959Y464877D01*
X683009Y465579D01*
X704088Y486658D01*
X734390D01*
Y475180D01*
X737795D01*
Y473710D01*
X738091Y472223D01*
X738933Y470963D01*
X745283Y464613D01*
X746543Y463771D01*
X748030Y463475D01*
X756350D01*
Y458680D01*
X760847D01*
X761333Y457507D01*
X759633Y455807D01*
X758791Y454547D01*
X758495Y453060D01*
Y451790D01*
X755340D01*
Y437210D01*
X769420D01*
Y451790D01*
X768263D01*
X767777Y452963D01*
X769850Y455036D01*
X770280Y455205D01*
X771181D01*
X772085Y454275D01*
Y451790D01*
X771090D01*
Y437210D01*
X785170D01*
Y451790D01*
X779855D01*
Y455930D01*
X779559Y457417D01*
X779426Y457616D01*
X778930Y458680D01*
Y477760D01*
X756350D01*
Y471245D01*
X749639D01*
X746877Y474007D01*
X747363Y475180D01*
X748970D01*
Y486658D01*
X765739D01*
X766978Y486904D01*
X768028Y487606D01*
X776429Y496007D01*
X777131Y497057D01*
X777377Y498296D01*
Y502680D01*
X778930D01*
Y521760D01*
X770877D01*
Y528700D01*
X771480D01*
Y543180D01*
X768079D01*
Y551456D01*
X769491Y552868D01*
X770334Y554904D01*
Y557108D01*
X769491Y559144D01*
X767932Y560703D01*
X765896Y561546D01*
X763692D01*
X761656Y560703D01*
X760097Y559144D01*
X759254Y557108D01*
Y554904D01*
X760097Y552868D01*
X761605Y551361D01*
Y543180D01*
X758300D01*
Y528700D01*
X764403D01*
Y521760D01*
X756350D01*
Y516105D01*
X748440D01*
X746953Y515809D01*
X745693Y514967D01*
X738933Y508207D01*
X738091Y506947D01*
X737795Y505460D01*
Y505260D01*
X734390D01*
Y493132D01*
X702747D01*
X701508Y492886D01*
X700458Y492184D01*
X679379Y471105D01*
X663427D01*
X663110Y472071D01*
X663090Y472375D01*
X664589Y473874D01*
X665432Y475910D01*
Y478114D01*
X664589Y480150D01*
X663030Y481709D01*
X660994Y482552D01*
X658790D01*
X656754Y481709D01*
X655195Y480150D01*
X655089Y479892D01*
X653670D01*
Y486808D01*
X639190D01*
Y479892D01*
X635228D01*
X634742Y481065D01*
X635257Y481581D01*
X635959Y482631D01*
X636205Y483870D01*
Y674624D01*
X635959Y675863D01*
X635257Y676913D01*
X425199Y886971D01*
X424149Y887673D01*
X422910Y887919D01*
D02*
G37*
G36*
X518754Y752808D02*
X516550D01*
X514514Y751965D01*
X512955Y750406D01*
X512112Y748370D01*
Y747222D01*
X434387Y669497D01*
X433545Y668237D01*
X433249Y666750D01*
Y552153D01*
X353336Y472240D01*
X344500D01*
Y469085D01*
X336681D01*
X335194Y468789D01*
X333934Y467947D01*
X328341Y462355D01*
X326156D01*
X325770Y463793D01*
X323955Y466937D01*
X321387Y469505D01*
X318243Y471320D01*
X314736Y472260D01*
X311105D01*
X307597Y471320D01*
X304453Y469505D01*
X301885Y466937D01*
X300070Y463793D01*
X299130Y460285D01*
Y456655D01*
X300070Y453147D01*
X301885Y450003D01*
X304453Y447435D01*
X307597Y445620D01*
X311105Y444680D01*
X314736D01*
X318243Y445620D01*
X321387Y447435D01*
X323955Y450003D01*
X325770Y453147D01*
X326156Y454585D01*
X329951D01*
X331437Y454881D01*
X332697Y455723D01*
X338290Y461315D01*
X344500D01*
Y458160D01*
X359080D01*
Y466996D01*
X439881Y547797D01*
X440723Y549057D01*
X441019Y550544D01*
Y665141D01*
X517606Y741728D01*
X518754D01*
X520790Y742571D01*
X522349Y744130D01*
X523192Y746166D01*
Y748370D01*
X522349Y750406D01*
X520790Y751965D01*
X518754Y752808D01*
D02*
G37*
G36*
X540690Y463860D02*
X526110D01*
Y458659D01*
X521741D01*
X520282Y460119D01*
X518246Y460962D01*
X516042D01*
X514006Y460119D01*
X512447Y458560D01*
X511604Y456524D01*
Y454320D01*
X512447Y452284D01*
X514006Y450725D01*
X516042Y449882D01*
X518246D01*
X520282Y450725D01*
X521741Y452185D01*
X526110D01*
Y449780D01*
X540690D01*
Y463860D01*
D02*
G37*
G36*
X359080Y456240D02*
X344500D01*
Y453085D01*
X339980D01*
X338493Y452789D01*
X337233Y451947D01*
X310763Y425477D01*
X309921Y424217D01*
X309625Y422730D01*
Y421064D01*
X307597Y420520D01*
X304453Y418705D01*
X301885Y416137D01*
X300070Y412993D01*
X299130Y409486D01*
Y405854D01*
X300070Y402347D01*
X301885Y399203D01*
X304453Y396635D01*
X307597Y394820D01*
X311105Y393880D01*
X314736D01*
X318243Y394820D01*
X321387Y396635D01*
X323955Y399203D01*
X325770Y402347D01*
X326710Y405854D01*
Y409486D01*
X325770Y412993D01*
X323955Y416137D01*
X321387Y418705D01*
X318463Y420393D01*
X318189Y421201D01*
X318137Y421863D01*
X341589Y445315D01*
X344500D01*
Y442160D01*
X359080D01*
Y456240D01*
D02*
G37*
G36*
X884514Y423370D02*
X882310D01*
X880274Y422527D01*
X878715Y420968D01*
X878531Y420523D01*
X876318Y418310D01*
X872160D01*
Y420170D01*
X857580D01*
Y406090D01*
X872160D01*
Y407951D01*
X878463D01*
X880445Y408345D01*
X882125Y409468D01*
X885255Y412597D01*
X886550Y413133D01*
X888109Y414692D01*
X888952Y416728D01*
Y418932D01*
X888109Y420968D01*
X886550Y422527D01*
X884514Y423370D01*
D02*
G37*
G36*
X1123950Y464895D02*
X1079500D01*
X1078013Y464599D01*
X1076753Y463757D01*
X1069133Y456137D01*
X1068291Y454877D01*
X1067995Y453390D01*
Y404800D01*
X1064940D01*
Y390220D01*
X1091520D01*
Y393625D01*
X1097960D01*
Y391490D01*
X1100865D01*
Y377340D01*
X1101161Y375853D01*
X1102003Y374593D01*
X1120065Y356531D01*
Y333079D01*
X1119092Y332106D01*
X1117712D01*
X1116226Y331810D01*
X1114966Y330968D01*
X1114605Y330607D01*
X1113367Y331845D01*
X1110223Y333660D01*
X1106715Y334600D01*
X1103084D01*
X1099577Y333660D01*
X1096433Y331845D01*
X1093865Y329277D01*
X1092050Y326133D01*
X1091110Y322626D01*
Y318995D01*
X1092050Y315487D01*
X1093865Y312343D01*
X1096433Y309775D01*
X1099577Y307960D01*
X1103084Y307020D01*
X1106715D01*
X1110223Y307960D01*
X1111512Y308704D01*
X1132133Y288083D01*
X1133393Y287241D01*
X1134880Y286945D01*
X1164590D01*
X1166077Y287241D01*
X1167337Y288083D01*
X1182577Y303323D01*
X1183419Y304583D01*
X1183715Y306070D01*
Y350943D01*
X1185401Y352629D01*
X1190000D01*
Y348974D01*
X1206080D01*
Y364054D01*
X1190000D01*
Y360399D01*
X1183792D01*
X1182305Y360103D01*
X1181045Y359261D01*
X1177083Y355299D01*
X1176241Y354039D01*
X1175945Y352552D01*
Y307679D01*
X1162981Y294715D01*
X1136489D01*
X1117006Y314198D01*
X1117750Y315487D01*
X1118690Y318995D01*
Y322626D01*
X1118462Y323477D01*
X1119322Y324337D01*
X1120701D01*
X1122188Y324632D01*
X1123448Y325474D01*
X1126697Y328723D01*
X1127539Y329983D01*
X1127835Y331470D01*
Y358140D01*
X1127539Y359627D01*
X1126697Y360887D01*
X1108635Y378949D01*
Y391490D01*
X1113865D01*
Y380850D01*
X1114161Y379363D01*
X1115003Y378103D01*
X1130225Y362881D01*
Y330200D01*
X1130521Y328713D01*
X1131363Y327453D01*
X1137713Y321103D01*
X1138973Y320261D01*
X1140460Y319965D01*
X1141910D01*
Y318995D01*
X1142850Y315487D01*
X1144665Y312343D01*
X1147233Y309775D01*
X1150377Y307960D01*
X1153885Y307020D01*
X1157515D01*
X1161023Y307960D01*
X1164167Y309775D01*
X1166735Y312343D01*
X1168550Y315487D01*
X1169490Y318995D01*
Y322626D01*
X1168550Y326133D01*
X1166735Y329277D01*
X1164167Y331845D01*
X1161023Y333660D01*
X1157515Y334600D01*
X1153885D01*
X1150377Y333660D01*
X1147233Y331845D01*
X1144665Y329277D01*
X1143775Y327735D01*
X1142069D01*
X1137995Y331809D01*
Y364490D01*
X1137699Y365977D01*
X1136857Y367237D01*
X1121635Y382459D01*
Y391490D01*
X1124540D01*
Y394895D01*
X1132250D01*
Y392760D01*
X1135155D01*
Y384198D01*
X1135451Y382711D01*
X1136293Y381451D01*
X1145079Y372665D01*
X1146339Y371823D01*
X1147826Y371527D01*
X1190000D01*
Y367974D01*
X1206080D01*
Y383054D01*
X1190000D01*
Y379297D01*
X1149435D01*
X1142925Y385807D01*
Y392760D01*
X1145830D01*
Y407340D01*
X1132250D01*
Y402665D01*
X1124540D01*
Y406070D01*
X1121485D01*
Y430075D01*
X1123640D01*
Y430075D01*
X1124260D01*
Y430075D01*
X1136340D01*
Y436355D01*
X1156860D01*
Y431120D01*
X1169595D01*
Y420190D01*
X1165940D01*
Y406110D01*
X1181020D01*
Y420190D01*
X1177365D01*
Y431120D01*
X1179940D01*
Y449200D01*
X1156860D01*
Y444125D01*
X1136340D01*
Y450405D01*
X1134185D01*
Y454660D01*
X1133889Y456147D01*
X1133047Y457407D01*
X1126697Y463757D01*
X1125437Y464599D01*
X1123950Y464895D01*
D02*
G37*
G36*
X593070Y422230D02*
X565990D01*
Y395650D01*
X593070D01*
Y405055D01*
X598500D01*
Y401520D01*
X601829D01*
Y334046D01*
X600391Y333660D01*
X597246Y331845D01*
X594679Y329277D01*
X592863Y326133D01*
X591923Y322626D01*
Y318995D01*
X592863Y315487D01*
X594679Y312343D01*
X597246Y309775D01*
X600391Y307960D01*
X603898Y307020D01*
X607529D01*
X611036Y307960D01*
X614181Y309775D01*
X616748Y312343D01*
X618564Y315487D01*
X619503Y318995D01*
Y322626D01*
X618564Y326133D01*
X616748Y329277D01*
X614181Y331845D01*
X611036Y333660D01*
X609598Y334046D01*
Y401520D01*
X613080D01*
Y415600D01*
X598500D01*
Y412825D01*
X593070D01*
Y422230D01*
D02*
G37*
G36*
X416540D02*
X389460D01*
Y395650D01*
X416540D01*
Y405055D01*
X420700D01*
Y401520D01*
X423182D01*
Y334046D01*
X421744Y333660D01*
X418599Y331845D01*
X416032Y329277D01*
X414216Y326133D01*
X413277Y322626D01*
Y318995D01*
X414216Y315487D01*
X416032Y312343D01*
X418599Y309775D01*
X421744Y307960D01*
X425251Y307020D01*
X428882D01*
X432389Y307960D01*
X435534Y309775D01*
X438101Y312343D01*
X439917Y315487D01*
X440857Y318995D01*
Y322626D01*
X439917Y326133D01*
X438101Y329277D01*
X435534Y331845D01*
X432389Y333660D01*
X430951Y334046D01*
Y401520D01*
X435280D01*
Y415600D01*
X420700D01*
Y412825D01*
X416540D01*
Y422230D01*
D02*
G37*
G36*
X801170Y451790D02*
X787090D01*
Y437210D01*
X790245D01*
Y422230D01*
X775990D01*
Y395650D01*
X783515D01*
Y335745D01*
X783049Y335652D01*
X780335Y334528D01*
X777892Y332895D01*
X775815Y330818D01*
X774183Y328375D01*
X773058Y325661D01*
X772485Y322779D01*
Y319841D01*
X773058Y316959D01*
X774183Y314245D01*
X775815Y311802D01*
X777892Y309725D01*
X780335Y308092D01*
X783049Y306968D01*
X785931Y306395D01*
X788869D01*
X791750Y306968D01*
X794465Y308092D01*
X796908Y309725D01*
X798985Y311802D01*
X800617Y314245D01*
X801742Y316959D01*
X802315Y319841D01*
Y322779D01*
X801742Y325661D01*
X800617Y328375D01*
X798985Y330818D01*
X796908Y332895D01*
X794465Y334528D01*
X791750Y335652D01*
X791285Y335745D01*
Y395650D01*
X803070D01*
Y422230D01*
X798015D01*
Y437210D01*
X801170D01*
Y451790D01*
D02*
G37*
G36*
X753420D02*
X739340D01*
Y437210D01*
X742495D01*
Y422230D01*
X741250D01*
Y395650D01*
X750905D01*
Y371589D01*
X737663Y358347D01*
X736821Y357087D01*
X736525Y355600D01*
Y336225D01*
X721685D01*
Y306395D01*
X751515D01*
Y336225D01*
X744295D01*
Y353991D01*
X757537Y367233D01*
X758379Y368493D01*
X758675Y369980D01*
Y395650D01*
X768330D01*
Y422230D01*
X750265D01*
Y437210D01*
X753420D01*
Y451790D01*
D02*
G37*
G36*
X661248Y459946D02*
X659044D01*
X657008Y459103D01*
X655449Y457544D01*
X654606Y455508D01*
Y453304D01*
X655449Y451268D01*
X656007Y450710D01*
Y437121D01*
X641116Y422230D01*
X619780D01*
Y395650D01*
X629435D01*
Y369980D01*
X629731Y368493D01*
X630573Y367233D01*
X652629Y345178D01*
Y334046D01*
X651191Y333660D01*
X648046Y331845D01*
X645479Y329277D01*
X643663Y326133D01*
X642723Y322626D01*
Y318995D01*
X643663Y315487D01*
X645479Y312343D01*
X646716Y311105D01*
X639977Y304367D01*
X499804D01*
X489972Y314198D01*
X490717Y315487D01*
X491657Y318995D01*
Y322626D01*
X490717Y326133D01*
X488901Y329277D01*
X486334Y331845D01*
X483189Y333660D01*
X481751Y334046D01*
Y352713D01*
X481456Y354200D01*
X480614Y355460D01*
X456865Y379209D01*
Y395650D01*
X466520D01*
Y422230D01*
X439440D01*
Y395650D01*
X449095D01*
Y377600D01*
X449391Y376113D01*
X450233Y374853D01*
X473982Y351104D01*
Y334046D01*
X472544Y333660D01*
X469399Y331845D01*
X466832Y329277D01*
X465016Y326133D01*
X464077Y322626D01*
Y318995D01*
X465016Y315487D01*
X466832Y312343D01*
X469399Y309775D01*
X472544Y307960D01*
X476051Y307020D01*
X479682D01*
X483189Y307960D01*
X484479Y308704D01*
X495448Y297735D01*
X496708Y296893D01*
X498195Y296597D01*
X641587D01*
X643073Y296893D01*
X644333Y297735D01*
X653846Y307248D01*
X654698Y307020D01*
X658329D01*
X661836Y307960D01*
X664981Y309775D01*
X667548Y312343D01*
X669364Y315487D01*
X670303Y318995D01*
Y322626D01*
X669364Y326133D01*
X667548Y329277D01*
X664981Y331845D01*
X661836Y333660D01*
X660398Y334046D01*
Y346787D01*
X660102Y348273D01*
X659260Y349534D01*
X637205Y371589D01*
Y395650D01*
X646860D01*
Y416986D01*
X662639Y432765D01*
X663481Y434025D01*
X663777Y435512D01*
Y450202D01*
X664843Y451268D01*
X665686Y453304D01*
Y455508D01*
X664843Y457544D01*
X663284Y459103D01*
X661248Y459946D01*
D02*
G37*
G36*
X1291611Y330990D02*
X1286489D01*
X1281430Y330189D01*
X1276559Y328606D01*
X1271995Y326281D01*
X1267852Y323270D01*
X1264230Y319648D01*
X1261219Y315505D01*
X1258894Y310941D01*
X1257311Y306070D01*
X1256510Y301011D01*
Y295889D01*
X1257311Y290830D01*
X1258894Y285959D01*
X1261219Y281395D01*
X1264230Y277252D01*
X1267852Y273630D01*
X1271995Y270619D01*
X1276559Y268294D01*
X1281430Y266711D01*
X1286489Y265910D01*
X1291611D01*
X1296670Y266711D01*
X1301541Y268294D01*
X1306105Y270619D01*
X1310248Y273630D01*
X1313870Y277252D01*
X1316881Y281395D01*
X1319206Y285959D01*
X1320789Y290830D01*
X1321590Y295889D01*
Y301011D01*
X1320789Y306070D01*
X1319206Y310941D01*
X1316881Y315505D01*
X1313870Y319648D01*
X1310248Y323270D01*
X1306105Y326281D01*
X1301541Y328606D01*
X1296670Y330189D01*
X1291611Y330990D01*
D02*
G37*
G36*
X301011D02*
X295889D01*
X290830Y330189D01*
X285959Y328606D01*
X281395Y326281D01*
X277252Y323270D01*
X273630Y319648D01*
X270619Y315505D01*
X268294Y310941D01*
X266711Y306070D01*
X265910Y301011D01*
Y295889D01*
X266711Y290830D01*
X268294Y285959D01*
X270619Y281395D01*
X273630Y277252D01*
X277252Y273630D01*
X281395Y270619D01*
X285959Y268294D01*
X290830Y266711D01*
X295889Y265910D01*
X301011D01*
X306070Y266711D01*
X310941Y268294D01*
X315505Y270619D01*
X319648Y273630D01*
X323270Y277252D01*
X326281Y281395D01*
X328606Y285959D01*
X330189Y290830D01*
X330990Y295889D01*
Y301011D01*
X330189Y306070D01*
X328606Y310941D01*
X326281Y315505D01*
X323270Y319648D01*
X319648Y323270D01*
X315505Y326281D01*
X310941Y328606D01*
X306070Y330189D01*
X301011Y330990D01*
D02*
G37*
%LPD*%
G36*
X961110Y1202051D02*
X850669D01*
X849990Y1203321D01*
X850197Y1203631D01*
X933683D01*
X935169Y1203927D01*
X936430Y1204769D01*
X941626Y1209965D01*
X961110D01*
Y1202051D01*
D02*
G37*
G36*
X786110Y1219510D02*
Y1206810D01*
Y1192335D01*
X716581D01*
X716095Y1193508D01*
X721925Y1199338D01*
X743458D01*
X744449Y1199535D01*
X745289Y1200097D01*
X755961Y1210768D01*
X764032D01*
X765023Y1210965D01*
X765863Y1211527D01*
X784409Y1230072D01*
X786110D01*
Y1219510D01*
D02*
G37*
G36*
X782828Y1245870D02*
X786110D01*
Y1244910D01*
X806140D01*
X808482Y1242568D01*
Y1235202D01*
X807310Y1234030D01*
X806190Y1233590D01*
Y1233590D01*
X806190Y1233590D01*
X786110D01*
Y1232662D01*
X783336D01*
X764032Y1213358D01*
X754888D01*
X743458Y1201928D01*
X720852D01*
X711259Y1192335D01*
X700008D01*
X698521Y1192039D01*
X697261Y1191197D01*
X671115Y1165051D01*
X670273Y1163791D01*
X669977Y1162304D01*
Y1151053D01*
X647446Y1128522D01*
X590296D01*
Y1154176D01*
X593344Y1157224D01*
X601207D01*
X604410Y1160427D01*
Y1174370D01*
X606712Y1176672D01*
X659782D01*
X699516Y1216406D01*
Y1228852D01*
X706374Y1235710D01*
X736346D01*
X750062Y1249426D01*
X779272D01*
X782828Y1245870D01*
D02*
G37*
G36*
X786110Y1117910D02*
Y1116405D01*
X757936D01*
X756449Y1116109D01*
X755189Y1115267D01*
X748707Y1108785D01*
X734396D01*
Y1112190D01*
X718097D01*
Y1115568D01*
X718094Y1115582D01*
X718097Y1115595D01*
Y1118438D01*
X734650D01*
Y1121843D01*
X786110D01*
Y1117910D01*
D02*
G37*
G36*
X360172Y1190752D02*
Y1151382D01*
X358902Y1150112D01*
X339852D01*
X338328Y1148588D01*
Y1139444D01*
X351790Y1125982D01*
X357189D01*
X358140Y1125793D01*
X372553D01*
X376682Y1121664D01*
Y1097280D01*
X371094Y1091692D01*
X338582D01*
X326136Y1104138D01*
X287782D01*
X278384Y1113536D01*
Y1143508D01*
X284734Y1149858D01*
Y1150620D01*
X298196D01*
X340614Y1193038D01*
X357886D01*
X360172Y1190752D01*
D02*
G37*
G36*
X786110Y1105210D02*
Y1103451D01*
X768604D01*
X767117Y1103155D01*
X765857Y1102313D01*
X749469Y1085925D01*
X734396D01*
Y1089330D01*
X718097D01*
Y1097610D01*
X734396D01*
Y1101015D01*
X750316D01*
X751803Y1101311D01*
X753063Y1102153D01*
X759545Y1108635D01*
X786110D01*
Y1105210D01*
D02*
G37*
G36*
X810693Y1106339D02*
Y1058249D01*
X798237Y1045793D01*
X729742D01*
X728255Y1045497D01*
X726995Y1044655D01*
X716581Y1034241D01*
X715739Y1032981D01*
X715443Y1031494D01*
Y1020966D01*
X714631Y1020154D01*
X713788Y1018118D01*
Y1015914D01*
X714631Y1013878D01*
X715483Y1013027D01*
X714957Y1011757D01*
X712809D01*
X708735Y1015831D01*
Y1029123D01*
X730353Y1050741D01*
X731195Y1052001D01*
X731491Y1053488D01*
Y1056970D01*
X734396D01*
Y1071550D01*
X731491D01*
Y1074750D01*
X734396D01*
Y1078155D01*
X751078D01*
X752565Y1078451D01*
X753825Y1079293D01*
X770213Y1095681D01*
X786110D01*
Y1079810D01*
X806190D01*
Y1092510D01*
Y1108365D01*
X808667D01*
X810693Y1106339D01*
D02*
G37*
G36*
X682105Y1163257D02*
X681915Y1162304D01*
Y1015886D01*
X681103Y1015074D01*
X680571Y1013789D01*
X679196D01*
X678559Y1015328D01*
X677747Y1016140D01*
Y1160695D01*
X680935Y1163883D01*
X682105Y1163257D01*
D02*
G37*
G36*
X616662Y991051D02*
Y976433D01*
X609797Y969568D01*
X599186D01*
X598195Y969371D01*
X597355Y968809D01*
X596829Y968283D01*
X596720Y968120D01*
X595972Y968001D01*
X595547Y968011D01*
X595207Y968128D01*
X595125Y968251D01*
X592077Y971299D01*
X591851Y971450D01*
X592236Y972720D01*
X607876D01*
Y990300D01*
X604963D01*
Y992607D01*
X606423Y994066D01*
X607266Y996102D01*
Y998306D01*
X607022Y998896D01*
X608098Y999615D01*
X616662Y991051D01*
D02*
G37*
G36*
X541274Y1165860D02*
Y1129284D01*
X552704D01*
X557276Y1124712D01*
Y1061466D01*
X570992Y1047750D01*
X611378D01*
X613918Y1050290D01*
Y1051090D01*
X614280D01*
Y1065384D01*
X615442Y1066546D01*
X639444D01*
Y1065894D01*
X653924D01*
Y1066546D01*
X657860D01*
X659892Y1064514D01*
Y1051052D01*
X657098Y1048258D01*
X639572D01*
X623824Y1032510D01*
Y1020318D01*
X646176Y997966D01*
X792496D01*
X810386Y980076D01*
X824866D01*
X828294Y976648D01*
Y950615D01*
X825454D01*
Y950928D01*
X807874D01*
Y950928D01*
X807081Y950599D01*
X804926Y952754D01*
Y968756D01*
X789940Y983742D01*
X650748D01*
X633984Y966978D01*
X629920D01*
Y948182D01*
X627126Y945388D01*
X600456D01*
X599071Y946774D01*
X598376Y947720D01*
X598376D01*
X598376Y947720D01*
Y951519D01*
X599646Y952198D01*
X600354Y951725D01*
X602336Y951330D01*
X604318Y951725D01*
X604339Y951739D01*
X623066D01*
X625048Y952133D01*
X626729Y953255D01*
X627136Y953663D01*
X628259Y955344D01*
X628653Y957326D01*
X628259Y959308D01*
X627136Y960988D01*
X625456Y962111D01*
X623474Y962505D01*
X621492Y962111D01*
X621471Y962097D01*
X602744D01*
X602744Y962097D01*
X600762Y961703D01*
X599646Y960958D01*
X598376Y961637D01*
Y965300D01*
X598376D01*
X598660Y966452D01*
X599186Y966978D01*
X610870D01*
X619252Y975360D01*
Y992124D01*
X603758Y1007618D01*
Y1008634D01*
X545084D01*
X505968Y1047750D01*
Y1085850D01*
X456946D01*
X438912Y1103884D01*
X405892D01*
X405590Y1104186D01*
Y1118320D01*
X405130D01*
Y1126490D01*
X395732Y1135888D01*
X364490Y1135888D01*
X361188Y1139190D01*
Y1148736D01*
X362003Y1149551D01*
X362565Y1150391D01*
X362762Y1151382D01*
Y1190752D01*
X362627Y1191429D01*
X364744Y1193546D01*
X513588D01*
X541274Y1165860D01*
D02*
G37*
G36*
X723775Y957998D02*
X724333Y957440D01*
Y951230D01*
X724629Y949743D01*
X725471Y948483D01*
X784785Y889169D01*
Y836168D01*
X785081Y834681D01*
X785923Y833421D01*
X892322Y727023D01*
X891796Y725753D01*
X887307D01*
X778839Y834221D01*
Y890270D01*
X778543Y891757D01*
X777701Y893017D01*
X720673Y950045D01*
Y956932D01*
X721485Y957744D01*
X721995Y958977D01*
X723370D01*
X723775Y957998D01*
D02*
G37*
G36*
X1016433Y685461D02*
Y645414D01*
X1016729Y643927D01*
X1017571Y642667D01*
X1126415Y533823D01*
Y504645D01*
X1124260D01*
Y504645D01*
X1123640D01*
Y504645D01*
X1121485D01*
Y535178D01*
X1121189Y536665D01*
X1120347Y537925D01*
X1015059Y643213D01*
Y677962D01*
X1014763Y679449D01*
X1013921Y680709D01*
X970551Y724079D01*
X971077Y725349D01*
X976545D01*
X1016433Y685461D01*
D02*
G37*
G36*
X1113715Y533569D02*
Y504645D01*
X1111560D01*
Y504645D01*
X1110940D01*
Y504645D01*
X1098860D01*
Y504645D01*
X1098240D01*
Y504645D01*
X1096085D01*
Y549540D01*
X1097258Y550026D01*
X1113715Y533569D01*
D02*
G37*
G36*
X314850Y965925D02*
Y962085D01*
X314534D01*
X313250Y961829D01*
X312162Y961102D01*
X310516Y959456D01*
X309789Y958368D01*
X309534Y957085D01*
Y955842D01*
X309573Y955641D01*
Y949609D01*
X309829Y948325D01*
X310556Y947237D01*
X311435Y946358D01*
X312523Y945631D01*
X313807Y945376D01*
X314850D01*
Y936420D01*
X313580Y935741D01*
X313538Y935769D01*
X312052Y936065D01*
X301329D01*
X298525Y938869D01*
Y950595D01*
Y962321D01*
X301329Y965125D01*
X310782D01*
X312268Y965421D01*
X313529Y966263D01*
X313677Y966411D01*
X314850Y965925D01*
D02*
G37*
G36*
X976884Y962406D02*
Y930656D01*
X971804Y925576D01*
X905764D01*
X900684Y930656D01*
Y964946D01*
X903224Y967486D01*
X971804D01*
X976884Y962406D01*
D02*
G37*
G36*
X619506Y874776D02*
Y808736D01*
X614426Y803656D01*
X580136D01*
X577596Y806196D01*
Y874776D01*
X582676Y879856D01*
X614426D01*
X619506Y874776D01*
D02*
G37*
G36*
X1177541Y630171D02*
X1178591Y629469D01*
X1179830Y629223D01*
X1183300D01*
Y622880D01*
Y607757D01*
X1174821D01*
X1160207Y622371D01*
Y645845D01*
X1161380Y646331D01*
X1177541Y630171D01*
D02*
G37*
G36*
X756350Y502680D02*
X770903D01*
Y499637D01*
X764398Y493132D01*
X748970D01*
Y505260D01*
X748633D01*
X748147Y506433D01*
X750049Y508335D01*
X756350D01*
Y502680D01*
D02*
G37*
G36*
X1126415Y453051D02*
Y450405D01*
X1124260D01*
Y450405D01*
X1123640D01*
Y450405D01*
X1111560D01*
Y450405D01*
X1110940D01*
Y450405D01*
X1098860D01*
Y430075D01*
X1101015D01*
Y406070D01*
X1097960D01*
Y401395D01*
X1091520D01*
Y404800D01*
X1075765D01*
Y451781D01*
X1081109Y457125D01*
X1122341D01*
X1126415Y453051D01*
D02*
G37*
D11*
X354940Y1109780D02*
X390550D01*
X354330Y1110390D02*
X354940Y1109780D01*
X323400Y964040D02*
X356170D01*
X361990Y969360D02*
Y969860D01*
X359625Y966995D02*
X361990Y969360D01*
X359125Y966995D02*
X359625D01*
X356170Y964040D02*
X359125Y966995D01*
X422910Y884682D02*
X632968Y674624D01*
X359990Y818840D02*
X363220Y822070D01*
X283210Y884682D02*
X422910D01*
X419354Y874776D02*
X622304Y671826D01*
X399288Y874776D02*
X419354D01*
X389382Y864870D02*
X399288Y874776D01*
X632968Y483870D02*
Y674624D01*
X622304Y486741D02*
Y671826D01*
X630428Y481330D02*
X632968Y483870D01*
X619310Y481330D02*
X630428D01*
X389382Y842518D02*
Y864870D01*
X1195939Y774300D02*
X1209892Y760347D01*
X1183130Y774300D02*
X1195939D01*
X1201674Y789940D02*
X1210056D01*
X1195314Y796300D02*
X1201674Y789940D01*
X1183130Y785300D02*
X1197170D01*
X1209001Y777279D02*
X1209294Y776986D01*
X1197170Y785300D02*
X1205191Y777279D01*
X1209001D01*
X1183130Y796300D02*
X1195314D01*
X1002299Y871205D02*
X1011204Y862300D01*
X993394Y880110D02*
X1002299Y871205D01*
Y852947D02*
Y871205D01*
X1002284Y852932D02*
X1002299Y852947D01*
X997204Y898652D02*
Y1040130D01*
Y887476D02*
Y898652D01*
X1008126D02*
X1008380Y898906D01*
X997204Y898652D02*
X1008126D01*
X987552Y836930D02*
Y1037082D01*
X950976Y1073658D02*
Y1146302D01*
Y1073658D02*
X987552Y1037082D01*
X993394Y880110D02*
Y1038098D01*
X954786Y1076706D02*
X993394Y1038098D01*
X954786Y1076706D02*
Y1121156D01*
X958596Y1078738D02*
X997204Y1040130D01*
X958596Y1078738D02*
Y1111218D01*
X958580Y1124950D02*
X971150D01*
X954786Y1121156D02*
X958580Y1124950D01*
X950976Y1146302D02*
X955024Y1150350D01*
X958596Y1111218D02*
X959628Y1112250D01*
X856488Y578738D02*
X856870Y579120D01*
X856488Y562102D02*
Y578738D01*
X911098Y760476D02*
X987552Y836930D01*
X955024Y1150350D02*
X971150D01*
X660400Y1114806D02*
Y1147668D01*
X714860Y1064514D02*
Y1115568D01*
X698754D02*
X714833D01*
X714860Y1115595D01*
Y1125728D01*
X714606Y1064260D02*
X714860Y1064514D01*
X1260222Y1100328D02*
X1260730Y1099820D01*
X1164336Y1100328D02*
X1260222D01*
X1070630Y901800D02*
Y1006622D01*
X1164336Y1100328D01*
X1260476Y1124966D02*
X1260730Y1125220D01*
X1163828Y1124966D02*
X1260476D01*
X1059630Y901800D02*
Y1020768D01*
X1163828Y1124966D01*
X619635Y476655D02*
X659535D01*
X619310Y476330D02*
X619635Y476655D01*
X659535D02*
X659892Y477012D01*
X638556Y467868D02*
X680720D01*
X619310Y471330D02*
X635094D01*
X638556Y467868D01*
X702747Y489895D02*
X765739D01*
X680720Y467868D02*
X702747Y489895D01*
X774140Y498296D02*
Y512220D01*
X765739Y489895D02*
X774140Y498296D01*
X619310Y471330D02*
Y471343D01*
X618998Y471655D02*
X619310Y471343D01*
X773430Y955548D02*
X791004D01*
X897509Y1114679D02*
X935609D01*
X897382Y1114552D02*
X897509Y1114679D01*
X935609D02*
X935736Y1114806D01*
X997204Y887476D02*
X1011380Y873300D01*
X1029208Y906272D02*
X1066546Y868934D01*
X1027810Y928370D02*
X1029208Y926972D01*
Y906272D02*
Y926972D01*
X1066546Y868934D02*
X1090422D01*
X1092630Y871142D02*
Y901800D01*
X1090422Y868934D02*
X1092630Y871142D01*
X273050Y825754D02*
Y874522D01*
X283210Y884682D01*
X343662Y867664D02*
Y868680D01*
X352426Y858900D02*
X363220D01*
X343662Y867664D02*
X352426Y858900D01*
X295910Y818350D02*
X358252D01*
X273050Y825754D02*
X280454Y818350D01*
X295910D01*
X389000Y842900D02*
X389382Y842518D01*
X363220Y842900D02*
X389000D01*
X971150Y1086850D02*
X996204D01*
X998982Y1077214D02*
Y1084072D01*
X996204Y1086850D02*
X998982Y1084072D01*
X959628Y1112250D02*
X971150D01*
X447040Y977646D02*
X450995Y973691D01*
X468389D01*
X447040Y977646D02*
Y996696D01*
X1003300Y1220470D02*
X1018190D01*
X1019810Y1237945D02*
Y1242060D01*
X1018190Y1220470D02*
X1019810Y1222090D01*
Y1237945D01*
X1021260Y1239395D02*
X1022225D01*
X1024890Y1242060D02*
X1100610D01*
X1019810Y1237945D02*
X1021260Y1239395D01*
X1023675Y1242060D02*
X1024890D01*
X1022225Y1239395D02*
Y1240610D01*
X1019810Y1242060D02*
X1024890D01*
X1022225Y1240610D02*
X1023675Y1242060D01*
X1008538Y1265586D02*
X1111346D01*
X1001268Y1258316D02*
X1008538Y1265586D01*
X1123570Y1242060D02*
X1123696Y1242186D01*
Y1253236D01*
X1111346Y1265586D02*
X1123696Y1253236D01*
X1001268Y1257036D02*
Y1258316D01*
X1003810Y1242060D02*
Y1254494D01*
X1001268Y1257036D02*
X1003810Y1254494D01*
X796150Y1226550D02*
X818896D01*
X767640Y512220D02*
Y532540D01*
X764890Y535290D02*
X767640Y532540D01*
X764890Y535290D02*
Y535940D01*
X764842Y535988D02*
X764890Y535940D01*
X764842Y535988D02*
Y555958D01*
X764794Y556006D02*
X764842Y555958D01*
X532002Y455422D02*
X533400Y456820D01*
X517144Y455422D02*
X532002D01*
X549910Y504950D02*
Y521208D01*
X549402Y521716D02*
X549910Y521208D01*
X945516Y903478D02*
X946024Y903986D01*
X930402Y903478D02*
X945516D01*
X791004Y955548D02*
X791664Y954888D01*
X601726Y982120D02*
Y997204D01*
Y982120D02*
X602336Y981510D01*
X552196Y832230D02*
X552704Y832738D01*
Y848868D01*
X468389Y960991D02*
X468788Y961390D01*
X489458D01*
X618490Y1075436D02*
Y1084880D01*
X616458Y1073404D02*
X618490Y1075436D01*
X596296Y1066450D02*
X603250Y1073404D01*
X616458D01*
X589280Y1066450D02*
X596296D01*
X608990Y1084880D02*
Y1085767D01*
X606875Y1087882D02*
X608990Y1085767D01*
X597962Y1087882D02*
X606875D01*
X589280Y1079850D02*
X589930D01*
X597962Y1087882D01*
X1139570Y1222470D02*
X1141634Y1224534D01*
X1139190Y1222090D02*
X1139570Y1222470D01*
X1141634Y1224534D02*
X1160272D01*
X1011380Y873300D02*
X1024130D01*
X1011204Y862300D02*
X1024130D01*
X1035558Y1019682D02*
Y1066800D01*
X1002808Y1099550D02*
X1035558Y1066800D01*
X971150Y1099550D02*
X1002808D01*
X1038758Y966302D02*
Y1000482D01*
X1035558Y1003682D02*
X1038758Y1000482D01*
X1029208Y929768D02*
Y945302D01*
X1027810Y928370D02*
X1029208Y929768D01*
X407760Y1230920D02*
Y1250950D01*
Y1230920D02*
X408940Y1229740D01*
X407710Y1182370D02*
Y1186640D01*
X408980Y1187910D01*
Y1189268D01*
X409938Y1190226D01*
X408940Y1192276D02*
X409938Y1191278D01*
Y1190226D02*
Y1191278D01*
X408940Y1192276D02*
Y1213740D01*
X350710Y1136460D02*
X358140Y1129030D01*
X350710Y1136460D02*
Y1144270D01*
X358140Y1129030D02*
X392430D01*
X1163320Y1242060D02*
X1223320D01*
X1139570Y1222470D02*
Y1242060D01*
X1163320D01*
X552196Y832230D02*
X570106D01*
X570486Y831850D01*
Y815750D02*
Y831850D01*
Y815750D02*
X572166Y814070D01*
X561848Y984630D02*
X580971D01*
X583336Y982265D01*
Y981510D02*
Y982265D01*
X562356Y969010D02*
X589788D01*
X592836Y956510D02*
Y965962D01*
X589788Y969010D02*
X592836Y965962D01*
X791664Y914074D02*
X792862Y912876D01*
X791664Y914074D02*
Y936396D01*
X805198Y919270D02*
X811592Y912876D01*
X807230Y919270D02*
Y943882D01*
X848364Y949706D02*
X853444Y944626D01*
X945134Y933576D02*
X960964D01*
X962264Y932276D01*
X955294Y939246D02*
X960964Y933576D01*
X955294Y939246D02*
Y957996D01*
X962264Y932276D02*
X962914D01*
X945134Y917576D02*
X961614D01*
X962914Y918876D01*
X945134Y904876D02*
Y917576D01*
Y904876D02*
X946024Y903986D01*
X917444Y944626D02*
X933834D01*
X944884Y933576D01*
X945134D01*
X807230Y943882D02*
X809244Y945896D01*
X816664D01*
X955040Y560270D02*
Y589280D01*
X927660Y616660D02*
X955040Y589280D01*
X872830Y616660D02*
X927660D01*
X872830Y560790D02*
Y597460D01*
X872490Y560450D02*
X872830Y560790D01*
X409550Y1084780D02*
Y1094130D01*
X405130Y1098550D02*
X409550Y1094130D01*
X392430Y1098550D02*
X405130D01*
X390550Y1100430D02*
Y1109780D01*
Y1100430D02*
X392430Y1098550D01*
X409550Y1068680D02*
Y1084780D01*
X406400Y1065530D02*
X409550Y1068680D01*
X390550Y1067980D02*
Y1084780D01*
Y1067980D02*
X393000Y1065530D01*
X400050Y1109780D02*
Y1121410D01*
X392430Y1129030D02*
X400050Y1121410D01*
X408940Y1213740D02*
X409830Y1212850D01*
X1183130Y862300D02*
X1290340D01*
X1291580Y861060D01*
X1191840Y617220D02*
X1200150D01*
X1206500Y623570D01*
X1198880Y654050D02*
X1206500Y646430D01*
Y623570D02*
Y646430D01*
X1179830Y654050D02*
X1198880D01*
X1170940Y662940D02*
Y746760D01*
Y662940D02*
X1179830Y654050D01*
X1070630Y734080D02*
X1094740Y758190D01*
X1159510D01*
X1170940Y746760D01*
X1155700Y754380D02*
X1165860Y744220D01*
X1102360Y754380D02*
X1155700D01*
X1165860Y656590D02*
Y744220D01*
X1160780Y651510D02*
Y742950D01*
X1104900Y750570D02*
X1153160D01*
X1160780Y742950D01*
X1150620Y746760D02*
X1156970Y740410D01*
X1108710Y746760D02*
X1150620D01*
X1092630Y738300D02*
X1104900Y750570D01*
X1103630Y741680D02*
X1108710Y746760D01*
X1103630Y723800D02*
Y741680D01*
X1156970Y621030D02*
Y740410D01*
X1081903Y733923D02*
X1102360Y754380D01*
X1070630Y723800D02*
Y734080D01*
X1081903Y724073D02*
Y733923D01*
X1081630Y723800D02*
X1081903Y724073D01*
X1173480Y604520D02*
X1191840D01*
X1156970Y621030D02*
X1173480Y604520D01*
X1160780Y651510D02*
X1179830Y632460D01*
X1189300D01*
X1191840Y629920D01*
X1165860Y656590D02*
X1178560Y643890D01*
X1092630Y723800D02*
Y738300D01*
X1114630Y698930D02*
X1146810Y666750D01*
Y578200D02*
Y666750D01*
X1114630Y698930D02*
Y723800D01*
X1190570Y643890D02*
X1191840Y642620D01*
X1178560Y643890D02*
X1190570D01*
X1162050Y578200D02*
X1190920D01*
X1146810D02*
X1162050D01*
X1190920D02*
X1191840Y579120D01*
X552530Y486330D02*
X575310D01*
X549910Y488950D02*
X552530Y486330D01*
X533400Y472820D02*
X549910D01*
X532130D02*
X533400D01*
X566420Y481330D02*
X575310D01*
X562610Y477520D02*
X566420Y481330D01*
X557910Y472820D02*
X562610Y477520D01*
X549910Y472820D02*
X557910D01*
X601762Y464602D02*
X603490Y466330D01*
X605410Y444310D02*
Y454372D01*
X601762Y458020D02*
X605410Y454372D01*
X601762Y458020D02*
Y464602D01*
X603490Y466330D02*
X619310D01*
X585080Y444310D02*
X605410D01*
X585030Y444260D02*
X585080Y444310D01*
X605790Y424560D02*
Y443930D01*
X605410Y444310D02*
X605790Y443930D01*
X728060Y1145540D02*
X745370D01*
X748030Y1148200D01*
X794000D01*
X796150Y1150350D01*
X748030Y1163200D02*
X796000D01*
X796150Y1163050D01*
X728060Y1165860D02*
X745370D01*
X748030Y1163200D01*
X323090Y963730D02*
X323400Y964040D01*
X363220Y921170D02*
Y927100D01*
X356590Y933730D02*
X363220Y927100D01*
X323090Y933730D02*
X356590D01*
X358742Y818840D02*
X359990D01*
X358252Y818350D02*
X358742Y818840D01*
X362770Y843350D02*
X363220Y842900D01*
X295910Y843350D02*
X362770D01*
D16*
X609950Y1167780D02*
X611460Y1169290D01*
X613644D01*
X609950Y1149450D02*
Y1167780D01*
X613644Y1169290D02*
X614436Y1170082D01*
X660532D01*
X712190Y1221740D01*
X864870Y413130D02*
X878463D01*
X883163Y417830D01*
X883412D01*
X967740Y413130D02*
X988955D01*
X994415Y407670D01*
X994664D01*
X760095Y1225423D02*
X775716Y1241044D01*
X756412Y1221740D02*
X760095Y1225423D01*
X759460Y1226058D02*
Y1242980D01*
Y1226058D02*
X760095Y1225423D01*
X794356Y1241044D02*
X796150Y1239250D01*
X775716Y1241044D02*
X794356D01*
X712190Y1221740D02*
X756412D01*
X614910Y1144490D02*
X615950D01*
X609950Y1149450D02*
X614910Y1144490D01*
X618490Y1084880D02*
Y1105950D01*
X615950Y1108490D02*
X618490Y1105950D01*
X602336Y956510D02*
X602744Y956918D01*
X623066D01*
X623474Y957326D01*
X592836Y925830D02*
Y956510D01*
X852634Y945436D02*
X853444Y944626D01*
X818790Y945436D02*
X852634D01*
D19*
X586486Y831850D02*
D03*
X570486D02*
D03*
X946024Y903986D02*
D03*
X962024D02*
D03*
X1027810Y928370D02*
D03*
X1011810D02*
D03*
X1021208Y986282D02*
D03*
X1037208D02*
D03*
X1260730Y1099820D02*
D03*
X1276730D02*
D03*
X1260730Y1125220D02*
D03*
X1276730D02*
D03*
X778130Y444500D02*
D03*
X794130D02*
D03*
X762380D02*
D03*
X746380D02*
D03*
X605410Y444310D02*
D03*
X621410D02*
D03*
X392050D02*
D03*
X1003810Y1242060D02*
D03*
X1123570D02*
D03*
X872870Y579120D02*
D03*
X856870D02*
D03*
X1139570Y1242060D02*
D03*
X1019810D02*
D03*
X408050Y444310D02*
D03*
D20*
X606206Y822960D02*
D03*
X632806D02*
D03*
D21*
X962914Y932276D02*
D03*
Y918876D02*
D03*
X646684Y1072484D02*
D03*
Y1059084D02*
D03*
X624078Y1183482D02*
D03*
Y1170082D02*
D03*
X589280Y1066450D02*
D03*
Y1079850D02*
D03*
X759460Y1242980D02*
D03*
Y1256380D02*
D03*
X817626Y973486D02*
D03*
Y986886D02*
D03*
X429260Y1096930D02*
D03*
X492760Y986440D02*
D03*
X1019810Y1208690D02*
D03*
X1139190D02*
D03*
X1162050Y564800D02*
D03*
X1146810D02*
D03*
X646430Y493618D02*
D03*
X1139190Y1222090D02*
D03*
X1019810D02*
D03*
X429260Y1110330D02*
D03*
X646430Y480218D02*
D03*
X492760Y999840D02*
D03*
X1162050Y578200D02*
D03*
X1146810D02*
D03*
D22*
X552196Y832230D02*
D03*
Y816230D02*
D03*
X408940Y1213740D02*
D03*
Y1229740D02*
D03*
X1035558Y1003682D02*
D03*
Y1019682D02*
D03*
X945134Y933576D02*
D03*
Y917576D02*
D03*
X549910Y488950D02*
D03*
Y504950D02*
D03*
X533400Y472820D02*
D03*
Y456820D02*
D03*
Y504570D02*
D03*
Y488570D02*
D03*
X549910Y456820D02*
D03*
Y472820D02*
D03*
X741680Y498220D02*
D03*
Y482220D02*
D03*
X605790Y408560D02*
D03*
Y424560D02*
D03*
X427990Y408560D02*
D03*
Y424560D02*
D03*
X363220Y842900D02*
D03*
Y858900D02*
D03*
Y818260D02*
D03*
Y802260D02*
D03*
X872490Y544450D02*
D03*
X351790Y449200D02*
D03*
X864870Y413130D02*
D03*
X967740D02*
D03*
X872490Y560450D02*
D03*
X351790Y465200D02*
D03*
X864870Y397130D02*
D03*
X967740D02*
D03*
D23*
X583788Y814070D02*
D03*
X570388D02*
D03*
X623474Y957326D02*
D03*
X636874D02*
D03*
X596550Y1167130D02*
D03*
X609950D02*
D03*
X714660Y1165860D02*
D03*
X728060D02*
D03*
X714660Y1145540D02*
D03*
X728060D02*
D03*
X751490Y535940D02*
D03*
X764890D02*
D03*
X585030Y444260D02*
D03*
X571630D02*
D03*
X362870Y996950D02*
D03*
X442310Y444260D02*
D03*
X376270Y996950D02*
D03*
X406400Y1065530D02*
D03*
X393000D02*
D03*
X428910Y444260D02*
D03*
D24*
X592836Y861830D02*
D03*
Y925830D02*
D03*
D25*
X561848Y984630D02*
D03*
Y968630D02*
D03*
D26*
X583336Y956510D02*
D03*
X592836D02*
D03*
X602336D02*
D03*
Y981510D02*
D03*
X592836D02*
D03*
X583336D02*
D03*
X1029208Y945302D02*
D03*
X1019658Y966302D02*
D03*
X1038758D02*
D03*
D27*
X608990Y1084880D02*
D03*
X618490D02*
D03*
X627990D02*
D03*
Y1058880D02*
D03*
X618490D02*
D03*
X608990D02*
D03*
D28*
X615950Y1144490D02*
D03*
Y1108490D02*
D03*
D29*
X714860Y1125728D02*
D03*
X727860D02*
D03*
X714606Y1082040D02*
D03*
X727606D02*
D03*
X714606Y1104900D02*
D03*
X727606D02*
D03*
X714606Y1064260D02*
D03*
X727606D02*
D03*
X364340Y659130D02*
D03*
X377340D02*
D03*
X1139040Y400050D02*
D03*
X1152040D02*
D03*
X1117750Y398780D02*
D03*
X1104750D02*
D03*
X1071730Y397510D02*
D03*
X1084730D02*
D03*
D30*
X748030Y1148200D02*
D03*
Y1163200D02*
D03*
D31*
X868650Y1174750D02*
D03*
Y1188750D02*
D03*
X882650D02*
D03*
Y1174750D02*
D03*
Y1160750D02*
D03*
X868650D02*
D03*
X854650D02*
D03*
Y1174750D02*
D03*
Y1188750D02*
D03*
D32*
X971150Y1251950D02*
D03*
Y1239250D02*
D03*
Y1226550D02*
D03*
Y1213850D02*
D03*
Y1201150D02*
D03*
Y1188450D02*
D03*
Y1175750D02*
D03*
Y1163050D02*
D03*
Y1150350D02*
D03*
Y1137650D02*
D03*
Y1124950D02*
D03*
Y1112250D02*
D03*
Y1099550D02*
D03*
Y1086850D02*
D03*
X796150D02*
D03*
Y1099550D02*
D03*
Y1112250D02*
D03*
Y1124950D02*
D03*
Y1137650D02*
D03*
Y1150350D02*
D03*
Y1163050D02*
D03*
Y1175750D02*
D03*
Y1188450D02*
D03*
Y1201150D02*
D03*
Y1213850D02*
D03*
Y1226550D02*
D03*
Y1239250D02*
D03*
Y1251950D02*
D03*
D33*
X940800Y1074350D02*
D03*
X928100D02*
D03*
X915400D02*
D03*
X902700D02*
D03*
X890000D02*
D03*
X877300D02*
D03*
X864600D02*
D03*
X851900D02*
D03*
X839200D02*
D03*
X826500D02*
D03*
D34*
X353210Y1170470D02*
D03*
D35*
X384960Y1163320D02*
D03*
D36*
X407710Y1182370D02*
D03*
Y1169670D02*
D03*
Y1156970D02*
D03*
Y1144270D02*
D03*
D37*
X350710D02*
D03*
D38*
X347710Y1156970D02*
D03*
Y1169670D02*
D03*
Y1182370D02*
D03*
D39*
X387260Y1250950D02*
D03*
X407760D02*
D03*
D40*
X790830Y912876D02*
D03*
X806830D02*
D03*
D41*
X1059630Y901800D02*
D03*
X1070630D02*
D03*
X1081630D02*
D03*
X1092630D02*
D03*
X1103630D02*
D03*
X1114630D02*
D03*
X1125630D02*
D03*
X1136630D02*
D03*
X1147630D02*
D03*
Y723800D02*
D03*
X1136630D02*
D03*
X1125630D02*
D03*
X1114630D02*
D03*
X1103630D02*
D03*
X1092630D02*
D03*
X1081630D02*
D03*
X1070630D02*
D03*
X1059630D02*
D03*
D42*
X1183130Y873300D02*
D03*
Y862300D02*
D03*
Y851300D02*
D03*
Y840300D02*
D03*
Y829300D02*
D03*
Y818300D02*
D03*
Y807300D02*
D03*
Y796300D02*
D03*
Y785300D02*
D03*
Y774300D02*
D03*
Y763300D02*
D03*
Y752300D02*
D03*
X1024130D02*
D03*
Y763300D02*
D03*
Y774300D02*
D03*
Y785300D02*
D03*
Y796300D02*
D03*
Y807300D02*
D03*
Y818300D02*
D03*
Y829300D02*
D03*
Y840300D02*
D03*
Y851300D02*
D03*
Y862300D02*
D03*
Y873300D02*
D03*
D43*
X1301750Y1101180D02*
D03*
Y1080680D02*
D03*
X1300480Y1150710D02*
D03*
Y1130210D02*
D03*
D44*
X1320840Y672370D02*
D03*
X1232840D02*
D03*
X1320840Y549370D02*
D03*
X1232840D02*
D03*
D45*
X1191840Y642620D02*
D03*
Y617220D02*
D03*
Y591820D02*
D03*
Y629920D02*
D03*
Y604520D02*
D03*
Y579120D02*
D03*
D46*
X1173480Y399650D02*
D03*
Y413150D02*
D03*
D47*
X1168400Y469160D02*
D03*
Y440160D02*
D03*
D48*
X368300Y583790D02*
D03*
Y627790D02*
D03*
D49*
X761140Y468220D02*
D03*
X767640D02*
D03*
X774140D02*
D03*
X780640D02*
D03*
Y512220D02*
D03*
X774140D02*
D03*
X767640D02*
D03*
X761140D02*
D03*
D50*
X496980Y408940D02*
D03*
X452980D02*
D03*
X535530D02*
D03*
X579530D02*
D03*
X677320D02*
D03*
X633320D02*
D03*
X754790D02*
D03*
X710790D02*
D03*
X789530D02*
D03*
X833530D02*
D03*
X359000D02*
D03*
X403000D02*
D03*
D51*
X1130300Y440240D02*
D03*
X1117600D02*
D03*
X1104900D02*
D03*
X1092200D02*
D03*
Y494480D02*
D03*
X1104900D02*
D03*
X1117600D02*
D03*
X1130300D02*
D03*
D52*
X337820Y844106D02*
D03*
Y848106D02*
D03*
Y816800D02*
D03*
Y812800D02*
D03*
D53*
X619310Y486330D02*
D03*
Y481330D02*
D03*
X575310Y476330D02*
D03*
Y486330D02*
D03*
Y481330D02*
D03*
Y471330D02*
D03*
Y466330D02*
D03*
X619310D02*
D03*
Y471330D02*
D03*
Y476330D02*
D03*
D54*
X354330Y1066390D02*
D03*
Y1110390D02*
D03*
D55*
X469900Y1052020D02*
D03*
Y1109520D02*
D03*
D56*
X400050Y1084780D02*
D03*
X390550D02*
D03*
X409550D02*
D03*
Y1109780D02*
D03*
X400050D02*
D03*
X390550D02*
D03*
D57*
X816664Y935888D02*
D03*
X791664D02*
D03*
Y945388D02*
D03*
Y954888D02*
D03*
X816664D02*
D03*
Y945388D02*
D03*
D58*
X955294Y984596D02*
D03*
Y957996D02*
D03*
D59*
X323090Y983230D02*
D03*
Y919230D02*
D03*
Y975230D02*
D03*
Y927230D02*
D03*
D60*
X345440Y910340D02*
D03*
X382270Y963418D02*
D03*
X382524Y920754D02*
D03*
X382270Y950218D02*
D03*
X382524Y933954D02*
D03*
X345440Y923540D02*
D03*
D61*
X361990Y980860D02*
D03*
X363220Y910170D02*
D03*
X361990Y969860D02*
D03*
X363220Y921170D02*
D03*
D62*
X413389Y999091D02*
D03*
Y986391D02*
D03*
Y973691D02*
D03*
Y960991D02*
D03*
Y948291D02*
D03*
Y935591D02*
D03*
Y922891D02*
D03*
Y910191D02*
D03*
X468389D02*
D03*
Y922891D02*
D03*
Y935591D02*
D03*
Y948291D02*
D03*
Y960991D02*
D03*
Y973691D02*
D03*
Y986391D02*
D03*
Y999091D02*
D03*
D63*
X1070610Y1198560D02*
D03*
X1193320D02*
D03*
Y1248560D02*
D03*
X1070610D02*
D03*
D64*
X1100610Y1205060D02*
D03*
X1040610D02*
D03*
X1223320D02*
D03*
X1163320D02*
D03*
Y1242060D02*
D03*
X1223320D02*
D03*
X1100610D02*
D03*
X1040610D02*
D03*
D65*
X1306830Y847580D02*
D03*
Y877080D02*
D03*
D66*
X1220040Y366014D02*
D03*
X1198040Y375514D02*
D03*
Y356514D02*
D03*
D67*
X851830Y607060D02*
D03*
X872830Y616660D02*
D03*
Y597460D02*
D03*
D68*
X853444Y944626D02*
D03*
X917444D02*
D03*
D69*
X323090Y953730D02*
D03*
Y958730D02*
D03*
Y963730D02*
D03*
Y968730D02*
D03*
Y948730D02*
D03*
Y943730D02*
D03*
Y938730D02*
D03*
Y933730D02*
D03*
D70*
X1291580Y862330D02*
D03*
D138*
X916432Y964692D02*
Y1001522D01*
Y964692D02*
X919226Y961898D01*
X1184910Y928370D02*
Y974370D01*
X1158340Y901800D02*
X1184910Y928370D01*
X1147630Y901800D02*
X1158340D01*
X1136630D02*
X1147630D01*
X1184910Y974370D02*
X1185405Y974865D01*
X1274585D01*
X1275080Y975360D01*
D139*
X821182Y1198166D02*
X968166D01*
X971150Y1201150D01*
X1276730Y1099820D02*
X1278090Y1101180D01*
X1301750D01*
X1276730Y1125220D02*
X1295403D01*
X1300393Y1130210D01*
X1300480D01*
X1183792Y356514D02*
X1198040D01*
X1179830Y352552D02*
X1183792Y356514D01*
X1179830Y306070D02*
Y352552D01*
X1164590Y290830D02*
X1179830Y306070D01*
X1104900Y320810D02*
X1134880Y290830D01*
X1164590D01*
X1197938Y375412D02*
X1198040Y375514D01*
X1147826Y375412D02*
X1197938D01*
X1139040Y384198D02*
Y400050D01*
Y384198D02*
X1147826Y375412D01*
X437134Y666750D02*
X517652Y747268D01*
X437134Y550544D02*
Y666750D01*
X576580Y762508D02*
X752348D01*
X575564Y763524D02*
X576580Y762508D01*
X716788Y948436D02*
Y960882D01*
Y948436D02*
X774954Y890270D01*
X771108Y1013714D02*
X800079D01*
X769620Y1015202D02*
Y1015492D01*
Y1015202D02*
X771108Y1013714D01*
X839200Y1052835D02*
Y1074350D01*
X800079Y1013714D02*
X839200Y1052835D01*
X810276Y1112250D02*
X814578Y1107948D01*
X796150Y1112250D02*
X810276D01*
X814578Y1056640D02*
Y1107948D01*
X799846Y1041908D02*
X814578Y1056640D01*
X751586Y1016000D02*
X771602Y1036016D01*
X711200Y1007872D02*
X726694D01*
X734822Y1016000D01*
X704850Y1030732D02*
X727606Y1053488D01*
X771602Y1036016D02*
X812750D01*
X978154Y729234D02*
X1020318Y687070D01*
X895604Y729234D02*
X978154D01*
X796150Y1124950D02*
X796642Y1124458D01*
X795372Y1125728D02*
X796150Y1124950D01*
X796642Y1124458D02*
X826262D01*
X812750Y1036016D02*
X832104Y1055370D01*
X729742Y1041908D02*
X799846D01*
X728218Y960882D02*
X728472Y961136D01*
X728218Y951230D02*
Y960882D01*
Y951230D02*
X788670Y890778D01*
X774954Y832612D02*
Y890270D01*
X788670Y836168D02*
Y890778D01*
Y836168D02*
X895604Y729234D01*
X1020318Y645414D02*
Y687070D01*
X1130300Y494480D02*
Y535432D01*
X1020318Y645414D02*
X1130300Y535432D01*
X719328Y1017016D02*
Y1031494D01*
X729742Y1041908D01*
X727606Y1064260D02*
Y1082040D01*
X704850Y1014222D02*
Y1030732D01*
X727606Y1053488D02*
Y1064260D01*
X704850Y1014222D02*
X711200Y1007872D01*
X774954Y832612D02*
X885698Y721868D01*
X752362Y817612D02*
Y885671D01*
X763016Y826008D02*
Y889000D01*
X702310Y949706D02*
X763016Y889000D01*
X740664Y812800D02*
Y896366D01*
X1011174Y641604D02*
Y677962D01*
X967268Y721868D02*
X1011174Y677962D01*
X885698Y721868D02*
X967268D01*
X879856Y709168D02*
X965200D01*
X1002792Y671576D01*
X763016Y826008D02*
X879856Y709168D01*
X960120Y694690D02*
X991616Y663194D01*
X875284Y694690D02*
X960120D01*
X955929Y682879D02*
X981456Y657352D01*
X1002792Y641096D02*
Y671576D01*
X991616Y471932D02*
Y663194D01*
X981456Y473710D02*
Y657352D01*
X904876Y397130D02*
X981456Y473710D01*
X991616Y471932D02*
X1012444Y451104D01*
X1002792Y641096D02*
X1092200Y551688D01*
X1011174Y641604D02*
X1117600Y535178D01*
X870585Y682879D02*
X955929D01*
X1092200Y494480D02*
Y551688D01*
X1117600Y494480D02*
Y535178D01*
X1104900Y494480D02*
X1117600D01*
X702310Y949706D02*
Y961136D01*
X685800Y1011936D02*
Y1162304D01*
X703834Y1180338D01*
X752362Y817612D02*
X875284Y694690D01*
X673862Y1012190D02*
Y1162304D01*
X700008Y1188450D01*
X740664Y812800D02*
X870585Y682879D01*
X659892Y454152D02*
X660146Y454406D01*
X659892Y435512D02*
Y454152D01*
X651105Y310000D02*
X656513Y315409D01*
X498195Y300482D02*
X641587D01*
X651105Y310000D01*
Y310000D01*
X656513Y315409D02*
Y346787D01*
X477867Y320810D02*
X498195Y300482D01*
X643050Y418670D02*
X659892Y435512D01*
X643050Y418420D02*
Y418670D01*
X633570Y408940D02*
X643050Y418420D01*
X633320Y408940D02*
X633570D01*
X796420Y1137920D02*
X848868D01*
X857504Y1101344D02*
Y1129284D01*
X848868Y1137920D02*
X857504Y1129284D01*
X796150Y1137650D02*
X796420Y1137920D01*
X700008Y1188450D02*
X796150D01*
X703834Y1180338D02*
X767588D01*
X1012444Y412750D02*
Y451104D01*
X996824Y397130D02*
X1012444Y412750D01*
X967740Y397130D02*
X996824D01*
X772176Y1175750D02*
X796150D01*
X767588Y1180338D02*
X772176Y1175750D01*
X750316Y1104900D02*
X757936Y1112520D01*
X727606Y1104900D02*
X750316D01*
X727860Y1125728D02*
X795372D01*
X757936Y1112520D02*
X795880D01*
X727606Y1082040D02*
X751078D01*
X768604Y1099566D01*
X796134D01*
X864870Y397130D02*
X904876D01*
X851703Y607187D02*
X851830Y607060D01*
X833501Y607187D02*
X851703D01*
X833374Y607314D02*
X833501Y607187D01*
X741680Y473710D02*
X748030Y467360D01*
X760280D01*
X741680Y473710D02*
Y482220D01*
X760280Y467360D02*
X761140Y468220D01*
X633320Y369980D02*
X656513Y346787D01*
X633320Y369980D02*
Y408940D01*
X594614Y795782D02*
X594796Y795964D01*
Y828730D01*
X596138Y830072D01*
X377340Y659130D02*
X407924Y689714D01*
X355270Y468680D02*
X437134Y550544D01*
X407924Y689714D02*
Y858774D01*
X970150Y1238250D02*
X971150Y1239250D01*
X906018Y1238250D02*
X970150D01*
X893000Y1226550D02*
X971150D01*
X890778Y1227836D02*
X891714D01*
X893000Y1226550D01*
X845312Y1207516D02*
X933683D01*
X940017Y1213850D01*
X413571Y986209D02*
X435175D01*
X435356Y986028D01*
X413389Y986391D02*
X413571Y986209D01*
X413443Y973636D02*
X435302D01*
X435356Y973582D01*
X413389Y973691D02*
X413443Y973636D01*
X492011Y999091D02*
X492760Y999840D01*
X468389Y999091D02*
X492011D01*
X468389D02*
Y1015479D01*
X460502Y1023366D02*
X468389Y1015479D01*
X348234Y1008888D02*
X362712Y1023366D01*
X460502D01*
X341246Y975230D02*
X348234Y982218D01*
Y1008888D01*
X323090Y975230D02*
X341246D01*
X609720Y1138260D02*
X615950Y1144490D01*
X591906Y1138260D02*
X609720D01*
X570738Y1117092D02*
X591906Y1138260D01*
X570738Y1061720D02*
X576580Y1055878D01*
X570738Y1061720D02*
Y1117092D01*
X576580Y1055878D02*
X607510D01*
X608990Y1057358D02*
Y1058880D01*
X607510Y1055878D02*
X608990Y1057358D01*
X351790Y465200D02*
X352040D01*
X355270Y468430D01*
Y468680D01*
X796134Y1099566D02*
X796150Y1099550D01*
X795880Y1112520D02*
X796150Y1112250D01*
X363600Y817880D02*
X387858D01*
X363220Y818260D02*
X363600Y817880D01*
X492760Y999840D02*
X493364Y999236D01*
X940017Y1213850D02*
X971150D01*
X400957Y960991D02*
X413389D01*
X397510Y964438D02*
X400957Y960991D01*
X388112Y996950D02*
X397510Y987552D01*
Y964438D02*
Y987552D01*
X376270Y996950D02*
X388112D01*
X294640Y950595D02*
Y963930D01*
Y937260D02*
Y950595D01*
X295910Y793350D02*
X354060D01*
X362970Y802260D01*
X363220D01*
X1071880Y397660D02*
Y453390D01*
X1079500Y461010D02*
X1123950D01*
X1071880Y453390D02*
X1079500Y461010D01*
X1123950D02*
X1130300Y454660D01*
X1071730Y397510D02*
X1071880Y397660D01*
X1130300Y440240D02*
Y454660D01*
X1168400Y440160D02*
X1173480Y435080D01*
X1168320Y440240D02*
X1168400Y440160D01*
X1173480Y413150D02*
Y435080D01*
X1130300Y440240D02*
X1168320D01*
X1152660Y323850D02*
X1155700Y320810D01*
X1140460Y323850D02*
X1152660D01*
X1134110Y330200D02*
X1140460Y323850D01*
X1117750Y380850D02*
X1134110Y364490D01*
Y330200D02*
Y364490D01*
X1117750Y380850D02*
Y398780D01*
X1104900Y320810D02*
X1110301D01*
X1117712Y328221D01*
X1120701D01*
X1123950Y331470D01*
Y358140D01*
X1104750Y377340D02*
X1123950Y358140D01*
X1104750Y377340D02*
Y398780D01*
X1117750D02*
X1137770D01*
X1139040Y400050D01*
X1117600Y398930D02*
Y440240D01*
Y398930D02*
X1117750Y398780D01*
X1084730Y397510D02*
X1103480D01*
X1104750Y398780D01*
X1104900Y398930D02*
Y440240D01*
X1104750Y398780D02*
X1104900Y398930D01*
X967740Y335280D02*
Y397130D01*
Y335280D02*
X981710Y321310D01*
X864870Y328930D02*
Y397130D01*
X857250Y321310D02*
X864870Y328930D01*
X566350Y466020D02*
X575310D01*
X427990Y433950D02*
Y443340D01*
Y424560D02*
Y433950D01*
X561340Y461010D02*
X566350Y466020D01*
X561340Y445770D02*
Y461010D01*
X427990Y433950D02*
X549520D01*
X561340Y445770D01*
X533780Y488950D02*
X549910D01*
X533400Y488570D02*
X533780Y488950D01*
X748440Y512220D02*
X761140D01*
X741680Y505460D02*
X748440Y512220D01*
X741680Y498220D02*
Y505460D01*
X775970Y446660D02*
Y455930D01*
X774140Y457760D02*
Y468220D01*
Y457760D02*
X775970Y455930D01*
Y446660D02*
X778130Y444500D01*
X767200Y457880D02*
Y467780D01*
X767640Y468220D01*
X762380Y453060D02*
X767200Y457880D01*
X762380Y444500D02*
Y453060D01*
X794130Y413540D02*
Y444500D01*
X789530Y408940D02*
X794130Y413540D01*
X746380Y417350D02*
Y444500D01*
Y417350D02*
X754790Y408940D01*
X787400Y406810D02*
X789530Y408940D01*
X787400Y321310D02*
Y406810D01*
X736600Y321310D02*
X740410Y325120D01*
Y355600D01*
X754790Y369980D02*
Y408940D01*
X740410Y355600D02*
X754790Y369980D01*
X605713Y408483D02*
X605790Y408560D01*
X605713Y320810D02*
Y408483D01*
X579530Y408940D02*
X605410D01*
X605790Y408560D01*
X477867Y320810D02*
Y352713D01*
X452980Y377600D02*
Y408940D01*
Y377600D02*
X477867Y352713D01*
X408050Y444310D02*
X428860D01*
X428910Y444260D01*
X427990Y443340D02*
X428910Y444260D01*
X427067Y407637D02*
X427990Y408560D01*
X427067Y320810D02*
Y407637D01*
X403000Y408940D02*
X427610D01*
X427990Y408560D01*
X364340Y631750D02*
Y659130D01*
Y631750D02*
X368300Y627790D01*
X312420Y659130D02*
X364340D01*
X312920Y458470D02*
X329951D01*
X336681Y465200D01*
X351790D01*
X339980Y449200D02*
X351790D01*
X313510Y422730D02*
X339980Y449200D01*
X312920Y407670D02*
X313510Y408260D01*
Y422730D01*
X323090Y927230D02*
X342150D01*
X345440Y923940D01*
Y923540D02*
Y923940D01*
X294640Y963930D02*
X299720Y969010D01*
X315812Y974040D02*
X321900D01*
X294640Y937260D02*
X299720Y932180D01*
X321900Y974040D02*
X323090Y975230D01*
X299720Y932180D02*
X312052D01*
X299720Y969010D02*
X310782D01*
X315812Y974040D01*
Y928420D02*
X321900D01*
X323090Y927230D01*
X312052Y932180D02*
X315812Y928420D01*
D140*
X383032Y939921D02*
X406711D01*
X353405D02*
X383032D01*
X382524Y935482D02*
Y939413D01*
X383032Y939921D01*
X380894Y943961D02*
X406711D01*
X355078D02*
X380894D01*
X382270Y945337D02*
Y949202D01*
X380894Y943961D02*
X382270Y945337D01*
X323090Y953730D02*
X345309D01*
X349418Y949620D01*
X355078Y943961D01*
X352753Y956765D02*
X353060Y957072D01*
X352753Y952955D02*
Y956765D01*
X349418Y949620D02*
X352753Y952955D01*
X335212Y943730D02*
X336503Y942439D01*
X340515D02*
X341376Y941578D01*
X343635Y949690D02*
X353405Y939921D01*
X330903Y949690D02*
X343635D01*
X336503Y942439D02*
X340515D01*
X323090Y948730D02*
X323300Y948940D01*
X330153D02*
X330903Y949690D01*
X313807Y948730D02*
X323090D01*
Y943730D02*
X335212D01*
X323300Y948940D02*
X330153D01*
X312928Y949609D02*
X313807Y948730D01*
X312928Y949609D02*
Y955802D01*
X312888Y955842D02*
Y957085D01*
Y955842D02*
X312928Y955802D01*
X314534Y958730D02*
X323090D01*
X312888Y957085D02*
X314534Y958730D01*
X407605Y937939D02*
Y939026D01*
X406711Y939921D02*
X407605Y939026D01*
X409953Y935591D02*
X413389D01*
X407605Y937939D02*
X409953Y935591D01*
Y948291D02*
X413389D01*
X407605Y945943D02*
X409953Y948291D01*
X407605Y944855D02*
Y945943D01*
X406711Y943961D02*
X407605Y944855D01*
D141*
X712190Y1221740D02*
D03*
D142*
X677190D02*
D03*
X499110Y1220470D02*
D03*
X1275080Y1010360D02*
D03*
X1184910Y1009370D02*
D03*
D143*
X656513Y320810D02*
D03*
X605713D02*
D03*
X554913D02*
D03*
X1206500D02*
D03*
X1155700D02*
D03*
X1104900D02*
D03*
X312920Y509270D02*
D03*
X376267Y320810D02*
D03*
X312920Y407670D02*
D03*
Y458470D02*
D03*
X427067Y320810D02*
D03*
X477867D02*
D03*
D144*
X736600Y321310D02*
D03*
X857250D02*
D03*
X981710D02*
D03*
D145*
X787400D02*
D03*
X908050D02*
D03*
X1032510D02*
D03*
X312420Y608330D02*
D03*
X303530Y1078230D02*
D03*
D146*
X295910Y843350D02*
D03*
X1292690Y729580D02*
D03*
D147*
X295910Y818350D02*
D03*
Y768350D02*
D03*
Y793350D02*
D03*
X1292690Y779580D02*
D03*
Y804580D02*
D03*
Y754580D02*
D03*
D148*
X317290Y994480D02*
D03*
Y907980D02*
D03*
D149*
X275590Y994480D02*
D03*
Y907980D02*
D03*
D150*
X955040Y636270D02*
D03*
Y560270D02*
D03*
X916432Y1001522D02*
D03*
D151*
X1289050Y1225550D02*
D03*
X298450Y298450D02*
D03*
X1289050D02*
D03*
X298450Y1225550D02*
D03*
D152*
X312420Y659130D02*
D03*
X303530Y1129030D02*
D03*
D153*
X499110Y1170470D02*
D03*
X1275080Y975360D02*
D03*
X1184910Y974370D02*
D03*
D154*
X312390Y980130D02*
D03*
Y922330D02*
D03*
X821182Y1198166D02*
D03*
X341376Y941578D02*
D03*
X353060Y957072D02*
D03*
X517652Y747268D02*
D03*
X575564Y763524D02*
D03*
X752348Y762508D02*
D03*
X716788Y960882D02*
D03*
X769620Y1015492D02*
D03*
X1209892Y760347D02*
D03*
X1210056Y789940D02*
D03*
X1209294Y776986D02*
D03*
X1002284Y852932D02*
D03*
X1008380Y898906D02*
D03*
X856488Y562102D02*
D03*
X911098Y760476D02*
D03*
X698754Y1115568D02*
D03*
X660400Y1114806D02*
D03*
X826262Y1124458D02*
D03*
X832104Y1055370D02*
D03*
X751586Y1016000D02*
D03*
X728472Y961136D02*
D03*
X734822Y1016000D02*
D03*
X719328Y1017016D02*
D03*
X702310Y961136D02*
D03*
X740664Y896366D02*
D03*
X752362Y885671D02*
D03*
X685800Y1011936D02*
D03*
X673862Y1012190D02*
D03*
X659892Y477012D02*
D03*
X660146Y454406D02*
D03*
X857504Y1101344D02*
D03*
X773430Y955548D02*
D03*
X833374Y607314D02*
D03*
X594614Y795782D02*
D03*
X343662Y868680D02*
D03*
X935736Y1114806D02*
D03*
X906018Y1238250D02*
D03*
X890778Y1227836D02*
D03*
X845312Y1207516D02*
D03*
X897382Y1114552D02*
D03*
X447040Y996696D02*
D03*
X1003300Y1220470D02*
D03*
X745490Y1233678D02*
D03*
X1001268Y1258316D02*
D03*
X818896Y1226550D02*
D03*
X764794Y556006D02*
D03*
X517144Y455422D02*
D03*
X549402Y521716D02*
D03*
X883412Y417830D02*
D03*
X994664Y407670D02*
D03*
X389382Y842518D02*
D03*
X435356Y986028D02*
D03*
Y973582D02*
D03*
X407924Y858774D02*
D03*
X930402Y903478D02*
D03*
X601726Y997204D02*
D03*
X552704Y848868D02*
D03*
X489458Y961390D02*
D03*
X387858Y817880D02*
D03*
X1160272Y1224534D02*
D03*
X998982Y1077214D02*
D03*
D155*
X835914Y1190752D02*
D03*
X897382Y1188974D02*
D03*
Y1176782D02*
D03*
X884682Y1145540D02*
D03*
X869188Y1146556D02*
D03*
X855980D02*
D03*
X838200Y1172718D02*
D03*
X838708Y1160780D02*
D03*
X699008Y1152144D02*
D03*
X754380Y1061974D02*
D03*
X658114Y1079246D02*
D03*
X651764Y1104646D02*
D03*
X661416Y1092962D02*
D03*
X648208Y1091692D02*
D03*
X668528Y1208024D02*
D03*
X664718Y1234440D02*
D03*
X658114Y1220724D02*
D03*
X476758Y1237488D02*
D03*
X513588Y1235710D02*
D03*
X477266Y1210564D02*
D03*
X498094Y1206754D02*
D03*
X497586Y1236726D02*
D03*
X519176Y1220470D02*
D03*
X472948Y1222756D02*
D03*
X449326Y1034034D02*
D03*
X472440Y1034288D02*
D03*
X488188Y1034034D02*
D03*
X277622Y1072134D02*
D03*
X276352Y1057910D02*
D03*
X277876Y1048766D02*
D03*
X292608Y1045972D02*
D03*
X276098Y753618D02*
D03*
X275082Y769620D02*
D03*
X411988Y593598D02*
D03*
X411480Y628904D02*
D03*
X287020Y598424D02*
D03*
X288036Y617728D02*
D03*
X287528Y535178D02*
D03*
X285496Y510032D02*
D03*
X375920Y354330D02*
D03*
X374904Y292862D02*
D03*
X520192Y359918D02*
D03*
X539496D02*
D03*
X555244D02*
D03*
X1146810Y419100D02*
D03*
X1087882Y419608D02*
D03*
M02*
