M48
;Layer_Color=9474304
;FILE_FORMAT=4:4
METRIC,LZ
;TYPE=PLATED
T01F00S00C0.2500
T02F00S00C0.3000
T03F00S00C0.5000
T05F00S00C0.8000
T06F00S00C0.8500
T07F00S00C1.0000
T08F00S00C1.5000
T09F00S00C1.6500
T10F00S00C3.0000
;TYPE=NON_PLATED
T11F00S00C0.6000
%
T01
X0075438Y01061974
T02
X00354931Y00299111
X00376348
Y00342038
X00354931
Y00320701
X00397764Y00320294
Y00299111
Y00342038
X00532731Y00341783
Y00320448
Y00298857
X00554147
X00575564
Y0032004
Y00341783
X00554147
X00689356Y00331216
Y00319532
Y00307848
X00702056Y0030734
Y00319024
Y00330708
X00885283Y00321972
Y00343307
X009067
X00928116
Y00321564
Y00300382
X009067
X00885283
X01010759Y0029962
X01032176
X01053592
Y00320802
Y00342546
X01032176
X01010759
Y00321209
X01187543Y00318669
Y00340005
Y0029708
X0120896
X01230376
Y00318262
Y00340005
X0120896
X01219962Y00531622
X01231646
X0124333
X01244346Y00690626
X01232662
X01220978
X01209892Y00760347
X01209294Y00776986
X01210056Y0078994
X01311656Y00740918
Y00729234
Y0071755
X01061466Y00785368
X0104902Y00785622
X00911098Y00760476
X00938623Y0065268
Y00636423
Y00619913
X00954959
X00971296
Y00636016
Y0065268
X00954959
X00798576Y00654812
X00799084Y00667512
X00833374Y00607314
X00856488Y00562102
X00868934Y00490728
X00880618
X00892302
X00891794Y00478028
X0088011
X00868426
X00883412Y0041783
X00979932Y00437896
X00992632Y00437388
X00994664Y0040767
X0108585Y00412242
X01086358Y00424942
X01138936Y00419608
X01151636Y004191
X00772668Y00490982
X00776986Y00540004
X00775208Y00654812
X00786892
X007874Y00667512
X00775716
X00752348Y00762508
X00697484Y00723646
X006858
X00674116
X00673608Y00710946
X00685292
X00696976
X00575564Y00763524
X00517652Y00747268
X00465836Y00752856
Y0076454
Y00776224
X00453136Y00776732
Y00765048
Y00753364
X00549402Y00521716
X00517144Y00455422
X00660146Y00454406
X00659892Y00477012
X00334772Y00487071
Y00508254
Y00529997
X00313356
X00291939
Y00508661
Y00487071
X00313356
X00311324Y00585369
X0033274
Y00606552
Y00628296
X00311324
X00289907
Y00606959
Y00585369
X0029337Y00737108
X00281686
X00282194Y00749808
X00293878
X00305562
X00305054Y00737108
X00379984
Y00748792
Y00760476
X00392684Y00759968
Y00748284
Y007366
X00387858Y0081788
X00389382Y00842518
X00343662Y0086868
X00341376Y00941578
X0035306Y00957072
X00282956Y00960882
Y00949198
Y00937514
X00270256Y00938022
Y00949706
Y0096139
X00289306Y010541
X0030099
X00312674
X00281432Y01065276
Y0107696
Y01088644
X0042926Y01080516
Y01068832
Y01057148
X00456946Y01034542
X0046863
X00480314
X0044704Y00996696
X00435356Y00986028
Y00973582
X0043434Y00941832
Y00930148
Y00918464
X0044704Y00917956
Y0092964
Y00941324
X00489458Y0096139
X0050927Y0087122
Y00859536
Y00847852
X0052197Y00847344
Y00859028
Y00870712
X00552704Y00848868
X00581406Y00891032
X0059309
X00604774
X00605282Y00903732
X00593598
X00581914
X00601726Y00997204
X00653034Y01014984
X00673862Y0101219
X006858Y01011936
X00719328Y01017016
X00734822Y01016
X00751586
X0076962Y01015492
X0077343Y00955548
X00728472Y00961136
X00716788Y00960882
X0070231Y00961136
X00740664Y00896366
X00752362Y00885671
X00700278Y0084709
Y00835406
Y00823722
X00687578Y0082423
Y00835914
Y00847598
X00594614Y00795782
X00407924Y00858774
X006604Y01114806
X00698754Y01115568
X00826262Y01124458
X00840486Y01148588
Y01160272
Y01171956
X00855726Y01147572
X0086741
X00879094
X00897382Y01114552
X00935736Y01114806
X00937006Y01154938
Y01166622
Y01178306
X0106172Y01163828
X01073404
X01085088
X01107186
X0111887
X01130554
X01166876Y01164844
X0117856
X01190244
X01183306Y01023266
X01169509
Y01009296
Y00995325
X01183306
X01128522Y00876808
X01116838
X01105154
X01104646Y00861568
X0111633
X01128014
X01157732Y00819404
Y0080772
Y00796036
X01061466Y00797052
Y00808736
X0104902Y0080899
Y00797306
X01002284Y00852932
X0100838Y00898906
X00966724Y00885444
X0095504
X00943356
X00942848Y00872744
X00954532
X00966216
X00930402Y00903478
X00887984Y00930148
Y00941832
Y00953516
X00875284Y00954024
Y0094234
Y00930656
X00945896Y0100584
X0095758
X00969264
Y01019556
X0095758
X00945896
X00998982Y01077214
X00857504Y01101344
X00832104Y0105537
X01197102Y01023266
Y01008888
Y00995325
X01260441Y00996341
X01274238
X01288034
Y01009904
Y01024281
X01274238
X01260441
Y01010312
X01291336Y00916432
Y00904748
Y00893064
X01274318Y00873252
X01259942
X01245565
X01231189
X01216812
X01202436
Y00851662
X01216812
X01231189
X01245565
X01259942
X01274318
X01160272Y01224534
X010033Y0122047
X01001268Y01258316
X00906018Y0123825
X00890778Y01227836
X0086868Y01226566
X00856996
X00845312
Y01207516
X00821182Y01198166
X00818896Y0122655
X00685038Y01235964
X00672338
X00659638
Y0122428
Y01212596
X00565658Y01227074
X00513241Y01234186
X00499445
X00485648
Y01220216
Y01206246
X00499445
X00513241
Y01219809
T03
X0060452Y00844804
T05
X0095504Y0056027
Y0063627
X0049911Y0117047
Y0122047
T06
X0118491Y0097437
Y0100937
X0127508Y0101036
Y0097536
X0071219Y0122174
X0067719
T07
X0129269Y0072958
Y0075458
Y0077958
X0029591Y0076835
Y0079335
Y0081835
Y0084335
X00916432Y01001522
X0129269Y0080458
T08
X00376267Y0032081
X00427067
X00477867
X00554913
X00605713
X00656513
X011049
X011557
X012065
X0031292Y0040767
Y0045847
Y0050927
T09
X007366Y0032131
X007874
X0085725
X0090805
X0098171
X0103251
X0031242Y0060833
Y0065913
X0030353Y0107823
Y0112903
T10
X0029845Y0029845
X0128905
Y0122555
X0029845
T11
X0031239Y0092233
Y0098013
M30
