M48
;Layer_Color=9474304
;FILE_FORMAT=4:4
METRIC,LZ
;TYPE=PLATED
T01F00S00C0.2500
T02F00S00C0.3000
T04F00S00C0.8000
T05F00S00C0.8500
T06F00S00C1.0000
T07F00S00C1.5000
T08F00S00C1.6500
T09F00S00C3.0000
;TYPE=NON_PLATED
T10F00S00C0.6000
%
T01
X00374904Y00292862
X0037592Y0035433
X00520192Y00359918
X00539496
X00555244
X01087882Y00419608
X0114681Y004191
X00411988Y00593598
X0041148Y00628904
X00288036Y00617728
X0028702Y00598424
X00287528Y00535178
X00285496Y00510032
X00276098Y00753618
X00275082Y0076962
X00277876Y01048766
X00276352Y0105791
X00277622Y01072134
X00292608Y01045972
X00449326Y01034034
X0047244Y01034288
X00488188Y01034034
X00658114Y01079246
X00661416Y01092962
X00648208Y01091692
X00651764Y01104646
X00699008Y01152144
X0075438Y01061974
X00838708Y0116078
X008382Y01172718
X0085598Y01146556
X00869188
X00884682Y0114554
X00897382Y01176782
Y01188974
X00835914Y01190752
X00668528Y01208024
X00658114Y01220724
X00664718Y0123444
X00513588Y0123571
X00497586Y01236726
X00476758Y01237488
X00472948Y01222756
X00477266Y01210564
X00498094Y01206754
X00519176Y0122047
T02
X01209892Y00760347
X01209294Y00776986
X01210056Y0078994
X00911098Y00760476
X00833374Y00607314
X00856488Y00562102
X00883412Y0041783
X00994664Y0040767
X00764794Y00556006
X00659892Y00477012
X00660146Y00454406
X00517144Y00455422
X00549402Y00521716
X00517652Y00747268
X00575564Y00763524
X00752348Y00762508
X00387858Y0081788
X00389382Y00842518
X00343662Y0086868
X00341376Y00941578
X0035306Y00957072
X00435356Y00973582
Y00986028
X0044704Y00996696
X00489458Y0096139
X00601726Y00997204
X00673862Y0101219
X006858Y01011936
X00719328Y01017016
X00734822Y01016
X00751586
X0076962Y01015492
X0077343Y00955548
X00728472Y00961136
X00716788Y00960882
X0070231Y00961136
X00740664Y00896366
X00752362Y00885671
X00552704Y00848868
X00594614Y00795782
X00407924Y00858774
X006604Y01114806
X00698754Y01115568
X00826262Y01124458
X00857504Y01101344
X00897382Y01114552
X00935736Y01114806
X00998982Y01077214
X0100838Y00898906
X01002284Y00852932
X00930402Y00903478
X00832104Y0105537
X00821182Y01198166
X00818896Y0122655
X00845312Y01207516
X00890778Y01227836
X00906018Y0123825
X010033Y0122047
X01001268Y01258316
X01160272Y01224534
X0074549Y01233678
T04
X0095504Y0056027
Y0063627
X0049911Y0117047
Y0122047
T05
X0118491Y0097437
Y0100937
X0127508Y0101036
Y0097536
X0071219Y0122174
X0067719
T06
X0129269Y0072958
Y0075458
Y0077958
X0029591Y0076835
Y0079335
Y0081835
Y0084335
X00916432Y01001522
X0129269Y0080458
T07
X00376267Y0032081
X00427067
X00477867
X00554913
X00605713
X00656513
X011049
X011557
X012065
X0031292Y0040767
Y0045847
Y0050927
T08
X007366Y0032131
X007874
X0085725
X0090805
X0098171
X0103251
X0031242Y0060833
Y0065913
X0030353Y0107823
Y0112903
T09
X0029845Y0029845
X0128905
Y0122555
X0029845
T10
X0031239Y0092233
Y0098013
M30
